
<svg xmlns="http://www.w3.org/2000/svg" version="1.1" xmlns:xlink="http://www.w3.org/1999/xlink" preserveAspectRatio="none" x="0px" y="0px" width="1565px" height="873px" viewBox="0 0 1565 873">
<defs>
<linearGradient id="Gradient_1" gradientUnits="userSpaceOnUse" x1="0" y1="4.9" x2="7.4" y2="4.9" spreadMethod="pad">
<stop  offset="0%" stop-color="#846918"/>

<stop  offset="14.117647058823529%" stop-color="#9E7D1C"/>

<stop  offset="41.1764705882353%" stop-color="#C89D21"/>

<stop  offset="65.09803921568627%" stop-color="#E6B526"/>

<stop  offset="85.09803921568627%" stop-color="#F8C328"/>

<stop  offset="100%" stop-color="#FFC829"/>
</linearGradient>

<linearGradient id="Gradient_2" gradientUnits="userSpaceOnUse" x1="21.087499999999995" y1="-11.2375" x2="58.5125" y2="38.2375" spreadMethod="pad">
<stop  offset="0%" stop-color="#7D879C"/>

<stop  offset="65.88235294117646%" stop-color="#C8CEDB" stop-opacity="0"/>

<stop  offset="100%" stop-color="#E2E7F4" stop-opacity="0"/>
</linearGradient>

<filter id="Filter_1" x="-20%" y="-20%" width="140%" height="140%" color-interpolation-filters="sRGB">
<feColorMatrix in="SourceGraphic" type="matrix" values="1 0 0 0 0 0 1 0 0 0 0 0 1 0 0 0 0 0 0.2 0" result="result1"/>
</filter>

<filter id="Filter_2" x="-20%" y="-20%" width="140%" height="140%" color-interpolation-filters="sRGB">
<feColorMatrix in="SourceGraphic" type="matrix" values="1 0 0 0 0 0 1 0 0 0 0 0 1 0 0 0 0 0 0.6 0" result="result1"/>
</filter>

<filter id="Filter_3" x="-20%" y="-20%" width="140%" height="140%" color-interpolation-filters="sRGB">
<feColorMatrix in="SourceGraphic" type="matrix" values="1 0 0 0 0 0 1 0 0 0 0 0 1 0 0 0 0 0 0.33 0" result="result1"/>
</filter>

<g id="Mask_3_MASK_0_FILL">
<path fill="#FFFFFF" stroke="none" d="
M 1124.15 -0.45
Q 1124.1232421875 -0.419921875 1124.1 -0.4 1084.9998046875 20.55 1045.2 42 965.5833984375 84.8017578125 962.1 87.05 958.5984375 89.346484375 959.45 92.95 959.93125 94.75390625 961.1 96.05
L 961.1 96.1
Q 1043.423046875 144.998828125 1049.3 148.6 1052.9640625 150.81328125 1052.95 154.3 1052.9791015625 155.99921875 1052.25 157.25
L 944.75 218.55
Q 944.701171875 218.5654296875 944.65 218.6 944.6599609375 218.649609375 944.65 218.7 944.68828125 218.733984375 944.7 218.75
L 952.9 224
Q 952.9599609375 224.020703125 953 224 953.0265625 224.0208984375 953.05 224
L 961.15 219.8 971.85 227.55 971.85 233.75
Q 971.880078125 233.7767578125 971.9 233.8 971.9068359375 233.830078125 971.9 233.85
L 982.75 241.05
Q 982.8095703125 241.0720703125 982.85 241.05 982.88984375 241.0720703125 982.9 241.05
L 1069.75 188.95
Q 1069.793359375 188.9306640625 1069.8 188.9 1069.8205078125 188.876953125 1069.8 188.85
L 1070.15 150.9 1089.1 140.1
Q 1089.1490234375 140.0849609375 1089.15 140.05 1089.1904296875 140.0001953125 1089.15 139.95 1089.16171875 139.9154296875 1089.1 139.9 1072.975 130.1 1056.05 119.7 1022.64765625 99.258203125 1018.4 96.35 1060.56015625 38.70703125 1108.65 25.8 1123.71171875 21.778515625 1137.55 22.65 1144.470703125 23.1763671875 1148.35 24.4 1148.4013671875 24.432421875 1148.45 24.4
L 1195.65 -0.2
Q 1195.69765625 -0.2154296875 1195.7 -0.25 1195.7390625 -0.2861328125 1195.7 -0.35 1195.71171875 -0.3701171875 1195.65 -0.4 1195.6419921875 -0.42578125 1195.6 -0.45
L 1124.15 -0.45
M 1124.15 -0.2
L 1195.1 -0.2 1148.4 24.15
Q 1144.5005859375 22.921484375 1137.55 22.4 1123.68828125 21.5212890625 1108.6 25.55 1060.383984375 38.4810546875 1018.15 96.3 1018.1291015625 96.3595703125 1018.1 96.4 1018.1162109375 96.4263671875 1018.1 96.45 1018.143359375 96.4806640625 1018.15 96.5 1022.0728515625 99.198828125 1055.9 119.9 1072.7423828125 130.24921875 1088.8 140
L 1070 150.75
Q 1069.9689453125 150.7564453125 1069.95 150.75 1069.929296875 150.81015625 1069.9 150.85
L 1069.55 188.75 982.85 240.8 972.1 233.65 972.1 227.5
Q 972.1193359375 227.4736328125 972.1 227.45 972.0927734375 227.4205078125 972.05 227.4
L 961.25 219.55
Q 961.2408203125 219.528515625 961.2 219.5 961.1732421875 219.5279296875 961.15 219.55
L 953 223.75 945 218.65 1052.4 157.45
Q 1052.4310546875 157.4435546875 1052.45 157.4 1053.2208984375 156.0923828125 1053.2 154.3 1053.2357421875 150.6865234375 1049.45 148.4 1043.5755859375 144.800390625 961.25 95.9 960.1640625 94.6283203125 959.7 92.9 958.9013671875 89.4533203125 962.25 87.25 965.717578125 84.9974609375 1045.3 42.2 1085.075390625 20.76328125 1124.15 -0.2
M 1195.1 -0.2
L 1124.15 -0.2
Q 1085.075390625 20.76328125 1045.3 42.2 965.717578125 84.9974609375 962.25 87.25 958.9013671875 89.4533203125 959.7 92.9 960.1640625 94.6283203125 961.25 95.9 1043.5755859375 144.800390625 1049.45 148.4 1053.2357421875 150.6865234375 1053.2 154.3 1053.2208984375 156.0923828125 1052.45 157.4 1052.4310546875 157.4435546875 1052.4 157.45
L 945 218.65 953 223.75 961.15 219.55
Q 961.1732421875 219.5279296875 961.2 219.5 961.2408203125 219.528515625 961.25 219.55
L 972.05 227.4
Q 972.0927734375 227.4205078125 972.1 227.45 972.1193359375 227.4736328125 972.1 227.5
L 972.1 233.65 982.85 240.8 1069.55 188.75 1069.9 150.85
Q 1069.929296875 150.81015625 1069.95 150.75 1069.9689453125 150.7564453125 1070 150.75
L 1088.8 140
Q 1072.7423828125 130.24921875 1055.9 119.9 1022.0728515625 99.198828125 1018.15 96.5 1018.143359375 96.4806640625 1018.1 96.45 1018.1162109375 96.4263671875 1018.1 96.4 1018.1291015625 96.3595703125 1018.15 96.3 1060.383984375 38.4810546875 1108.6 25.55 1123.68828125 21.5212890625 1137.55 22.4 1144.5005859375 22.921484375 1148.4 24.15
L 1195.1 -0.2
M 1454.55 594.1
L 1454.55 594.15 1454.6 594.15 1454.55 594.1
M 1174.55 757.05
L 1174.8 757.25 1255.95 773.3 1256.25 773.25 1472.95 648.6
Q 1473.15 648.45 1473.15 648.25
L 1472.2 634.7 1481.05 628.9 1481.2 628.6 1480.9 622.2
Q 1483.31171875 620.944921875 1486.65 619.3
L 1491.2 617.05 1491.3 617 1491.45 616.9 1492.25 616.6 1492.4 616.5 1492.5 616.5 1492.5 616.45 1492.4 616.45 1492.65 616 1454.6 594.15 1454.55 594.15 1454.55 594.1 1454.5 594.1
Q 1454.49296875 594.10703125 1454.45 594.15
L 1454.4 594.15 1454.3 594.25 1174.7 756.55
Q 1174.35 756.75 1174.55 757.05
M 1255.95 772.4
L 1256.1 772.45 1255.8 772.5 1255.95 772.4 1175.9 756.7 1454.45 594.35 1454.5 594.35 1461.95 598.7 1491.9 616.15 1491.25 616.45 1490.95 616.6 1490.7 616.75 1480.5 621.75
Q 1480.35 621.85 1480.35 622.05
L 1480.55 628.45 1480.7 628.35 1480.55 628.65 1480.55 628.45 1471.7 634.25
Q 1471.55 634.35 1471.55 634.55
L 1472.35 648.05 1255.95 772.4
M 1480.7 628.35
L 1480.55 628.45 1480.55 628.65 1480.7 628.35
M 1490.95 616.6
L 1491.25 616.45 1491.9 616.15 1461.95 598.7 1490.95 616.6
M 1454.5 594.35
L 1454.45 594.35 1490.7 616.75 1490.95 616.6 1461.95 598.7 1454.5 594.35
M 1175.9 756.7
L 1255.95 772.4 1472.35 648.05 1471.55 634.55
Q 1471.55 634.35 1471.7 634.25
L 1480.55 628.45 1480.35 622.05
Q 1480.35 621.85 1480.5 621.75
L 1490.7 616.75 1454.45 594.35 1175.9 756.7
M 1256.1 772.45
L 1255.95 772.4 1255.8 772.5 1256.1 772.45
M 1247.3 465.95
L 1247.3 466.1 1247.3 466.25 1454.3 594.25 1454.4 594.15 1454.45 594.15
Q 1454.49296875 594.10703125 1454.5 594.1
L 1247.3 465.95
M 695.5 122.15
L 695.35 122.1 677.9 125.15 677.85 125.15 677.15 125.6 676.9 125.7 599.05 171.15 341.65 317.4
Q 341.35 317.6 341.55 317.85
L 376.4 351.3
Q 376.55 351.45 376.8 351.35
L 376.8 351.3 413.95 328.1
Q 414.3 327.95 414.1 327.65 413.75 326.6 413.75 325.8
L 413.8 325.55 413.8 325.05 413.85 324.95 413.85 324.85
Q 413.95 324.35 414.15 324 414.3 323.7 414.7 323.3
L 415.5 322.8 416.35 322.5 416.6 322.45 416.85 322.45 417.3 322.4
Q 417.85 322.4 418.2 322.55
L 418.6 322.7 418.9 322.95 418.95 323.05 419 323.1 419.65 324.7 419.7 324.95 419.75 325.05 419.9 325.2 419.95 325.2 420.05 325.25 420.3 325.3 420.5 325.3 420.65 325.25 421.9 324.7 437.25 314.45 437.2 314.45 565.5 240.3 565.5 240.3 565.6 240.25 565.5 240.3 569.05 239.15 569.35 239.15 569.5 239.1 569.65 239.1 570 239.05 571.65 239.05 571.7 239.1
Q 572.85 239.15 574.4 239.6
L 577.3 240.9 577.3 240.95 577.35 240.95 725.95 327.7 727.9 331.2 727.85 331.15 728.05 331.85 728.15 332.55
Q 728.2 333.2 728.05 333.95 727.9 334.65 727.5 335.2 727.25 335.6 726.55 336.3
L 725.8 336.85 725.75 336.9 725.55 337 725.5 337.05 688.85 358.6
Q 688.45 358.9 688.7 359.3
L 688.85 359.45 922.5 497.25
Q 922.8 497.4 923.05 497.25
L 956.75 476.2 1080.65 545.7 879.1 667.2
Q 878.75 667.45 879 667.75 879.1 667.9 879.2 667.9
L 934.2 682.15
Q 934.3 682.2 934.5 682.1
L 994.1 643.95
Q 994.25 643.8 994.25 643.6
L 994.35 642.7 994.6 641.85 994.65 641.8 994.65 641.75 994.85 641.3 995 641.1 995.05 641 995.2 640.85 995.25 640.75 995.5 640.5 995.6 640.45 995.75 640.3 995.85 640.25 995.95 640.15 996.35 639.95 996.45 639.95 996.8 639.85 996.9 639.85 997.05 639.8 997.3 639.8 997.55 639.75 998.5 639.7 999.3 639.9 999.3 639.95 999.35 639.95 999.95 640.4 1009.8 634.1 1235.2 502.95
Q 1235.35 502.9 1235.35 502.7
L 1235.75 479.8 1246.45 474.65
Q 1246.65 474.55 1246.65 474.4
L 1247.3 466.25 1247.3 466.1 1247.3 465.95 1247.7 461.8
Q 1247.7 461.6 1247.5 461.5
L 1231.8 455
Q 1231.5 454.8 1231.4 455.15
L 1231.4 455.2 1231.15 455.95 1231.15 455.95 1231.1 456.1 1231.1 456.15 1231.05 456.2 1231 456.3 1230.9 456.7 1229.35 461.05 1229.4 461.05 1229.3 461.2 1229.35 461.05 1116.7 526.85 1116.85 526.95 1116.6 526.95 1116.7 526.85 959.35 438.7
Q 959.25 438.65 959.1 438.7
L 913.1 464.55 913.25 464.65 913 464.65 913.1 464.55 736.9 363.5 736.9 363.6 736.8 363.45 736.9 363.5 736.65 305.75 737.3 303 737.3 303.05 737.6 302.45 737.75 302.25 737.85 302.05 737.95 301.95 738 301.85 738.15 301.65 738.3 301.5 738.45 301.3 738.6 301.15 738.75 300.95 739.05 300.65 739.25 300.5 739.4 300.35 739.8 300.05 739.95 299.9 740.15 299.75 740.35 299.65 740.55 299.5 740.75 299.4 740.95 299.25 742.85 298.35
Q 743.05 298.25 742.95 298.1
L 742.85 298 616.45 224.45 616.45 224.5 616.4 224.45 616.45 224.45 615.8 223.05
Q 615.55 222.55 615.25 221.55
L 614.65 219 614.65 218.8 614.55 218.4 614.5 216.8 614.75 215.25
Q 615 214.35 615.4 213.85 615.75 213.3 616.5 212.75
L 616.85 212.5 695.25 167.65 695.3 167.5 694.05 150.8 694 150.85 694.05 150.7 694.05 150.8 707.8 143.05 707.85 143.05 707.85 142.9 707.9 142.85 707.85 142.75 695.5 122.15
M 707.4 142.6
L 707.55 142.85 707.5 142.9 693.85 150.6 693.8 150.75 695.05 167.4 695.1 167.4 695.05 167.55 695.05 167.4 616.5 212.35 616.35 212.5
Q 615.7 212.9 615.15 213.65 614.7 214.35 614.45 215.15
L 614.2 216.8 614.25 218.45 614.55 220.05 615.5 223.15 616.2 224.65 616.25 224.7 742.35 298.15 740.55 299.05 740.15 299.35 739.95 299.45 739.35 299.9 739.2 300.05 738.8 300.35 738.65 300.55 738.45 300.7 738.3 300.9 738.15 301.05 738 301.25 737.9 301.35 737.85 301.45 737.7 301.65 737.65 301.75 737.55 301.85 737.45 302.05 737.3 302.25 736.95 302.9 736.95 302.95 736.3 305.7 736.55 363.65
Q 736.55 363.75 736.65 363.8
L 913 465.1 913.25 465.1 959.2 439.2 959.1 439.15 959.35 439.15 959.2 439.2 1116.6 527.4
Q 1116.75 527.5 1116.85 527.4
L 1229.75 461.6 1229.85 461.45 1231.6 456.5 1231.6 456.5 1231.65 456.35 1231.65 456.3 1231.75 456.15 1231.85 455.65 1247 461.95 1246.75 465.6 1246.7 465.9 1246 474.2 1235.3 479.35
Q 1235.1 479.4 1235.1 479.6
L 1234.7 502.45 1234.85 502.4 1234.7 502.65 1234.7 502.45 1008.5 634 999.9 639.45 999.75 639.3 999.75 639.35
Q 999.55 639.15 999.15 639.05
L 998.55 638.95 997.2 639 997.05 639.05 996.95 639.05 996.8 639.1 996.65 639.1 996.4 639.15 995.95 639.3 995.55 639.5 995.45 639.6 995.35 639.65 995.1 639.85 994.6 640.35 994.5 640.5 994.4 640.6 993.95 641.45 993.95 641.5 993.85 641.7 993.6 642.5 993.5 643.35 993.65 643.3 993.5 643.6 993.5 643.35 934.2 681.35 934.35 681.4 934.05 681.45 934.2 681.35 880.3 667.35 1081.75 546.05
Q 1082.2 545.85 1081.9 545.45 1081.9 545.3 1081.75 545.3
L 956.95 475.2
Q 956.7 475.05 956.45 475.2
L 922.75 496.2 690.1 359 726 337.9 726.3 337.75 726.35 337.65 726.55 337.55 727.2 337.05
Q 728 336.25 728.35 335.75 728.85 335 729 334.2 729.2 333.3 729.15 332.45
L 728.8 330.8 728.75 330.75 726.7 327.1 726.55 326.9 577.8 240.15 577.7 240.1 577.65 240.05 577 239.75 576.7 239.55 575 238.85 574.65 238.75
Q 573.25 238.3 571.8 238.2
L 571.7 238.15 569.95 238.15 569.6 238.2 569.4 238.2 569.2 238.25 568.85 238.3 568.8 238.3 565.25 239.45 436.85 313.8 436.8 313.8
Q 432.95 316.6 430.1 318.5
L 421.55 324 420.65 324.45 420.35 324.5 419.8 322.95 419.65 322.7 419.6 322.65 419.6 322.6 419 322.05 418.45 321.8 417.3 321.65 416.75 321.7 416.6 321.7 416.5 321.75 416.25 321.8
Q 415.7 321.85 415.15 322.1 414.6 322.4 414.2 322.7 413.75 323.05 413.5 323.6 413.3 324 413.1 324.7
L 413.1 324.85 413.05 324.95 413.05 325.35 413 325.5 413 325.75
Q 413 326.7763671875 413.3 327.6
L 376.7 350.6 342.35 317.75 599.1 171.3 599.15 171.3 677.15 125.85 677.4 125.7 678 125.4 677.95 125.4 695.3 122.35 707.4 142.6
M 993.65 643.3
L 993.5 643.35 993.5 643.6 993.65 643.3
M 1234.85 502.4
L 1234.7 502.45 1234.7 502.65 1234.85 502.4
M 1246.75 465.6
L 1247 461.95 1231.85 455.65 1231.75 456.15 1231.65 456.3 1246.75 465.6
M 1246.7 465.9
L 1246.75 465.6 1231.65 456.3 1231.65 456.35 1231.6 456.5 1231.6 456.5 1246.7 465.9
M 934.35 681.4
L 934.2 681.35 934.05 681.45 934.35 681.4
M 959.1 439.15
L 959.2 439.2 959.35 439.15 959.1 439.15
M 695.1 167.4
L 695.05 167.4 695.05 167.55 695.1 167.4
M 693.8 150.75
L 693.85 150.6 707.5 142.9 677.15 125.85 599.15 171.3 599.1 171.3 342.35 317.75 376.7 350.6 413.3 327.6
Q 413 326.7763671875 413 325.75
L 413 325.5 413.05 325.35 413.05 324.95 413.1 324.85 413.1 324.7
Q 413.3 324 413.5 323.6 413.75 323.05 414.2 322.7 414.6 322.4 415.15 322.1 415.7 321.85 416.25 321.8
L 416.5 321.75 416.6 321.7 416.75 321.7 417.3 321.65 418.45 321.8 419 322.05 419.6 322.6 419.6 322.65 419.65 322.7 419.8 322.95 420.35 324.5 420.65 324.45 421.55 324 430.1 318.5
Q 432.95 316.6 436.8 313.8
L 436.85 313.8 565.25 239.45 568.8 238.3 568.85 238.3 569.2 238.25 569.4 238.2 569.6 238.2 569.95 238.15 571.7 238.15 571.8 238.2
Q 573.25 238.3 574.65 238.75
L 575 238.85 576.7 239.55 577 239.75 577.65 240.05 577.7 240.1 577.8 240.15 726.55 326.9 726.7 327.1 728.75 330.75 728.8 330.8 729.15 332.45
Q 729.2 333.3 729 334.2 728.85 335 728.35 335.75 728 336.25 727.2 337.05
L 726.55 337.55 726.35 337.65 726.3 337.75 726 337.9 690.1 359 922.75 496.2 956.45 475.2
Q 956.7 475.05 956.95 475.2
L 1081.75 545.3
Q 1081.9 545.3 1081.9 545.45 1082.2 545.85 1081.75 546.05
L 880.3 667.35 934.2 681.35 993.5 643.35 993.6 642.5 993.85 641.7 993.95 641.5 993.95 641.45 994.4 640.6 994.5 640.5 994.6 640.35 995.1 639.85 995.35 639.65 995.45 639.6 995.55 639.5 995.95 639.3 996.4 639.15 996.65 639.1 996.8 639.1 996.95 639.05 997.05 639.05 997.2 639 998.55 638.95 999.15 639.05
Q 999.55 639.15 999.75 639.35
L 999.75 639.3 999.9 639.45 1008.5 634 1234.7 502.45 1235.1 479.6
Q 1235.1 479.4 1235.3 479.35
L 1246 474.2 1246.7 465.9 1231.6 456.5 1229.85 461.45 1229.75 461.6 1116.85 527.4
Q 1116.75 527.5 1116.6 527.4
L 959.2 439.2 913.25 465.1 913 465.1 736.65 363.8
Q 736.55 363.75 736.55 363.65
L 736.3 305.7 736.95 302.95 736.95 302.9 737.3 302.25 737.45 302.05 737.55 301.85 737.65 301.75 737.7 301.65 737.85 301.45 737.9 301.35 738 301.25 738.15 301.05 738.3 300.9 738.45 300.7 738.65 300.55 738.8 300.35 739.2 300.05 739.35 299.9 739.95 299.45 740.15 299.35 740.55 299.05 742.35 298.15 616.25 224.7 616.2 224.65 615.5 223.15 614.55 220.05 614.25 218.45 614.2 216.8 614.45 215.15
Q 614.7 214.35 615.15 213.65 615.7 212.9 616.35 212.5
L 616.5 212.35 695.05 167.4 693.8 150.75
M 707.4 142.6
L 695.3 122.35 677.95 125.4 678 125.4 677.4 125.7 707.4 142.6
M 707.55 142.85
L 707.4 142.6 677.4 125.7 677.15 125.85 707.5 142.9 707.55 142.85
M 1124.35 345.1
Q 1123.7498046875 342.7400390625 1125.65 341.5
L 1152.15 324.35 1118.2 301.25 1089.15 318.7 1089.5 363.6
Q 1089.5048828125 363.6287109375 1089.45 363.65
L 1085.3 367.1 1101.7 377.05 1101.35 367.8
Q 1101.378515625 367.7732421875 1101.4 367.75 1101.4060546875 367.7185546875 1101.4 367.7
L 1121.75 355.6
Q 1121.81015625 355.5783203125 1121.85 355.55 1121.8900390625 355.5783203125 1121.9 355.6
L 1141.9 368.05
Q 1141.943359375 368.0693359375 1141.95 368.1 1141.9703125 368.1228515625 1141.95 368.15
L 1141.95 400.8 1231.15 455.95 1231.15 455.95 1231.4 455.2 1231.4 455.15
Q 1231.5 454.8 1231.8 455
L 1247.5 461.5
Q 1247.7 461.6 1247.7 461.8
L 1247.3 465.95 1454.5 594.1 1454.55 594.1 1454.6 594.15 1492.65 616 1492.4 616.45 1492.5 616.45 1492.5 616.5 1492.4 616.5 1492.25 616.6 1491.45 616.9 1564.35 662 1570.55 611.9 1558.9 613.45
Q 1558.8720703125 613.4771484375 1558.8 613.45
L 1125.35 347.25 1125.35 347.2
Q 1124.6837890625 346.3025390625 1124.35 345.1
M 1124.6 345.05
Q 1124.05 342.859765625 1125.8 341.7
L 1152.4 324.45 1152.3 324.45 1152.25 324.4 1152.15 324.35 1125.65 341.5
Q 1123.7498046875 342.7400390625 1124.35 345.1 1124.6837890625 346.3025390625 1125.35 347.2
L 1125.35 347.25 1558.8 613.45
Q 1558.8720703125 613.4771484375 1558.9 613.45
L 1570.55 611.9 1564.35 662 1491.45 616.9 1491.3 617 1491.2 617.05 1564.35 662.3
Q 1564.4220703125 662.3263671875 1564.45 662.3 1564.5185546875 662.325390625 1564.55 662.3 1564.5751953125 662.26875 1564.55 662.2
L 1570.8 611.75
Q 1570.82421875 611.735546875 1570.8 611.7 1570.7833984375 611.6666015625 1570.75 611.65 1570.7140625 611.62578125 1570.65 611.6
L 1558.9 613.2 1125.5 347.05
Q 1124.9115234375 346.179296875 1124.6 345.05
M 1118.2 301.25
L 1118.1 301.2 1118.1 301.05 1088.95 318.55
Q 1088.9564453125 318.569140625 1088.95 318.6 1088.929296875 318.623046875 1088.9 318.65
L 1089.25 363.5 1085 367.05
Q 1084.9890625 367.0810546875 1084.95 367.1 1084.9623046875 367.16328125 1084.95 367.2 1084.990234375 367.233203125 1085 367.25
L 1101.75 377.4
Q 1101.8220703125 377.4287109375 1101.85 377.4 1101.9208984375 377.4142578125 1101.95 377.35 1101.9783203125 377.3423828125 1101.95 377.3
L 1101.6 367.85 1121.85 355.85 1141.7 368.2 1141.7 400.9
Q 1141.7294921875 400.926953125 1141.75 400.95 1141.7564453125 400.98046875 1141.75 401
L 1231.05 456.2 1231.1 456.15 1231.1 456.1 1231.15 455.95 1141.95 400.8 1141.95 368.15
Q 1141.9703125 368.1228515625 1141.95 368.1 1141.943359375 368.0693359375 1141.9 368.05
L 1121.9 355.6
Q 1121.8900390625 355.5783203125 1121.85 355.55 1121.81015625 355.5783203125 1121.75 355.6
L 1101.4 367.7
Q 1101.4060546875 367.7185546875 1101.4 367.75 1101.378515625 367.7732421875 1101.35 367.8
L 1101.7 377.05 1085.3 367.1 1089.45 363.65
Q 1089.5048828125 363.6287109375 1089.5 363.6
L 1089.15 318.7 1118.2 301.25
M 1120 299.9
L 1119.95 299.95 1120 299.95 1120 299.9
M 1121.85 298.8
Q 1121.8220703125 298.8236328125 1121.75 298.85
L 1120.55 299.55 1121.9 298.8 1121.85 298.8
M 1135.65 196.5
L 1135.65 196.4 1135.75 196.55 1135.65 196.5 1136.3 199.6 1136.4 199.75 1206.75 240.65
Q 1207.45 241.15 1207.8 241.55 1208.3 242.05 1208.5 242.7 1208.75 243.2 1208.75 244.05
L 1208.75 244.7 1208.6 245.4 1208.15 246.75
Q 1207.614453125 248.11328125 1206.75 249.1
L 1121.95 298.8 1121.9 298.8 1120.55 299.55
Q 1120.3927734375 299.6859375 1120.2 299.8
L 1120 299.9 1120 299.9 1120 299.95 1119.95 299.95 1119.95 299.95 1118.1 301.05 1118.1 301.05 1118.1 301.2 1118.2 301.25 1152.15 324.35 1152.25 324.4 1152.3 324.45 1152.4 324.45 1152.5 324.45 1218.1 286.3
Q 1218.25 286.15 1218.25 286
L 1218.1 262.7 1245.45 248.35 1271.55 263.55 1271.7 280.15
Q 1271.7 280.3 1271.9 280.5
L 1390 351.1
Q 1390.3 351.25 1390.5 351.1
L 1566.8 252.35
Q 1567.05 252.2 1567.05 251.9
L 1566.15 212.95
Q 1566.15 212.45 1565.7 212.55
L 1565.5 212.6 1384.4 314.1 1109.9 151.9
Q 1109.7 151.8 1109.6 151.95
L 1109.55 152.1 1109.6 184.6 1109.65 184.8 1116.35 189.35
Q 1116.55 189.45 1116.6 189.3
L 1119.65 186.7 1135.65 196.5
M 1136 196.35
L 1135.9 196.2 1119.8 186.3
Q 1119.6 186.2 1119.55 186.35
L 1116.5 188.9 1109.95 184.45 1110 152.45 1384.25 314.85
Q 1384.45 314.95 1384.6 314.85
L 1565.3 213.7 1566.1 251.65 1390.3 350.1 1272.55 279.85 1272.4 263.35
Q 1272.3 263.1 1272.2 263.05
L 1245.65 247.6
Q 1245.5 247.5 1245.3 247.6
L 1217.6 262.25
Q 1217.45 262.35 1217.45 262.55
L 1217.6 285.85 1155.65 322.15 1154.4 322.85 1152.45 324 1152.5 324.1 1152.35 324.1 1152.45 324 1118.35 301.15 1119.95 300.2 1120 300.15 1120.05 300.15 1120.1 300.1 1121 299.6 1121.7 299.2 1121.8 299.1 1121.85 299.1 1122.1 298.95 1206.9 249.35 1206.95 249.3
Q 1207.8 248.3 1208.45 246.85
L 1208.8 245.85 1208.9 245.45 1209.05 244
Q 1209.05 243.15 1208.8 242.6 1208.5 241.85 1208 241.35 1207.65 240.85 1206.9 240.4
L 1136.6 199.45 1136.65 199.55 1136.55 199.4 1136.6 199.45 1136 196.35
M 1152.45 324
L 1152.35 324.1 1152.5 324.1 1152.45 324
M 1136.65 199.55
L 1136.6 199.45 1136.55 199.4 1136.65 199.55
M 1120.1 300.1
L 1120.05 300.15 1120 300.15 1120 300.15
Q 1120.077734375 300.18203125 1120.1 300.15
L 1121 299.6 1120.1 300.1
M 1122.1 298.95
L 1121.85 299.1 1121.8 299.1 1155.35 322.25 1154.4 322.85 1155.65 322.15 1122.1 298.95
M 1121.8 299.1
L 1121.7 299.2 1121 299.6 1120.1 300.15
Q 1120.077734375 300.18203125 1120 300.15
L 1120 300.15 1119.95 300.2 1118.35 301.15 1152.45 324 1154.4 322.85 1155.35 322.25 1121.8 299.1
M 1135.9 196.2
L 1136 196.35 1136.6 199.45 1206.9 240.4
Q 1207.65 240.85 1208 241.35 1208.5 241.85 1208.8 242.6 1209.05 243.15 1209.05 244
L 1208.9 245.45 1208.8 245.85 1208.45 246.85
Q 1207.8 248.3 1206.95 249.3
L 1206.9 249.35 1122.1 298.95 1155.65 322.15 1217.6 285.85 1217.45 262.55
Q 1217.45 262.35 1217.6 262.25
L 1245.3 247.6
Q 1245.5 247.5 1245.65 247.6
L 1272.2 263.05
Q 1272.3 263.1 1272.4 263.35
L 1272.55 279.85 1390.3 350.1 1566.1 251.65 1565.3 213.7 1384.6 314.85
Q 1384.45 314.95 1384.25 314.85
L 1110 152.45 1109.95 184.45 1116.5 188.9 1119.55 186.35
Q 1119.6 186.2 1119.8 186.3
L 1135.9 196.2
M 538.6 -4.8
L 471.15 -0.55 677.15 125.6 677.85 125.15 677.9 125.15 695.35 122.1 695.5 122.15 707.85 142.75 712.65 140.5 712.7 140.5
Q 712.739453125 140.5302734375 712.75 140.55
L 735.05 154 853 222.1 860.15 216.9
Q 860.20859375 216.8755859375 860.25 216.85 860.2912109375 216.8755859375 860.3 216.9
L 869.4 223.4 881.7 216.95 881.7 209.8
Q 881.7296875 209.773046875 881.75 209.75 881.756640625 209.71953125 881.75 209.7
L 886.85 206.5 538.6 -4.8
M 470.6 -0.6
Q 470.640234375 -0.566796875 470.65 -0.55
L 676.9 125.7 677.15 125.6 471.15 -0.55 538.6 -4.8 886.85 206.5 881.75 209.7
Q 881.756640625 209.71953125 881.75 209.75 881.7296875 209.773046875 881.7 209.8
L 881.7 216.95 869.4 223.4 860.3 216.9
Q 860.2912109375 216.8755859375 860.25 216.85 860.20859375 216.8755859375 860.15 216.9
L 853 222.1 735.05 154 712.75 140.55
Q 712.739453125 140.5302734375 712.7 140.5
L 712.65 140.5 707.85 142.75 707.9 142.85 707.85 142.9 707.85 143.05 707.8 143.05 707.85 143.05 712.7 140.8 734.9 154.2 734.95 154.2 852.95 222.35
Q 852.97265625 222.3728515625 853 222.35 853.041015625 222.3724609375 853.05 222.35
L 860.25 217.15 869.3 223.65
Q 869.359375 223.6716796875 869.4 223.65 869.4267578125 223.6720703125 869.45 223.65
L 881.9 217.1
Q 881.93125 217.094140625 881.95 217.05 881.971484375 217.0396484375 881.95 217
L 881.95 209.85 887.15 206.6
Q 887.211328125 206.5837890625 887.2 206.55 887.2396484375 206.5 887.2 206.45 887.2111328125 206.415625 887.15 206.4
L 538.7 -5
Q 538.690234375 -5.023828125 538.65 -5.05
L 470.75 -0.8
Q 470.7078125 -0.7744140625 470.65 -0.75 470.6392578125 -0.719140625 470.6 -0.7 470.6123046875 -0.63671875 470.6 -0.6 Z"/>
</g>

<g id="car_blu_front_svg_0_Layer0_0_MEMBER_0_FILL">
<path fill="#14367C" stroke="none" d="
M 57.4 45.15
Q 57 45.2 56.7 45.6 56.1 47.95 56 50.25 55.85 53.2 56.65 55.9 57 56.85 58.1 57.35 59.05 57.65 60 57 60.85 56.4 61.3 55.4 62.3 53.2 61.7 50.9 60.9 48.5 59.3 46.25 58.3 44.9 57.4 45.15 Z"/>
</g>

<g id="car_blu_front_svg_0_Layer0_0_MEMBER_1_FILL">
<path fill="#3D79F2" stroke="none" d="
M 59.3 46.25
Q 58.3 44.9 57.4 45.15 57.05 45.25 56.8 45.5 57.3 50.05 61.25 55.4 62.35 53.2 61.65 50.9 60.85 48.5 59.3 46.25 Z"/>
</g>

<g id="car_blu_front_svg_0_Layer0_0_MEMBER_2_FILL">
<path fill="#26231F" stroke="none" d="
M 113.5 120.95
L 100.85 112.4 73.25 121.85 109.4 142.7 117.7 130.1 113.5 120.95 Z"/>
</g>

<g id="car_blu_front_svg_0_Layer0_0_MEMBER_3_FILL">
<path fill="#26231F" stroke="none" d="
M 221.65 78.3
L 224.75 73.3
Q 227.05 69.65 227.3 65.35 227.6 61.05 225.75 57.2
L 225.4 56.35 212.75 47.8 185.2 57.3 221.65 78.3 Z"/>
</g>

<g id="car_blu_front_svg_0_Layer0_0_MEMBER_4_FILL">
<path fill="#26231F" stroke="none" d="
M 72.15 149
Q 72.15 154.95 75.8 157.15
L 83.75 161.75 101.8 130.75 93.9 126.15
Q 92.2 125.1 89.9 125.3 87.5 125.5 84.9 127 79.65 130 75.9 136.45 72.2 142.9 72.15 149 Z"/>
</g>

<g id="car_blu_front_svg_0_Layer0_0_MEMBER_5_FILL">
<path fill="#3F3932" stroke="none" d="
M 92.85 131.55
Q 87.6 134.6 83.9 141.05 80.15 147.5 80.15 153.55 80.15 159.65 83.85 161.75 87.55 163.9 92.85 160.85 98.1 157.85 101.8 151.4 105.5 144.95 105.5 138.85 105.5 132.8 101.8 130.65 98.1 128.5 92.85 131.55 Z"/>
</g>

<g id="car_blu_front_svg_0_Layer0_0_MEMBER_6_MEMBER_0_FILL">
<path fill="#D8D8D8" stroke="none" d="
M 93.15 136.3
Q 89.55 138.25 86.9 142.7 84.35 147.1 84.25 151.3 84.2 155.5 86.75 157.1 89.25 158.7 92.85 156.7 96.45 154.7 99.05 150.25 101.7 145.85 101.75 141.7 101.85 137.5 99.3 135.95 96.8 134.35 93.15 136.3 Z"/>
</g>

<g id="car_blu_front_svg_0_Layer0_0_MEMBER_6_MEMBER_1_FILL">
<path fill="#A8A8A8" stroke="none" d="
M 93.15 137.7
Q 90.05 139.45 87.8 143.2 85.55 147 85.5 150.6 85.45 154.25 87.65 155.6 89.8 156.95 92.9 155.25 96 153.55 98.25 149.75 100.45 145.95 100.5 142.3 100.6 138.65 98.4 137.3 96.25 136 93.15 137.7 Z"/>
</g>

<g id="car_blu_front_svg_0_Layer0_0_MEMBER_6_MEMBER_2_FILL">
<path fill="#D8D8D8" stroke="none" d="
M 92.65 141.25
Q 90.75 142.45 89.6 144.4 88.45 146.35 88.35 148.55 88.3 150.6 89.55 151.4 90.75 152.2 92.5 151.2 94.4 149.95 95.55 148.05 96.7 146.1 96.8 143.85 96.8 141.8 95.6 141.05 94.4 140.3 92.65 141.25 Z"/>
</g>

<g id="car_blu_front_svg_0_Layer0_0_MEMBER_6_MEMBER_3_FILL">
<path fill="#BEBEBE" stroke="none" d="
M 95.55 148
Q 96.7 146.05 96.8 143.8 96.85 141.75 95.65 141 94.4 140.25 92.65 141.2 90.6 142.4 89.5 144.55 88.9 145.65 88.65 146.55 88.35 147.55 88.35 148.55
L 88.35 148.85
Q 88.45 150.75 89.6 151.4 90.8 152.05 92.5 151.1 94.4 149.9 95.55 148 Z"/>
</g>

<g id="car_blu_front_svg_0_Layer0_0_MEMBER_7_FILL">
<path fill="#26231F" stroke="none" d="
M 196.05 62.85
Q 190.8 65.9 187.1 72.3 183.35 78.75 183.35 84.85 183.35 90.8 187 93
L 195 97.55 213 66.6 205.05 62
Q 203.35 60.95 201 61.15 198.65 61.35 196.05 62.85 Z"/>
</g>

<g id="car_blu_front_svg_0_Layer0_0_MEMBER_8_FILL">
<path fill="#3F3932" stroke="none" d="
M 195.05 76.9
Q 191.3 83.35 191.3 89.4 191.3 95.45 195 97.6 198.7 99.75 203.95 96.7 209.2 93.65 212.95 87.25 216.65 80.8 216.65 74.7 216.65 68.65 212.95 66.5 209.25 64.4 204 67.45 198.75 70.5 195.05 76.9 Z"/>
</g>

<g id="car_blu_front_svg_0_Layer0_0_MEMBER_9_MEMBER_0_FILL">
<path fill="#D8D8D8" stroke="none" d="
M 195.4 87.15
Q 195.35 91.35 197.85 92.95 200.35 94.5 204 92.5 207.6 90.5 210.2 86.1 212.8 81.7 212.85 77.5 212.95 73.3 210.4 71.75 207.9 70.15 204.3 72.15 200.7 74.1 198.05 78.55 195.5 82.95 195.4 87.15 Z"/>
</g>

<g id="car_blu_front_svg_0_Layer0_0_MEMBER_9_MEMBER_1_FILL">
<path fill="#A8A8A8" stroke="none" d="
M 196.6 86.45
Q 196.55 90.1 198.75 91.45 200.9 92.8 204 91.1 207.1 89.35 209.3 85.6 211.55 81.8 211.6 78.15 211.7 74.5 209.5 73.15 207.35 71.85 204.25 73.55 201.15 75.25 198.9 79.05 196.65 82.8 196.6 86.45 Z"/>
</g>

<g id="car_blu_front_svg_0_Layer0_0_MEMBER_9_MEMBER_2_FILL">
<path fill="#D8D8D8" stroke="none" d="
M 199.5 84.4
Q 199.45 86.45 200.7 87.2 201.9 88 203.65 87 205.55 85.8 206.7 83.9 207.85 81.95 208 79.7 208 77.65 206.8 76.9 205.55 76.15 203.8 77.1 201.9 78.3 200.75 80.25 199.6 82.15 199.5 84.4 Z"/>
</g>

<g id="car_blu_front_svg_0_Layer0_0_MEMBER_10_FILL">
<path fill="#2059E5" stroke="none" d="
M 238.1 38.25
Q 238.1 37.15 237.55 35.2 236.9 33 236.6 31.9 236.2 30.8 235.6 29.9 234.35 28.05 232.35 26.9 194.8 5.05 187.7 1.1 185.75 0 183.95 0
L 182.55 0.2 170.65 3.8
Q 162.3 3.25 154 2.7 137.3 1.55 137.3 1.4 127.95 5.15 107.45 16.75 89.65 26.8 86.55 29.15 83.15 31.65 75.8 38.25 66.6 46.55 65.3 47.65 50.55 60.2 45.6 64.15 36.5 71.35 24.75 79.25 19.8 82.6 15.05 87.1 9.85 92.05 7 96.5 2.6 103.25 0.95 114.3 0.15 120 0 129.35 -0.1 133.55 1.95 136.75 6.55 144.05 19.95 152.75 30.15 159.4 38.1 162.5 48.7 166.65 59.45 166.6 66.35 166.55 72.65 163.3 72.8 163.2 73.4 163 73.7 162.9 76.3 161.45 76.5 151.25 80.4 143.15 84.7 134.05 92.85 129.35 101.45 124.4 105.65 128.65 109.3 132.35 109.4 142.7
L 188.45 97.55
Q 188.45 87.15 192.35 78.75 196.65 69.35 205 64.55 213.7 59.55 217.9 63.9 221.5 67.7 221.55 78.25 225.05 75.65 229.85 71.65 235.9 66.55 236.8 64.9 238.1 62.6 238.1 60
L 238.1 38.25 Z"/>
</g>

<g id="car_blu_front_svg_0_Layer0_0_MEMBER_11_FILL">
<path fill="#2059E5" stroke="none" d="
M 184.15 29.5
Q 184.5 29.4 184.85 28.95 185.15 28.4 185.05 27.85 184.9 27.25 184.4 26.95 172.8 19.45 156.95 10.95 141.9 2.9 137.3 1.4 134.1 2.25 111.05 15.05 89.05 27.3 86.55 29.15 83.15 31.65 75.8 38.25 66.6 46.55 65.3 47.65 50.6 60.2 45.6 64.15 36.5 71.35 24.7 79.2 19.75 82.55 15 87.05 9.8 92 6.95 96.45 2.4 103.55 0.8 115.45 0.55 117.9 3.8 123.1 8.95 131.4 20.3 138.4 32.55 146.45 43.5 149.4 53.7 152.1 63.3 150.5 64.1 150.35 64.7 149.75 65.3 149.15 65.4 148.3 66.15 141.65 66.85 139.8 68.45 135.6 74.15 129.95 76.6 127.65 90.2 115.35 101.8 104.85 106 100.55 111.35 92.15 117.45 82.75 129.7 64 133.6 59.2 137.4 54.65 155.4 44.15 173.1 33.8 184.15 29.5 Z"/>
</g>

<g id="car_blu_front_svg_0_Layer0_0_MEMBER_12_FILL">
<path fill="#3D79F2" stroke="none" d="
M 184.15 29.5
Q 184.55 29.35 184.8 28.95 185.15 28.45 185.05 27.9 184.9 27.3 184.4 26.95 172.8 19.45 156.95 10.95 141.9 2.9 137.3 1.4 133.35 1.85 113.3 13.05 96 22.8 88.25 28 87.8 28.35 93.55 32.9 100.2 38.2 107.7 42.5 116.75 47.7 127.25 52.1 137.05 56.25 137.9 55.6 145.5 50.25 160.45 41.9 174.15 34.25 184.15 29.5 Z"/>
</g>

<g id="car_blu_front_svg_0_Layer0_0_MEMBER_13_FILL">
<path fill="#3D79F2" stroke="none" d="
M 24.7 79.25
Q 19.75 82.6 15 87.1 9.8 92.05 6.95 96.5 6.4 97.3 5.7 98.6 4.4 102.6 8.8 108.9 13.25 115.3 21.45 121.1 41.75 135.55 63.8 133.85 70.15 133.4 74.9 129.1 99.1 107.55 106 100.55 96.1 99.1 83.45 94 58.1 83.7 44.3 65.2 36.05 71.7 24.7 79.25 Z"/>
</g>

<g id="car_blu_front_svg_Assets_Layer_1__Path__25_0_Layer0_0_FILL">
<path fill="#BC972A" stroke="none" d="
M 0.2 0
L 0.15 0.05
Q -0.1 0.05 0 0.35 1.3 3.25 1.8 15.35 2.05 21.7 2.4 31.5
L 2.9 30.75
Q 2.65 21.15 2.45 14.95 2.05 3.35 0.55 0.2 0.5 0 0.2 0 Z"/>
</g>

<g id="car_blu_front_svg_Assets_Layer_1__Path__24_0_Layer0_0_FILL">
<path fill="#BC972A" stroke="none" d="
M 0.05 19.15
L 0 19.25 0 32.85 0.55 32.85 0.55 19.4 13.15 0.25 12.7 0 0.05 19.15 Z"/>
</g>

<g id="car_blu_front_svg_Assets_Layer_1__Path__23_0_Layer0_0_FILL">
<path fill="#BC972A" stroke="none" d="
M 43.85 0.3
Q 45.75 20.65 45.75 41.05
L 0 67.45 0 68.05 79.4 22.25 79.4 21.6 46.3 40.7
Q 46.25 20.1 44.35 0
L 43.85 0.3 Z"/>
</g>

<g id="car_blu_front_svg_0_Layer0_0_MEMBER_17_FILL">
<path fill="#839EB2" stroke="none" d="
M 92 97.8
Q 95.15 98.65 97.3 98.25 99.75 97.85 102.1 95.75 108.5 90.1 116.6 79.2 124.4 68.7 131.75 56.05 101.15 42.8 88 30.8
L 47.45 65.85 47.2 66.1
Q 46.2 67.1 46.2 68.6 46.25 70.05 47.3 71.05 57.5 80.7 68.6 87.45 80.3 94.6 92 97.8 Z"/>
</g>

<g id="car_blu_front_svg_0_Layer0_0_MEMBER_18_FILL">
<path fill="#B5CEE8" stroke="none" d="
M 87 34
Q 86.35 34 85.85 34.45
L 54.25 61.9
Q 53.4 62.6 53.4 63.7 53.35 64.75 54.15 65.55 64.75 75.55 75.05 81.75 85.5 88 96.65 91 98.25 91.4 99.65 91.4
L 99.7 91.45 101.05 91.4
Q 104.8 90.95 108.5 86.4 123.05 68.4 128.45 59.25 128.75 58.7 128.6 58.1 128.4 57.5 127.85 57.2
L 127.7 57.1
Q 100.9 45.2 88.15 34.45 87.65 34 87 34 Z"/>
</g>

<g id="car_blu_front_svg_0_Layer0_0_MEMBER_19_FILL">
<path fill="#839EB2" stroke="none" d="
M 199.1 38.35
Q 190.85 33.85 185 32.5 183 32.05 181.25 32.95 174.4 36.25 162.3 43.2 162.25 43.2 141.6 55.2 136.5 58.2 133.3 63.1 115.7 89.75 111.95 96.05 111.65 96.55 112.15 96.95 112.6 97.3 113.1 97.05 120.35 93.1 159.25 70.9 194.85 50.6 205.4 44.5 207.8 43.1 199.1 38.35 Z"/>
</g>

<g id="car_blu_front_svg_0_Layer0_0_MEMBER_20_FILL">
<path fill="#B5CEE8" stroke="none" d="
M 189.9 35.2
Q 193.3 41.75 194.65 49.05
L 204.05 43.65
Q 204 42.55 199.3 39.85 195.05 37.4 189.9 35.2 Z"/>
</g>

<g id="car_blu_front_svg_0_Layer0_0_MEMBER_21_FILL">
<path fill="#B5CEE8" stroke="none" d="
M 188.1 34.5
Q 186.45 33.8 184.45 33.25 183.1 32.9 181.85 33.5 176.15 36.2 166.5 41.7 162.2 44.1 149.15 51.65 152.65 61.9 153.85 72.35
L 193.5 49.7
Q 192.1 41.8 188.1 34.5 Z"/>
</g>

<g id="car_blu_front_svg_0_Layer0_0_MEMBER_22_FILL">
<path fill="#B5CEE8" stroke="none" d="
M 113.25 95.2
L 113.4 95.2
Q 120.55 91.25 152.65 73 151.55 62.4 148.05 52.3
L 142 55.85
Q 137.1 58.75 133.9 63.5 114.95 92.4 113.25 95.2 Z"/>
</g>

<g id="car_blu_front_svg_0_Layer0_0_MEMBER_23_FILL">
<path fill="#14367C" stroke="none" d="
M 11.35 114.95
Q 10.65 115.1 9.25 119.85 7.85 124.65 8.4 125.7 10.1 129 18.65 134.95 27.5 141.1 32.8 142.25 33.95 142.5 35.65 139.3 37.05 136.8 37.8 134.25 38 133.65 33.9 131.4 27.05 127.75 24.7 126.3 17.4 121.7 11.35 114.95 Z"/>
</g>

<g id="car_blu_front_svg_0_Layer0_0_MEMBER_24_FILL">
<path fill="#35312D" stroke="none" d="
M 11.8 115.45
Q 10.85 117.35 9.95 120.8 9.05 124.5 9.45 125.35 11.15 128.65 19.6 134.55 28.4 140.7 33.75 141.9 34.85 141 36.15 138.4 37.4 136 37.8 134.25 37.95 133.65 37.2 133.05 36.65 132.6 34.9 131.75 32 130.35 30.25 129.4 27.05 127.8 24.7 126.3 17.6 121.8 11.8 115.45 Z"/>
</g>

<g id="car_blu_front_svg_0_Layer0_0_MEMBER_25_FILL">
<path fill="#35312D" stroke="none" d="
M 143.2 85.25
Q 142.6 85.65 142.5 86.4
L 142.5 87.4
Q 142.5 87.65 142.7 87.75 142.9 87.85 143.2 87.65
L 150.05 83.65
Q 150.65 83.35 150.75 82.55
L 150.75 81.55
Q 150.75 80.9 150.05 81.25
L 143.2 85.25 Z"/>
</g>

<g id="car_blu_front_svg_0_Layer0_0_MEMBER_26_FILL">
<path fill="#35312D" stroke="none" d="
M 191 57.7
L 184.15 61.7
Q 183.55 62.1 183.45 62.8
L 183.45 63.8
Q 183.45 64.05 183.65 64.1 183.9 64.2 184.15 64
L 191 60
Q 191.6 59.6 191.7 58.9
L 191.7 58
Q 191.7 57.35 191 57.7 Z"/>
</g>

<g id="car_blu_front_svg_0_Layer0_0_MEMBER_27_FILL">
<path fill="#14367C" stroke="none" d="
M 120.85 88.35
Q 120.35 89.75 119.75 91.8 119.2 92.75 120 93.55 122.25 96.05 130.65 95.15 131.15 95.15 131.75 94.9 133.1 94.3 133.7 92.05 134.35 89.8 133.5 88.85 133 88.2 128.05 86.65 123.1 85.05 122.4 85.4 121.8 85.7 120.85 88.35 Z"/>
</g>

<g id="car_blu_front_svg_0_Layer0_0_MEMBER_28_FILL">
<path fill="#3D79F2" stroke="none" d="
M 126.45 89.9
Q 130.4 90.4 133.9 89.9 133.9 89.35 133.5 88.85 133 88.25 128.05 86.65 123 85.05 122.4 85.4 121.8 85.7 120.8 88.45 122.85 89.45 126.45 89.9 Z"/>
</g>

<g id="car_blu_front_svg_0_Layer0_0_MEMBER_29_FILL">
<path fill="#282523" stroke="none" d="
M 115.9 92
Q 114.6 92.15 114.3 94.1 114.05 96 115.1 95.9 123.55 95.35 123.75 95.1 124.35 94.4 122.85 92.7 121.35 90.9 120 91.1 116.2 92 115.9 92 Z"/>
</g>

<g id="car_blu_front_svg_0_Layer0_0_MEMBER_30_FILL">
<path fill="#991111" stroke="none" d="
M 237.65 35.55
L 236.35 36.7
Q 235.25 37.35 235.35 38.6 236.05 49.65 238.05 49.2 240.55 42.2 237.65 35.55 Z"/>
</g>

<g id="car_blu_front_svg_0_Layer0_0_MEMBER_31_FILL">
<path fill="#F0FDFF" stroke="none" d="
M 64.15 136.85
Q 54.4 137.6 44.25 136.2 42 135.9 40.4 140.15 38.8 144.45 41.1 145.75 43.95 147.35 49.3 148.2 55.85 149.15 63.3 148.35 66.9 147.15 67.35 142.2 67.8 137.2 64.15 136.85 Z"/>
</g>

<g id="car_blu_front_svg_0_Layer0_0_MEMBER_32_FILL">
<path fill="#CB5E12" stroke="none" d="
M 64.15 136.85
Q 65.7 138.35 65.2 142.6 64.75 146.55 63.35 148.35 65.2 148.15 66.75 146.25 68.15 144.5 68.55 142.25 69.55 136.55 64.15 136.85 Z"/>
</g>

<g id="car_blu_front_svg_0_Layer0_0_MEMBER_33_FILL">
<path fill="#F0FDFF" stroke="none" d="
M 7.5 111.75
Q 7.45 111.35 6.15 108.15 4.75 104.65 4.15 101.95 3.05 103.45 2.1 107.1 1.25 110.55 1.25 112.65 1.2 114.8 2.9 118.1 4.55 121.35 5.35 121.05 6 120.8 6.9 117.1 7.8 113.3 7.5 111.75 Z"/>
</g>

<g id="car_blu_front_svg_0_Layer0_0_MEMBER_34_FILL">
<path fill="#4C4742" stroke="none" d="
M 19.35 128.3
Q 18.9 129.3 19.2 130.35 19.5 131.4 20.4 132
L 20.7 132.15
Q 21.6 132.45 22.45 132.05 23.3 131.65 23.6 130.8 24.05 129.8 23.75 128.75 23.45 127.7 22.55 127.1
L 22.2 126.95
Q 21.35 126.65 20.5 127.05 19.65 127.45 19.35 128.3 Z"/>
</g>

<g id="car_blu_front_svg_0_Layer0_0_MEMBER_35_FILL">
<path fill="#FFFFFF" stroke="none" d="
M 10.6 136.85
L 10.6 142.7 26.8 153.55 26.8 147.75 10.6 136.85 Z"/>
</g>

<g id="car_blu_front_svg_0_Layer0_0_MEMBER_36_FILL">
<path fill="#B5CEE8" stroke="none" d="
M 204.95 31
Q 212.55 32.15 214.6 32.3 218.25 32.6 216.45 31.35
L 172.75 6.1
Q 170.55 4.85 168.1 4.85
L 143.45 3.1
Q 157.2 9.25 185.1 25.9 188.1 27.7 191.25 28.7
L 204.95 31 Z"/>
</g>

<g id="car_blu_front_svg_0_Layer0_0_MEMBER_37_FILL">
<path fill="#3D79F2" stroke="none" d="
M 221.6 33.2
Q 228.45 32.35 235.75 30.15
L 235.6 29.9
Q 234.35 28.05 232.35 26.9 194.8 5.05 187.7 1.1 185.75 0 183.95 0
L 182.55 0.2 170.65 3.8 221.6 33.2 Z"/>
</g>

<g id="car_blu_front_svg_0_Layer0_0_MEMBER_38_FILL">
<path fill="#35312D" stroke="none" d="
M 61.05 163.5
Q 61.6 163.4 62 162.95 62.35 162.45 62.35 161.9
L 62.35 156.7 62.25 156.35
Q 62.1 155.85 61.65 155.65 61.2 155.4 60.75 155.55 52.85 158.25 44.75 157.55
L 44.7 157.55
Q 44.3 157.55 43.95 157.85 43.65 158.15 43.6 158.55 43.45 160.3 43.5 160.55 43.55 161.55 44.35 161.85 52.5 164.55 61.05 163.5 Z"/>
</g>

<g id="car_blu_front_svg_0_Layer0_0_MEMBER_39_FILL">
<path fill="#35312D" stroke="none" d="
M 0.35 120.25
Q 0.15 122.7 0 129.35
L 0 129.65
Q 0.35 131.4 1.4 133.35 1.5 133.5 1.6 133.45 1.7 133.4 1.7 133.1
L 1.7 129
Q 1.7 128.05 1.45 126.9 0.6 123.7 0.35 120.25 Z"/>
</g>

<g id="car_ylw_behind_svg_0_Layer0_0_MEMBER_0_FILL">
<path fill="#DB9200" stroke="none" d="
M 248.85 21.85
Q 247.8 21.4 244.4 22.2
L 241.2 23.1
Q 236.95 23.65 221.2 28.6 204.2 33.95 201.75 34.5
L 155.75 5.65 92.5 6.1 45.8 34.05
Q 39.9 36.85 35 41.3
L 17 67.65 2.5 80.8 1.85 111.05
Q 1.85 114.9 3.75 118.25 5.65 121.6 9 123.6
L 59.7 156.1
Q 63.55 158.4 68.15 159.15 73.85 160.1 78.8 158.2
L 92.5 155.7 102.65 149.65 105.55 146.8 105.55 140.9 129.55 123 138.5 128.15 216.95 81.15 216.5 78.05 237.8 68.7 240.95 60.75 246.7 64.05
Q 252.9 60.35 254.8 54.8 255.4 53.05 255.5 51.35 255.5 49.95 255.5 49.9 255.1 45.15 252.65 34.1 250 22.35 248.85 21.85 Z"/>
</g>

<g id="car_ylw_behind_svg_0_Layer0_0_MEMBER_1_FILL">
<path fill="#FFC712" stroke="none" d="
M 251.35 25.9
L 251.4 25.9 251.15 25.2
Q 249.7 21.45 244.35 17.4 235.45 10.65 218.6 5.65 199.1 -0.35 178.7 0.05 173.65 0.45 165.5 1.35 161 2 152.2 2.75
L 144.3 3.35
Q 139.9 4.2 135.7 4.2
L 92.5 6.1 162.65 43.4 167.3 42.3 210.1 44.2 249.1 32.1 250.65 32.5
Q 252.35 33.55 253 36.75 252.9 31.15 251.35 25.9 Z"/>
</g>

<g id="car_ylw_behind_svg_0_Layer0_0_MEMBER_2_FILL">
<path fill="#B5CEE8" stroke="none" d="
M 97.6 83.2
Q 97.7 83.15 97.95 82.75 98.4 81.9 98.15 81.05 97.9 80.15 97.1 79.7
L 36.85 45.4
Q 36.05 44.95 35.2 45.15 34.35 45.35 33.85 46.15
L 21.5 65.35 21.45 65.4
Q 20.95 66.2 21.2 67.1 21.4 68 22.2 68.5
L 83.45 106.25
Q 84.15 106.65 84.9 106.55 85.7 106.45 86.25 105.9
L 97.6 83.2 Z"/>
</g>

<g id="car_ylw_behind_svg_0_Layer0_0_MEMBER_3_FILL">
<path fill="#FFC712" stroke="none" d="
M 16.6 67.9
L 3.25 79.2
Q 2.15 80.5 2.6 82.05 3.05 83.45 4.6 84.45
L 64.7 121.95
Q 66.9 123.3 69.4 122.7 71.9 122.15 73.3 120
L 83.4 109.7 16.6 67.9 Z"/>
</g>

<g id="car_ylw_behind_svg_0_Layer0_0_MEMBER_4_FILL">
<path fill="#B5CEE8" stroke="none" d="
M 189.4 47.1
Q 171.5 46.05 169.05 46.5 166.6 47 161.85 49
L 157.55 50.9
Q 148.4 56.55 138.8 62.5 119.6 74.4 117.3 75.95 115 77.5 111.5 79.65
L 108.4 81.55
Q 103.9 86.95 101.2 101.05 99.85 108.1 99.4 114.05
L 206.8 48.3
Q 198.35 47.65 189.4 47.1 Z"/>
</g>

<g id="car_ylw_behind_svg_0_Layer0_0_MEMBER_5_FILL">
<path fill="#EEB211" stroke="none" d="
M 167.35 42.3
L 201.55 43.85 195.05 37.8 150.1 8.75 140 4.05 92.5 6.1 110.4 10.3 132.65 20.8 154.4 35.5 161.55 43.85 167.35 42.3 Z"/>
</g>

<g id="car_ylw_behind_svg_0_Layer0_0_MEMBER_6_FILL">
<path fill="#839EB2" stroke="none" d="
M 191.05 33.9
Q 185.45 29.8 171.95 21.45 156.25 11.65 148.9 8.25 143.55 5.8 137.75 5.95
L 111.75 7.05 116.9 8.8
Q 123.4 11.15 129.9 14.3 150.7 24.3 163.9 38.1 165.95 39 168.2 38.7 169.9 38.55 181.9 39.4 187.95 39.8 193.6 40.25 194.75 39.95 195 39 195.5 37.1 191.05 33.9 Z"/>
</g>

<g id="car_ylw_behind_svg_0_Layer0_0_MEMBER_7_FILL">
<path fill="#B5CEE8" stroke="none" d="
M 187.8 33.45
Q 181.5 28.8 169.3 21.1 153.45 11.05 146.7 8.5 142.2 6.6 137.05 6.5
L 115 7.45 120.15 9.4
Q 126.55 11.95 132.8 15.1 152.9 25.1 164.35 37.05 166.15 37.85 168.05 37.6 169.5 37.45 179.9 38.15 185.15 38.5 190.05 38.9 191.05 38.65 191.25 37.85 191.65 36.25 187.8 33.45 Z"/>
</g>

<g id="car_ylw_behind_svg_0_Layer0_0_MEMBER_8_FILL">
<path fill="#FFFFFF" stroke="none" d="
M 253.45 30.35
L 251.4 25.9 251.65 30.7
Q 251.6 35.9 250.2 37.75
L 250.15 40.65
Q 250.4 43.8 251.85 44.9 253.6 46.2 254.6 44.8 255.5 43.5 255.5 40.15 255.5 35.7 253.45 30.35 Z"/>
</g>

<g id="car_ylw_behind_svg_0_Layer0_0_MEMBER_9_FILL">
<path fill="#CB5E12" stroke="none" d="
M 254.2 43.95
Q 253.6 44.05 253.05 43.75 251.65 42.85 251.1 40.55 250.75 39.3 250.65 36.95 250.6 37.05 250.2 37.75
L 250.15 40.65
Q 250.4 43.8 251.85 44.9 254.3 46.7 255.15 43.4 254.8 43.85 254.2 43.95 Z"/>
</g>

<g id="car_ylw_behind_svg_0_Layer0_0_MEMBER_10_FILL">
<path fill="#FFC712" stroke="none" d="
M 163.15 42.25
Q 163.2 41.3 162.4 40.35 158.4 35.6 151.35 30 144.65 24.65 136.5 19.55 114.85 7.9 99.95 6.35 95.25 5.85 91.85 6.4
L 89.35 7.1
Q 72.45 15.55 35.7 40.45 35.1 40.85 66.1 58.7 74.85 63.75 90.3 73.05 101.6 79.7 102.55 79.2 124.75 66.7 141 56.8 149.85 51.45 162.05 43.85 163.05 43.25 163.15 42.25 Z"/>
</g>

<g id="car_ylw_behind_svg_0_Layer0_0_MEMBER_11_MEMBER_0_FILL">
<path fill="#B5CEE8" stroke="none" d="
M 160.1 57.3
L 155.25 52.35 169.2 72.5
Q 165.65 63.95 160.1 57.3 Z"/>
</g>

<g id="car_ylw_behind_svg_0_Layer0_0_MEMBER_12_MEMBER_0_FILL">
<path fill="#B5CEE8" stroke="none" d="
M 111.75 80.25
L 123.05 99.6
Q 119.25 88.8 111.75 80.25 Z"/>
</g>

<g id="car_ylw_behind_svg_0_Layer0_0_MEMBER_13_FILL">
<path fill="#26231F" stroke="none" d="
M 123.05 127.6
L 132.2 124.6 138.6 128.15
Q 138.7 126.75 136.95 124.35 134.9 121.6 131.85 119.95 123.2 115.3 112.7 122.85 102.5 130.25 101.55 140.7 101.1 145.9 102.7 149.65
L 106.9 139.7
Q 108.35 133.35 115.85 129.85 119.6 128.1 123.05 127.6 Z"/>
</g>

<g id="car_ylw_behind_svg_0_Layer0_0_MEMBER_14_FILL">
<path fill="#26231F" stroke="none" d="
M 134.75 126.8
L 129.35 121.2
Q 126.85 118.5 121.8 120.4 116.85 122.3 112.35 127.55 107.9 132.8 106.5 138.35 105.15 143.9 107.6 146.45
L 113 152.05 134.75 126.8 Z"/>
</g>

<g id="car_ylw_behind_svg_0_Layer0_0_MEMBER_15_FILL">
<path fill="#3F3932" stroke="none" d="
M 134.65 126.65
Q 132.15 124.1 127.2 125.95 122.25 127.8 117.75 133.1 113.3 138.35 111.85 143.95 110.45 149.5 113 152.1 115.5 154.75 120.45 152.85 125.4 150.95 129.9 145.75 134.4 140.45 135.8 134.85 137.2 129.25 134.65 126.65 Z"/>
</g>

<g id="car_ylw_behind_svg_0_Layer0_0_MEMBER_16_MEMBER_0_FILL">
<path fill="#D8D8D8" stroke="none" d="
M 131.45 131.05
Q 129.8 129.2 126.4 130.35 123 131.55 119.9 135.15 116.75 138.75 115.75 142.65 114.7 146.5 116.4 148.4 118.1 150.25 121.45 149.05 124.85 147.85 128 144.25 131.1 140.65 132.1 136.8 133.15 132.95 131.45 131.05 Z"/>
</g>

<g id="car_ylw_behind_svg_0_Layer0_0_MEMBER_16_MEMBER_1_FILL">
<path fill="#A8A8A8" stroke="none" d="
M 130.4 132.25
Q 128.95 130.6 126.05 131.65 123.1 132.7 120.45 135.8 117.75 138.85 116.9 142.2 116 145.55 117.45 147.15 118.85 148.75 121.8 147.7 124.7 146.7 127.4 143.6 130.1 140.5 130.95 137.15 131.85 133.85 130.4 132.25 Z"/>
</g>

<g id="car_ylw_behind_svg_0_Layer0_0_MEMBER_16_MEMBER_2_FILL">
<path fill="#D8D8D8" stroke="none" d="
M 127.3 135.1
Q 126.5 134.2 124.85 134.8 120.85 136.6 119.65 140.8 119.15 142.7 120 143.6 120.8 144.5 122.45 143.9 126.4 142.1 127.6 137.9 128.15 136.05 127.3 135.1 Z"/>
</g>

<g id="car_ylw_behind_svg_0_Layer0_0_MEMBER_17_FILL">
<path fill="#26231F" stroke="none" d="
M 246.7 64.05
Q 246.95 60.8 246.7 57.65 245.75 54.45 241.45 52 234.7 48.2 225.7 53.85 216.8 59.4 213.6 68.35 212 72.85 212.2 76.2
L 216.75 81.2 217 78.3 242.05 61.3 246.7 64.05 Z"/>
</g>

<g id="car_ylw_behind_svg_0_Layer0_0_MEMBER_18_FILL">
<path fill="#26231F" stroke="none" d="
M 229.6 54.3
Q 225.1 56.15 221.1 61.2 217.1 66.3 216 71.6 214.85 76.9 217.25 79.35
L 222.4 84.65 241.8 60.3 236.6 55
Q 234.25 52.4 229.6 54.3 Z"/>
</g>

<g id="car_ylw_behind_svg_0_Layer0_0_MEMBER_19_FILL">
<path fill="#3F3932" stroke="none" d="
M 226.25 66.5
Q 222.3 71.55 221.15 76.9 220.05 82.25 222.45 84.75 224.85 87.2 229.4 85.4 233.95 83.55 237.95 78.5 241.95 73.4 243.05 68.05 244.15 62.7 241.75 60.2 239.35 57.75 234.8 59.55 230.25 61.4 226.25 66.5 Z"/>
</g>

<g id="car_ylw_behind_svg_0_Layer0_0_MEMBER_20_MEMBER_0_FILL">
<path fill="#D8D8D8" stroke="none" d="
M 225.45 81.1
Q 227.05 82.85 230.15 81.7 233.25 80.5 236.05 77.05 238.85 73.55 239.65 69.85 240.5 66.15 238.9 64.35 237.25 62.6 234.15 63.75 231.1 64.95 228.3 68.4 225.5 71.9 224.65 75.6 223.85 79.3 225.45 81.1 Z"/>
</g>

<g id="car_ylw_behind_svg_0_Layer0_0_MEMBER_20_MEMBER_1_FILL">
<path fill="#A8A8A8" stroke="none" d="
M 226.4 79.95
Q 227.8 81.45 230.45 80.45 233.1 79.45 235.5 76.45 237.9 73.45 238.6 70.25 239.3 67.05 237.95 65.55 236.55 64 233.9 65 231.2 66.05 228.85 69.05 226.4 72.05 225.75 75.2 225.05 78.4 226.4 79.95 Z"/>
</g>

<g id="car_ylw_behind_svg_0_Layer0_0_MEMBER_20_MEMBER_2_FILL">
<path fill="#D8D8D8" stroke="none" d="
M 228.65 76.5
Q 229.45 77.35 231 76.8 234.6 74.95 235.55 71.05 235.95 69.25 235.2 68.35 234.4 67.5 232.85 68.05 229.2 69.9 228.25 73.8 227.85 75.65 228.65 76.5 Z"/>
</g>

<g id="car_ylw_behind_svg_0_Layer0_0_MEMBER_21_FILL">
<path fill="#DB9200" stroke="none" d="
M 246.8 60.2
L 247.55 54.9 235 45.5 218.85 53.5 205.55 78 208.85 86.1 217.05 81.2
Q 216.4 73.9 219.75 67.35 223.15 60.8 229.5 57.1 238.65 51.6 243.65 55.35 246.15 57.25 246.8 60.2 Z"/>
</g>

<g id="car_ylw_behind_svg_0_Layer0_0_MEMBER_22_FILL">
<path fill="#DB9200" stroke="none" d="
M 132.35 120.25
L 133.15 114.05 121.75 111.4 97.15 127.85 72 159.45
Q 82.85 159.3 93.4 157.05
L 106 150.35
Q 104.55 141.3 110.4 132.35 113.35 127.9 116.55 125.25 122.05 120.15 127.75 119.7 130.6 119.45 132.35 120.25 Z"/>
</g>

<g id="car_ylw_behind_svg_0_Layer0_0_MEMBER_23_FILL">
<path fill="#991111" stroke="none" d="
M 65.4 134.8
Q 65.2 137.1 65.9 138.8 66.55 140.5 67.7 140.6 68.85 140.7 69.75 139.1 70.65 137.55 70.85 135.2 71.05 132.9 70.4 131.2 69.7 129.5 68.55 129.4 67.45 129.35 66.5 130.9 65.6 132.5 65.4 134.8 Z"/>
</g>

<g id="car_ylw_behind_svg_0_Layer0_0_MEMBER_24_FILL">
<path fill="#991111" stroke="none" d="
M 66.8 141.15
L 68.3 130.05
Q 67.45 130.15 65.6 129.55 61.9 128.35 56.9 124.8
L 55.6 125.55
Q 54.25 126.95 53.9 130.15 53.55 133.6 58.1 136.95 61.8 139.7 66.8 141.15 Z"/>
</g>

<g id="car_ylw_behind_svg_0_Layer0_0_MEMBER_25_FILL">
<path fill="#991111" stroke="none" d="
M 3.7 93.15
Q 3.3 92.85 2.9 92.7 2.1 92.45 1.3 92.85 0.55 93.25 0.3 94.05 -0.5 97.7 0.9 101.15 1.1 101.8 1.75 102.2
L 8.85 106.35
Q 9.25 106.6 9.7 106.6 10.55 106.7 11.25 106.15 11.9 105.6 12 104.75
L 12.45 100.3
Q 12.55 99.65 12.2 99.05 11.85 98.45 11.2 98.2 7 96.2 3.7 93.15 Z"/>
</g>

<g id="car_ylw_behind_svg_0_Layer0_0_MEMBER_30_FILL">
<path fill="#F0FDFF" stroke="none" d="
M 17.3 114.9
Q 17.1 114.75 16.8 114.75 16.45 114.75 16.15 115 15.9 115.3 15.9 115.65
L 15.9 121.95
Q 15.9 122.45 16.3 122.7
L 37.5 136.3
Q 37.75 136.45 38 136.45 38.4 136.45 38.65 136.2 38.9 135.95 38.9 135.55
L 38.9 129.55
Q 38.9 129.05 38.5 128.8
L 17.3 114.9 Z"/>
</g>

<g id="car_ylw_behind_svg_Assets_Layer_1__Path__3_0_Layer0_0_FILL">
<path fill="url(#Gradient_1)" stroke="none" d="
M 0 5.7
Q 4.3 9.1 6.05 9.75 7.4 10.25 7.4 8.3 7.4 6.35 6.05 4.5 4.95 2.95 2.35 1.3 1.1 0.5 0 0
L 0 5.7 Z"/>
</g>

<g id="car_ylw_behind_svg_0_Layer0_0_MEMBER_32_FILL">
<path fill="#EEB211" stroke="none" d="
M 208.95 56.05
Q 209.85 57.9 209.75 59.2 212.7 55.9 209.65 51.4
L 206.05 47.5 202.35 49.4
Q 207.15 52.3 208.95 56.05 Z"/>
</g>

<g id="car_ylw_behind_svg_0_Layer0_0_MEMBER_33_FILL">
<path fill="#EEB211" stroke="none" d="
M 133.2 4.6
Q 134.45 4.5 135.7 4.25 130.75 1.9 125.5 1.55 130.5 3.8 130.6 4.45 130.65 4.9 133.2 4.6 Z"/>
</g>

<g id="car_ylw_behind_svg_0_Layer0_0_MEMBER_34_FILL">
<path fill="#FFC712" stroke="none" d="
M 131.45 4.3
L 125.5 1.55
Q 125.1 1.75 124.9 2.25 124.5 3.25 125.5 4.65
L 131.45 4.3 Z"/>
</g>

<g id="future_windMillBlade_svg_0_Layer0_0_FILL">
<path fill="#FFFFFF" stroke="none" d="
M 52.6 46
L 52.6 0.2
Q 52.6 0 52.4 0 52.25 0 52.25 0.2
L 44.25 43.2
Q 46.25 57.4 46.25 58.25
L 48.45 58.25 52.6 46 Z"/>
</g>

<g id="future_windMillBlade_svg_0_Layer0_1_FILL">
<path fill="#FFFFFF" stroke="none" d="
M 92.45 93.2
L 92.7 93.15
Q 92.85 93 92.65 92.9
L 60.25 63.45
Q 59.8 63.3 46.4 57.2
L 45.25 59.2 53.45 69.2 53.5 69.2 92.45 93.2 Z"/>
</g>

<g id="future_windMillBlade_svg_0_Layer0_2_FILL">
<path fill="#FFFFFF" stroke="none" d="
M 33.8 61.35
Q 33.8 61.3 33.75 61.35
L 0.05 92.25 0 92.5
Q 0.1 92.6 0.25 92.55
L 37.4 69.35
Q 37.7 69 47.2 57.75
L 45.7 56.15 33.8 61.35 Z"/>
</g>

<g id="future_wnidmill_svg_Assets_Layer_1__Path__6_0_Layer0_0_FILL">
<path fill="url(#Gradient_2)" stroke="none" d="
M 11.35 0
L 0 0.55 50.8 42.7 84.6 32.95 11.35 0 Z"/>
</g>

<g id="future_wnidmill_svg_0_Layer0_0_MEMBER_1_FILL">
<path fill="#FFFFFF" stroke="none" d="
M 8.5 1.65
L 4.95 1.65 2.15 168.7 11.1 168.7 8.5 1.65 Z"/>
</g>

<g id="future_wnidmill_svg_0_Layer0_0_MEMBER_2_FILL">
<path fill="#1B1B2B" stroke="none" d="
M 5.25 0.35
Q 4.15 0.95 3.9 2.4 3.7 3.8 4.5 5.25 5.35 6.65 6.65 7.15 8 7.7 9.1 7.05 10.2 6.45 10.45 5 10.65 3.6 9.8 2.2 9 0.8 7.7 0.25 6.35 -0.3 5.25 0.35 Z"/>
</g>

<g id="future_wnidmill_svg_0_Layer0_0_MEMBER_3_FILL">
<path fill="#1B1B2B" stroke="none" d="
M 3.75 1.7
L 8.7 7.6 10.05 6.15 8.9 1.8 5 0.5 3.75 1.7 Z"/>
</g>

<g id="future_wnidmill_svg_0_Layer0_0_MEMBER_4_FILL">
<path fill="#FFFFFF" stroke="none" d="
M 4.15 1.45
Q 3.05 2.1 2.85 3.55 2.6 4.95 3.45 6.35 4.25 7.75 5.6 8.3 6.95 8.85 8.05 8.2 9.15 7.55 9.35 6.15 9.55 4.7 8.75 3.3 7.95 1.9 6.6 1.35 5.25 0.8 4.15 1.45 Z"/>
</g>

<g id="future_wnidmill_svg_0_Layer0_0_MEMBER_5_FILL">
<path fill="#1B1B2B" stroke="none" d="
M 4.75 2.55
Q 4.05 3 3.9 3.95 3.8 4.9 4.3 5.85 4.85 6.8 5.75 7.15 6.65 7.5 7.35 7.05 8.1 6.65 8.25 5.7 8.4 4.75 7.85 3.8 7.3 2.85 6.4 2.5 5.5 2.15 4.75 2.55 Z"/>
</g>

<g id="future_wnidmill_svg_0_Layer0_0_MEMBER_6_FILL">
<path fill="#FFFFFF" stroke="none" d="
M 6.6 166.15
Q 4.75 166.15 3.45 167.15 2.15 168.1 2.15 169.45 2.15 170.85 3.45 171.8 4.75 172.75 6.6 172.75 8.5 172.75 9.8 171.8 11.1 170.85 11.1 169.45 11.1 168.1 9.8 167.15 8.45 166.15 6.6 166.15 Z"/>
</g>

<path id="car_ylw_behind_svg_0_Layer0_0_MEMBER_4_1_STROKES" stroke="#839EB2" stroke-width="1.5" stroke-linejoin="round" stroke-linecap="round" fill="none" d="
M 99.4 114.05
Q 99.85 108.1 101.2 101.05 103.9 86.95 108.4 81.55
L 111.5 79.65
Q 115 77.5 117.3 75.95 119.6 74.4 138.8 62.5 148.4 56.55 157.55 50.9
L 161.85 49
Q 166.6 47 169.05 46.5 171.5 46.05 189.4 47.1 198.35 47.65 206.8 48.3
L 99.4 114.05 Z"/>

<path id="car_ylw_behind_svg_0_Layer0_0_MEMBER_11_MEMBER_1_1_STROKES" stroke="#839EB2" stroke-width="1" stroke-linejoin="miter" stroke-linecap="butt" stroke-miterlimit="10" fill="none" d="
M 155.25 52.35
L 160.1 57.3
Q 165.65 63.95 169.2 72.5"/>

<path id="car_ylw_behind_svg_0_Layer0_0_MEMBER_12_MEMBER_1_1_STROKES" stroke="#839EB2" stroke-width="1" stroke-linejoin="miter" stroke-linecap="butt" stroke-miterlimit="10" fill="none" d="
M 111.75 80.25
Q 119.25 88.8 123.05 99.6"/>

<path id="car_ylw_behind_svg_Assets_Layer_1__Path__8_0_Layer0_0_1_STROKES" stroke="#BC972A" stroke-width="1" stroke-linejoin="miter" stroke-linecap="butt" stroke-miterlimit="10" fill="none" d="
M 84.55 0.5
L 90.9 0.75 93.35 18
Q 92.3 20.45 91.4 23.6 89.5 29.95 90.05 33.4
L 19.05 75.05
Q 17.8 72.45 15 70.55 9.35 66.85 1.6 70.65
L 0.5 53.15"/>

<path id="car_ylw_behind_svg_Assets_Layer_1__Path__7_0_Layer0_0_1_STROKES" stroke="#BC972A" stroke-width="1" stroke-linejoin="miter" stroke-linecap="butt" stroke-miterlimit="10" fill="none" d="
M 0.45 0.05
L 2.85 32.65"/>

<path id="car_ylw_behind_svg_0_Layer0_0_MEMBER_28_1_STROKES" stroke="#EEB211" stroke-width="2" stroke-linejoin="round" stroke-linecap="round" fill="none" d="
M 180.6 73.1
L 174.25 77"/>

<path id="car_ylw_behind_svg_0_Layer0_0_MEMBER_29_1_STROKES" stroke="#EEB211" stroke-width="2" stroke-linejoin="round" stroke-linecap="round" fill="none" d="
M 134.45 100.2
L 128.1 104.15"/>
</defs>

<mask id="Mask_Mask_1">
<g transform="matrix( 1, 0, 0, 1, 0,0) ">
<use xlink:href="#Mask_3_MASK_0_FILL"/>
</g>
</mask>

<g mask="url(#Mask_Mask_1)">
<g transform="matrix( -0.142120361328125, 0, 0, 0.1419677734375, 1551.7,605.55) ">
<g transform="matrix( 1, 0, 0, 1, 0,0) ">
<use xlink:href="#car_blu_front_svg_0_Layer0_0_MEMBER_0_FILL"/>
</g>

<g transform="matrix( 1, 0, 0, 1, 0,0) ">
<use xlink:href="#car_blu_front_svg_0_Layer0_0_MEMBER_1_FILL"/>
</g>

<g transform="matrix( 1, 0, 0, 1, 0,0) ">
<use xlink:href="#car_blu_front_svg_0_Layer0_0_MEMBER_2_FILL"/>
</g>

<g transform="matrix( 1, 0, 0, 1, 0,0) ">
<use xlink:href="#car_blu_front_svg_0_Layer0_0_MEMBER_3_FILL"/>
</g>

<g transform="matrix( 1, 0, 0, 1, 0,0) ">
<use xlink:href="#car_blu_front_svg_0_Layer0_0_MEMBER_4_FILL"/>
</g>

<g transform="matrix( 1, 0, 0, 1, 0,0) ">
<use xlink:href="#car_blu_front_svg_0_Layer0_0_MEMBER_5_FILL"/>
</g>

<g transform="matrix( 1, 0, 0, 1, 0,0) ">
<use xlink:href="#car_blu_front_svg_0_Layer0_0_MEMBER_6_MEMBER_0_FILL"/>
</g>

<g transform="matrix( 1, 0, 0, 1, 0,0) ">
<use xlink:href="#car_blu_front_svg_0_Layer0_0_MEMBER_6_MEMBER_1_FILL"/>
</g>

<g transform="matrix( 1, 0, 0, 1, 0,0) ">
<use xlink:href="#car_blu_front_svg_0_Layer0_0_MEMBER_6_MEMBER_2_FILL"/>
</g>

<g transform="matrix( 1, 0, 0, 1, 0,0) ">
<use xlink:href="#car_blu_front_svg_0_Layer0_0_MEMBER_6_MEMBER_3_FILL"/>
</g>

<g transform="matrix( 1, 0, 0, 1, 0,0) ">
<use xlink:href="#car_blu_front_svg_0_Layer0_0_MEMBER_7_FILL"/>
</g>

<g transform="matrix( 1, 0, 0, 1, 0,0) ">
<use xlink:href="#car_blu_front_svg_0_Layer0_0_MEMBER_8_FILL"/>
</g>

<g transform="matrix( 1, 0, 0, 1, 0,0) ">
<use xlink:href="#car_blu_front_svg_0_Layer0_0_MEMBER_9_MEMBER_0_FILL"/>
</g>

<g transform="matrix( 1, 0, 0, 1, 0,0) ">
<use xlink:href="#car_blu_front_svg_0_Layer0_0_MEMBER_9_MEMBER_1_FILL"/>
</g>

<g transform="matrix( 1, 0, 0, 1, 0,0) ">
<use xlink:href="#car_blu_front_svg_0_Layer0_0_MEMBER_9_MEMBER_2_FILL"/>
</g>

<g transform="matrix( 1, 0, 0, 1, 0,0) ">
<use xlink:href="#car_blu_front_svg_0_Layer0_0_MEMBER_10_FILL"/>
</g>

<g transform="matrix( 1, 0, 0, 1, 0,0) ">
<use xlink:href="#car_blu_front_svg_0_Layer0_0_MEMBER_11_FILL"/>
</g>

<g transform="matrix( 1, 0, 0, 1, 0,0) ">
<use xlink:href="#car_blu_front_svg_0_Layer0_0_MEMBER_12_FILL"/>
</g>

<g transform="matrix( 1, 0, 0, 1, 0,0) ">
<use xlink:href="#car_blu_front_svg_0_Layer0_0_MEMBER_13_FILL"/>
</g>

<g transform="matrix( 1, 0, 0, 1, 192.5,42.65) ">
<g transform="matrix( 1, 0, 0, 1, 0,0) ">
<use filter="url(#Filter_1)" xlink:href="#car_blu_front_svg_Assets_Layer_1__Path__25_0_Layer0_0_FILL"/>
</g>
</g>

<g transform="matrix( 1, 0, 0, 1, 100.35,93.85) ">
<g transform="matrix( 1, 0, 0, 1, 0,0) ">
<use filter="url(#Filter_1)" xlink:href="#car_blu_front_svg_Assets_Layer_1__Path__24_0_Layer0_0_FILL"/>
</g>
</g>

<g transform="matrix( 1, 0, 0, 1, 109.25,71.95) ">
<g transform="matrix( 1, 0, 0, 1, 0,0) ">
<use filter="url(#Filter_1)" xlink:href="#car_blu_front_svg_Assets_Layer_1__Path__23_0_Layer0_0_FILL"/>
</g>
</g>

<g transform="matrix( 1, 0, 0, 1, 0,0) ">
<use xlink:href="#car_blu_front_svg_0_Layer0_0_MEMBER_17_FILL"/>
</g>

<g transform="matrix( 1, 0, 0, 1, 0,0) ">
<use xlink:href="#car_blu_front_svg_0_Layer0_0_MEMBER_18_FILL"/>
</g>

<g transform="matrix( 1, 0, 0, 1, 0,0) ">
<use xlink:href="#car_blu_front_svg_0_Layer0_0_MEMBER_19_FILL"/>
</g>

<g transform="matrix( 1, 0, 0, 1, 0,0) ">
<use xlink:href="#car_blu_front_svg_0_Layer0_0_MEMBER_20_FILL"/>
</g>

<g transform="matrix( 1, 0, 0, 1, 0,0) ">
<use xlink:href="#car_blu_front_svg_0_Layer0_0_MEMBER_21_FILL"/>
</g>

<g transform="matrix( 1, 0, 0, 1, 0,0) ">
<use xlink:href="#car_blu_front_svg_0_Layer0_0_MEMBER_22_FILL"/>
</g>

<g transform="matrix( 1, 0, 0, 1, 0,0) ">
<use xlink:href="#car_blu_front_svg_0_Layer0_0_MEMBER_23_FILL"/>
</g>

<g transform="matrix( 1, 0, 0, 1, 0,0) ">
<use xlink:href="#car_blu_front_svg_0_Layer0_0_MEMBER_24_FILL"/>
</g>

<g transform="matrix( 1, 0, 0, 1, 0,0) ">
<use xlink:href="#car_blu_front_svg_0_Layer0_0_MEMBER_25_FILL"/>
</g>

<g transform="matrix( 1, 0, 0, 1, 0,0) ">
<use xlink:href="#car_blu_front_svg_0_Layer0_0_MEMBER_26_FILL"/>
</g>

<g transform="matrix( 1, 0, 0, 1, 0,0) ">
<use xlink:href="#car_blu_front_svg_0_Layer0_0_MEMBER_27_FILL"/>
</g>

<g transform="matrix( 1, 0, 0, 1, 0,0) ">
<use xlink:href="#car_blu_front_svg_0_Layer0_0_MEMBER_28_FILL"/>
</g>

<g transform="matrix( 1, 0, 0, 1, 0,0) ">
<use xlink:href="#car_blu_front_svg_0_Layer0_0_MEMBER_29_FILL"/>
</g>

<g transform="matrix( 1, 0, 0, 1, 0,0) ">
<use xlink:href="#car_blu_front_svg_0_Layer0_0_MEMBER_30_FILL"/>
</g>

<g transform="matrix( 1, 0, 0, 1, 0,0) ">
<use xlink:href="#car_blu_front_svg_0_Layer0_0_MEMBER_31_FILL"/>
</g>

<g transform="matrix( 1, 0, 0, 1, 0,0) ">
<use xlink:href="#car_blu_front_svg_0_Layer0_0_MEMBER_32_FILL"/>
</g>

<g transform="matrix( 1, 0, 0, 1, 0,0) ">
<use xlink:href="#car_blu_front_svg_0_Layer0_0_MEMBER_33_FILL"/>
</g>

<g transform="matrix( 1, 0, 0, 1, 0,0) ">
<use xlink:href="#car_blu_front_svg_0_Layer0_0_MEMBER_34_FILL"/>
</g>

<g transform="matrix( 1, 0, 0, 1, 0,0) ">
<use xlink:href="#car_blu_front_svg_0_Layer0_0_MEMBER_35_FILL"/>
</g>

<g transform="matrix( 1, 0, 0, 1, 0,0) ">
<use xlink:href="#car_blu_front_svg_0_Layer0_0_MEMBER_36_FILL"/>
</g>

<g transform="matrix( 1, 0, 0, 1, 0,0) ">
<use xlink:href="#car_blu_front_svg_0_Layer0_0_MEMBER_37_FILL"/>
</g>

<g transform="matrix( 1, 0, 0, 1, 0,0) ">
<use xlink:href="#car_blu_front_svg_0_Layer0_0_MEMBER_38_FILL"/>
</g>

<g transform="matrix( 1, 0, 0, 1, 0,0) ">
<use xlink:href="#car_blu_front_svg_0_Layer0_0_MEMBER_39_FILL"/>
</g>
</g>
</g>

<g mask="url(#Mask_Mask_1)">
<g transform="matrix( -0.133056640625, 0, 0, 0.1329345703125, 588.65,205.45) ">
<g transform="matrix( 1, 0, 0, 1, 0,0) ">
<use xlink:href="#car_ylw_behind_svg_0_Layer0_0_MEMBER_0_FILL"/>
</g>

<g transform="matrix( 1, 0, 0, 1, 0,0) ">
<use xlink:href="#car_ylw_behind_svg_0_Layer0_0_MEMBER_1_FILL"/>
</g>

<g transform="matrix( 1, 0, 0, 1, 0,0) ">
<use xlink:href="#car_ylw_behind_svg_0_Layer0_0_MEMBER_2_FILL"/>
</g>

<g transform="matrix( 1, 0, 0, 1, 0,0) ">
<use xlink:href="#car_ylw_behind_svg_0_Layer0_0_MEMBER_3_FILL"/>
</g>

<g transform="matrix( 1, 0, 0, 1, 0,0) ">
<use xlink:href="#car_ylw_behind_svg_0_Layer0_0_MEMBER_4_FILL"/>

<use xlink:href="#car_ylw_behind_svg_0_Layer0_0_MEMBER_4_1_STROKES"/>
</g>

<g transform="matrix( 1, 0, 0, 1, 0,0) ">
<use xlink:href="#car_ylw_behind_svg_0_Layer0_0_MEMBER_5_FILL"/>
</g>

<g transform="matrix( 1, 0, 0, 1, 0,0) ">
<use xlink:href="#car_ylw_behind_svg_0_Layer0_0_MEMBER_6_FILL"/>
</g>

<g transform="matrix( 1, 0, 0, 1, 0,0) ">
<use xlink:href="#car_ylw_behind_svg_0_Layer0_0_MEMBER_7_FILL"/>
</g>

<g transform="matrix( 1, 0, 0, 1, 0,0) ">
<use xlink:href="#car_ylw_behind_svg_0_Layer0_0_MEMBER_8_FILL"/>
</g>

<g transform="matrix( 1, 0, 0, 1, 0,0) ">
<use xlink:href="#car_ylw_behind_svg_0_Layer0_0_MEMBER_9_FILL"/>
</g>

<g transform="matrix( 1, 0, 0, 1, 0,0) ">
<use xlink:href="#car_ylw_behind_svg_0_Layer0_0_MEMBER_10_FILL"/>
</g>

<g transform="matrix( 1, 0, 0, 1, 0,0) ">
<use xlink:href="#car_ylw_behind_svg_0_Layer0_0_MEMBER_11_MEMBER_0_FILL"/>
</g>

<g transform="matrix( 1, 0, 0, 1, 0,0) ">
<use xlink:href="#car_ylw_behind_svg_0_Layer0_0_MEMBER_11_MEMBER_1_1_STROKES"/>
</g>

<g transform="matrix( 1, 0, 0, 1, 0,0) ">
<use xlink:href="#car_ylw_behind_svg_0_Layer0_0_MEMBER_12_MEMBER_0_FILL"/>
</g>

<g transform="matrix( 1, 0, 0, 1, 0,0) ">
<use xlink:href="#car_ylw_behind_svg_0_Layer0_0_MEMBER_12_MEMBER_1_1_STROKES"/>
</g>

<g transform="matrix( 1, 0, 0, 1, 0,0) ">
<use xlink:href="#car_ylw_behind_svg_0_Layer0_0_MEMBER_13_FILL"/>
</g>

<g transform="matrix( 1, 0, 0, 1, 0,0) ">
<use xlink:href="#car_ylw_behind_svg_0_Layer0_0_MEMBER_14_FILL"/>
</g>

<g transform="matrix( 1, 0, 0, 1, 0,0) ">
<use xlink:href="#car_ylw_behind_svg_0_Layer0_0_MEMBER_15_FILL"/>
</g>

<g transform="matrix( 1, 0, 0, 1, 0,0) ">
<use xlink:href="#car_ylw_behind_svg_0_Layer0_0_MEMBER_16_MEMBER_0_FILL"/>
</g>

<g transform="matrix( 1, 0, 0, 1, 0,0) ">
<use xlink:href="#car_ylw_behind_svg_0_Layer0_0_MEMBER_16_MEMBER_1_FILL"/>
</g>

<g transform="matrix( 1, 0, 0, 1, 0,0) ">
<use xlink:href="#car_ylw_behind_svg_0_Layer0_0_MEMBER_16_MEMBER_2_FILL"/>
</g>

<g transform="matrix( 1, 0, 0, 1, 0,0) ">
<use xlink:href="#car_ylw_behind_svg_0_Layer0_0_MEMBER_17_FILL"/>
</g>

<g transform="matrix( 1, 0, 0, 1, 0,0) ">
<use xlink:href="#car_ylw_behind_svg_0_Layer0_0_MEMBER_18_FILL"/>
</g>

<g transform="matrix( 1, 0, 0, 1, 0,0) ">
<use xlink:href="#car_ylw_behind_svg_0_Layer0_0_MEMBER_19_FILL"/>
</g>

<g transform="matrix( 1, 0, 0, 1, 0,0) ">
<use xlink:href="#car_ylw_behind_svg_0_Layer0_0_MEMBER_20_MEMBER_0_FILL"/>
</g>

<g transform="matrix( 1, 0, 0, 1, 0,0) ">
<use xlink:href="#car_ylw_behind_svg_0_Layer0_0_MEMBER_20_MEMBER_1_FILL"/>
</g>

<g transform="matrix( 1, 0, 0, 1, 0,0) ">
<use xlink:href="#car_ylw_behind_svg_0_Layer0_0_MEMBER_20_MEMBER_2_FILL"/>
</g>

<g transform="matrix( 1, 0, 0, 1, 0,0) ">
<use xlink:href="#car_ylw_behind_svg_0_Layer0_0_MEMBER_21_FILL"/>
</g>

<g transform="matrix( 1, 0, 0, 1, 0,0) ">
<use xlink:href="#car_ylw_behind_svg_0_Layer0_0_MEMBER_22_FILL"/>
</g>

<g transform="matrix( 1, 0, 0, 1, 0,0) ">
<use xlink:href="#car_ylw_behind_svg_0_Layer0_0_MEMBER_23_FILL"/>
</g>

<g transform="matrix( 1, 0, 0, 1, 0,0) ">
<use xlink:href="#car_ylw_behind_svg_0_Layer0_0_MEMBER_24_FILL"/>
</g>

<g transform="matrix( 1, 0, 0, 1, 0,0) ">
<use xlink:href="#car_ylw_behind_svg_0_Layer0_0_MEMBER_25_FILL"/>
</g>

<g transform="matrix( 1, 0, 0, 1, 122.3,47.8) ">
<g transform="matrix( 1, 0, 0, 1, 0,0) ">
<use filter="url(#Filter_1)" xlink:href="#car_ylw_behind_svg_Assets_Layer_1__Path__8_0_Layer0_0_1_STROKES"/>
</g>
</g>

<g transform="matrix( 1, 0, 0, 1, 168.7,72.45) ">
<g transform="matrix( 1, 0, 0, 1, 0,0) ">
<use filter="url(#Filter_1)" xlink:href="#car_ylw_behind_svg_Assets_Layer_1__Path__7_0_Layer0_0_1_STROKES"/>
</g>
</g>

<g transform="matrix( 1, 0, 0, 1, 0,0) ">
<use xlink:href="#car_ylw_behind_svg_0_Layer0_0_MEMBER_28_1_STROKES"/>
</g>

<g transform="matrix( 1, 0, 0, 1, 0,0) ">
<use xlink:href="#car_ylw_behind_svg_0_Layer0_0_MEMBER_29_1_STROKES"/>
</g>

<g transform="matrix( 1, 0, 0, 1, 0,0) ">
<use xlink:href="#car_ylw_behind_svg_0_Layer0_0_MEMBER_30_FILL"/>
</g>

<g transform="matrix( 1, 0, 0, 1, 202.35,49.4) ">
<g transform="matrix( 1, 0, 0, 1, 0,0) ">
<use filter="url(#Filter_2)" xlink:href="#car_ylw_behind_svg_Assets_Layer_1__Path__3_0_Layer0_0_FILL"/>
</g>
</g>

<g transform="matrix( 1, 0, 0, 1, 0,0) ">
<use xlink:href="#car_ylw_behind_svg_0_Layer0_0_MEMBER_32_FILL"/>
</g>

<g transform="matrix( 1, 0, 0, 1, 0,0) ">
<use xlink:href="#car_ylw_behind_svg_0_Layer0_0_MEMBER_33_FILL"/>
</g>

<g transform="matrix( 1, 0, 0, 1, 0,0) ">
<use xlink:href="#car_ylw_behind_svg_0_Layer0_0_MEMBER_34_FILL"/>
</g>
</g>
</g>

<g transform="matrix( 1, 0, 0, 1, 1171.75,-3.7) ">
<g transform="matrix( 1, 0, 0, 1, 267.25,108.45) ">
<g transform="matrix( 0.4978485107421875, 0, 0, 0.4978485107421875, 0,0) ">
<g transform="matrix( 1, 0, 0, 1, 0,0) ">
<use xlink:href="#future_windMillBlade_svg_0_Layer0_0_FILL"/>
</g>

<g transform="matrix( 1, 0, 0, 1, 0,0) ">
<use xlink:href="#future_windMillBlade_svg_0_Layer0_1_FILL"/>
</g>

<g transform="matrix( 1, 0, 0, 1, 0,0) ">
<use xlink:href="#future_windMillBlade_svg_0_Layer0_2_FILL"/>
</g>
</g>
</g>

<g transform="matrix( 0.7857208251953125, 0, 0, 0.7857208251953125, 317.15,5.5) ">
<g transform="matrix( 0.4978485107421875, 0, 0, 0.4978485107421875, 0,0) ">
<g transform="matrix( 1, 0, 0, 1, 0,0) ">
<use xlink:href="#future_windMillBlade_svg_0_Layer0_0_FILL"/>
</g>

<g transform="matrix( 1, 0, 0, 1, 0,0) ">
<use xlink:href="#future_windMillBlade_svg_0_Layer0_1_FILL"/>
</g>

<g transform="matrix( 1, 0, 0, 1, 0,0) ">
<use xlink:href="#future_windMillBlade_svg_0_Layer0_2_FILL"/>
</g>
</g>
</g>

<g transform="matrix( 0.7857208251953125, 0, 0, 0.7857208251953125, 0.1,-0.65) ">
<g transform="matrix( 0.4978485107421875, 0, 0, 0.4978485107421875, 0,0) ">
<g transform="matrix( 1, 0, 0, 1, 0,0) ">
<use xlink:href="#future_windMillBlade_svg_0_Layer0_0_FILL"/>
</g>

<g transform="matrix( 1, 0, 0, 1, 0,0) ">
<use xlink:href="#future_windMillBlade_svg_0_Layer0_1_FILL"/>
</g>

<g transform="matrix( 1, 0, 0, 1, 0,0) ">
<use xlink:href="#future_windMillBlade_svg_0_Layer0_2_FILL"/>
</g>
</g>
</g>

<g transform="matrix( 0.385284423828125, 0, 0, 0.385284423828125, 288.15,135.75) ">
<g transform="matrix( 1, 0, 0, 1, 0,169.45) ">
<g transform="matrix( 1, 0, 0, 1, 0,0) ">
<use filter="url(#Filter_3)" xlink:href="#future_wnidmill_svg_Assets_Layer_1__Path__6_0_Layer0_0_FILL"/>
</g>
</g>

<g transform="matrix( 1, 0, 0, 1, 0,0) ">
<use xlink:href="#future_wnidmill_svg_0_Layer0_0_MEMBER_1_FILL"/>
</g>

<g transform="matrix( 1, 0, 0, 1, 0,0) ">
<use xlink:href="#future_wnidmill_svg_0_Layer0_0_MEMBER_2_FILL"/>
</g>

<g transform="matrix( 1, 0, 0, 1, 0,0) ">
<use xlink:href="#future_wnidmill_svg_0_Layer0_0_MEMBER_3_FILL"/>
</g>

<g transform="matrix( 1, 0, 0, 1, 0,0) ">
<use xlink:href="#future_wnidmill_svg_0_Layer0_0_MEMBER_4_FILL"/>
</g>

<g transform="matrix( 1, 0, 0, 1, 0,0) ">
<use xlink:href="#future_wnidmill_svg_0_Layer0_0_MEMBER_5_FILL"/>
</g>

<g transform="matrix( 1, 0, 0, 1, 0,0) ">
<use xlink:href="#future_wnidmill_svg_0_Layer0_0_MEMBER_6_FILL"/>
</g>
</g>

<g transform="matrix( 0.3387908935546875, 0, 0, 0.3318023681640625, 333.45,26.75) ">
<g transform="matrix( 1, 0, 0, 1, 0,169.45) ">
<g transform="matrix( 1, 0, 0, 1, 0,0) ">
<use filter="url(#Filter_3)" xlink:href="#future_wnidmill_svg_Assets_Layer_1__Path__6_0_Layer0_0_FILL"/>
</g>
</g>

<g transform="matrix( 1, 0, 0, 1, 0,0) ">
<use xlink:href="#future_wnidmill_svg_0_Layer0_0_MEMBER_1_FILL"/>
</g>

<g transform="matrix( 1, 0, 0, 1, 0,0) ">
<use xlink:href="#future_wnidmill_svg_0_Layer0_0_MEMBER_2_FILL"/>
</g>

<g transform="matrix( 1, 0, 0, 1, 0,0) ">
<use xlink:href="#future_wnidmill_svg_0_Layer0_0_MEMBER_3_FILL"/>
</g>

<g transform="matrix( 1, 0, 0, 1, 0,0) ">
<use xlink:href="#future_wnidmill_svg_0_Layer0_0_MEMBER_4_FILL"/>
</g>

<g transform="matrix( 1, 0, 0, 1, 0,0) ">
<use xlink:href="#future_wnidmill_svg_0_Layer0_0_MEMBER_5_FILL"/>
</g>

<g transform="matrix( 1, 0, 0, 1, 0,0) ">
<use xlink:href="#future_wnidmill_svg_0_Layer0_0_MEMBER_6_FILL"/>
</g>
</g>

<g transform="matrix( 0.313140869140625, 0, 0, 0.3434295654296875, 15.8,20.8) ">
<g transform="matrix( 1, 0, 0, 1, 0,169.45) ">
<g transform="matrix( 1, 0, 0, 1, 0,0) ">
<use filter="url(#Filter_3)" xlink:href="#future_wnidmill_svg_Assets_Layer_1__Path__6_0_Layer0_0_FILL"/>
</g>
</g>

<g transform="matrix( 1, 0, 0, 1, 0,0) ">
<use xlink:href="#future_wnidmill_svg_0_Layer0_0_MEMBER_1_FILL"/>
</g>

<g transform="matrix( 1, 0, 0, 1, 0,0) ">
<use xlink:href="#future_wnidmill_svg_0_Layer0_0_MEMBER_2_FILL"/>
</g>

<g transform="matrix( 1, 0, 0, 1, 0,0) ">
<use xlink:href="#future_wnidmill_svg_0_Layer0_0_MEMBER_3_FILL"/>
</g>

<g transform="matrix( 1, 0, 0, 1, 0,0) ">
<use xlink:href="#future_wnidmill_svg_0_Layer0_0_MEMBER_4_FILL"/>
</g>

<g transform="matrix( 1, 0, 0, 1, 0,0) ">
<use xlink:href="#future_wnidmill_svg_0_Layer0_0_MEMBER_5_FILL"/>
</g>

<g transform="matrix( 1, 0, 0, 1, 0,0) ">
<use xlink:href="#future_wnidmill_svg_0_Layer0_0_MEMBER_6_FILL"/>
</g>
</g>
</g>
</svg>
