
<svg xmlns="http://www.w3.org/2000/svg" version="1.1" xmlns:xlink="http://www.w3.org/1999/xlink" preserveAspectRatio="none" x="0px" y="0px" width="1340px" height="780px" viewBox="0 0 1340 780">
<defs>
<g id="Mask_2_MASK_0_FILL">
<path fill="#FFFFFF" stroke="none" d="
M 1925 785
L 1925 -300 0 -300 0 785 1925 785
M 734.05 -15.6
Q 735.1849609375 -17.2185546875 735.25 -17.3
L 733.75 -17.85 733.75 -20.4 737.65 -22.5 741.05 -20.95 741.05 -18.5 737.4 -16.45 735.45 -17.2 717.25 23.7 724.35 19.5 724.35 19.4 727.95 17.4 727.95 11.85 738.7 6.1 747.1 9.95 747.65 6.7 754.85 9.7 754.85 2.6 762.85 5.45 763.9 -2.2 772.45 0 774.05 -8.3 781.45 -5.55 782.25 -13.8 791 -10.7 792.4 -18.35 800 -16.35 801 -23.7 808.8 -21.7 810.6 -28.55 818.1 -26.25 820.1 -34.6 822.35 -33.25
Q 822.45 -34.8 823.4 -35.95 824.4 -37.15 825.9 -37.5 827.45 -37.55 828.7 -36.5 829.9 -35.5 830.1 -33.9 830.05 -32.35 829.05 -31.15 828.05 -29.95 826.55 -29.6 825.55 -29.45 824.7 -29.8
L 772.45 0 749.1 13.3 749.95 16.1 752.75 17.35 752.75 18.95 749.85 20.55 750.45 20.85 750.45 22.15 740.4 27.65 747.4 34.95 738.3 45 738.3 45.05 738.3 46.15 738.35 46.2 747.35 56.7 739.25 67.35 739.2 67.4 739.2 67.5 739.45 72.75 739.5 72.85 747.35 84.05 746.15 85.6
Q 746.85 85.8 747.15 86
L 869.45 156.65 922.3 126.25 922.3 110.25 926.85 107.65
Q 926.85 105.95 928.05 104.75 929.2 103.55 930.9 103.55 932.6 103.55 933.75 104.75 934.95 105.95 934.95 107.65
L 934.95 107.8 938.6 109.9 938.6 100.65 941.85 100.75 940.3 99.8 1005.9 102.4 1140.75 105.95 1140.75 114.85 1141.05 114.65 1141.55 155.35 1140.65 155.9 1140.5 230.5 1143.1 232 1143.05 249.8 1117.15 234 1013.35 296.3 1014.6 307 992.25 294.1 945 321.75 945.4 331.45 949.5 338.2 946 344.1 946.85 364.75 949.55 368.55 947.2 372.25 948.2 396.5 949.5 398.45 948.35 399.95 949.5 426.95 941.25 414 942 431.5 932 415.9 940.8 404.45 940.7 401.05 940.7 401 932.15 388.55 939.65 376.75 939.3 369.25 932.15 359.05 938.4 348.6 937.9 335.95 933.35 328.5 922.35 334.95 922.35 335.85 916.9 339 916.9 340 916.25 340.35 916.25 416.25 926.45 420.55 926.45 433.75 899.8 449 876.8 435.75 876.8 422.6 887.8 416.25 887.8 408.85 841.7 382.1 799.9 406.5 799.9 406.85 795.65 409.35 795.65 483.25 805.85 487.55 805.85 500.7 779.15 516 756.15 502.75 756.15 489.55 767.15 483.2 767.15 475.8 723.15 450.25 560.45 544.6 561.25 574.6 530.5 568.85 530.5 573.3 522.1 568.5 522.1 567.3 521.5 567.2 492.45 584.05 501.9 559.15 501.6 558.95 492.45 582.95 327.3 486.65 337 461.3 344.25 465.5 338.15 461.8 338.45 461.6 337.85 461.3 348 455.5 348 432.1 352.5 429.5
Q 352.6 427.8 353.85 426.7 355.1 425.6 356.8 425.65 358.35 425.75 359.45 426.85 360.6 427.95 360.65 429.5
L 360.65 429.65 364.85 432.1 364.85 438.1 375 440 603.4 309.25 601.8 309.25 589.55 316.8 589.55 316.1 561.7 330.1 544.7 322.7 544.7 320 579 303.9 589.55 308.1 589.55 291.85 561.7 305.85 544.7 298.45 544.7 295.8 579 279.6 589.55 283.75 589.55 181.5 597.45 177.05
Q 597.7 176.6 598 176.2 598.5 175.55 599.25 175.05 598 173.35 598.35 171.3 598.7 169.2 600.4 167.95
L 600.85 167.65 732.6 91.55 732 77.4 732 77.3 731.95 77.25 729.9 74.35 731.75 71.95 730.85 50.8 730.85 50.75 730.8 50.7 730.3 50.1 730.75 49.65 730.8 49.6 730.8 49.55 729.9 29.1 738 37.5 737.6 27.85 727.45 23.75 727.45 22.75 703.25 37.1 706.15 38.25 706.15 43.25 705.65 43.55 706.15 43.75 706.15 48.75 705.5 49.15 706.15 49.4 706.15 54.4 705.65 54.7 706.15 54.95 706.15 59.9 705.55 60.25 706.15 60.5 706.15 65.45 703.65 66.95 690.65 61.85 690.65 56.8 691.15 56.5 690.65 56.3 690.65 51.2 691.1 51 690.65 50.8 690.65 45.7 691.2 45.45 690.65 45.2 690.65 40 691.05 39.8 690.65 39.65 690.65 34.6 693.4 33.1 698.05 35 699.9 33.9
Q 705.45 25.85 710.1 19.1 719.1 6.05 724.9 -2.3 731.7451171875 -12.247265625 734.05 -15.6
M 816.25 92.55
Q 816.9 91.55 817.4 91.4
L 819.85 94.4 819.75 94.75 837.75 106.05 837.8 116.55 833.85 119.25 815.55 107.85
Q 813.7 107.6 812.8 106.15
L 791 92.6 791 82 795.15 79.3 816.25 92.55
M 948.35 399.95
L 948.2 396.5 939.95 384.45 940.7 401 940.7 401.05 942 402.95 940.8 404.45 941.05 409.4 948.35 399.95
M 940.95 324.1
L 937.45 326.15 937.9 335.95 942 342.7 938.45 348.6 939.3 369.25 942 373.05 939.65 376.75 939.95 383.65 947.15 372.25 946.85 364.75 939.7 354.55 945.95 344.1 945.4 331.45 940.95 324.1
M 739.05 62.35
L 731.75 71.95 731.95 77.25 732 77.3 732 77.4 739.25 87.7 740.1 87.2 739.5 72.85 739.45 72.75 737.45 69.85 739.2 67.5 739.2 67.4 739.25 67.35 739.05 62.35
M 738.3 45
L 738.15 41.4 730.8 49.55 730.8 49.6 730.75 49.65 730.8 50.7 730.85 50.75 730.85 50.8 738.95 60.15 738.35 46.2 738.3 46.15 737.8 45.6 738.3 45.05 738.3 45
M 729.95 446.25
L 761.1 464.25 746.35 436.7 729.95 446.25
M 762.05 428.85
L 762.05 427.6 752.7 433 767.05 460.45 767.05 425.9 762.05 428.85
M 866 367.85
L 848.5 378.1 881.75 397.3 866 367.85
M 887.75 355.95
L 884.55 357.85 884.55 357.05 872.4 364.15 887.75 393.5 887.75 355.95
M 630.25 240
Q 623.2 236.75 617.95 237.25
L 617.95 300.45 635.25 290.25 636.8 290.15 676 267.7 630.25 240 Z"/>
</g>

<g id="scr1_boat_2_svg_0_Layer0_0_MEMBER_0_FILL">
<path fill="#1791DC" stroke="none" d="
M 11.7 5.1
Q 11.75 4.55 10.75 4.3 9.8 4.1 8.5 4.3 7.4 4.45 7.2 4.3 7 3.95 6.7 3.55 6.35 3.1 6 3.5 5.6 4.2 5.3 4.5 5.05 4.8 5.7 4.7 6.25 4.65 5.9 4.9 5.5 5.25 4.75 5 3.5 4.55 3.35 4.55 2.95 4.55 2.5 5.1 2.25 5.45 1.8 4.8
L 0.55 3.05
Q 0.3 2.65 0.05 3.15 -0.15 3.6 0.4 3.55 1.5 3.55 1.15 5.65 1.05 6.3 1.65 6.45 2 6.55 3 6.55 3.85 6.65 4 6.75 4.25 6.9 4.1 7.55 3.95 8.2 4.5 8.9 5.1 9.55 5.35 9.05 5.85 8.3 6.7 7.9
L 6.8 8.1
Q 8.35 8.25 9.8 7.9 11.55 7.5 11.7 5.1 Z"/>
</g>

<g id="scr1_boat_2_svg_0_Layer0_0_MEMBER_1_FILL">
<path fill="#1791DC" stroke="none" d="
M 23.8 17.05
L 21.65 15.5 6.35 8.4
Q 6.25 8.45 6.15 8.65 5.85 9.1 5.95 9.65 6.05 10.15 6.55 10.45 8.55 12.25 10.9 13.25 11.8 13.65 13.25 14.15 14.7 14.8 16.65 16.2 18.5 17.5 21.35 17.4 22.75 17.35 23.8 17.05 Z"/>
</g>

<g id="scr1_boat_2_svg_0_Layer0_0_MEMBER_2_FILL">
<path fill="#82E4FF" stroke="none" d="
M 21 17.05
L 21.35 16.65 16.35 13.75
Q 13.9 12.2 11.4 10.85 6.45 8.1 6.15 8.9 5.9 9.75 8.45 11.45 9.75 12.3 11.15 13.05 13.75 14.1 16.5 15.8 18.4 16.95 19.9 17.1 20.65 17.2 21 17.05 Z"/>
</g>

<g id="scr1_boat_2_svg_0_Layer0_0_MEMBER_3_FILL">
<path fill="#986350" stroke="none" d="
M 8.4 4.65
Q 7.85 4.85 8 5.35 7.9 5.9 8.5 6.05 9.1 5.85 9 5.3 9 5 8.8 4.8 8.65 4.6 8.4 4.65
M 8.4 4.95
Q 8.7 4.95 8.7 5.3 8.75 5.6 8.45 5.7 8.15 5.7 8.15 5.35 8.05 4.95 8.4 4.95 Z"/>
</g>

<g id="scr1_boat_2_svg_0_Layer0_0_MEMBER_4_FILL">
<path fill="#B0775F" stroke="none" d="
M 9.1 5.3
Q 9.1 4.65 8.55 4.65 7.95 4.75 8.05 5.35 8.05 6 8.6 6 9.1 6 9.1 5.3
M 8.25 5.35
Q 8.25 4.95 8.55 4.95 8.75 4.95 8.85 5.3 8.85 5.7 8.55 5.7 8.35 5.7 8.25 5.35 Z"/>
</g>

<g id="scr1_boat_2_svg_0_Layer0_0_MEMBER_5_FILL">
<path fill="#D1A99A" stroke="none" d="
M 8.35 5.6
Q 8.3 5.4 8.35 5.15 8.15 5.1 8 5.15 7.9 5.4 8 5.65 8.2 5.85 8.35 5.6 Z"/>
</g>

<g id="scr1_boat_2_svg_0_Layer0_0_MEMBER_6_FILL">
<path fill="#D1A99A" stroke="none" d="
M 8.4 5.05
Q 8.55 4.9 8.75 5.05 8.85 4.85 8.75 4.75 8.55 4.6 8.3 4.75 8.45 4.85 8.4 5.05 Z"/>
</g>

<g id="scr1_boat_2_svg_0_Layer0_0_MEMBER_7_FILL">
<path fill="#D1A99A" stroke="none" d="
M 8.65 6.05
L 8.95 5.85
Q 9 5.65 8.85 5.55 8.8 5.7 8.65 5.7 8.85 5.9 8.65 6.05 Z"/>
</g>

<g id="scr1_boat_2_svg_0_Layer0_0_MEMBER_8_FILL">
<path fill="#986350" stroke="none" d="
M 7.3 5.45
Q 7.1 5.45 6.95 5.65 6.8 5.9 6.85 6.15 6.85 6.9 7.4 6.8 7.95 6.8 7.85 6.1 7.75 5.45 7.3 5.45
M 7.3 5.75
Q 7.6 5.75 7.6 6.1 7.7 6.4 7.35 6.5 7.05 6.5 7.05 6.15 7.05 5.75 7.3 5.75 Z"/>
</g>

<g id="scr1_boat_2_svg_0_Layer0_0_MEMBER_9_FILL">
<path fill="#B0775F" stroke="none" d="
M 7.45 5.45
Q 6.95 5.45 6.95 6.15 6.95 6.7 7.5 6.8 8.1 6.7 8 6.1 8 5.8 7.8 5.6 7.65 5.4 7.45 5.45
M 7.45 5.75
Q 7.75 5.75 7.75 6.1 7.75 6.5 7.5 6.5 7.25 6.5 7.15 6.15 7.15 5.85 7.45 5.75 Z"/>
</g>

<g id="scr1_boat_2_svg_0_Layer0_0_MEMBER_10_FILL">
<path fill="#D1A99A" stroke="none" d="
M 7.3 6.4
Q 7.15 6.15 7.2 5.95
L 6.85 5.95
Q 6.8 6.15 6.9 6.45 7.1 6.6 7.3 6.4 Z"/>
</g>

<g id="scr1_boat_2_svg_0_Layer0_0_MEMBER_11_FILL">
<path fill="#D1A99A" stroke="none" d="
M 7.3 5.8
Q 7.45 5.7 7.65 5.85
L 7.65 5.8
Q 7.75 5.7 7.65 5.5 7.45 5.45 7.2 5.5 7.4 5.6 7.3 5.8 Z"/>
</g>

<g id="scr1_boat_2_svg_0_Layer0_0_MEMBER_12_FILL">
<path fill="#D1A99A" stroke="none" d="
M 7.55 6.8
L 7.85 6.65
Q 7.95 6.45 7.75 6.35 7.6 6.5 7.55 6.5 7.7 6.65 7.55 6.8 Z"/>
</g>

<g id="scr1_boat_2_svg_0_Layer0_0_MEMBER_13_FILL">
<path fill="#192B3A" stroke="none" d="
M 8 7.05
L 5.85 7.7
Q 5.95 8.5 6.3 9.15 6.65 9.6 7 9.95 7.25 10.35 18.95 16.7 19.45 17.05 22.6 17 25.85 16.95 27.5 16.45
L 8 7.05 Z"/>
</g>

<g id="scr1_boat_2_svg_0_Layer0_0_MEMBER_14_FILL">
<path fill="#F4F4F4" stroke="none" d="
M 26.15 12.75
Q 25.2 11.6 24.05 10.85
L 11.65 4.05
Q 11 3.75 10.5 3.85
L 10.15 4.05
Q 9.1 4.8 8.05 5.6 5.95 7.2 5.85 7.5 5.75 8 6.15 8.3
L 20.15 16.05
Q 23.9 16.95 27.75 16.65 27.2 14.75 26.15 12.75 Z"/>
</g>

<g id="scr1_boat_2_svg_0_Layer0_0_MEMBER_15_FILL">
<path fill="#FFFFFF" stroke="none" d="
M 26.15 12.75
Q 25.15 11.45 24 10.75
L 11.65 4.05
Q 11 3.75 10.5 3.85
L 10.15 4.05
Q 9.1 4.8 8.05 5.6 5.95 7.25 5.85 7.55 5.7 7.95 6.15 8.3
L 6.35 8.4 10.35 5.2
Q 11 4.7 11.7 5.1
L 23.7 11.8 24.4 12.55
Q 25.35 13.85 26.7 16.45
L 26.7 16.7 27.7 16.65
Q 27.05 14.5 26.15 12.75 Z"/>
</g>

<g id="scr1_boat_2_svg_0_Layer0_0_MEMBER_18_FILL">
<path fill="#AEC6DA" stroke="none" d="
M 11.05 9.8
L 16.25 12.6 16.25 10.4 11.05 7.25 11.05 9.8 Z"/>
</g>

<g id="scr1_boat_2_svg_0_Layer0_0_MEMBER_19_FILL">
<path fill="#FFFFFF" stroke="none" d="
M 11.05 7.25
L 16.25 10.4 18.9 8.4 13.6 5.45 11.05 7.25 Z"/>
</g>

<g id="scr1_boat_2_svg_0_Layer0_0_MEMBER_20_FILL">
<path fill="#839FBB" stroke="none" d="
M 18.9 8.4
L 16.25 10.4 16.25 12.6 18.9 10.6 18.9 8.4 Z"/>
</g>

<g id="scr1_boat_2_svg_0_Layer0_0_MEMBER_21_FILL">
<path fill="#D7D6BF" stroke="none" d="
M 21.35 11.8
L 19.3 10.65 16.3 12.55 18.45 13.7 21.35 11.8 Z"/>
</g>

<g id="scr1_boat_2_svg_0_Layer0_0_MEMBER_22_FILL">
<path fill="#D4CAA1" stroke="none" d="
M 18.4 13.65
L 21.3 11.75 18.75 10.2 16.2 11.8 16.25 12.5 18.4 13.65 Z"/>
</g>

<g id="scr1_boat_2_svg_0_Layer0_0_MEMBER_23_FILL">
<path fill="#AEC6DA" stroke="none" d="
M 18.45 13.85
L 21.35 11.9 21.35 11.15 18.95 9.9 16.2 11.8 16.25 12.6 18.45 13.85 Z"/>
</g>

<g id="scr1_boat_2_svg_0_Layer0_0_MEMBER_24_FILL">
<path fill="#C4C2B8" stroke="none" d="
M 21.3 11.15
L 18.95 9.9 16.2 11.8 18.45 13.1 21.3 11.15 Z"/>
</g>

<g id="scr1_boat_2_svg_0_Layer0_0_MEMBER_25_FILL">
<path fill="#FFFFFF" stroke="none" d="
M 21.3 11.15
L 18.95 9.9 16.2 11.8 18.45 13.1 21.3 11.15 Z"/>
</g>

<g id="scr1_boat_2_svg_0_Layer0_0_MEMBER_26_FILL">
<path fill="#F2F7FC" stroke="none" d="
M 16.1 6.15
L 14.7 7.2 16.2 8.15 17.55 7.1 16.1 6.15 Z"/>
</g>

<g id="scr1_boat_2_svg_0_Layer0_0_MEMBER_27_FILL">
<path fill="#AEC6DA" stroke="none" d="
M 16.2 8.15
L 14.7 7.2 14.7 8.7 16.2 9.65 16.2 8.15 Z"/>
</g>

<g id="scr1_boat_2_svg_0_Layer0_0_MEMBER_28_FILL">
<path fill="#839FBB" stroke="none" d="
M 16.2 9.65
L 17.55 8.6 17.55 7.1 16.2 8.15 16.2 9.65 Z"/>
</g>

<g id="scr1_boat_2_svg_0_Layer0_0_MEMBER_33_FILL">
<path fill="#EFE3DA" stroke="none" d="
M 16.5 11.8
L 16.85 11.9 22.3 8.5 21.95 8.35 16.5 11.8 Z"/>
</g>

<g id="scr1_boat_2_svg_0_Layer0_0_MEMBER_34_FILL">
<path fill="#D1B29D" stroke="none" d="
M 22.3 8.5
L 16.85 11.9 16.95 12.8 22.3 9.4 22.3 8.5 Z"/>
</g>

<g id="scr1_boat_2_svg_0_Layer0_0_MEMBER_35_FILL">
<path fill="#E0D3CA" stroke="none" d="
M 16.5 11.8
L 16.55 12.65 16.95 12.8 16.85 11.9 16.5 11.8 Z"/>
</g>

<g id="scr1_boat_2_svg_0_Layer0_0_MEMBER_36_FILL">
<path fill="#EFE3DA" stroke="none" d="
M 16.85 11.95
L 17.25 12.05 22.7 8.65 22.35 8.5 16.85 11.95 Z"/>
</g>

<g id="scr1_boat_2_svg_0_Layer0_0_MEMBER_37_FILL">
<path fill="#D1B29D" stroke="none" d="
M 22.7 8.65
L 17.25 12.05 17.35 12.95 22.7 9.55 22.7 8.65 Z"/>
</g>

<g id="scr1_boat_2_svg_0_Layer0_0_MEMBER_38_FILL">
<path fill="#E0D3CA" stroke="none" d="
M 16.85 11.95
L 16.95 12.85 17.35 12.95 17.25 12.05 16.85 11.95 Z"/>
</g>

<g id="scr1_boat_2_svg_0_Layer0_0_MEMBER_40_FILL">
<path fill="#82E4FF" stroke="none" d="
M 6.6 4.9
Q 6.5 4.9 5.3 5.45 4.3 5.95 4 5.65 3.6 5.15 3 5.4 2.35 5.75 2.6 5.85 2.8 5.95 3.3 5.9 3.6 5.85 3.75 5.95 3.8 6 4 6.2 4.35 6.45 4.4 6.5 4.7 6.55 5.3 6.05 5.8 5.65 5.95 6.1 6.1 6.55 6.55 6.15
L 7.65 5.15 6.6 4.9 Z"/>
</g>

<path id="scr1_boat_2_svg_0_Layer0_0_MEMBER_16_1_STROKES" stroke="#D7D7D7" stroke-width="1" stroke-linejoin="miter" stroke-linecap="butt" stroke-miterlimit="10" fill="none" d="
M 19.85 15.65
L 21.4 16.15
Q 23.8 16.7 27.85 16.65 26.65 12.9 25.2 11.65 24.4 10.95 18.65 7.75 13.6 4.95 11.4 3.85 10.75 3.45 10.1 3.95
L 6.3 7.05
Q 5.7 7.5 6.15 8.05
L 6.35 8.25 19.85 15.65 Z"/>

<path id="scr1_boat_2_svg_0_Layer0_0_MEMBER_17_1_STROKES" stroke="#FFFFFF" stroke-width="0.25" stroke-linejoin="miter" stroke-linecap="butt" stroke-miterlimit="10" fill="none" d="
M 6.3 9.05
L 19.7 16.5
Q 21.35 17.05 24.1 17.05"/>

<path id="scr1_boat_2_svg_0_Layer0_0_MEMBER_29_1_STROKES" stroke="#333F49" stroke-width="0.25" stroke-linejoin="miter" stroke-linecap="butt" stroke-miterlimit="10" fill="none" d="
M 15.975 2.05
L 16.35 2.85 15.9 3.5 15.9 3.6 16.5 4.5 15.8 4.95 16.65 5.9 16.1 0.05 15.975 2.05 15.9 3.5 15.85 3.55 15.9 3.6 15.8 4.95 15.6 7.1
M 16.65 5.9
L 15.8 6.5 16.75 7.05 16.65 5.9 Z"/>

<path id="scr1_boat_2_svg_0_Layer0_0_MEMBER_30_1_STROKES" stroke="#333F49" stroke-width="0.25" stroke-linejoin="miter" stroke-linecap="butt" stroke-miterlimit="10" fill="none" d="
M 16 2.1
L 21.1 5.75 16 1.2"/>

<path id="scr1_boat_2_svg_0_Layer0_0_MEMBER_31_1_STROKES" stroke="#333F49" stroke-width="0.25" stroke-linejoin="miter" stroke-linecap="butt" stroke-miterlimit="10" fill="none" d="
M 19.35 4.5
L 19.1 3.9 18.5 3.85 18.3 3.2 17.5 3.15 17.55 2.55 16.5 2.45 16.35 1.55"/>

<path id="scr1_boat_2_svg_0_Layer0_0_MEMBER_32_1_STROKES" stroke="#57636B" stroke-width="0.1" stroke-linejoin="miter" stroke-linecap="butt" stroke-miterlimit="10" fill="none" d="
M 20.85 5.5
Q 19.45 7.3 19.85 9.5"/>

<path id="scr1_boat_2_svg_0_Layer0_0_MEMBER_39_1_STROKES" stroke="#57636B" stroke-width="0.1" stroke-linejoin="miter" stroke-linecap="butt" stroke-miterlimit="10" fill="none" d="
M 20.2 11.15
Q 20.387890625 10.3984375 20.05 9.6 20 9.65 20 9.6 19.85 9.6 19.85 9.4
L 20 9.5
Q 20.02421875 9.5515625 20.05 9.6"/>
</defs>

<mask id="Mask_Mask_1">
<g transform="matrix( 1, 0, 0, 1, 0,0) ">
<use xlink:href="#Mask_2_MASK_0_FILL"/>
</g>
</mask>

<g mask="url(#Mask_Mask_1)">
<g transform="matrix( 1, 0, 0, 1, 571.7,448.55) ">
<g transform="matrix( 1, 0, 0, 1, 0,0) ">
<use xlink:href="#scr1_boat_2_svg_0_Layer0_0_MEMBER_0_FILL"/>
</g>

<g transform="matrix( 1, 0, 0, 1, 0,0) ">
<use xlink:href="#scr1_boat_2_svg_0_Layer0_0_MEMBER_1_FILL"/>
</g>

<g transform="matrix( 1, 0, 0, 1, 0,0) ">
<use xlink:href="#scr1_boat_2_svg_0_Layer0_0_MEMBER_2_FILL"/>
</g>

<g transform="matrix( 1, 0, 0, 1, 0,0) ">
<use xlink:href="#scr1_boat_2_svg_0_Layer0_0_MEMBER_3_FILL"/>
</g>

<g transform="matrix( 1, 0, 0, 1, 0,0) ">
<use xlink:href="#scr1_boat_2_svg_0_Layer0_0_MEMBER_4_FILL"/>
</g>

<g transform="matrix( 1, 0, 0, 1, 0,0) ">
<use xlink:href="#scr1_boat_2_svg_0_Layer0_0_MEMBER_5_FILL"/>
</g>

<g transform="matrix( 1, 0, 0, 1, 0,0) ">
<use xlink:href="#scr1_boat_2_svg_0_Layer0_0_MEMBER_6_FILL"/>
</g>

<g transform="matrix( 1, 0, 0, 1, 0,0) ">
<use xlink:href="#scr1_boat_2_svg_0_Layer0_0_MEMBER_7_FILL"/>
</g>

<g transform="matrix( 1, 0, 0, 1, 0,0) ">
<use xlink:href="#scr1_boat_2_svg_0_Layer0_0_MEMBER_8_FILL"/>
</g>

<g transform="matrix( 1, 0, 0, 1, 0,0) ">
<use xlink:href="#scr1_boat_2_svg_0_Layer0_0_MEMBER_9_FILL"/>
</g>

<g transform="matrix( 1, 0, 0, 1, 0,0) ">
<use xlink:href="#scr1_boat_2_svg_0_Layer0_0_MEMBER_10_FILL"/>
</g>

<g transform="matrix( 1, 0, 0, 1, 0,0) ">
<use xlink:href="#scr1_boat_2_svg_0_Layer0_0_MEMBER_11_FILL"/>
</g>

<g transform="matrix( 1, 0, 0, 1, 0,0) ">
<use xlink:href="#scr1_boat_2_svg_0_Layer0_0_MEMBER_12_FILL"/>
</g>

<g transform="matrix( 1, 0, 0, 1, 0,0) ">
<use xlink:href="#scr1_boat_2_svg_0_Layer0_0_MEMBER_13_FILL"/>
</g>

<g transform="matrix( 1, 0, 0, 1, 0,0) ">
<use xlink:href="#scr1_boat_2_svg_0_Layer0_0_MEMBER_14_FILL"/>
</g>

<g transform="matrix( 1, 0, 0, 1, 0,0) ">
<use xlink:href="#scr1_boat_2_svg_0_Layer0_0_MEMBER_15_FILL"/>
</g>

<g transform="matrix( 1, 0, 0, 1, 0,0) ">
<use xlink:href="#scr1_boat_2_svg_0_Layer0_0_MEMBER_16_1_STROKES"/>
</g>

<g transform="matrix( 1, 0, 0, 1, 0,0) ">
<use xlink:href="#scr1_boat_2_svg_0_Layer0_0_MEMBER_17_1_STROKES"/>
</g>

<g transform="matrix( 1, 0, 0, 1, 0,0) ">
<use xlink:href="#scr1_boat_2_svg_0_Layer0_0_MEMBER_18_FILL"/>
</g>

<g transform="matrix( 1, 0, 0, 1, 0,0) ">
<use xlink:href="#scr1_boat_2_svg_0_Layer0_0_MEMBER_19_FILL"/>
</g>

<g transform="matrix( 1, 0, 0, 1, 0,0) ">
<use xlink:href="#scr1_boat_2_svg_0_Layer0_0_MEMBER_20_FILL"/>
</g>

<g transform="matrix( 1, 0, 0, 1, 0,0) ">
<use xlink:href="#scr1_boat_2_svg_0_Layer0_0_MEMBER_21_FILL"/>
</g>

<g transform="matrix( 1, 0, 0, 1, 0,0) ">
<use xlink:href="#scr1_boat_2_svg_0_Layer0_0_MEMBER_22_FILL"/>
</g>

<g transform="matrix( 1, 0, 0, 1, 0,0) ">
<use xlink:href="#scr1_boat_2_svg_0_Layer0_0_MEMBER_23_FILL"/>
</g>

<g transform="matrix( 1, 0, 0, 1, 0,0) ">
<use xlink:href="#scr1_boat_2_svg_0_Layer0_0_MEMBER_24_FILL"/>
</g>

<g transform="matrix( 1, 0, 0, 1, 0,0) ">
<use xlink:href="#scr1_boat_2_svg_0_Layer0_0_MEMBER_25_FILL"/>
</g>

<g transform="matrix( 1, 0, 0, 1, 0,0) ">
<use xlink:href="#scr1_boat_2_svg_0_Layer0_0_MEMBER_26_FILL"/>
</g>

<g transform="matrix( 1, 0, 0, 1, 0,0) ">
<use xlink:href="#scr1_boat_2_svg_0_Layer0_0_MEMBER_27_FILL"/>
</g>

<g transform="matrix( 1, 0, 0, 1, 0,0) ">
<use xlink:href="#scr1_boat_2_svg_0_Layer0_0_MEMBER_28_FILL"/>
</g>

<g transform="matrix( 1, 0, 0, 1, 0,0) ">
<use xlink:href="#scr1_boat_2_svg_0_Layer0_0_MEMBER_29_1_STROKES"/>
</g>

<g transform="matrix( 1, 0, 0, 1, 0,0) ">
<use xlink:href="#scr1_boat_2_svg_0_Layer0_0_MEMBER_30_1_STROKES"/>
</g>

<g transform="matrix( 1, 0, 0, 1, 0,0) ">
<use xlink:href="#scr1_boat_2_svg_0_Layer0_0_MEMBER_31_1_STROKES"/>
</g>

<g transform="matrix( 1, 0, 0, 1, 0,0) ">
<use xlink:href="#scr1_boat_2_svg_0_Layer0_0_MEMBER_32_1_STROKES"/>
</g>

<g transform="matrix( 1, 0, 0, 1, 0,0) ">
<use xlink:href="#scr1_boat_2_svg_0_Layer0_0_MEMBER_33_FILL"/>
</g>

<g transform="matrix( 1, 0, 0, 1, 0,0) ">
<use xlink:href="#scr1_boat_2_svg_0_Layer0_0_MEMBER_34_FILL"/>
</g>

<g transform="matrix( 1, 0, 0, 1, 0,0) ">
<use xlink:href="#scr1_boat_2_svg_0_Layer0_0_MEMBER_35_FILL"/>
</g>

<g transform="matrix( 1, 0, 0, 1, 0,0) ">
<use xlink:href="#scr1_boat_2_svg_0_Layer0_0_MEMBER_36_FILL"/>
</g>

<g transform="matrix( 1, 0, 0, 1, 0,0) ">
<use xlink:href="#scr1_boat_2_svg_0_Layer0_0_MEMBER_37_FILL"/>
</g>

<g transform="matrix( 1, 0, 0, 1, 0,0) ">
<use xlink:href="#scr1_boat_2_svg_0_Layer0_0_MEMBER_38_FILL"/>
</g>

<g transform="matrix( 1, 0, 0, 1, 0,0) ">
<use xlink:href="#scr1_boat_2_svg_0_Layer0_0_MEMBER_39_1_STROKES"/>
</g>

<g transform="matrix( 1, 0, 0, 1, 0,0) ">
<use xlink:href="#scr1_boat_2_svg_0_Layer0_0_MEMBER_40_FILL"/>
</g>
</g>
</g>

<g mask="url(#Mask_Mask_1)"/>
</svg>
