
<svg xmlns="http://www.w3.org/2000/svg" version="1.1" xmlns:xlink="http://www.w3.org/1999/xlink" preserveAspectRatio="none" x="0px" y="0px" width="186px" height="674px" viewBox="0 0 186 674">
<defs>
<image id="Artboard_13_png" x="0" y="0" width="119" height="953" xlink:href="./images/Artboard_13_png.png"/>

<g id="Mask_13_MASK_0_FILL">
<path fill="#FFFFFF" stroke="none" d="
M 155.45 377.2
Q 145.15 377.45 123.7 377.35 80.85 377.15 25.2 375.35 25 377.4 25.2 420.7 25.25 442 25.45 473.35 25.7 520.85 26 567.7
L 26.85 573.95
Q 28.75 581.45 34 587.7 50.9 607.7 95.25 607.7 131.85 607.7 147.3 587.3 155.05 577.05 155.45 566.85
L 155.45 377.2 Z"/>
</g>

<g id="Mask_10_MASK_0_FILL">
<path fill="#FFFFFF" stroke="none" d="
M 155.45 400.05
Q 145.15 400.3 123.7 400.2 80.85 400 25.2 398.2 25 400.25 25.2 443.55 25.25 464.85 25.45 496.2 25.7 543.7 26 590.55
L 26.85 596.8
Q 28.75 604.3 34 610.55 50.9 630.55 95.25 630.55 131.85 630.55 147.3 610.15 155.05 599.9 155.45 589.7
L 155.45 400.05 Z"/>
</g>

<g id="grp_curve_0_Layer0_0_FILL">
<path fill="#46A8FF" stroke="none" d="
M 13.8 4.7
Q 11.5 8 10.25 8.85 9.85 9.1 8.1 10 6.6 10.8 5.6 11.6 4.55 12.5 2.3 15.25
L 0.3 17.85 0.4 26.9 13.65 18.75 13.8 4.7 Z"/>
</g>

<g id="grp_pie_0_Layer0_0_FILL">
<path fill="#43A7FF" stroke="none" d="
M 8.25 0
L 8.1 9.2
Q 14.4 12.95 15.2 13.05 15.25 6.55 11.75 2.65 10.65 1.4 9.35 0.6
L 8.25 0
M 7.15 9.85
L 7.15 1
Q 2.9 0.65 1.1 3.8 -0.5 6.6 0.25 10.85 1.05 15.1 3.55 17.95 6.35 21.1 9.8 20.7 12.25 20.4 13.8 17.75 14.55 16.45 14.85 15.15
L 7.15 9.85 Z"/>
</g>

<path id="Tween_2_0_Layer0_0_1_STROKES" stroke="#FFFFFF" stroke-width="1" stroke-linejoin="round" stroke-linecap="round" fill="none" d="
M 81 -322.7
L 81 -294.5
M 61.3 -179.45
L 61.3 -141.45
M 7.35 -21.9
L 7.35 -5.45
M 27.05 -64.9
L 27.05 -21.9
M 85.05 -106.2
L 85.05 -77
M 24.05 -126.4
L 24.05 -98.15
M 24.05 -228.15
L 24.05 -178.75
M 81 -246.15
L 81 -179.45
M 79 -440.5
L 79 -381.1
M 92.1 29.75
L 92.1 123.4
M 4.35 217.8
L 4.35 267.2
M 4.35 319.55
L 4.35 347.8
M 50.75 276
L 50.75 350.8
M 85.05 165.7
L 85.05 210
M 79 482.7
L 79 542.1
M 81 600.5
L 81 628.7
M 61.3 743.75
L 61.3 781.75
M 24.05 695.05
L 24.05 744.45
M 81 677.05
L 81 743.75
M 7.35 381.05
L 7.35 440.5
M 78 -30.65
L 78 3.55
M -20.85 -346.05
L -20.85 -265.45
M -28.95 -204.95
L -28.95 -139.45
M -92.05 -242.25
L -92.05 -95.15
M -91.9 -401.25
L -91.9 -328.75
M -20.85 -409.5
L -20.85 -380.3
M -20.85 36.45
L -20.85 65.65
M -20.85 99.9
L -20.85 180.5
M -91.9 44.7
L -91.9 117.2
M -92.05 203.7
L -92.05 276
M -28.95 241
L -28.95 306.5
M -20.85 513.7
L -20.85 542.9
M -28.95 718.25
L -28.95 783.75
M -91.9 521.95
L -91.9 594.45
M -20.85 577.15
L -20.85 657.75
M -20.85 959.65
L -20.85 988.85
M -20.85 1023.1
L -20.85 1103.7
M -91.9 967.9
L -91.9 1040.4
M -28.95 1164.2
L -28.95 1229.7
M -92.05 1126.9
L -92.05 1199.2
M 85.05 817
L 85.05 846.2
M 24.05 796.8
L 24.05 825.05
M 78 892.55
L 78 926.75
M 7.35 901.3
L 7.35 917.75
M 27.05 858.3
L 27.05 901.3
M 85.05 1088.9
L 85.05 1133.2
M 92.1 952.95
L 92.1 1046.6
M 4.35 1242.75
L 4.35 1271
M 50.75 1199.2
L 50.75 1274
M 7.35 1304.25
L 7.35 1363.7
M 4.35 1141
L 4.35 1190.4
M -92.05 680.95
L -92.05 828.05"/>

<path id="Tween_5_0_Layer0_0_1_STROKES" stroke="#46A8FF" stroke-width="1" stroke-linejoin="round" stroke-linecap="round" fill="none" d="
M 924 445.7
Q 923.8166015625 445.6576171875 923.65 445.6 923.945703125 445.634765625 924.3 445.75 924.1564453125 445.7341796875 924 445.7 Z"/>

<path id="grp_80_0_Layer0_0_1_STROKES" stroke="#46A8FF" stroke-width="0.7" stroke-linejoin="round" stroke-linecap="round" fill="none" d="
M 13.15 6.2
Q 13.85 6.35 14.05 7.15 14.25 7.85 14.05 8.35 13.45 9.9 12.45 9.25 11.85 8.85 11.7 8.1 11.55 7.35 11.9 6.8 12.2 6.3 12.5 6.2 12.65 6.15 13.15 6.2 Z
M 15.95 13.45
Q 16.65 13.6 16.85 14.4 17.05 15.1 16.85 15.6 16.25 17.15 15.25 16.5 14.65 16.1 14.5 15.35 14.35 14.6 14.7 14.05 15 13.55 15.3 13.45 15.45 13.4 15.95 13.45 Z
M 16.25 9.3
L 12.55 13.75"/>

<path id="grp_80_0_Layer0_0_2_STROKES" stroke="#46A8FF" stroke-width="1" stroke-linejoin="round" stroke-linecap="round" fill="none" d="
M 8.05 3.4
Q 9.4 3.85 9.6 5.1 9.6 5.25 9.55 8.15 9.5 11.05 9.45 11.15 9.2 12.25 7.85 11.9 6.35 11.5 6 10.45 5.7 9.65 5.85 7.3 6.05 4.55 6.15 4.2 6.5 3.25 8.05 3.4 Z
M 2.15 0.15
Q 4.25 0.85 3.9 2.8 3.65 4.55 2.3 4.45 4.4 5.15 4.05 7.1 3.75 9.05 2.15 8.7 0.2 8.25 0.15 6 0.15 4.1 1.65 4.3 0.05 3.75 0 1.7 0 -0.55 2.15 0.15 Z"/>

<path id="grp_graph_0_Layer0_0_1_STROKES" stroke="#46A8FF" stroke-width="3" stroke-linejoin="round" stroke-linecap="round" fill="none" d="
M 5.2 23.95
L 5.3 10.55
M 16.25 17
L 16.35 3.6
M 10.4 20.2
L 10.45 0
M 0 26.75
L 0 19.5"/>

<path id="grp_curve_0_Layer0_0_1_STROKES" stroke="#46A8FF" stroke-width="2" stroke-linejoin="round" stroke-linecap="round" fill="none" d="
M 0 14.8
L 1.2 12.45
Q 2.55 10 3.5 9.3 4 8.95 6.35 7.7 8.45 6.6 9.7 5.5 11.85 3.6 13.8 0"/>

<path id="gear_0_Layer0_0_1_STROKES" stroke="#46A8FF" stroke-width="2" stroke-linejoin="round" stroke-linecap="round" fill="none" d="
M 7.2 4.4
Q 7.2 5.6 6.35 6.45 5.5 7.3 4.3 7.3 3.1 7.3 2.25 6.45 1.4 5.6 1.4 4.4 1.4 3.2 2.25 2.35 3.1 1.5 4.3 1.5 5.5 1.5 6.35 2.35 7.2 3.2 7.2 4.4 Z"/>

<path id="gear_0_Layer0_0_2_STROKES" stroke="#46A8FF" stroke-width="2" stroke-linejoin="round" stroke-linecap="square" fill="none" d="
M 8 4.15
L 8.25 4.15
M 7.2 1.9
L 7.5 1.6
M 4.35 0.25
L 4.35 0
M 0 4.3
L 0.25 4.3
M 1.3 1.6
L 1.6 1.9
M 1.6 6.95
L 1.3 7.25
M 4.25 8.4
L 4.5 8.4
M 7.5 7.25
L 7.2 6.95"/>
</defs>

<mask id="Mask_Mask_1">
<g transform="matrix( 1, 0, 0, 1, 0,-319) ">
<use xlink:href="#Mask_13_MASK_0_FILL"/>
</g>
</mask>

<g mask="url(#Mask_Mask_1)"/>

<g mask="url(#Mask_Mask_1)"/>

<mask id="Mask_Mask_2">
<g transform="matrix( 1, 0, 0, 1, 0,0) ">
<use xlink:href="#Mask_10_MASK_0_FILL"/>
</g>
</mask>

<g mask="url(#Mask_Mask_2)">
<g transform="matrix( 1, 0, 0, 1, 88.15,1149.15) ">
<g transform="matrix( 1, 0, 0, 1, -59.5,-476.5) ">
<use xlink:href="#Artboard_13_png"/>
</g>
</g>
</g>

<g mask="url(#Mask_Mask_2)">
<g transform="matrix( 1, 0, 0, 1, 88.15,1149.15) ">
<g transform="matrix( 1, 0, 0, 1, 0,0) ">
<use xlink:href="#Tween_2_0_Layer0_0_1_STROKES"/>
</g>
</g>
</g>

<g transform="matrix( 1, 0, 0, 1, 47.6,175.8) ">
<g transform="matrix( 1, 0, 0, 1, -909.75,-415.3) ">
<use xlink:href="#Tween_5_0_Layer0_0_1_STROKES"/>
</g>

<g transform="matrix( 1, 0, 0, 1, -14.55,-30.45) ">
<g transform="matrix( 1, 0, 0, 1, 0,0) ">
<use xlink:href="#grp_80_0_Layer0_0_1_STROKES"/>

<use xlink:href="#grp_80_0_Layer0_0_2_STROKES"/>
</g>
</g>
</g>

<g transform="matrix( 1, 0, 0, 1, 135.95,200.75) ">
<g transform="matrix( 1, 0, 0, 1, -8.95,20.95) ">
<g transform="matrix( 1, 0, 0, 1, 0,0) ">
<use xlink:href="#grp_graph_0_Layer0_0_1_STROKES"/>
</g>
</g>

<g transform="matrix( 1, 0, 0, 1, -4.8,-47.7) ">
<g transform="matrix( 1, 0, 0, 1, 0,0) ">
<use xlink:href="#grp_curve_0_Layer0_0_FILL"/>

<use xlink:href="#grp_curve_0_Layer0_0_1_STROKES"/>
</g>
</g>
</g>

<g transform="matrix( 1, 0, 0, 1, 49.75,171.6) ">
<g transform="matrix( 1, 0, 0, 1, -5.4,-58.2) ">
<g transform="matrix( 1, 0, 0, 1, 0,0) ">
<use xlink:href="#grp_pie_0_Layer0_0_FILL"/>
</g>
</g>

<g transform="matrix( 1.2032470703125, 0.437957763671875, 0, 1.280487060546875, -9.8,43.9) ">
<g transform="matrix( 1, 0, 0, 1, 0,0) ">
<use xlink:href="#gear_0_Layer0_0_1_STROKES"/>

<use xlink:href="#gear_0_Layer0_0_2_STROKES"/>
</g>
</g>
</g>

<g transform="matrix( 1, 0, 0, 1, 47.6,556.05) ">
<g transform="matrix( 1, 0, 0, 1, -909.75,-415.3) ">
<use xlink:href="#Tween_5_0_Layer0_0_1_STROKES"/>
</g>

<g transform="matrix( 1, 0, 0, 1, -14.55,-30.45) ">
<g transform="matrix( 1, 0, 0, 1, 0,0) ">
<use xlink:href="#grp_80_0_Layer0_0_1_STROKES"/>

<use xlink:href="#grp_80_0_Layer0_0_2_STROKES"/>
</g>
</g>
</g>

<g transform="matrix( 1, 0, 0, 1, 135.95,581) ">
<g transform="matrix( 1, 0, 0, 1, -8.95,20.95) ">
<g transform="matrix( 1, 0, 0, 1, 0,0) ">
<use xlink:href="#grp_graph_0_Layer0_0_1_STROKES"/>
</g>
</g>

<g transform="matrix( 1, 0, 0, 1, -4.8,-47.7) ">
<g transform="matrix( 1, 0, 0, 1, 0,0) ">
<use xlink:href="#grp_curve_0_Layer0_0_FILL"/>

<use xlink:href="#grp_curve_0_Layer0_0_1_STROKES"/>
</g>
</g>
</g>

<g transform="matrix( 1, 0, 0, 1, 49.75,551.85) ">
<g transform="matrix( 1, 0, 0, 1, -5.4,-58.2) ">
<g transform="matrix( 1, 0, 0, 1, 0,0) ">
<use xlink:href="#grp_pie_0_Layer0_0_FILL"/>
</g>
</g>

<g transform="matrix( 1.2032470703125, 0.437957763671875, 0, 1.280487060546875, -9.8,43.9) ">
<g transform="matrix( 1, 0, 0, 1, 0,0) ">
<use xlink:href="#gear_0_Layer0_0_1_STROKES"/>

<use xlink:href="#gear_0_Layer0_0_2_STROKES"/>
</g>
</g>
</g>
</svg>
