
<svg xmlns="http://www.w3.org/2000/svg" version="1.1" xmlns:xlink="http://www.w3.org/1999/xlink" preserveAspectRatio="none" x="0px" y="0px" width="1920px" height="650px" viewBox="0 0 1920 650">
<defs>
<filter id="Filter_1" x="-20%" y="-20%" width="140%" height="140%" color-interpolation-filters="sRGB">
<feColorMatrix in="SourceGraphic" type="matrix" values="1 0 0 0 0 0 1 0 0 0 0 0 1 0 0 0 0 0 0.51 0" result="result1"/>
</filter>

<filter id="Filter_2" x="-20%" y="-20%" width="140%" height="140%" color-interpolation-filters="sRGB">
<feColorMatrix in="SourceGraphic" type="matrix" values="1 0 0 0 0 0 1 0 0 0 0 0 1 0 0 0 0 0 0.3 0" result="result1"/>
</filter>

<g id="Mask_3_MASK_0_FILL">
<path fill="#FFFFFF" stroke="none" d="
M 20 635.6
Q 20.1 637.3 21.6 638.15
L 126.4 698.7
Q 129.3 700.4 132.6 700.4 135.9 700.4 138.8 698.7
L 243.55 638.15
Q 245.05 637.3 245.15 635.6 245.3 633.95 244 632.85
L 21.2 632.85
Q 19.9 633.9 20 635.6
M 244.1 98.05
Q 244.1 10.25 243.55 10.55
L 138.8 9.7 140.25 0 7.8 0 0 464.25 20.05 480.5 20 633.55 21.2 632.85 21.6 632.5 243.55 632.5 244 632.85 245.15 633.55 245.05 401.6
Q 208.9 397 164.4 390.6 76.15 377.9 20.1 367.1
L 20.05 465.9 14.85 462.6 17.2 6.15 125.65 4.95 126.4 9.7 21.6 10.55
Q 21.05 10.2 21.05 98 21.05 185.8 21.6 186.15
L 126.4 246.7
Q 129.3 248.4 132.6 248.4 135.9 248.4 138.8 246.7
L 163.4 232.5 152.2 226
Q 151.9 225.75 151.95 225.45
L 151.95 223.7
Q 151.95 223.35 152.2 223.2
L 194.25 198.9
Q 195.05 198.4 195.95 198.9
L 208.75 206.3 243.55 186.15
Q 244.1 185.85 244.1 98.05 Z"/>
</g>

<g id="Symbol_1_0_Layer0_0_MEMBER_0_MEMBER_0_MEMBER_2_FILL">
<path fill="#D5D4D6" stroke="none" d="
M 14.3 42.65
L 5.15 37.5 5.15 116.5 49.3 91 49.75 91.1 50 91 50 47.05
Q 41.45 48.5 30.25 47 28.3 46.8 25.7 46.3 20.45 45.25 17.05 43.8 14.4 42.7 14.3 42.65 Z"/>
</g>

<g id="Symbol_1_0_Layer0_0_MEMBER_0_MEMBER_0_MEMBER_3_FILL">
<path fill="#FFFFFF" stroke="none" d="
M 54.15 93.7
L 54.35 93.8 54.35 93.55 54.15 93.7 Z"/>
</g>

<g id="Symbol_1_0_Layer0_0_MEMBER_0_MEMBER_0_MEMBER_4_FILL">
<path fill="#C4C4C4" stroke="none" d="
M 54.15 46.05
L 50 47.05 50 91 49.9 91.1 54.15 93.7 54.15 46.05 Z"/>
</g>

<g id="Symbol_1_0_Layer0_0_MEMBER_0_MEMBER_0_MEMBER_5_FILL">
<path fill="#FFFFFF" stroke="none" d="
M 54.35 93.8
L 54 93.7 5.6 122.85 5.15 123 5.15 123.1
Q 13.95 128.15 20.45 130.7 23.7 132 25.15 132.3 36.9 135.55 51.15 131.85 65.85 128 71.2 119.7 73.7 115.85 73.45 112.2
L 73 112.1 73.5 112.2
Q 73.15 107.65 69.1 103.45
L 65.15 100.15 54.35 93.8 Z"/>
</g>

<g id="Symbol_1_0_Layer0_0_MEMBER_0_MEMBER_0_MEMBER_6_FILL">
<path fill="#FFFFFF" stroke="none" d="
M 49.75 91.1
L 49.3 91 5.15 116.5 5.15 123 5.6 122.85 54 93.7 49.75 91.15 49.75 91.1 Z"/>
</g>

<g id="flash0_ai_Assets_Layer_2__Clipping_Path__0_Layer0_0_FILL">
<path fill="#85D1FF" stroke="none" d="
M 71.15 2.45
L 47.95 0 6.05 6.9 0 13.3 2.35 95 12.35 103.15 38.65 110.3 67.15 99.15
Q 68.35 97.9 69.45 95.5 71.65 90.8 71.15 85.35
L 71.15 2.45 Z"/>
</g>

<g id="Mask_flash0_ai_Assets_Layer_2__Clip_Group__0_2_MASK_0_FILL">
<path fill="#FFFFFF" stroke="none" d="
M 71.15 12.15
L 47.95 9.7 6.05 16.6 0 23 2.35 104.7 12.35 112.85 38.65 120 67.15 108.85
Q 68.35 107.6 69.45 105.2 71.65 100.5 71.15 95.05
L 71.15 12.15 Z"/>
</g>

<g id="Symbol_1_0_Layer0_0_MEMBER_0_MEMBER_0_MEMBER_8_FILL">
<path fill="#ECF1FD" stroke="none" d="
M 71.05 29.05
Q 65.6 37.45 51.25 41.3 37.3 45 25.45 41.8 23.3 41.4 19.15 39.6 10.85 36.05 1 29
L 1 126.55 18.15 136.5 27 139.2
Q 37.95 141.55 48.55 139.7 59.7 137.75 67.4 131.25 73.5 126.05 73.6 122.65
L 73.6 112.2 73.55 112.2
Q 73.8 115.9 71.35 119.7 66 128 51.35 131.85 37.1 135.55 25.35 132.3 23.75 132 20.5 130.7 13.95 128.15 5.55 123.1
L 5.45 123.05 5.15 123 5.15 37.5 14.25 42.65
Q 14.55 42.8 16.8 43.8 20.2 45.25 25.4 46.3 28 46.8 29.95 47 41.1 48.5 49.55 47.05 51.3 46.8 53.5 46.05 64.05 43.2 69.3 35.95 71.95 32.35 72.45 29.3
L 72.45 23.9
Q 72.373046875 26.9708984375 71.05 29.05 Z"/>
</g>

<g id="Symbol_1_0_Layer0_0_MEMBER_0_MEMBER_0_MEMBER_9_FILL">
<path fill="#303755" stroke="none" d="
M 69.3 13.2
L 65 9.25 49.5 0 0.45 29
Q 10.9 36.05 19.15 39.6 23.25 41.4 25.25 41.8 37.1 45.05 51.25 41.3 65.8 37.45 71.25 29.05 72.85 26.55 72.85 23.55 73.5 18.2 69.3 13.2 Z"/>
</g>

<g id="Symbol_1_0_Layer0_0_MEMBER_0_MEMBER_1_MEMBER_0_FILL">
<path fill="#CBDDE6" stroke="none" d="
M 15.6 23.75
L 13.7 22.55 13.6 22.55 13.6 24.95 13.7 24.95 15.6 23.75 Z"/>
</g>

<g id="Symbol_1_0_Layer0_0_MEMBER_0_MEMBER_1_MEMBER_1_FILL">
<path fill="#CBDDE6" stroke="none" d="
M 47.5 15.3
L 47.4 15.25 47.45 12.55 45.4 13.1 45.45 13.1 22.9 27.05 15.6 23.5 13.7 24.85 13.7 24.9 22.85 29.9 47.5 15.3 Z"/>
</g>

<g id="Symbol_1_0_Layer0_0_MEMBER_0_MEMBER_2_FILL">
<path fill="#FFFFFF" stroke="none" d="
M 15.65 23.75
L 22.9 27.55 47.45 12.9 38.15 7.55 13.75 22.55 15.65 23.75 Z"/>
</g>

<g id="Symbol_1_0_Layer0_0_MEMBER_0_MEMBER_3_MEMBER_0_FILL">
<path fill="#000000" stroke="none" d="
M 24.85 11.05
Q 24.85 11.2 23.6 11.2 22.6537109375 11.2 22.65 11.05
L 22.65 22.2
Q 22.65 22.35 23.6 22.35 24.7 22.35 24.7 22.2
L 24.85 11.05 Z"/>
</g>

<g id="Symbol_1_0_Layer0_0_MEMBER_0_MEMBER_4_MEMBER_0_FILL">
<path fill="#000000" stroke="none" d="
M 37.3 4.35
L 35.95 4.45 34.7 4.35 34.7 14.45
Q 34.7 14.6 35.95 14.6 37.2 14.6 37.2 14.45
L 37.3 4.35 Z"/>
</g>

<g id="Mask_1_MASK_0_FILL">
<path fill="#FFFFFF" stroke="none" d="
M 20 635.6
Q 20.1 637.3 21.6 638.15
L 126.4 698.7
Q 129.3 700.4 132.6 700.4 135.9 700.4 138.8 698.7
L 243.55 638.15
Q 245.05 637.3 245.15 635.6 245.3 633.95 244 632.85
L 21.2 632.85
Q 19.9 633.9 20 635.6
M 244.1 98.05
Q 244.1 10.25 243.55 10.55
L 138.8 9.7 140.25 0 7.8 0 0 464.25 20.05 480.5 20 633.55 21.2 632.85 21.6 632.5 243.55 632.5 244 632.85 245.15 633.55 245.05 401.6
Q 208.9 397 164.4 390.6 76.15 377.9 20.1 367.1
L 20.05 465.9 14.85 462.6 17.2 6.15 125.65 4.95 126.4 9.7 21.6 10.55
Q 21.05 10.2 21.05 98 21.05 185.8 21.6 186.15
L 126.4 246.7
Q 129.3 248.4 132.6 248.4 135.9 248.4 138.8 246.7
L 163.4 232.5 152.2 226
Q 151.9 225.75 151.95 225.45
L 151.95 223.7
Q 151.95 223.35 152.2 223.2
L 194.25 198.9
Q 195.05 198.4 195.95 198.9
L 208.75 206.3 243.55 186.15
Q 244.1 185.85 244.1 98.05 Z"/>
</g>

<g id="Tween_1_0_Layer0_0_MEMBER_0_MEMBER_0_MEMBER_2_FILL">
<path fill="#D5D4D6" stroke="none" d="
M 68.95 38.15
L 59.8 43.25
Q 57.85 44.05 57.05 44.45 53.7 45.9 48.4 46.9
L 43.8 47.6
Q 32.35 49.15 24.05 47.65
L 24.05 91.65 24.35 91.7 24.75 91.65 68.95 117.15 68.95 38.15 Z"/>
</g>

<g id="Tween_1_0_Layer0_0_MEMBER_0_MEMBER_0_MEMBER_3_FILL">
<path fill="#C4C4C4" stroke="none" d="
M 24.05 47.65
Q 23.35 47.45 19.9 46.7
L 19.9 94.2 19.95 94.3 24.2 91.7 24.05 91.65 24.05 47.65 Z"/>
</g>

<g id="Tween_1_0_Layer0_0_MEMBER_0_MEMBER_0_MEMBER_4_FILL">
<path fill="#FFFFFF" stroke="none" d="
M 20.05 94.3
L 19.7 94.45 8.9 100.8 4.95 104.1
Q 0.9 108.25 0.6 112.8
L 1.15 112.65 0.65 112.8
Q 0.4 116.5 2.85 120.35 8.2 128.65 22.9 132.45 37.15 136.15 48.9 132.95
L 53.6 131.35
Q 60.1 128.75 68.95 123.7
L 68.95 123.65 68.45 123.5 20.05 94.3 Z"/>
</g>

<g id="Tween_1_0_Layer0_0_MEMBER_0_MEMBER_0_MEMBER_5_FILL">
<path fill="#FFFFFF" stroke="none" d="
M 24.75 91.65
L 24.35 91.7 24.35 91.7 20.05 94.3 68.45 123.5 68.95 123.65 68.95 117.15 24.75 91.65 Z"/>
</g>

<g id="flash0_ai_Assets_0_Layer_2__Clipping_Path__0_Layer0_0_FILL">
<path fill="#85D1FF" stroke="none" d="
M 71.2 13.25
L 65.2 6.9 23.25 0 0.1 2.4 0.1 85.3
Q -0.45 90.75 1.75 95.5 2.85 97.85 4.05 99.1
L 32.55 110.3 58.85 103.15 68.85 94.95 71.2 13.25 Z"/>
</g>

<g id="Mask_flash0_ai_Assets_0_Layer_2__Clip_Group__0_2_MASK_0_FILL">
<path fill="#FFFFFF" stroke="none" d="
M 71.2 23
L 65.2 16.65 23.25 9.75 0.1 12.15 0.1 95.05
Q -0.45 100.5 1.75 105.25 2.85 107.6 4.05 108.85
L 32.55 120.05 58.85 112.9 68.85 104.7 71.2 23 Z"/>
</g>

<g id="Tween_1_0_Layer0_0_MEMBER_0_MEMBER_0_MEMBER_7_FILL">
<path fill="#ECF1FD" stroke="none" d="
M 73.1 29.65
Q 63.25 36.7 54.95 40.25
L 48.6 42.4
Q 36.75 45.65 22.8 41.95 8.5 38.1 3 29.65 1.7236328125 27.6171875 1.65 24.55
L 1.65 29.9 2.25 31.9
Q 3.15 34.35 4.8 36.6 10 43.85 20.55 46.7 23.05 47.45 24.55 47.65 32.7 49.15 44.1 47.6
L 48.65 46.9
Q 53.9 45.9 57.25 44.45 58.05 44.05 59.8 43.25
L 68.95 38.15 68.95 123.6 68.65 123.65 68.5 123.75
Q 60.15 128.75 53.6 131.35
L 48.7 132.95
Q 36.95 136.15 22.7 132.45 8.05 128.65 2.7 120.35 0.3 116.6 0.55 112.8
L 0.45 112.8 0.5 123.3
Q 0.6 126.7 6.7 131.85 14.4 138.4 25.55 140.35 36.15 142.15 47.1 139.85 52.55 138.7 55.9 137.15
L 73.1 127.2 73.1 29.65 Z"/>
</g>

<g id="Tween_1_0_Layer0_0_MEMBER_0_MEMBER_0_MEMBER_8_FILL">
<path fill="#FFFFFF" stroke="none" d="
M 48.8 42.4
L 54.95 40.25
Q 63.15 36.7 73.65 29.65
L 24.6 0.6 9.1 9.85
Q 6.9 11.3 4.8 13.8 0.6 18.85 1.25 24.2 1.25 27.2 2.8 29.65 8.25 38.1 22.8 41.95 36.95 45.65 48.8 42.4 Z"/>
</g>

<g id="Tween_1_0_Layer0_0_MEMBER_0_MEMBER_1_MEMBER_0_FILL">
<path fill="#CBDDE6" stroke="none" d="
M 54.1 20.15
L 52.2 21.35 54.15 22.55 54.25 22.55 54.25 20.15 54.1 20.15 Z"/>
</g>

<g id="Tween_1_0_Layer0_0_MEMBER_0_MEMBER_1_MEMBER_1_FILL">
<path fill="#CBDDE6" stroke="none" d="
M 44.95 27.5
L 54.15 22.5 54.15 22.45 52.2 21.15 44.95 24.65 22.4 10.7 22.45 10.7 20.4 10.15 20.45 12.85 20.35 12.9 44.95 27.5 Z"/>
</g>

<g id="Tween_1_0_Layer0_0_MEMBER_0_MEMBER_2_FILL">
<path fill="#253354" stroke="none" d="
M 44.95 25.15
L 52.2 21.35 54.1 20.15 29.7 5.2 20.4 10.5 44.95 25.15 Z"/>
</g>

<g id="Tween_1_0_Layer0_0_MEMBER_0_MEMBER_3_MEMBER_0_FILL">
<path fill="#35415F" stroke="none" d="
M 44.25 6.75
Q 42.9703125 6.75 42.95 6.15
L 43.15 18.15
Q 43.15 18.8 44.25 18.8 45.2 18.8 45.2 18.15
L 45.2 6.1
Q 45.18515625 6.75 44.25 6.75 Z"/>
</g>

<g id="Tween_1_0_Layer0_0_MEMBER_0_MEMBER_4_FILL">
<path fill="#35415F" stroke="none" d="
M 31.9 0.6
Q 30.5658203125 0.6 30.55 0.05
L 30.6 11.6
Q 30.6 12.2 31.9 12.2 33.15 12.2 33.15 11.6
L 33.15 0
Q 33.13046875 0.6 31.9 0.6 Z"/>
</g>

<path id="Symbol_1_0_Layer0_0_MEMBER_0_MEMBER_0_MEMBER_0_1_STROKES" stroke="#EBEBEB" stroke-width="1.2" stroke-linejoin="miter" stroke-linecap="butt" stroke-miterlimit="10" fill="none" d="
M 73.45 83.75
Q 73.3 79.15 69.6 74.85
L 65.95 71.5 51.3 62.45"/>

<path id="Symbol_1_0_Layer0_0_MEMBER_0_MEMBER_0_MEMBER_1_1_STROKES" stroke="#EBEBEB" stroke-width="1.2" stroke-linejoin="miter" stroke-linecap="butt" stroke-miterlimit="10" fill="none" d="
M 73.45 91.3
Q 73.3 86.65 69.6 82.35
L 65.95 79 51.3 69.95"/>

<path id="flash0_ai_Assets_Layer_2__Path__4_0_Layer0_0_1_STROKES" stroke="#FBFBFB" stroke-width="11.35" stroke-linejoin="miter" stroke-linecap="butt" stroke-miterlimit="10" fill="none" d="
M 5.7 0
L 5.7 135.35"/>

<path id="flash0_ai_Assets_Layer_2__Path__3_0_Layer0_0_1_STROKES" stroke="#FBFBFB" stroke-width="7.55" stroke-linejoin="miter" stroke-linecap="butt" stroke-miterlimit="10" fill="none" d="
M 3.8 0
L 3.8 135.35"/>

<path id="flash0_ai_Assets_Layer_2__Path__2_0_Layer0_0_1_STROKES" stroke="#FBFBFB" stroke-width="3.75" stroke-linejoin="miter" stroke-linecap="butt" stroke-miterlimit="10" fill="none" d="
M 1.85 0
L 1.85 135.35"/>

<path id="flash0_ai_Assets_Layer_2__Path__1_0_Layer0_0_1_STROKES" stroke="#FBFBFB" stroke-width="1.25" stroke-linejoin="miter" stroke-linecap="butt" stroke-miterlimit="10" fill="none" d="
M 0.65 0
L 0.65 135.35"/>

<path id="flash0_ai_Assets_Layer_2__Path__0_Layer0_0_1_STROKES" stroke="#FBFBFB" stroke-width="1.25" stroke-linejoin="miter" stroke-linecap="butt" stroke-miterlimit="10" fill="none" d="
M 0.6 0
L 0.6 135.35"/>

<path id="Symbol_1_0_Layer0_0_MEMBER_0_MEMBER_0_MEMBER_10_1_STROKES" stroke="#EBEBEB" stroke-width="1.2" stroke-linejoin="miter" stroke-linecap="butt" stroke-miterlimit="10" fill="none" d="
M 5 98.4
Q 14.9 105.3 22.65 108.8 26.55 110.55 28.45 110.9 39.65 114.1 53 110.45 66.7 106.65 71.85 98.4 73.35 96.05 73.35 93.05 73.45 92.45 73.45 91.3"/>

<path id="Symbol_1_0_Layer0_0_MEMBER_0_MEMBER_0_MEMBER_11_1_STROKES" stroke="#EBEBEB" stroke-width="1.2" stroke-linejoin="miter" stroke-linecap="butt" stroke-miterlimit="10" fill="none" d="
M 5 90.85
Q 14.9 97.75 22.65 101.25 26.55 103.05 28.45 103.4 39.7 106.55 53 102.9 66.7 99.15 71.85 90.9 73.35 88.55 73.35 85.55 73.45 84.9 73.45 83.75"/>

<path id="Tween_1_0_Layer0_0_MEMBER_0_MEMBER_0_MEMBER_0_1_STROKES" stroke="#EBEBEB" stroke-width="1.2" stroke-linejoin="miter" stroke-linecap="butt" stroke-miterlimit="10" fill="none" d="
M 0.65 84.4
Q 0.8 79.75 4.45 75.45
L 8.1 72.1 22.75 63.05"/>

<path id="Tween_1_0_Layer0_0_MEMBER_0_MEMBER_0_MEMBER_1_1_STROKES" stroke="#EBEBEB" stroke-width="1.2" stroke-linejoin="miter" stroke-linecap="butt" stroke-miterlimit="10" fill="none" d="
M 0.65 91.9
Q 0.8 87.3 4.45 83
L 8.1 79.65 22.75 70.55"/>

<path id="flash0_ai_Assets_0_Layer_2__Path__4_0_Layer0_0_1_STROKES" stroke="#FBFBFB" stroke-width="11.35" stroke-linejoin="miter" stroke-linecap="butt" stroke-miterlimit="10" fill="none" d="
M 5.7 0
L 5.7 135.35"/>

<path id="flash0_ai_Assets_0_Layer_2__Path__3_0_Layer0_0_1_STROKES" stroke="#FBFBFB" stroke-width="7.55" stroke-linejoin="miter" stroke-linecap="butt" stroke-miterlimit="10" fill="none" d="
M 3.8 0
L 3.8 135.35"/>

<path id="flash0_ai_Assets_0_Layer_2__Path__2_0_Layer0_0_1_STROKES" stroke="#FBFBFB" stroke-width="3.75" stroke-linejoin="miter" stroke-linecap="butt" stroke-miterlimit="10" fill="none" d="
M 1.9 0
L 1.9 135.4"/>

<path id="flash0_ai_Assets_0_Layer_2__Path__1_0_Layer0_0_1_STROKES" stroke="#FBFBFB" stroke-width="1.25" stroke-linejoin="miter" stroke-linecap="butt" stroke-miterlimit="10" fill="none" d="
M 0.6 0
L 0.6 135.4"/>

<path id="flash0_ai_Assets_0_Layer_2__Path__0_Layer0_0_1_STROKES" stroke="#FBFBFB" stroke-width="1.25" stroke-linejoin="miter" stroke-linecap="butt" stroke-miterlimit="10" fill="none" d="
M 0.6 0
L 0.6 135.35"/>

<path id="Tween_1_0_Layer0_0_MEMBER_0_MEMBER_0_MEMBER_9_1_STROKES" stroke="#EBEBEB" stroke-width="1.2" stroke-linejoin="miter" stroke-linecap="butt" stroke-miterlimit="10" fill="none" d="
M 69.1 99
Q 59.2 105.9 51.45 109.4
L 45.65 111.55
Q 34.4 114.7 21.1 111.05 7.35 107.3 2.2 99 0.7 96.6 0.7 93.65 0.6 92.45 0.65 91.9"/>

<path id="Tween_1_0_Layer0_0_MEMBER_0_MEMBER_0_MEMBER_10_1_STROKES" stroke="#EBEBEB" stroke-width="1.2" stroke-linejoin="miter" stroke-linecap="butt" stroke-miterlimit="10" fill="none" d="
M 69.1 91.5
Q 59.2 98.4 51.45 101.9
L 45.65 104
Q 34.45 107.2 21.1 103.55 7.35 99.75 2.2 91.5 0.7 89 0.7 86.15 0.6 84.95 0.65 84.4"/>
</defs>

<mask id="Mask_Mask_1">
<g transform="matrix( 1, 0, 0, 1, -6.55,-31) ">
<use xlink:href="#Mask_3_MASK_0_FILL"/>
</g>
</mask>

<g mask="url(#Mask_Mask_1)">
<g transform="matrix( 1, 0, 0, 1, 93.9,38.85) ">
<g transform="matrix( 1, 0, 0, 1, -0.45,0) ">
<use xlink:href="#Symbol_1_0_Layer0_0_MEMBER_0_MEMBER_0_MEMBER_0_1_STROKES"/>
</g>

<g transform="matrix( 1, 0, 0, 1, -0.45,0) ">
<use xlink:href="#Symbol_1_0_Layer0_0_MEMBER_0_MEMBER_0_MEMBER_1_1_STROKES"/>
</g>

<g transform="matrix( 1, 0, 0, 1, -0.45,0) ">
<use xlink:href="#Symbol_1_0_Layer0_0_MEMBER_0_MEMBER_0_MEMBER_2_FILL"/>
</g>

<g transform="matrix( 1, 0, 0, 1, -0.45,0) ">
<use xlink:href="#Symbol_1_0_Layer0_0_MEMBER_0_MEMBER_0_MEMBER_3_FILL"/>
</g>

<g transform="matrix( 1, 0, 0, 1, -0.45,0) ">
<use xlink:href="#Symbol_1_0_Layer0_0_MEMBER_0_MEMBER_0_MEMBER_4_FILL"/>
</g>

<g transform="matrix( 1, 0, 0, 1, -0.45,0) ">
<use xlink:href="#Symbol_1_0_Layer0_0_MEMBER_0_MEMBER_0_MEMBER_5_FILL"/>
</g>

<g transform="matrix( 1, 0, 0, 1, -0.45,0) ">
<use xlink:href="#Symbol_1_0_Layer0_0_MEMBER_0_MEMBER_0_MEMBER_6_FILL"/>
</g>

<g transform="matrix( 1, 0, 0, 1, 0.85,17.15) ">
<g transform="matrix( 1, 0, 0, 1, 0,9.7) ">
<g transform="matrix( 1, 0, 0, 1, 0,0) ">
<use filter="url(#Filter_1)" xlink:href="#flash0_ai_Assets_Layer_2__Clipping_Path__0_Layer0_0_FILL"/>
</g>
</g>

<mask id="Mask_Mask_2">
<g transform="matrix( 1, 0, 0, 1, 0,0) ">
<use xlink:href="#Mask_flash0_ai_Assets_Layer_2__Clip_Group__0_2_MASK_0_FILL"/>
</g>
</mask>

<g mask="url(#Mask_Mask_2)">
<g transform="matrix( 1, 0, 0, 1, 12.85,9.1) ">
<g transform="matrix( 1, 0, 0, 1, 0,0) ">
<use filter="url(#Filter_2)" xlink:href="#flash0_ai_Assets_Layer_2__Path__4_0_Layer0_0_1_STROKES"/>
</g>
</g>

<g transform="matrix( 1, 0, 0, 1, 30.85,9.45) ">
<g transform="matrix( 1, 0, 0, 1, 0,0) ">
<use filter="url(#Filter_2)" xlink:href="#flash0_ai_Assets_Layer_2__Path__3_0_Layer0_0_1_STROKES"/>
</g>
</g>

<g transform="matrix( 1, 0, 0, 1, 41.5,8.9) ">
<g transform="matrix( 1, 0, 0, 1, 0,0) ">
<use filter="url(#Filter_2)" xlink:href="#flash0_ai_Assets_Layer_2__Path__2_0_Layer0_0_1_STROKES"/>
</g>
</g>

<g transform="matrix( 1, 0, 0, 1, 49.55,7.5) ">
<g transform="matrix( 1, 0, 0, 1, 0,0) ">
<use filter="url(#Filter_2)" xlink:href="#flash0_ai_Assets_Layer_2__Path__1_0_Layer0_0_1_STROKES"/>
</g>
</g>

<g transform="matrix( 1, 0, 0, 1, 66.2,0) ">
<g transform="matrix( 1, 0, 0, 1, 0,0) ">
<use filter="url(#Filter_2)" xlink:href="#flash0_ai_Assets_Layer_2__Path__0_Layer0_0_1_STROKES"/>
</g>
</g>
</g>
</g>

<g transform="matrix( 1, 0, 0, 1, -0.45,0) ">
<use xlink:href="#Symbol_1_0_Layer0_0_MEMBER_0_MEMBER_0_MEMBER_8_FILL"/>
</g>

<g transform="matrix( 1, 0, 0, 1, -0.45,0) ">
<use xlink:href="#Symbol_1_0_Layer0_0_MEMBER_0_MEMBER_0_MEMBER_9_FILL"/>
</g>

<g transform="matrix( 1, 0, 0, 1, -0.45,0) ">
<use xlink:href="#Symbol_1_0_Layer0_0_MEMBER_0_MEMBER_0_MEMBER_10_1_STROKES"/>
</g>

<g transform="matrix( 1, 0, 0, 1, -0.45,0) ">
<use xlink:href="#Symbol_1_0_Layer0_0_MEMBER_0_MEMBER_0_MEMBER_11_1_STROKES"/>
</g>

<g transform="matrix( 1, 0, 0, 1, -0.45,0) ">
<use xlink:href="#Symbol_1_0_Layer0_0_MEMBER_0_MEMBER_1_MEMBER_0_FILL"/>
</g>

<g transform="matrix( 1, 0, 0, 1, -0.45,0) ">
<use xlink:href="#Symbol_1_0_Layer0_0_MEMBER_0_MEMBER_1_MEMBER_1_FILL"/>
</g>

<g transform="matrix( 1, 0, 0, 1, -0.45,0) ">
<use xlink:href="#Symbol_1_0_Layer0_0_MEMBER_0_MEMBER_2_FILL"/>
</g>

<g transform="matrix( 1, 0, 0, 1, -0.45,0) ">
<use xlink:href="#Symbol_1_0_Layer0_0_MEMBER_0_MEMBER_3_MEMBER_0_FILL"/>
</g>

<g transform="matrix( 1, 0, 0, 1, -0.45,0) ">
<use xlink:href="#Symbol_1_0_Layer0_0_MEMBER_0_MEMBER_4_MEMBER_0_FILL"/>
</g>
</g>
</g>

<mask id="Mask_Mask_3">
<g transform="matrix( -1, 0, 0, 1, 1927.45,-29.35) ">
<use xlink:href="#Mask_1_MASK_0_FILL"/>
</g>
</mask>

<g mask="url(#Mask_Mask_3)">
<g transform="matrix( 1, 0, 0, 1, 1797.35,205.4) ">
<g transform="matrix( 1, 0, 0, 1, -37.05,-70.6) ">
<use xlink:href="#Tween_1_0_Layer0_0_MEMBER_0_MEMBER_0_MEMBER_0_1_STROKES"/>
</g>

<g transform="matrix( 1, 0, 0, 1, -37.05,-70.6) ">
<use xlink:href="#Tween_1_0_Layer0_0_MEMBER_0_MEMBER_0_MEMBER_1_1_STROKES"/>
</g>

<g transform="matrix( 1, 0, 0, 1, -37.05,-70.6) ">
<use xlink:href="#Tween_1_0_Layer0_0_MEMBER_0_MEMBER_0_MEMBER_2_FILL"/>
</g>

<g transform="matrix( 1, 0, 0, 1, -37.05,-70.6) ">
<use xlink:href="#Tween_1_0_Layer0_0_MEMBER_0_MEMBER_0_MEMBER_3_FILL"/>
</g>

<g transform="matrix( 1, 0, 0, 1, -37.05,-70.6) ">
<use xlink:href="#Tween_1_0_Layer0_0_MEMBER_0_MEMBER_0_MEMBER_4_FILL"/>
</g>

<g transform="matrix( 1, 0, 0, 1, -37.05,-70.6) ">
<use xlink:href="#Tween_1_0_Layer0_0_MEMBER_0_MEMBER_0_MEMBER_5_FILL"/>
</g>

<g transform="matrix( 1, 0, 0, 1, -35.5,-52.85) ">
<g transform="matrix( 1, 0, 0, 1, 0,9.75) ">
<g transform="matrix( 1, 0, 0, 1, 0,0) ">
<use filter="url(#Filter_1)" xlink:href="#flash0_ai_Assets_0_Layer_2__Clipping_Path__0_Layer0_0_FILL"/>
</g>
</g>

<mask id="Mask_Mask_4">
<g transform="matrix( 1, 0, 0, 1, 0,0) ">
<use xlink:href="#Mask_flash0_ai_Assets_0_Layer_2__Clip_Group__0_2_MASK_0_FILL"/>
</g>
</mask>

<g mask="url(#Mask_Mask_4)">
<g transform="matrix( 1, 0, 0, 1, 47,9.1) ">
<g transform="matrix( 1, 0, 0, 1, 0,0) ">
<use filter="url(#Filter_2)" xlink:href="#flash0_ai_Assets_0_Layer_2__Path__4_0_Layer0_0_1_STROKES"/>
</g>
</g>

<g transform="matrix( 1, 0, 0, 1, 32.8,9.45) ">
<g transform="matrix( 1, 0, 0, 1, 0,0) ">
<use filter="url(#Filter_2)" xlink:href="#flash0_ai_Assets_0_Layer_2__Path__3_0_Layer0_0_1_STROKES"/>
</g>
</g>

<g transform="matrix( 1, 0, 0, 1, 25.95,8.9) ">
<g transform="matrix( 1, 0, 0, 1, 0,0) ">
<use filter="url(#Filter_2)" xlink:href="#flash0_ai_Assets_0_Layer_2__Path__2_0_Layer0_0_1_STROKES"/>
</g>
</g>

<g transform="matrix( 1, 0, 0, 1, 20.4,7.5) ">
<g transform="matrix( 1, 0, 0, 1, 0,0) ">
<use filter="url(#Filter_2)" xlink:href="#flash0_ai_Assets_0_Layer_2__Path__1_0_Layer0_0_1_STROKES"/>
</g>
</g>

<g transform="matrix( 1, 0, 0, 1, 3.8,0) ">
<g transform="matrix( 1, 0, 0, 1, 0,0) ">
<use filter="url(#Filter_2)" xlink:href="#flash0_ai_Assets_0_Layer_2__Path__0_Layer0_0_1_STROKES"/>
</g>
</g>
</g>
</g>

<g transform="matrix( 1, 0, 0, 1, -37.05,-70.6) ">
<use xlink:href="#Tween_1_0_Layer0_0_MEMBER_0_MEMBER_0_MEMBER_7_FILL"/>
</g>

<g transform="matrix( 1, 0, 0, 1, -37.05,-70.6) ">
<use xlink:href="#Tween_1_0_Layer0_0_MEMBER_0_MEMBER_0_MEMBER_8_FILL"/>
</g>

<g transform="matrix( 1, 0, 0, 1, -37.05,-70.6) ">
<use xlink:href="#Tween_1_0_Layer0_0_MEMBER_0_MEMBER_0_MEMBER_9_1_STROKES"/>
</g>

<g transform="matrix( 1, 0, 0, 1, -37.05,-70.6) ">
<use xlink:href="#Tween_1_0_Layer0_0_MEMBER_0_MEMBER_0_MEMBER_10_1_STROKES"/>
</g>

<g transform="matrix( 1, 0, 0, 1, -37.05,-70.6) ">
<use xlink:href="#Tween_1_0_Layer0_0_MEMBER_0_MEMBER_1_MEMBER_0_FILL"/>
</g>

<g transform="matrix( 1, 0, 0, 1, -37.05,-70.6) ">
<use xlink:href="#Tween_1_0_Layer0_0_MEMBER_0_MEMBER_1_MEMBER_1_FILL"/>
</g>

<g transform="matrix( 1, 0, 0, 1, -37.05,-70.6) ">
<use xlink:href="#Tween_1_0_Layer0_0_MEMBER_0_MEMBER_2_FILL"/>
</g>

<g transform="matrix( 1, 0, 0, 1, -37.05,-70.6) ">
<use xlink:href="#Tween_1_0_Layer0_0_MEMBER_0_MEMBER_3_MEMBER_0_FILL"/>
</g>

<g transform="matrix( 1, 0, 0, 1, -37.05,-70.6) ">
<use xlink:href="#Tween_1_0_Layer0_0_MEMBER_0_MEMBER_4_FILL"/>
</g>
</g>
</g>
</svg>
