
<svg xmlns="http://www.w3.org/2000/svg" version="1.1" xmlns:xlink="http://www.w3.org/1999/xlink" preserveAspectRatio="none" x="0px" y="0px" width="1920px" height="1080px" viewBox="0 0 1920 1080">
<defs>
<linearGradient id="Gradient_1" gradientUnits="userSpaceOnUse" x1="3.3000000000000007" y1="27.2" x2="21.5" y2="27.2" spreadMethod="pad">
<stop  offset="0%" stop-color="#FD5B5B"/>

<stop  offset="100%" stop-color="#F74141"/>
</linearGradient>

<linearGradient id="Gradient_2" gradientUnits="userSpaceOnUse" x1="3.3375000000000004" y1="22.6" x2="21.4625" y2="22.6" spreadMethod="pad">
<stop  offset="0%" stop-color="#F77500"/>

<stop  offset="100%" stop-color="#F95300"/>
</linearGradient>

<linearGradient id="Gradient_3" gradientUnits="userSpaceOnUse" x1="9.4" y1="16.1" x2="15.4" y2="16.1" spreadMethod="pad">
<stop  offset="0%" stop-color="#FD5B5B"/>

<stop  offset="100%" stop-color="#F74141"/>
</linearGradient>

<linearGradient id="Gradient_4" gradientUnits="userSpaceOnUse" x1="3.424999999999999" y1="17.4" x2="21.075000000000003" y2="17.4" spreadMethod="pad">
<stop  offset="0%" stop-color="#F77500"/>

<stop  offset="100%" stop-color="#F95300"/>
</linearGradient>

<linearGradient id="Gradient_5" gradientUnits="userSpaceOnUse" x1="9.9125" y1="10.05" x2="14.887500000000001" y2="10.05" spreadMethod="pad">
<stop  offset="0%" stop-color="#FD5B5B"/>

<stop  offset="100%" stop-color="#F74141"/>
</linearGradient>

<linearGradient id="Gradient_6" gradientUnits="userSpaceOnUse" x1="27.0375" y1="24.787499999999998" x2="19.4625" y2="11.0125" spreadMethod="pad">
<stop  offset="0%" stop-color="#6D6E70"/>

<stop  offset="100%" stop-color="#F0F0F1"/>
</linearGradient>

<linearGradient id="Gradient_7" gradientUnits="userSpaceOnUse" x1="41.8375" y1="13.975" x2="19.5625" y2="13.525" spreadMethod="pad">
<stop  offset="0%" stop-color="#F0F0F1"/>

<stop  offset="98.82352941176471%" stop-color="#6D6E70"/>
</linearGradient>

<linearGradient id="Gradient_8" gradientUnits="userSpaceOnUse" x1="28.3125" y1="42.225" x2="14.387500000000001" y2="16.875" spreadMethod="pad">
<stop  offset="0%" stop-color="#F0F0F1"/>

<stop  offset="100%" stop-color="#6D6E70"/>
</linearGradient>

<filter id="Filter_1" x="-20%" y="-20%" width="140%" height="140%" color-interpolation-filters="sRGB">
<feColorMatrix in="SourceGraphic" type="matrix" values="1 0 0 0 0 0 1 0 0 0 0 0 1 0 0 0 0 0 0.16 0" result="result1"/>
</filter>

<g id="Duplicate_Items_Folder_Tween_1_0_Layer0_0_MEMBER_0_FILL">
<path fill="#32B7B3" stroke="none" d="
M 24.7 29.45
Q 24.7 26.5 21.05 24.4 17.4 22.3 12.3 22.3 7.15 22.3 3.55 24.4 0 26.5 0 29.45 0.05 32.45 3.65 34.5 7.25 36.55 12.4 36.55 17.5 36.55 21.1 34.5 24.7 32.4 24.7 29.45 Z"/>
</g>

<g id="Duplicate_Items_Folder_Tween_1_0_Layer0_0_MEMBER_1_FILL">
<path fill="#D2E4FF" stroke="none" d="
M 12.4 33.85
Q 15.75 33.85 18.8 32.3 21.4 30.8 21.4 28.6
L 21.5 25.3
Q 21.3869140625 27.318359375 18.85 28.85 15.85 30.4 12.45 30.4 9.05 30.4 6.05 28.85 3.383203125 27.3189453125 3.35 25.15
L 3.3 28.55
Q 3.3 30.8 6 32.3 9 33.85 12.4 33.85 Z"/>
</g>

<g id="Duplicate_Items_Folder_Tween_1_0_Layer0_0_MEMBER_2_FILL">
<path fill="url(#Gradient_1)" stroke="none" d="
M 12.4 31.55
Q 15.8 31.6 18.8 30.05 21.4 28.55 21.4 26.35
L 21.5 23.1
Q 21.3833984375 25.116015625 18.85 26.55 15.8 28.15 12.45 28.15 9.05 28.15 6.05 26.55 3.35 25.05 3.35 22.85
L 3.25 26.3
Q 3.25 28.5 6 30 9 31.55 12.4 31.55 Z"/>
</g>

<g id="Duplicate_Items_Folder_Tween_1_0_Layer0_0_MEMBER_3_FILL">
<path fill="url(#Gradient_2)" stroke="none" d="
M 21.35 23.8
Q 21.85 22.2 20.7 20.7
L 17.4 17.25 7.55 17.1 4.7 20.1
Q 3.05 21.6 3.45 23.4 3.8 25.25 6.05 26.55 9.05 28.15 12.45 28.15 15.8 28.15 18.85 26.55 20.9 25.4 21.35 23.8 Z"/>
</g>

<g id="Duplicate_Items_Folder_Tween_1_0_Layer0_0_MEMBER_4_FILL">
<path fill="#FAA500" stroke="none" d="
M 16.3 16.35
Q 12.4 14.45 8.5 16.35 6.85 17.3 6.85 18.65 6.9 19.95 8.5 20.9 10.35 21.85 12.4 21.85 14.45 21.85 16.3 20.9 17.95 19.95 17.95 18.65 17.9 17.3 16.3 16.35 Z"/>
</g>

<g id="Duplicate_Items_Folder_Tween_1_0_Layer0_0_MEMBER_5_FILL">
<path fill="url(#Gradient_3)" stroke="none" d="
M 15.4 11.9
L 9.4 11.9 9.4 18.65
Q 9.55 19.4 10.3 19.75 12.4 20.85 14.55 19.75 15.3 19.45 15.4 18.55
L 15.4 11.9 Z"/>
</g>

<g id="Duplicate_Items_Folder_Tween_1_0_Layer0_0_MEMBER_6_FILL">
<path fill="#FAA500" stroke="none" d="
M 14.55 10.65
Q 12.4 9.6 10.3 10.65 9.65 10.9 9.5 11.45 9.3 12 9.55 12.45 9.8 12.95 10.3 13.1 12.4 14.2 14.55 13.1 15.1 12.95 15.35 12.35 15.5 11.85 15.25 11.35 15.05 10.85 14.55 10.65 Z"/>
</g>

<g id="Duplicate_Items_Folder_Tween_1_0_Layer0_0_MEMBER_7_FILL">
<path fill="url(#Gradient_4)" stroke="none" d="
M 12.25 12.55
L 7.8 10.55 3.4 22.3 15.6 24.75 21.05 21.3 16.85 10.05 12.25 12.55 Z"/>
</g>

<g id="Duplicate_Items_Folder_Tween_1_0_Layer0_0_MEMBER_8_FILL">
<path fill="#F74141" stroke="none" d="
M 15.7 9
Q 12.4 7.35 9.1 9 7.75 9.75 7.75 10.9 7.75 12.05 9.1 12.85 12.4 14.5 15.7 12.85 17.1 12.05 17.1 10.9 17.1 9.8 15.7 9 Z"/>
</g>

<g id="Duplicate_Items_Folder_Tween_1_0_Layer0_0_MEMBER_9_FILL">
<path fill="#D2E4FF" stroke="none" d="
M 15.4 9.1
Q 12.45 7.6 9.4 9.1 8.15 9.8 8.15 10.8 8.15 11.8 9.4 12.55 10.85 13.3 12.4 13.3 14 13.3 15.4 12.55 16.7 11.85 16.7 10.85 16.7 9.85 15.4 9.1 Z"/>
</g>

<g id="Duplicate_Items_Folder_Tween_1_0_Layer0_0_MEMBER_10_FILL">
<path fill="url(#Gradient_5)" stroke="none" d="
M 14.9 10.7
L 14.9 8 9.9 8 9.9 10.8
Q 9.9 11.35 10.65 11.7 12.4 12.4 14.15 11.7 14.9 11.3 14.9 10.7 Z"/>
</g>

<g id="Duplicate_Items_Folder_Tween_1_0_Layer0_0_MEMBER_11_FILL">
<path fill="#FAA500" stroke="none" d="
M 14.15 6.8
Q 13.35 6.3 12.4 6.3 11.45 6.3 10.65 6.8 10.25 7.05 10.1 7.35 9.8 7.9 9.95 8.45 10.15 9 10.65 9.25 11.45 9.8 12.4 9.8 13.35 9.8 14.15 9.25 14.5 9.1 14.75 8.7 15 8.15 14.85 7.6 14.65 7.05 14.15 6.8 Z"/>
</g>

<g id="Duplicate_Items_Folder_Tween_1_0_Layer0_0_MEMBER_12_FILL">
<path fill="#CE2020" stroke="none" d="
M 14.9 1.45
L 12.45 2.9 12.4 9.6 16.05 7.5 14.9 1.45 Z"/>
</g>

<g id="Duplicate_Items_Folder_Tween_1_0_Layer0_0_MEMBER_13_FILL">
<path fill="#F74141" stroke="none" d="
M 12.45 2.9
L 9.95 1.45 8.8 7.5 12.4 9.6 12.45 2.9 Z"/>
</g>

<g id="Duplicate_Items_Folder_Tween_1_0_Layer0_0_MEMBER_14_FILL">
<path fill="#FD5B5B" stroke="none" d="
M 12.45 2.9
L 14.9 1.45 12.4 0 9.95 1.45 12.45 2.9 Z"/>
</g>

<g id="Duplicate_Items_Folder_Tween_1_0_Layer0_0_MEMBER_15_FILL">
<path fill="#4E5463" stroke="none" d="
M 10.3 5.25
L 10.75 3 10.4 2.8 9.85 5.5 11.8 6.45 11.8 5.95 10.3 5.25 Z"/>
</g>

<g id="Duplicate_Items_Folder_Tween_1_0_Layer0_0_MEMBER_16_FILL">
<path fill="#FFFFFF" stroke="none" d="
M 11.8 3.6
L 10.75 3 10.3 5.25 11.8 5.95 11.8 3.6 Z"/>
</g>

<g id="Duplicate_Items_Folder_Tween_1_0_Layer0_0_MEMBER_17_FILL">
<path fill="#4E5463" stroke="none" d="
M 14.2 3
L 14.6 5.25 13.15 5.95 13.15 6.45 15.05 5.5 14.55 2.8 14.2 3 Z"/>
</g>

<g id="Duplicate_Items_Folder_Tween_1_0_Layer0_0_MEMBER_18_FILL">
<path fill="#FFFFFF" stroke="none" d="
M 14.2 3
L 13.15 3.6 13.15 5.95 14.6 5.25 14.2 3 Z"/>
</g>

<g id="Duplicate_Items_Folder_Tween_1_0_Layer0_0_MEMBER_19_FILL">
<path fill="#FAA500" stroke="none" d="
M 7.5 18.2
Q 6.55 17.75 6.05 17 6 17 6.05 16.95
L 5.9 16.75 5.7 16.35 5.25 17.5
Q 5.4 18.5 5.9 19.2
L 5.9 19.25 6.1 19.55
Q 6.65 20.15 7.45 20.65 9.8 21.85 12.45 21.85 15.1 21.85 17.45 20.65 18.2 20.2 18.8 19.6
L 19.1 19.1 19.2 18.85 19.35 18.6
Q 19.6 18.05 19.65 17.5
L 19.25 16.35 18.8 17.05
Q 18.35 17.7 17.5 18.2 15.15 19.4 12.5 19.4 9.85 19.4 7.5 18.2 Z"/>
</g>

<g id="heliShadow_0_Layer0_0_FILL">
<path fill="#1C729F" fill-opacity="0.4" stroke="none" d="
M -2.45 0.45
Q -1.7 1.1 -1 1.6 5.55 6.7 12.25 11.85 13.65 12.95 15.2 13.65 19.05 15.25 23.05 14.3
L 23.8 12.5
Q 22.6 9.15 19.85 6.7 16.55 3.85 12.4 2.75 7.6 1.6 3.6 -0.9 -0.9 -3.7 -6.3 -3.95
L -2.45 0.45 Z"/>
</g>

<g id="heli_1_svg_0_Layer1_4_FILL">
<path fill="#90D6F5" stroke="none" d="
M 40.9 108.35
L 42.8 109.6 43.6 109.1 41.65 107.9 40.9 108.35 Z"/>
</g>

<g id="heli_1_svg_0_Layer1_5_FILL">
<path fill="#303A42" stroke="none" d="
M 43.6 109.1
L 42.8 109.6 40.35 112.9 41.15 112.4 43.6 109.1 Z"/>
</g>

<g id="heli_1_svg_0_Layer1_6_FILL">
<path fill="#4A56AE" stroke="none" d="
M 42.8 109.6
L 40.9 108.35 38.85 111.75 40.35 112.9 42.8 109.6 Z"/>
</g>

<g id="heli_1_svg_0_Layer1_7_FILL">
<path fill="#FFFFFF" stroke="none" d="
M 42.75 105.3
Q 42.55 105.15 41.55 105.25 40.4 105.35 40.05 105.8 39.9 106.1 40.3 107.2 40.7 108.25 41.05 108.6
L 56.65 120.85
Q 57.5 121.65 58.45 120.95 60.45 119.7 60.75 117.35 60.8 116.7 60.6 116.4 60.45 116.2 59.85 115.85
L 42.75 105.3 Z"/>
</g>

<g id="heli_1_svg_0_Layer1_8_FILL">
<path fill="#303A42" stroke="none" d="
M 72.4 135
L 72.4 134.85
Q 72.4 132.35 71.85 130.3
L 68.5 127.95 68.15 127.8 68.15 127.9
Q 68 130.05 68.4 132.35
L 68.45 132.4 68.75 132.65 70 133.5 70.05 133.55
Q 71.35 134.5 72.4 135 Z"/>
</g>

<g id="heli_1_svg_0_Layer1_9_FILL">
<path fill="#FFFFFF" stroke="none" d="
M 69.25 123.35
L 77.3 118.75
Q 70 114.35 68.4 113.75 66.4 113.3 64.55 113.65
L 56.55 118.25
Q 58.4 117.9 60.4 118.35 62 118.9 69.25 123.35 Z"/>
</g>

<g id="heli_1_svg_0_Layer1_10_FILL">
<path fill="#303A42" stroke="none" d="
M 75.25 131.25
L 76 131.75 84.2 126.95 83.55 126.35 75.25 131.25 Z"/>
</g>

<g id="heli_1_svg_0_Layer1_11_FILL">
<path fill="#FFFFFF" stroke="none" d="
M 72.8 127.35
L 80.8 122.8
Q 79.65 122 77.8 120.85 76.1 119.85 75.95 119.8
L 67.95 124.35
Q 68.1 124.45 72.8 127.35 Z"/>
</g>

<g id="heli_1_svg_0_Layer1_12_FILL">
<path fill="#303A42" stroke="none" d="
M 75.55 137.05
Q 76.05 137.55 76.7 137.9
L 76.7 137.8
Q 76.3 135.2 75.5 132.75 74.8 132.15 74.35 131.9 73.85 131.5 73.35 131.3 73.6 134 74.05 136.05
L 75.35 137.05 75.55 137.05 Z"/>
</g>

<g id="heli_1_svg_0_Layer1_13_FILL">
<path fill="#4A56AE" stroke="none" d="
M 80.85 122.8
L 72.8 127.35
Q 73.05 127.5 74 128.2 74.95 129.65 75.25 131.25
L 83.55 126.35
Q 82.85 124.65 81.95 123.65
L 80.85 122.8 Z"/>
</g>

<g id="heli_1_svg_0_Layer1_14_FILL">
<path fill="#4A56AE" stroke="none" d="
M 76 131.75
L 77.4 132.65 77.7 132.95 85.65 128.35 84.1 126.95 76 131.75 Z"/>
</g>

<g id="heli_1_svg_0_Layer1_15_FILL">
<path fill="#303A42" stroke="none" d="
M 75.9 131.75
L 76.75 135.05
Q 77.7 138.45 78 138.95
L 78.05 139.05 78.85 139.75 80.2 140.45 80.4 140.45
Q 80.65 140.55 80.9 140.45
L 81.2 140.3 81.25 140.3 89.1 135.85 89.3 135.65 81.3 140.25
Q 80.6 138.05 79.6 136.15 78.65 134.4 77.6 133
L 77.3 132.7 75.9 131.75 Z"/>
</g>

<g id="heli_1_svg_0_Layer1_16_FILL">
<path fill="#C9EAFF" stroke="none" d="
M 77.7 132.95
Q 78.8 134.4 79.7 136.15 80.85 138.45 81.35 140.2
L 89.35 135.6
Q 88.85 133.85 87.7 131.55 86.65 129.6 85.7 128.35
L 77.7 132.95 Z"/>
</g>

<g id="heli_1_svg_0_Layer1_17_FILL">
<path fill="#303A42" stroke="none" d="
M 83.25 144.35
L 83.2 144.35 83.05 144.55 91.05 139.95
Q 91.4 139.8 91.4 139.4
L 83.4 144 83.4 144.15 83.35 144.25 83.25 144.35 Z"/>
</g>

<g id="heli_1_svg_0_Layer1_18_FILL">
<path fill="#4A56AE" stroke="none" d="
M 66.35 132.55
L 65 131.35
Q 62.9 129.4 59.6 126 56.45 122.75 56.4 122.6 57.25 125.15 58.4 127.5 58.9 128.35 61.8 131.1 64 133.15 65.4 134.4 66.3 135.15 74 140.4 78.6 143.5 78.9 143.65 79.65 144.1 81 144.4 82.6 144.8 83.25 144.4
L 83.3 144.3 83.4 144.2 83.45 144.1
Q 83.5 144.05 83.45 143.9
L 80.15 141.9
Q 79.1 141.3 74.25 138
L 69.85 135.05 69.75 135 66.35 132.55 Z"/>
</g>

<g id="heli_1_svg_0_Layer1_19_FILL">
<path fill="#FFFFFF" stroke="none" d="
M 81.4 140.3
Q 81.75 140.4 82.55 141.55 83.55 142.95 83.35 143.95
L 91.35 139.35
Q 91.45 138.4 90.4 136.95
L 89.3 135.7 89.1 135.85 81.4 140.3 Z"/>
</g>

<g id="heli_1_svg_0_Layer1_20_FILL">
<path fill="#303A42" stroke="none" d="
M 68.7 116.3
Q 67.3 116 66.7 116.25 66.55 116.3 66.5 117.1 66.45 117.9 66.4 117.95 65.75 118.6 66.65 119.35 68.1 120.25 69.65 119.7 70.7 119.25 70.3 118.5 70.9 117.2 70.7 117.05 70.05 116.6 68.7 116.3 Z"/>
</g>

<g id="heli_1_svg_0_Layer1_21_FILL">
<path fill="#E5E6E7" stroke="none" d="
M 70.25 116.2
Q 68.8 115.3 67.25 115.85 66.55 116.1 66.5 116.6 66.45 117.1 67.05 117.5 68.4 118.45 70.05 117.9 70.7 117.65 70.75 117.15 70.85 116.65 70.25 116.2 Z"/>
</g>

<g id="heli_1_svg_0_Layer1_22_FILL">
<path fill="#303A42" stroke="none" d="
M 41.8 99.3
L 41.1 99.75 43.15 107.8 43.85 107.4 41.8 99.3 Z"/>
</g>

<g id="heli_1_svg_0_Layer1_23_FILL">
<path fill="#BABCBE" stroke="none" d="
M 40.6 98.5
L 39.9 98.9 41.1 99.75 41.8 99.3 40.6 98.5 Z"/>
</g>

<g id="heli_1_svg_0_Layer1_24_FILL">
<path fill="#4A56AE" stroke="none" d="
M 41.05 106.35
L 43.15 107.8 41.1 99.75 39.9 98.9 41.05 106.35 Z"/>
</g>

<g id="heli_1_svg_0_Layer1_25_FILL">
<path fill="#303A42" stroke="none" d="
M 40.8 102.7
Q 40.75 102.8 40.5 102.8 40.45 103.3 40.75 103.8
L 41.1 103.65
Q 41.3 103.6 41.3 103.4 41.35 103.05 41.1 102.7 40.9 102.5 40.8 102.7 Z"/>
</g>

<g id="heli_1_svg_0_Layer1_26_FILL">
<path fill="#BABCBE" stroke="none" d="
M 40.95 103.55
Q 40.95 103.1 40.75 102.85 40.4 102.6 40.4 103 40.35 103.4 40.6 103.75 40.9 103.95 40.95 103.55 Z"/>
</g>

<g id="heli_1_svg_0_Layer1_27_FILL">
<path fill="#4A56AE" stroke="none" d="
M 60.4 118.35
Q 58.4 117.9 56.55 118.25
L 56.35 119.05
Q 59.5 120.85 66.7 125.65
L 75.25 131.2
Q 74.95 129.45 74 128.1
L 72.85 127.25
Q 68.1 124.35 67.95 124.25
L 69.3 123.35
Q 62.05 118.95 60.4 118.35 Z"/>
</g>

<g id="heli_1_svg_0_Layer1_28_FILL">
<path fill="#CEDAD5" stroke="none" d="
M 65.25 122.05
L 65.05 123.7 66.35 124.5 66.55 122.85 66.5 122.85 65.25 122.05 Z"/>
</g>

<g id="heli_1_svg_0_Layer1_29_FILL">
<path fill="#CEDAD5" stroke="none" d="
M 63.3 120.9
L 63.15 122.55 64.45 123.35 64.6 121.7 64.55 121.65 63.3 120.9 Z"/>
</g>

<g id="heli_1_svg_0_Layer1_30_FILL">
<path fill="#CEDAD5" stroke="none" d="
M 61.45 119.8
L 61.3 121.4 62.55 122.2 62.7 120.6 62.65 120.55 61.45 119.8 Z"/>
</g>

<g id="heli_1_svg_0_Layer1_31_FILL">
<path fill="#FFFFFF" stroke="none" d="
M 56.35 119.05
L 55.9 121.55 56.3 122.7 59.6 126
Q 63.2 129.7 65 131.35
L 66.35 132.55
Q 68.1 133.9 69.75 134.95
L 69.85 135.05 74.25 137.95
Q 79.6 141.6 80.15 141.9
L 83.45 143.9
Q 83.6 142.95 82.5 141.55 81.45 140.35 81.4 140.3
L 81.3 140.3 81.2 140.35 81.1 140.35
Q 80.85 140.5 80.6 140.35
L 80.4 140.35
Q 79.85 140.15 79.1 139.7 78.6 139.35 78.3 139
L 78.2 138.9
Q 76.95 135.1 76.1 131.7
L 75.4 131.35 66.7 125.65
Q 59.5 120.85 56.35 119.05
M 72.35 134.85
L 72.35 135
Q 71.1 134.4 70.05 133.55
L 69.95 133.5 68.45 132.4 68.4 132.35
Q 68.05 130.15 68.1 127.9
L 68.1 127.8 68.5 127.95 71.85 130.3
Q 72.4 132.75 72.35 134.85
M 74.05 136.05
Q 73.6 134 73.35 131.2 73.95 131.45 74.35 131.8 75 132.2 75.5 132.7 76.3 135.1 76.7 137.75
L 76.7 137.8
Q 76.15 137.55 75.55 137.05
L 75.4 137.05
Q 74.5 136.45 74.05 136.05 Z"/>
</g>

<g id="heli_1_svg_0_Layer1_32_FILL">
<path fill="#FCB91A" stroke="none" d="
M 61.45 125.55
Q 62 125.85 62.1 125.2 62.1 124.45 61.6 124.1 61.35 123.95 61.2 124.05 61 124.15 61 124.45 60.9 125.1 61.45 125.55 Z"/>
</g>

<g id="heli_1_svg_0_Layer1_33_FILL">
<path fill="#FCB91A" stroke="none" d="
M 63.55 126.85
Q 64.05 127.2 64.15 126.45 64.25 125.75 63.65 125.35 63.45 125.15 63.25 125.3 63.05 125.4 63.05 125.7 63 126.35 63.55 126.85 Z"/>
</g>

<g id="heli_rotar1_svg_Assets_Layer_1__Group__0_Layer0_0_MEMBER_0_FILL">
<path fill="url(#Gradient_6)" stroke="none" d="
M 22.35 13.95
L 35.8 2.65
Q 29.95 0.15 23.5 0 15.7 -0.1 9.35 2.9 3.1 5.8 0.9 10.45
L 22.35 13.95 Z"/>
</g>

<g id="heli_rotar1_svg_Assets_Layer_1__Group__0_Layer0_0_MEMBER_1_FILL">
<path fill="url(#Gradient_7)" stroke="none" d="
M 41.75 20.45
Q 44.35 17.6 44.65 14.3 45 10.75 42.55 7.65 40.15 4.6 35.75 2.65
L 22.35 13.95 35 25.1
Q 39.2 23.25 41.75 20.45 Z"/>
</g>

<g id="heli_rotar1_svg_Assets_Layer_1__Group__0_Layer0_0_MEMBER_2_FILL">
<path fill="url(#Gradient_8)" stroke="none" d="
M 22.35 13.95
L 0.9 10.4
Q 0.15 11.9 0 13.6 -0.5 19.35 5.65 23.45 11.8 27.6 21.05 27.75 28.45 27.9 35.05 25.05
L 22.35 13.95 Z"/>
</g>

<g id="flag_APS_0_Layer0_0_STROKES_1_FILL">
<path fill="#000000" stroke="none" d="
M 117.85 96.2
L 117.7 96.35 131.9 105.8 145.1 114
Q 145.45 114.25 145.65 114.3
L 146.35 114.7 146.5 114.55 146.2 114.3 135 106.75 117.85 96.2 Z"/>
</g>

<g id="flag_APS_0_Layer0_1_MEMBER_0_MEMBER_0_FILL">
<path fill="#231515" stroke="none" d="
M 147.1 116.55
L 114.6 93.75 147.1 116.55 Z"/>
</g>

<g id="flag_APS_0_Layer0_1_MEMBER_1_MEMBER_0_FILL">
<path fill="#EA506A" stroke="none" d="
M 117.85 96.2
L 111.65 75.25 26.6 17.25 31.8 36 24.4 40.95 109.3 100.15 117.85 96.2 Z"/>
</g>

<g id="flag_APS_0_Layer0_1_MEMBER_1_MEMBER_1_MEMBER_0_FILL">
<path fill="#FFFFFF" stroke="none" d="
M 45 34.65
L 43.15 33.35 38.7 43.2 40.6 44.55 41.5 42.35 44.4 44.4 44.75 47.45 46.6 48.8 45 34.65
M 42.15 40.8
L 43.7 37.25 43.7 37.3 44.2 42.25 42.15 40.8 Z"/>
</g>

<g id="flag_APS_0_Layer0_1_MEMBER_1_MEMBER_1_MEMBER_1_FILL">
<path fill="#FFFFFF" stroke="none" d="
M 48.9 37.4
L 47.5 49.4 49.3 50.65 49.8 46.3 51.45 47.45
Q 53 48.55 54 48.15 55.05 47.7 55.25 46 55.4 44.15 54.7 42.6 53.9 40.9 52.35 39.8
L 48.9 37.4
M 50.05 44.45
L 50.5 40.5 52.15 41.65
Q 52.9 42.15 53.2 43.05 53.55 43.8 53.45 44.75 53.3 45.65 52.9 45.85 52.4 46.15 51.65 45.6
L 50.05 44.45 Z"/>
</g>

<g id="flag_APS_0_Layer0_1_MEMBER_1_MEMBER_1_MEMBER_2_FILL">
<path fill="#FFFFFF" stroke="none" d="
M 58.6 48.75
Q 58.2 48.05 58.3 47.45 58.35 46.8 58.8 46.6 59.25 46.45 59.9 46.9 60.65 47.5 60.95 48.2 61.35 49 61.2 49.85
L 62.95 51.1 63 51.05
Q 63.25 49.45 62.4 47.8 61.7 46.25 60.15 45.1 58.7 44.1 57.7 44.4 56.65 44.7 56.5 46.15 56.35 47.7 57.05 49.05 57.65 50.35 59.2 52.2 60.05 53.15 60.4 53.9 60.7 54.6 60.65 55.25 60.55 55.95 60.1 56.05 59.7 56.2 58.95 55.7 58.2 55.1 57.75 54.3 57.4 53.45 57.45 52.4
L 55.7 51.15 55.7 51.2
Q 55.45 53.1 56.35 54.8 57.4 56.6 58.75 57.5 60.3 58.6 61.25 58.3 62.25 58.1 62.45 56.5 62.6 55 61.95 53.6 61.3 52.2 59.85 50.5 58.85 49.35 58.6 48.75 Z"/>
</g>

<g id="flag_APS_0_Layer0_1_MEMBER_1_MEMBER_1_MEMBER_3_FILL">
<path fill="#FFFFFF" stroke="none" d="
M 70.7 55.9
Q 70.2 55.55 69.8 55.7 69.4 55.85 69.1 56.35
L 69.15 55 67.45 53.8 66.4 62.75 68.2 64 68.95 57.95
Q 69.1 57.7 69.4 57.6 69.6 57.6 70.1 57.85
L 70.75 58.35 71.2 56.35 70.7 55.9 Z"/>
</g>

<g id="flag_APS_0_Layer0_1_MEMBER_1_MEMBER_1_MEMBER_4_FILL">
<path fill="#FFFFFF" stroke="none" d="
M 76.55 61.25
Q 75.95 59.65 74.6 58.65 73.15 57.65 72.25 58.35 71.3 59 71 61.05
L 71 61.4
Q 70.8 63.3 71.45 65.15 72.1 66.95 73.65 68 74.5 68.6 75.15 68.75 75.85 68.95 76.35 68.8
L 76.05 66.95
Q 75.6 67 75.1 66.85 74.55 66.65 74.05 66.3 73.3 65.8 73 64.95 72.7 64.05 72.75 63.15
L 72.8 63.15 76.8 65.95 76.95 64.7
Q 77.15 62.9 76.55 61.25
M 74.4 60.5
Q 74.95 61 75.15 61.5 75.35 62.3 75.2 62.9
L 75.2 63.1 73 61.55 73 61.5
Q 73.15 60.65 73.5 60.45 73.9 60.15 74.4 60.5 Z"/>
</g>

<g id="flag_APS_0_Layer0_1_MEMBER_1_MEMBER_1_MEMBER_5_FILL">
<path fill="#FFFFFF" stroke="none" d="
M 81.8 65.75
L 82 64.05 80.7 63.15 80.85 62.15
Q 80.95 61.55 81.2 61.4 81.45 61.25 81.9 61.55
L 82.5 62.05 82.85 60.35 81.9 59.5
Q 80.7 58.7 79.95 59.05 79.2 59.35 79.05 60.9
L 78.9 61.85 77.9 61.15 77.7 62.85 78.7 63.55 77.85 70.8 79.65 72.05 80.5 64.85 81.8 65.75 Z"/>
</g>

<g id="flag_APS_0_Layer0_1_MEMBER_1_MEMBER_1_MEMBER_6_FILL">
<path fill="#FFFFFF" stroke="none" d="
M 85.75 66.5
Q 84.3 65.45 83.3 66.15 82.35 66.8 82.05 68.85
L 82.05 69
Q 81.85 71.05 82.5 72.9 83.2 74.7 84.65 75.8 86.15 76.85 87.15 76.15 88.15 75.5 88.35 73.45
L 88.4 73.3
Q 88.65 71.3 87.95 69.4 87.15 67.5 85.75 66.5
M 83.85 70.3
L 83.85 70.1
Q 84 68.95 84.4 68.4 84.8 67.9 85.55 68.35 86.2 68.85 86.5 69.85 86.7 70.65 86.6 72
L 86.55 72.2
Q 86.4 73.45 86 73.9 85.6 74.45 84.9 73.95 84.2 73.45 83.95 72.45 83.7 71.4 83.85 70.3 Z"/>
</g>

<g id="flag_APS_0_Layer0_1_MEMBER_1_MEMBER_1_MEMBER_7_FILL">
<path fill="#FFFFFF" stroke="none" d="
M 93.75 72.25
L 93.25 71.8
Q 92.75 71.45 92.35 71.6 91.95 71.75 91.6 72.25
L 91.7 70.9 90 69.7 88.95 78.6 90.75 79.9 91.5 73.85
Q 91.65 73.6 91.95 73.5 92.3 73.5 92.65 73.75
L 93.3 74.25 93.75 72.25 Z"/>
</g>

<g id="flag_APS_0_Layer0_1_MEMBER_1_MEMBER_1_MEMBER_8_FILL">
<path fill="#FFFFFF" stroke="none" d="
M 96.15 74
L 94.5 72.85 93.4 81.75 95.2 83.05 96 76.55
Q 96.25 76.3 96.5 76.3 96.95 76.4 97.2 76.6 97.7 76.95 97.85 77.55 98.05 78.05 97.95 79.2
L 97.3 84.5 99.1 85.75 99.8 79.9 99.85 79.7 99.85 79.4
Q 100.1 79.1 100.4 79.1 100.65 79.05 101.05 79.35 101.5 79.6 101.75 80.25 101.95 80.75 101.85 81.95
L 101.2 87.25 103 88.5 103.65 83.2
Q 103.85 81.35 103.4 79.95 103 78.7 101.95 77.9 101.25 77.45 100.75 77.5 100.2 77.55 99.8 78.05 99.65 77.2 99.25 76.45 98.8 75.7 98.2 75.25 97.5 74.8 97 74.85 96.5 74.85 96.1 75.25
L 96.15 74 Z"/>
</g>

<g id="flag_APS_0_Layer0_1_MEMBER_2_MEMBER_0_MEMBER_0_FILL">
<path fill="#F8FEFF" stroke="none" d="
M 22.95 15.4
Q 21.15 13.95 17.45 11.25 14.9 9.4 11.75 7.3
L 0 0 11.2 8.1
Q 13.85 9.9 17 11.85 20.05 13.8 22.95 15.4 Z"/>
</g>

<g id="flag_APS_0_Layer0_1_MEMBER_2_MEMBER_1_MEMBER_0_FILL">
<path fill="#F8FEFF" stroke="none" d="
M 24.9 27.9
Q 22.2 25.75 19.35 23.7 17.5 22.35 13.7 19.75 9.85 17.2 7.9 16
L 1.9 12.45 7.45 16.65
Q 9.85 18.4 13.15 20.6 17.8 23.65 18.95 24.35 22.85 26.75 24.9 27.9 Z"/>
</g>

<g id="flag_APS_0_Layer0_1_MEMBER_2_MEMBER_2_MEMBER_0_FILL">
<path fill="#F8FEFF" stroke="none" d="
M 22.45 37.65
Q 19.15 34.85 13.7 31.2 8.25 27.55 4.4 25.55 7.95 28.55 13.15 32 18.85 35.75 22.45 37.65 Z"/>
</g>

<path id="heli_1_svg_0_Layer1_0_1_STROKES" stroke="#303A42" stroke-width="0.5" stroke-linejoin="round" stroke-linecap="round" fill="none" d="
M 76.6 144.7
Q 77.35 142.3 76.5 140.85 75.9 139.7 67.4 133.3
L 59 127.1
Q 58.4 129 58.55 130.95"/>

<path id="heli_1_svg_0_Layer1_1_1_STROKES" stroke="#303A42" stroke-width="0.5" stroke-linejoin="round" stroke-linecap="round" fill="none" d="
M 79.75 144.85
Q 79.45 145.15 78.7 145.1 77.15 145.1 74.8 143.55 72.5 141.95 64.4 135.6
L 56.8 129.55"/>

<path id="heli_1_svg_0_Layer1_2_1_STROKES" stroke="#7467AC" stroke-width="0.5" stroke-linejoin="round" stroke-linecap="round" fill="none" d="
M 87.65 140.8
Q 88.6 137.6 87.75 136.1 87.1 135 78.6 128.55
L 70.25 122.35 70.1 122.75
Q 69.95 123.5 69.95 125.35"/>

<path id="heli_1_svg_0_Layer1_3_1_STROKES" stroke="#303A42" stroke-width="0.5" stroke-linejoin="round" stroke-linecap="round" fill="none" d="
M 90.65 140.85
Q 90.3 141.2 89.5 141.25 87.85 141.25 85.65 139.5 83.45 137.75 75.55 130.7
L 68.15 124"/>
</defs>

<g transform="matrix( 1, 0, 0, 1, 985.45,631.1) ">
<g transform="matrix( 0.998138427734375, -0.060821533203125, 0.060821533203125, 0.998138427734375, -1.15,0.75) ">
<g transform="matrix( 0.998138427734375, -0.060821533203125, 0.060821533203125, 0.998138427734375, 92,55.9) ">
<g transform="matrix( 1, 0, 0, 1, 12.35,18.25) ">
<g transform="matrix( 1, 0, 0, 1, -12.35,-18.25) ">
<use xlink:href="#Duplicate_Items_Folder_Tween_1_0_Layer0_0_MEMBER_0_FILL"/>
</g>

<g transform="matrix( 1, 0, 0, 1, -12.35,-18.25) ">
<use xlink:href="#Duplicate_Items_Folder_Tween_1_0_Layer0_0_MEMBER_1_FILL"/>
</g>

<g transform="matrix( 1, 0, 0, 1, -12.35,-18.25) ">
<use xlink:href="#Duplicate_Items_Folder_Tween_1_0_Layer0_0_MEMBER_2_FILL"/>
</g>

<g transform="matrix( 1, 0, 0, 1, -12.35,-18.25) ">
<use xlink:href="#Duplicate_Items_Folder_Tween_1_0_Layer0_0_MEMBER_3_FILL"/>
</g>

<g transform="matrix( 1, 0, 0, 1, -12.35,-18.25) ">
<use xlink:href="#Duplicate_Items_Folder_Tween_1_0_Layer0_0_MEMBER_4_FILL"/>
</g>

<g transform="matrix( 1, 0, 0, 1, -12.35,-18.25) ">
<use xlink:href="#Duplicate_Items_Folder_Tween_1_0_Layer0_0_MEMBER_5_FILL"/>
</g>

<g transform="matrix( 1, 0, 0, 1, -12.35,-18.25) ">
<use xlink:href="#Duplicate_Items_Folder_Tween_1_0_Layer0_0_MEMBER_6_FILL"/>
</g>

<g transform="matrix( 1, 0, 0, 1, -12.35,-18.25) ">
<use xlink:href="#Duplicate_Items_Folder_Tween_1_0_Layer0_0_MEMBER_7_FILL"/>
</g>

<g transform="matrix( 1, 0, 0, 1, -12.35,-18.25) ">
<use xlink:href="#Duplicate_Items_Folder_Tween_1_0_Layer0_0_MEMBER_8_FILL"/>
</g>

<g transform="matrix( 1, 0, 0, 1, -12.35,-18.25) ">
<use xlink:href="#Duplicate_Items_Folder_Tween_1_0_Layer0_0_MEMBER_9_FILL"/>
</g>

<g transform="matrix( 1, 0, 0, 1, -12.35,-18.25) ">
<use xlink:href="#Duplicate_Items_Folder_Tween_1_0_Layer0_0_MEMBER_10_FILL"/>
</g>

<g transform="matrix( 1, 0, 0, 1, -12.35,-18.25) ">
<use xlink:href="#Duplicate_Items_Folder_Tween_1_0_Layer0_0_MEMBER_11_FILL"/>
</g>

<g transform="matrix( 1, 0, 0, 1, -12.35,-18.25) ">
<use xlink:href="#Duplicate_Items_Folder_Tween_1_0_Layer0_0_MEMBER_12_FILL"/>
</g>

<g transform="matrix( 1, 0, 0, 1, -12.35,-18.25) ">
<use xlink:href="#Duplicate_Items_Folder_Tween_1_0_Layer0_0_MEMBER_13_FILL"/>
</g>

<g transform="matrix( 1, 0, 0, 1, -12.35,-18.25) ">
<use xlink:href="#Duplicate_Items_Folder_Tween_1_0_Layer0_0_MEMBER_14_FILL"/>
</g>

<g transform="matrix( 1, 0, 0, 1, -12.35,-18.25) ">
<use xlink:href="#Duplicate_Items_Folder_Tween_1_0_Layer0_0_MEMBER_15_FILL"/>
</g>

<g transform="matrix( 1, 0, 0, 1, -12.35,-18.25) ">
<use xlink:href="#Duplicate_Items_Folder_Tween_1_0_Layer0_0_MEMBER_16_FILL"/>
</g>

<g transform="matrix( 1, 0, 0, 1, -12.35,-18.25) ">
<use xlink:href="#Duplicate_Items_Folder_Tween_1_0_Layer0_0_MEMBER_17_FILL"/>
</g>

<g transform="matrix( 1, 0, 0, 1, -12.35,-18.25) ">
<use xlink:href="#Duplicate_Items_Folder_Tween_1_0_Layer0_0_MEMBER_18_FILL"/>
</g>

<g transform="matrix( 1, 0, 0, 1, -12.35,-18.25) ">
<use xlink:href="#Duplicate_Items_Folder_Tween_1_0_Layer0_0_MEMBER_19_FILL"/>
</g>
</g>
</g>
</g>
</g>

<g transform="matrix( 1, 0, 0, 1, 761.4,943.35) ">
<g transform="matrix( 0.998138427734375, -0.060821533203125, 0.060821533203125, 0.998138427734375, 92,55.9) ">
<g transform="matrix( 1, 0, 0, 1, 12.35,18.25) ">
<g transform="matrix( 1, 0, 0, 1, -12.35,-18.25) ">
<use xlink:href="#Duplicate_Items_Folder_Tween_1_0_Layer0_0_MEMBER_0_FILL"/>
</g>

<g transform="matrix( 1, 0, 0, 1, -12.35,-18.25) ">
<use xlink:href="#Duplicate_Items_Folder_Tween_1_0_Layer0_0_MEMBER_1_FILL"/>
</g>

<g transform="matrix( 1, 0, 0, 1, -12.35,-18.25) ">
<use xlink:href="#Duplicate_Items_Folder_Tween_1_0_Layer0_0_MEMBER_2_FILL"/>
</g>

<g transform="matrix( 1, 0, 0, 1, -12.35,-18.25) ">
<use xlink:href="#Duplicate_Items_Folder_Tween_1_0_Layer0_0_MEMBER_3_FILL"/>
</g>

<g transform="matrix( 1, 0, 0, 1, -12.35,-18.25) ">
<use xlink:href="#Duplicate_Items_Folder_Tween_1_0_Layer0_0_MEMBER_4_FILL"/>
</g>

<g transform="matrix( 1, 0, 0, 1, -12.35,-18.25) ">
<use xlink:href="#Duplicate_Items_Folder_Tween_1_0_Layer0_0_MEMBER_5_FILL"/>
</g>

<g transform="matrix( 1, 0, 0, 1, -12.35,-18.25) ">
<use xlink:href="#Duplicate_Items_Folder_Tween_1_0_Layer0_0_MEMBER_6_FILL"/>
</g>

<g transform="matrix( 1, 0, 0, 1, -12.35,-18.25) ">
<use xlink:href="#Duplicate_Items_Folder_Tween_1_0_Layer0_0_MEMBER_7_FILL"/>
</g>

<g transform="matrix( 1, 0, 0, 1, -12.35,-18.25) ">
<use xlink:href="#Duplicate_Items_Folder_Tween_1_0_Layer0_0_MEMBER_8_FILL"/>
</g>

<g transform="matrix( 1, 0, 0, 1, -12.35,-18.25) ">
<use xlink:href="#Duplicate_Items_Folder_Tween_1_0_Layer0_0_MEMBER_9_FILL"/>
</g>

<g transform="matrix( 1, 0, 0, 1, -12.35,-18.25) ">
<use xlink:href="#Duplicate_Items_Folder_Tween_1_0_Layer0_0_MEMBER_10_FILL"/>
</g>

<g transform="matrix( 1, 0, 0, 1, -12.35,-18.25) ">
<use xlink:href="#Duplicate_Items_Folder_Tween_1_0_Layer0_0_MEMBER_11_FILL"/>
</g>

<g transform="matrix( 1, 0, 0, 1, -12.35,-18.25) ">
<use xlink:href="#Duplicate_Items_Folder_Tween_1_0_Layer0_0_MEMBER_12_FILL"/>
</g>

<g transform="matrix( 1, 0, 0, 1, -12.35,-18.25) ">
<use xlink:href="#Duplicate_Items_Folder_Tween_1_0_Layer0_0_MEMBER_13_FILL"/>
</g>

<g transform="matrix( 1, 0, 0, 1, -12.35,-18.25) ">
<use xlink:href="#Duplicate_Items_Folder_Tween_1_0_Layer0_0_MEMBER_14_FILL"/>
</g>

<g transform="matrix( 1, 0, 0, 1, -12.35,-18.25) ">
<use xlink:href="#Duplicate_Items_Folder_Tween_1_0_Layer0_0_MEMBER_15_FILL"/>
</g>

<g transform="matrix( 1, 0, 0, 1, -12.35,-18.25) ">
<use xlink:href="#Duplicate_Items_Folder_Tween_1_0_Layer0_0_MEMBER_16_FILL"/>
</g>

<g transform="matrix( 1, 0, 0, 1, -12.35,-18.25) ">
<use xlink:href="#Duplicate_Items_Folder_Tween_1_0_Layer0_0_MEMBER_17_FILL"/>
</g>

<g transform="matrix( 1, 0, 0, 1, -12.35,-18.25) ">
<use xlink:href="#Duplicate_Items_Folder_Tween_1_0_Layer0_0_MEMBER_18_FILL"/>
</g>

<g transform="matrix( 1, 0, 0, 1, -12.35,-18.25) ">
<use xlink:href="#Duplicate_Items_Folder_Tween_1_0_Layer0_0_MEMBER_19_FILL"/>
</g>
</g>
</g>
</g>

<g transform="matrix( 1, 0, 0, 1, 230.15,626.55) ">
<g transform="matrix( 0.998138427734375, -0.060821533203125, 0.060821533203125, 0.998138427734375, 92,55.9) ">
<g transform="matrix( 1, 0, 0, 1, 12.35,18.25) ">
<g transform="matrix( 1, 0, 0, 1, -12.35,-18.25) ">
<use xlink:href="#Duplicate_Items_Folder_Tween_1_0_Layer0_0_MEMBER_0_FILL"/>
</g>

<g transform="matrix( 1, 0, 0, 1, -12.35,-18.25) ">
<use xlink:href="#Duplicate_Items_Folder_Tween_1_0_Layer0_0_MEMBER_1_FILL"/>
</g>

<g transform="matrix( 1, 0, 0, 1, -12.35,-18.25) ">
<use xlink:href="#Duplicate_Items_Folder_Tween_1_0_Layer0_0_MEMBER_2_FILL"/>
</g>

<g transform="matrix( 1, 0, 0, 1, -12.35,-18.25) ">
<use xlink:href="#Duplicate_Items_Folder_Tween_1_0_Layer0_0_MEMBER_3_FILL"/>
</g>

<g transform="matrix( 1, 0, 0, 1, -12.35,-18.25) ">
<use xlink:href="#Duplicate_Items_Folder_Tween_1_0_Layer0_0_MEMBER_4_FILL"/>
</g>

<g transform="matrix( 1, 0, 0, 1, -12.35,-18.25) ">
<use xlink:href="#Duplicate_Items_Folder_Tween_1_0_Layer0_0_MEMBER_5_FILL"/>
</g>

<g transform="matrix( 1, 0, 0, 1, -12.35,-18.25) ">
<use xlink:href="#Duplicate_Items_Folder_Tween_1_0_Layer0_0_MEMBER_6_FILL"/>
</g>

<g transform="matrix( 1, 0, 0, 1, -12.35,-18.25) ">
<use xlink:href="#Duplicate_Items_Folder_Tween_1_0_Layer0_0_MEMBER_7_FILL"/>
</g>

<g transform="matrix( 1, 0, 0, 1, -12.35,-18.25) ">
<use xlink:href="#Duplicate_Items_Folder_Tween_1_0_Layer0_0_MEMBER_8_FILL"/>
</g>

<g transform="matrix( 1, 0, 0, 1, -12.35,-18.25) ">
<use xlink:href="#Duplicate_Items_Folder_Tween_1_0_Layer0_0_MEMBER_9_FILL"/>
</g>

<g transform="matrix( 1, 0, 0, 1, -12.35,-18.25) ">
<use xlink:href="#Duplicate_Items_Folder_Tween_1_0_Layer0_0_MEMBER_10_FILL"/>
</g>

<g transform="matrix( 1, 0, 0, 1, -12.35,-18.25) ">
<use xlink:href="#Duplicate_Items_Folder_Tween_1_0_Layer0_0_MEMBER_11_FILL"/>
</g>

<g transform="matrix( 1, 0, 0, 1, -12.35,-18.25) ">
<use xlink:href="#Duplicate_Items_Folder_Tween_1_0_Layer0_0_MEMBER_12_FILL"/>
</g>

<g transform="matrix( 1, 0, 0, 1, -12.35,-18.25) ">
<use xlink:href="#Duplicate_Items_Folder_Tween_1_0_Layer0_0_MEMBER_13_FILL"/>
</g>

<g transform="matrix( 1, 0, 0, 1, -12.35,-18.25) ">
<use xlink:href="#Duplicate_Items_Folder_Tween_1_0_Layer0_0_MEMBER_14_FILL"/>
</g>

<g transform="matrix( 1, 0, 0, 1, -12.35,-18.25) ">
<use xlink:href="#Duplicate_Items_Folder_Tween_1_0_Layer0_0_MEMBER_15_FILL"/>
</g>

<g transform="matrix( 1, 0, 0, 1, -12.35,-18.25) ">
<use xlink:href="#Duplicate_Items_Folder_Tween_1_0_Layer0_0_MEMBER_16_FILL"/>
</g>

<g transform="matrix( 1, 0, 0, 1, -12.35,-18.25) ">
<use xlink:href="#Duplicate_Items_Folder_Tween_1_0_Layer0_0_MEMBER_17_FILL"/>
</g>

<g transform="matrix( 1, 0, 0, 1, -12.35,-18.25) ">
<use xlink:href="#Duplicate_Items_Folder_Tween_1_0_Layer0_0_MEMBER_18_FILL"/>
</g>

<g transform="matrix( 1, 0, 0, 1, -12.35,-18.25) ">
<use xlink:href="#Duplicate_Items_Folder_Tween_1_0_Layer0_0_MEMBER_19_FILL"/>
</g>
</g>
</g>
</g>

<g transform="matrix( 1, 0, 0, 1, -35.75,246.65) ">
<g transform="matrix( 1, 0, 0, 1, 0,0) ">
<use xlink:href="#heliShadow_0_Layer0_0_FILL"/>
</g>
</g>

<g transform="matrix( 0.99041748046875, 0.138092041015625, -0.138092041015625, 0.99041748046875, -78.6,-118.85) ">
<g transform="matrix( 1, 0, 0, 1, 0,0) ">
<use xlink:href="#heli_1_svg_0_Layer1_0_1_STROKES"/>
</g>

<g transform="matrix( 1, 0, 0, 1, 0,0) ">
<use xlink:href="#heli_1_svg_0_Layer1_1_1_STROKES"/>
</g>

<g transform="matrix( 1, 0, 0, 1, 0,0) ">
<use xlink:href="#heli_1_svg_0_Layer1_2_1_STROKES"/>
</g>

<g transform="matrix( 1, 0, 0, 1, 0,0) ">
<use xlink:href="#heli_1_svg_0_Layer1_3_1_STROKES"/>
</g>

<g transform="matrix( 1, 0, 0, 1, 0,0) ">
<use xlink:href="#heli_1_svg_0_Layer1_4_FILL"/>
</g>

<g transform="matrix( 1, 0, 0, 1, 0,0) ">
<use xlink:href="#heli_1_svg_0_Layer1_5_FILL"/>
</g>

<g transform="matrix( 1, 0, 0, 1, 0,0) ">
<use xlink:href="#heli_1_svg_0_Layer1_6_FILL"/>
</g>

<g transform="matrix( 1, 0, 0, 1, 0,0) ">
<use xlink:href="#heli_1_svg_0_Layer1_7_FILL"/>
</g>

<g transform="matrix( 1, 0, 0, 1, 0,0) ">
<use xlink:href="#heli_1_svg_0_Layer1_8_FILL"/>
</g>

<g transform="matrix( 1, 0, 0, 1, 0,0) ">
<use xlink:href="#heli_1_svg_0_Layer1_9_FILL"/>
</g>

<g transform="matrix( 1, 0, 0, 1, 0,0) ">
<use xlink:href="#heli_1_svg_0_Layer1_10_FILL"/>
</g>

<g transform="matrix( 1, 0, 0, 1, 0,0) ">
<use xlink:href="#heli_1_svg_0_Layer1_11_FILL"/>
</g>

<g transform="matrix( 1, 0, 0, 1, 0,0) ">
<use xlink:href="#heli_1_svg_0_Layer1_12_FILL"/>
</g>

<g transform="matrix( 1, 0, 0, 1, 0,0) ">
<use xlink:href="#heli_1_svg_0_Layer1_13_FILL"/>
</g>

<g transform="matrix( 1, 0, 0, 1, 0,0) ">
<use xlink:href="#heli_1_svg_0_Layer1_14_FILL"/>
</g>

<g transform="matrix( 1, 0, 0, 1, 0,0) ">
<use xlink:href="#heli_1_svg_0_Layer1_15_FILL"/>
</g>

<g transform="matrix( 1, 0, 0, 1, 0,0) ">
<use xlink:href="#heli_1_svg_0_Layer1_16_FILL"/>
</g>

<g transform="matrix( 1, 0, 0, 1, 0,0) ">
<use xlink:href="#heli_1_svg_0_Layer1_17_FILL"/>
</g>

<g transform="matrix( 1, 0, 0, 1, 0,0) ">
<use xlink:href="#heli_1_svg_0_Layer1_18_FILL"/>
</g>

<g transform="matrix( 1, 0, 0, 1, 0,0) ">
<use xlink:href="#heli_1_svg_0_Layer1_19_FILL"/>
</g>

<g transform="matrix( 1, 0, 0, 1, 0,0) ">
<use xlink:href="#heli_1_svg_0_Layer1_20_FILL"/>
</g>

<g transform="matrix( 1, 0, 0, 1, 0,0) ">
<use xlink:href="#heli_1_svg_0_Layer1_21_FILL"/>
</g>

<g transform="matrix( 1, 0, 0, 1, 0,0) ">
<use xlink:href="#heli_1_svg_0_Layer1_22_FILL"/>
</g>

<g transform="matrix( 1, 0, 0, 1, 0,0) ">
<use xlink:href="#heli_1_svg_0_Layer1_23_FILL"/>
</g>

<g transform="matrix( 1, 0, 0, 1, 0,0) ">
<use xlink:href="#heli_1_svg_0_Layer1_24_FILL"/>
</g>

<g transform="matrix( 1, 0, 0, 1, 0,0) ">
<use xlink:href="#heli_1_svg_0_Layer1_25_FILL"/>
</g>

<g transform="matrix( 1, 0, 0, 1, 0,0) ">
<use xlink:href="#heli_1_svg_0_Layer1_26_FILL"/>
</g>

<g transform="matrix( 1, 0, 0, 1, 0,0) ">
<use xlink:href="#heli_1_svg_0_Layer1_27_FILL"/>
</g>

<g transform="matrix( 1, 0, 0, 1, 0,0) ">
<use xlink:href="#heli_1_svg_0_Layer1_28_FILL"/>
</g>

<g transform="matrix( 1, 0, 0, 1, 0,0) ">
<use xlink:href="#heli_1_svg_0_Layer1_29_FILL"/>
</g>

<g transform="matrix( 1, 0, 0, 1, 0,0) ">
<use xlink:href="#heli_1_svg_0_Layer1_30_FILL"/>
</g>

<g transform="matrix( 1, 0, 0, 1, 0,0) ">
<use xlink:href="#heli_1_svg_0_Layer1_31_FILL"/>
</g>

<g transform="matrix( 1, 0, 0, 1, 0,0) ">
<use xlink:href="#heli_1_svg_0_Layer1_32_FILL"/>
</g>

<g transform="matrix( 1, 0, 0, 1, 0,0) ">
<use xlink:href="#heli_1_svg_0_Layer1_33_FILL"/>
</g>

<g transform="matrix( 1, 0, 0, 1, 46.9,105.45) ">
<g transform="matrix( 1, 0, 0, 1, 0,0) ">
<use filter="url(#Filter_1)" xlink:href="#heli_rotar1_svg_Assets_Layer_1__Group__0_Layer0_0_MEMBER_0_FILL"/>
</g>

<g transform="matrix( 1, 0, 0, 1, 0,0) ">
<use filter="url(#Filter_1)" xlink:href="#heli_rotar1_svg_Assets_Layer_1__Group__0_Layer0_0_MEMBER_1_FILL"/>
</g>

<g transform="matrix( 1, 0, 0, 1, 0,0) ">
<use filter="url(#Filter_1)" xlink:href="#heli_rotar1_svg_Assets_Layer_1__Group__0_Layer0_0_MEMBER_2_FILL"/>
</g>
</g>
</g>

<g transform="matrix( 1, 0, 0, 1, -202.55,-128.15) ">
<g transform="matrix( 1, 0, 0, 1, 0,0) ">
<use xlink:href="#flag_APS_0_Layer0_0_STROKES_1_FILL"/>
</g>

<g transform="matrix( -1, 0, 0, -1, 261.7,210.3) ">
<use xlink:href="#flag_APS_0_Layer0_1_MEMBER_0_MEMBER_0_FILL"/>
</g>

<g transform="matrix( 1, 0, 0, 1, 0,0) ">
<use xlink:href="#flag_APS_0_Layer0_1_MEMBER_1_MEMBER_0_FILL"/>
</g>

<g transform="matrix( 1, 0, 0, 1, 0,0) ">
<use xlink:href="#flag_APS_0_Layer0_1_MEMBER_1_MEMBER_1_MEMBER_0_FILL"/>
</g>

<g transform="matrix( 1, 0, 0, 1, 0,0) ">
<use xlink:href="#flag_APS_0_Layer0_1_MEMBER_1_MEMBER_1_MEMBER_1_FILL"/>
</g>

<g transform="matrix( 1, 0, 0, 1, 0,0) ">
<use xlink:href="#flag_APS_0_Layer0_1_MEMBER_1_MEMBER_1_MEMBER_2_FILL"/>
</g>

<g transform="matrix( 1, 0, 0, 1, 0,0) ">
<use xlink:href="#flag_APS_0_Layer0_1_MEMBER_1_MEMBER_1_MEMBER_3_FILL"/>
</g>

<g transform="matrix( 1, 0, 0, 1, 0,0) ">
<use xlink:href="#flag_APS_0_Layer0_1_MEMBER_1_MEMBER_1_MEMBER_4_FILL"/>
</g>

<g transform="matrix( 1, 0, 0, 1, 0,0) ">
<use xlink:href="#flag_APS_0_Layer0_1_MEMBER_1_MEMBER_1_MEMBER_5_FILL"/>
</g>

<g transform="matrix( 1, 0, 0, 1, 0,0) ">
<use xlink:href="#flag_APS_0_Layer0_1_MEMBER_1_MEMBER_1_MEMBER_6_FILL"/>
</g>

<g transform="matrix( 1, 0, 0, 1, 0,0) ">
<use xlink:href="#flag_APS_0_Layer0_1_MEMBER_1_MEMBER_1_MEMBER_7_FILL"/>
</g>

<g transform="matrix( 1, 0, 0, 1, 0,0) ">
<use xlink:href="#flag_APS_0_Layer0_1_MEMBER_1_MEMBER_1_MEMBER_8_FILL"/>
</g>

<g transform="matrix( 1, 0, 0, 1, 0,0) ">
<use xlink:href="#flag_APS_0_Layer0_1_MEMBER_2_MEMBER_0_MEMBER_0_FILL"/>
</g>

<g transform="matrix( 1, 0, 0, 1, 0,0) ">
<use xlink:href="#flag_APS_0_Layer0_1_MEMBER_2_MEMBER_1_MEMBER_0_FILL"/>
</g>

<g transform="matrix( 1, 0, 0, 1, 0,0) ">
<use xlink:href="#flag_APS_0_Layer0_1_MEMBER_2_MEMBER_2_MEMBER_0_FILL"/>
</g>
</g>
</svg>
