
<svg xmlns="http://www.w3.org/2000/svg" version="1.1" xmlns:xlink="http://www.w3.org/1999/xlink" preserveAspectRatio="none" x="0px" y="0px" width="1565px" height="873px" viewBox="0 0 1565 873">
<defs>
<linearGradient id="Gradient_1" gradientUnits="userSpaceOnUse" x1="0" y1="4.9" x2="7.4" y2="4.9" spreadMethod="pad">
<stop  offset="0%" stop-color="#846918"/>

<stop  offset="14.117647058823529%" stop-color="#9E7D1C"/>

<stop  offset="41.1764705882353%" stop-color="#C89D21"/>

<stop  offset="65.09803921568627%" stop-color="#E6B526"/>

<stop  offset="85.09803921568627%" stop-color="#F8C328"/>

<stop  offset="100%" stop-color="#FFC829"/>
</linearGradient>

<linearGradient id="Gradient_2" gradientUnits="userSpaceOnUse" x1="5.15" y1="5.15" x2="0.04999999999999982" y2="5.15" spreadMethod="pad">
<stop  offset="0%" stop-color="#846918"/>

<stop  offset="14.117647058823529%" stop-color="#9E7D1C"/>

<stop  offset="41.1764705882353%" stop-color="#C89D21"/>

<stop  offset="65.09803921568627%" stop-color="#E6B526"/>

<stop  offset="85.09803921568627%" stop-color="#F8C328"/>

<stop  offset="100%" stop-color="#FFC829"/>
</linearGradient>

<linearGradient id="Gradient_3" gradientUnits="userSpaceOnUse" x1="60.4" y1="23.450000000000003" x2="22.9" y2="59.95" spreadMethod="pad">
<stop  offset="0%" stop-color="#846918"/>

<stop  offset="14.117647058823529%" stop-color="#9E7D1C"/>

<stop  offset="41.1764705882353%" stop-color="#C89D21"/>

<stop  offset="65.09803921568627%" stop-color="#E6B526"/>

<stop  offset="85.09803921568627%" stop-color="#F8C328"/>

<stop  offset="100%" stop-color="#FFC829"/>
</linearGradient>

<linearGradient id="Gradient_4" gradientUnits="userSpaceOnUse" x1="13.100000000000001" y1="2.4" x2="-8.881784197001252e-16" y2="2.4" spreadMethod="pad">
<stop  offset="0%" stop-color="#846918"/>

<stop  offset="14.117647058823529%" stop-color="#9E7D1C"/>

<stop  offset="41.1764705882353%" stop-color="#C89D21"/>

<stop  offset="65.09803921568627%" stop-color="#E6B526"/>

<stop  offset="85.09803921568627%" stop-color="#F8C328"/>

<stop  offset="100%" stop-color="#FFC829"/>
</linearGradient>

<linearGradient id="Gradient_5" gradientUnits="userSpaceOnUse" x1="21.087499999999995" y1="-11.2375" x2="58.5125" y2="38.2375" spreadMethod="pad">
<stop  offset="0%" stop-color="#7D879C"/>

<stop  offset="65.88235294117646%" stop-color="#C8CEDB" stop-opacity="0"/>

<stop  offset="100%" stop-color="#E2E7F4" stop-opacity="0"/>
</linearGradient>

<filter id="Filter_1" x="-20%" y="-20%" width="140%" height="140%" color-interpolation-filters="sRGB">
<feColorMatrix in="SourceGraphic" type="matrix" values="1 0 0 0 0 0 1 0 0 0 0 0 1 0 0 0 0 0 0.2 0" result="result1"/>
</filter>

<filter id="Filter_2" x="-20%" y="-20%" width="140%" height="140%" color-interpolation-filters="sRGB">
<feColorMatrix in="SourceGraphic" type="matrix" values="1 0 0 0 0 0 1 0 0 0 0 0 1 0 0 0 0 0 0.6 0" result="result1"/>
</filter>

<filter id="Filter_3" x="-20%" y="-20%" width="140%" height="140%" color-interpolation-filters="sRGB">
<feColorMatrix in="SourceGraphic" type="matrix" values="1 0 0 0 0 0 1 0 0 0 0 0 1 0 0 0 0 0 0.33 0" result="result1"/>
</filter>

<g id="Mask_8_MASK_0_FILL">
<path fill="#FFFFFF" stroke="none" d="
M 1566.6 251.95
L 1565.75 213 1384.45 314.55 1109.8 152.1 1109.8 184.65 1116.5 189.2 1119.7 186.5 1135.85 196.4 1136.5 199.6
Q 1202.15 237.5 1206.85 240.55 1209.8 242.45 1208.6 246.05 1208.05 247.85 1206.85 249.25
L 1121.9 298.95 1155.6 322.25 1152.45 324.3 1217.95 286.05 1217.8 262.55 1245.5 247.95 1272 263.4 1272.15 280.15 1390.3 350.7 1566.6 251.95
M 1120 300.05
L 1121.9 298.95 1121.85 298.95 1120 300.05
M 1120 300.05
L 1118.2 301.15 1118.15 301.15 1152.45 324.3 1155.6 322.25 1121.9 298.95 1120 300.05
M 1570.7 611.75
L 1558.9 613.35 1125.45 347.15
Q 1124.8 346.25 1124.5 345.1 1123.9 342.8 1125.75 341.6
L 1152.45 324.3 1118.15 301.15 1089.05 318.65 1089.4 363.55 1085.1 367.15 1101.85 377.3 1101.5 367.8 1121.85 355.7 1141.85 368.15 1141.85 400.9 1231.35 456.25 1231.7 455.3 1247.4 461.8 1247.05 465.95 1454.55 594.25 1492.55 616.25
Q 1492.4658203125 616.1994140625 1491.1 616.85
L 1564.45 662.2 1570.7 611.75
M 1480.65 622.05
Q 1488.37578125 618.1041015625 1491.1 616.85
L 1454.55 594.25 1174.9 756.9 1256.05 772.9 1472.8 648.3 1471.9 634.55 1480.9 628.65 1480.65 622.05
M 1491.1 616.85
Q 1492.4658203125 616.1994140625 1492.55 616.25
L 1454.55 594.25 1491.1 616.85
M 1231.7 455.3
L 1231.35 456.25 1247.05 465.95 1247.4 461.8 1231.7 455.3
M 341.85 317.7
L 376.65 351.05 413.8 327.8
Q 413.3 326.6 413.45 325.25 413.65 322.6 416.7 322.1 418.5 321.85 419.3 322.85 419.6 323.25 420.1 324.85 420.35 325.65 428.75 319.95 432.9 317.15 437.05 314.15
L 565.4 239.9 568.95 238.75
Q 573.35 238.1 577.55 240.55
L 726.3 327.35 728.35 331
Q 729.65 335.1 725.85 337.45 722.05 339.8 705.25 349.65
L 689.15 359.05 922.8 496.85 956.75 475.65 1081.55 545.7 879.35 667.55 934.3 681.8 993.9 643.65
Q 993.9 642.7 994.3 641.7 995.1 639.7 997.05 639.45 999 639.2 999.55 639.65 999.85 639.85 999.75 640.1
L 1009.6 633.8 1235.05 502.7 1235.45 479.65 1246.35 474.4 1247.05 465.95 1231.35 456.25 1229.6 461.35 1116.75 527.2 959.25 438.95 913.15 464.9 736.75 363.65 736.5 305.75 737.15 303
Q 738.6 299.9 742.8 298.2 739.9 296.3 616.35 224.6 615.15 222.35 614.65 219.7 613.55 214.35 616.8 212.4 620.05 210.45 657.95 188.8 676.9 178 695.2 167.55
L 693.95 150.75 707.8 142.95 677.2 125.7 599.1 171.25 341.85 317.7
M 707.8 142.95
L 695.4 122.25 677.95 125.3 677.2 125.7 707.8 142.95
M 538.65 -4.9
L 470.75 -0.65 677.2 125.7 677.95 125.3 695.4 122.25 707.8 142.95 712.7 140.65 735 154.1 853 222.25 860.25 217 869.4 223.55 881.85 217 881.85 209.8 887.1 206.5 538.65 -4.9
M 1195.6 -0.3
L 1124.15 -0.3
Q 1085.05 20.65 1045.25 42.1 965.65 84.9 962.2 87.15 958.75 89.4 959.6 92.95 960.05 94.7 961.2 96 1043.5 144.9 1049.4 148.5 1053.1 150.75 1053.1 154.3 1053.1 156.05 1052.35 157.35
L 944.8 218.65 953 223.9 961.2 219.65 972 227.5 972 233.75 982.85 240.95 1069.7 188.85 1070.05 150.85 1089.05 140
Q 1072.9 130.2 1056 119.8 1022.15 99.1 1018.25 96.4 1060.45 38.6 1108.65 25.7 1123.7 21.65 1137.55 22.55 1144.5 23.05 1148.4 24.3
L 1195.6 -0.3 Z"/>
</g>

<g id="car_blu_behind_svg_0_Layer0_0_MEMBER_0_FILL">
<path fill="#2059E5" stroke="none" d="
M 248.85 21.85
Q 247.8 21.4 244.4 22.2
L 241.2 23.1
Q 236.95 23.65 221.2 28.6 204.2 33.95 201.75 34.5
L 155.75 5.65 92.5 6.1 45.8 34.05
Q 39.9 36.85 35 41.3
L 17 67.65 2.5 80.8 1.85 111.05
Q 1.85 114.9 3.75 118.25 5.65 121.6 9 123.6
L 59.7 156.1
Q 63.55 158.4 68.15 159.15 73.85 160.1 78.8 158.2
L 92.5 155.7 102.65 149.65 105.55 146.8 105.55 140.9 129.55 123 138.5 128.15 216.95 81.15 216.5 78.05 237.8 68.7 240.95 60.75 246.7 64.05
Q 252.9 60.35 254.8 54.8 255.4 53.05 255.5 51.35 255.5 49.95 255.5 49.9 255.1 45.15 252.65 34.1 250 22.35 248.85 21.85 Z"/>
</g>

<g id="car_blu_behind_svg_0_Layer0_0_MEMBER_1_FILL">
<path fill="#3D79F2" stroke="none" d="
M 251.35 25.9
L 251.4 25.9 251.15 25.2
Q 249.7 21.45 244.35 17.4 235.45 10.65 218.6 5.65 199.1 -0.35 178.7 0.05 173.65 0.45 165.5 1.35 161 2 152.2 2.75
L 144.3 3.35
Q 139.9 4.2 135.7 4.2
L 92.5 6.1 162.65 43.4 167.3 42.3 210.1 44.2 249.1 32.1 250.65 32.5
Q 252.35 33.55 253 36.75 252.9 31.15 251.35 25.9 Z"/>
</g>

<g id="car_blu_behind_svg_0_Layer0_0_MEMBER_2_FILL">
<path fill="#B5CEE8" stroke="none" d="
M 97.6 83.2
Q 97.7 83.15 97.95 82.75 98.4 81.9 98.15 81.05 97.9 80.15 97.1 79.7
L 36.85 45.4
Q 36.05 44.95 35.2 45.15 34.35 45.35 33.85 46.15
L 21.5 65.35 21.45 65.4
Q 20.95 66.2 21.2 67.1 21.4 68 22.2 68.5
L 83.45 106.25
Q 84.15 106.65 84.9 106.55 85.7 106.45 86.25 105.9
L 97.6 83.2 Z"/>
</g>

<g id="car_blu_behind_svg_0_Layer0_0_MEMBER_3_FILL">
<path fill="#3D79F2" stroke="none" d="
M 16.6 67.9
L 3.25 79.2
Q 2.15 80.5 2.6 82.05 3.05 83.45 4.6 84.45
L 64.7 121.95
Q 66.9 123.3 69.4 122.7 71.9 122.15 73.3 120
L 83.4 109.7 16.6 67.9 Z"/>
</g>

<g id="car_blu_behind_svg_0_Layer0_0_MEMBER_4_FILL">
<path fill="#B5CEE8" stroke="none" d="
M 189.4 47.1
Q 171.5 46.05 169.05 46.5 166.6 47 161.85 49
L 157.55 50.9
Q 148.4 56.55 138.8 62.5 119.6 74.4 117.3 75.95 115 77.5 111.5 79.65
L 108.4 81.55
Q 103.9 86.95 101.2 101.05 99.85 108.1 99.4 114.05
L 206.8 48.3
Q 198.35 47.65 189.4 47.1 Z"/>
</g>

<g id="car_blu_behind_svg_0_Layer0_0_MEMBER_5_FILL">
<path fill="#2059E5" stroke="none" d="
M 167.35 42.3
L 201.55 43.85 195.05 37.8 150.1 8.75 140 4.05 92.5 6.1 110.4 10.3 132.65 20.8 154.4 35.5 161.55 43.85 167.35 42.3 Z"/>
</g>

<g id="car_blu_behind_svg_0_Layer0_0_MEMBER_6_FILL">
<path fill="#839EB2" stroke="none" d="
M 191.05 33.9
Q 185.45 29.8 171.95 21.45 156.25 11.65 148.9 8.25 143.55 5.8 137.75 5.95
L 111.75 7.05 116.9 8.8
Q 123.4 11.15 129.9 14.3 150.7 24.3 163.9 38.1 165.95 39 168.2 38.7 169.9 38.55 181.9 39.4 187.95 39.8 193.6 40.25 194.75 39.95 195 39 195.5 37.1 191.05 33.9 Z"/>
</g>

<g id="car_blu_behind_svg_0_Layer0_0_MEMBER_7_FILL">
<path fill="#B5CEE8" stroke="none" d="
M 187.8 33.45
Q 181.5 28.8 169.3 21.1 153.45 11.05 146.7 8.5 142.2 6.6 137.05 6.5
L 115 7.45 120.15 9.4
Q 126.55 11.95 132.8 15.1 152.9 25.1 164.35 37.05 166.15 37.85 168.05 37.6 169.5 37.45 179.9 38.15 185.15 38.5 190.05 38.9 191.05 38.65 191.25 37.85 191.65 36.25 187.8 33.45 Z"/>
</g>

<g id="car_blu_behind_svg_0_Layer0_0_MEMBER_8_FILL">
<path fill="#FFFFFF" stroke="none" d="
M 253.45 30.35
L 251.4 25.9 251.65 30.7
Q 251.6 35.9 250.2 37.75
L 250.15 40.65
Q 250.4 43.8 251.85 44.9 253.6 46.2 254.6 44.8 255.5 43.5 255.5 40.15 255.5 35.7 253.45 30.35 Z"/>
</g>

<g id="car_blu_behind_svg_0_Layer0_0_MEMBER_9_FILL">
<path fill="#CB5E12" stroke="none" d="
M 254.2 43.95
Q 253.6 44.05 253.05 43.75 251.65 42.85 251.1 40.55 250.75 39.3 250.65 36.95 250.6 37.05 250.2 37.75
L 250.15 40.65
Q 250.4 43.8 251.85 44.9 254.3 46.7 255.15 43.4 254.8 43.85 254.2 43.95 Z"/>
</g>

<g id="car_blu_behind_svg_0_Layer0_0_MEMBER_10_FILL">
<path fill="#3D79F2" stroke="none" d="
M 163.15 42.25
Q 163.2 41.3 162.4 40.35 158.4 35.6 151.35 30 144.65 24.65 136.5 19.55 114.85 7.9 99.95 6.35 95.25 5.85 91.85 6.4
L 89.35 7.1
Q 72.45 15.55 35.7 40.45 35.1 40.85 66.1 58.7 74.85 63.75 90.3 73.05 101.6 79.7 102.55 79.2 124.75 66.7 141 56.8 149.85 51.45 162.05 43.85 163.05 43.25 163.15 42.25 Z"/>
</g>

<g id="car_blu_behind_svg_0_Layer0_0_MEMBER_11_MEMBER_0_FILL">
<path fill="#B5CEE8" stroke="none" d="
M 160.1 57.3
L 155.25 52.35 169.2 72.5
Q 165.65 63.95 160.1 57.3 Z"/>
</g>

<g id="car_blu_behind_svg_0_Layer0_0_MEMBER_12_MEMBER_0_FILL">
<path fill="#B5CEE8" stroke="none" d="
M 111.75 80.25
L 123.05 99.6
Q 119.25 88.8 111.75 80.25 Z"/>
</g>

<g id="car_blu_behind_svg_0_Layer0_0_MEMBER_13_FILL">
<path fill="#26231F" stroke="none" d="
M 123.05 127.6
L 132.2 124.6 138.6 128.15
Q 138.7 126.75 136.95 124.35 134.9 121.6 131.85 119.95 123.2 115.3 112.7 122.85 102.5 130.25 101.55 140.7 101.1 145.9 102.7 149.65
L 106.9 139.7
Q 108.35 133.35 115.85 129.85 119.6 128.1 123.05 127.6 Z"/>
</g>

<g id="car_blu_behind_svg_0_Layer0_0_MEMBER_14_FILL">
<path fill="#26231F" stroke="none" d="
M 134.75 126.8
L 129.35 121.2
Q 126.85 118.5 121.8 120.4 116.85 122.3 112.35 127.55 107.9 132.8 106.5 138.35 105.15 143.9 107.6 146.45
L 113 152.05 134.75 126.8 Z"/>
</g>

<g id="car_blu_behind_svg_0_Layer0_0_MEMBER_15_FILL">
<path fill="#3F3932" stroke="none" d="
M 134.65 126.65
Q 132.15 124.1 127.2 125.95 122.25 127.8 117.75 133.1 113.3 138.35 111.85 143.95 110.45 149.5 113 152.1 115.5 154.75 120.45 152.85 125.4 150.95 129.9 145.75 134.4 140.45 135.8 134.85 137.2 129.25 134.65 126.65 Z"/>
</g>

<g id="car_blu_behind_svg_0_Layer0_0_MEMBER_16_MEMBER_0_FILL">
<path fill="#D8D8D8" stroke="none" d="
M 131.45 131.05
Q 129.8 129.2 126.4 130.35 123 131.55 119.9 135.15 116.75 138.75 115.75 142.65 114.7 146.5 116.4 148.4 118.1 150.25 121.45 149.05 124.85 147.85 128 144.25 131.1 140.65 132.1 136.8 133.15 132.95 131.45 131.05 Z"/>
</g>

<g id="car_blu_behind_svg_0_Layer0_0_MEMBER_16_MEMBER_1_FILL">
<path fill="#A8A8A8" stroke="none" d="
M 130.4 132.25
Q 128.95 130.6 126.05 131.65 123.1 132.7 120.45 135.8 117.75 138.85 116.9 142.2 116 145.55 117.45 147.15 118.85 148.75 121.8 147.7 124.7 146.7 127.4 143.6 130.1 140.5 130.95 137.15 131.85 133.85 130.4 132.25 Z"/>
</g>

<g id="car_blu_behind_svg_0_Layer0_0_MEMBER_16_MEMBER_2_FILL">
<path fill="#D8D8D8" stroke="none" d="
M 127.3 135.1
Q 126.5 134.2 124.85 134.8 120.85 136.6 119.65 140.8 119.15 142.7 120 143.6 120.8 144.5 122.45 143.9 126.4 142.1 127.6 137.9 128.15 136.05 127.3 135.1 Z"/>
</g>

<g id="car_blu_behind_svg_0_Layer0_0_MEMBER_17_FILL">
<path fill="#26231F" stroke="none" d="
M 246.7 64.05
Q 246.95 60.8 246.7 57.65 245.75 54.45 241.45 52 234.7 48.2 225.7 53.85 216.8 59.4 213.6 68.35 212 72.85 212.2 76.2
L 216.75 81.2 217 78.3 242.05 61.3 246.7 64.05 Z"/>
</g>

<g id="car_blu_behind_svg_0_Layer0_0_MEMBER_18_FILL">
<path fill="#26231F" stroke="none" d="
M 229.6 54.3
Q 225.1 56.15 221.1 61.2 217.1 66.3 216 71.6 214.85 76.9 217.25 79.35
L 222.4 84.65 241.8 60.3 236.6 55
Q 234.25 52.4 229.6 54.3 Z"/>
</g>

<g id="car_blu_behind_svg_0_Layer0_0_MEMBER_19_FILL">
<path fill="#3F3932" stroke="none" d="
M 226.25 66.5
Q 222.3 71.55 221.15 76.9 220.05 82.25 222.45 84.75 224.85 87.2 229.4 85.4 233.95 83.55 237.95 78.5 241.95 73.4 243.05 68.05 244.15 62.7 241.75 60.2 239.35 57.75 234.8 59.55 230.25 61.4 226.25 66.5 Z"/>
</g>

<g id="car_blu_behind_svg_0_Layer0_0_MEMBER_20_MEMBER_0_FILL">
<path fill="#D8D8D8" stroke="none" d="
M 225.45 81.1
Q 227.05 82.85 230.15 81.7 233.25 80.5 236.05 77.05 238.85 73.55 239.65 69.85 240.5 66.15 238.9 64.35 237.25 62.6 234.15 63.75 231.1 64.95 228.3 68.4 225.5 71.9 224.65 75.6 223.85 79.3 225.45 81.1 Z"/>
</g>

<g id="car_blu_behind_svg_0_Layer0_0_MEMBER_20_MEMBER_1_FILL">
<path fill="#A8A8A8" stroke="none" d="
M 226.4 79.95
Q 227.8 81.45 230.45 80.45 233.1 79.45 235.5 76.45 237.9 73.45 238.6 70.25 239.3 67.05 237.95 65.55 236.55 64 233.9 65 231.2 66.05 228.85 69.05 226.4 72.05 225.75 75.2 225.05 78.4 226.4 79.95 Z"/>
</g>

<g id="car_blu_behind_svg_0_Layer0_0_MEMBER_20_MEMBER_2_FILL">
<path fill="#D8D8D8" stroke="none" d="
M 228.65 76.5
Q 229.45 77.35 231 76.8 234.6 74.95 235.55 71.05 235.95 69.25 235.2 68.35 234.4 67.5 232.85 68.05 229.2 69.9 228.25 73.8 227.85 75.65 228.65 76.5 Z"/>
</g>

<g id="car_blu_behind_svg_0_Layer0_0_MEMBER_21_FILL">
<path fill="#2059E5" stroke="none" d="
M 246.8 60.2
L 247.55 54.9 235 45.5 218.85 53.5 205.55 78 208.85 86.1 217.05 81.2
Q 216.4 73.9 219.75 67.35 223.15 60.8 229.5 57.1 238.65 51.6 243.65 55.35 246.15 57.25 246.8 60.2 Z"/>
</g>

<g id="car_blu_behind_svg_0_Layer0_0_MEMBER_22_FILL">
<path fill="#2059E5" stroke="none" d="
M 132.35 120.25
L 133.15 114.05 121.75 111.4 97.15 127.85 72 159.45
Q 82.85 159.3 93.4 157.05
L 106 150.35
Q 104.55 141.3 110.4 132.35 113.35 127.9 116.55 125.25 122.05 120.15 127.75 119.7 130.6 119.45 132.35 120.25 Z"/>
</g>

<g id="car_blu_behind_svg_0_Layer0_0_MEMBER_23_FILL">
<path fill="#991111" stroke="none" d="
M 65.4 134.8
Q 65.2 137.1 65.9 138.8 66.55 140.5 67.7 140.6 68.85 140.7 69.75 139.1 70.65 137.55 70.85 135.2 71.05 132.9 70.4 131.2 69.7 129.5 68.55 129.4 67.45 129.35 66.5 130.9 65.6 132.5 65.4 134.8 Z"/>
</g>

<g id="car_blu_behind_svg_0_Layer0_0_MEMBER_24_FILL">
<path fill="#991111" stroke="none" d="
M 66.8 141.15
L 68.3 130.05
Q 67.45 130.15 65.6 129.55 61.9 128.35 56.9 124.8
L 55.6 125.55
Q 54.25 126.95 53.9 130.15 53.55 133.6 58.1 136.95 61.8 139.7 66.8 141.15 Z"/>
</g>

<g id="car_blu_behind_svg_0_Layer0_0_MEMBER_25_FILL">
<path fill="#991111" stroke="none" d="
M 3.7 93.15
Q 3.3 92.85 2.9 92.7 2.1 92.45 1.3 92.85 0.55 93.25 0.3 94.05 -0.5 97.7 0.9 101.15 1.1 101.8 1.75 102.2
L 8.85 106.35
Q 9.25 106.6 9.7 106.6 10.55 106.7 11.25 106.15 11.9 105.6 12 104.75
L 12.45 100.3
Q 12.55 99.65 12.2 99.05 11.85 98.45 11.2 98.2 7 96.2 3.7 93.15 Z"/>
</g>

<g id="car_blu_behind_svg_0_Layer0_0_MEMBER_30_FILL">
<path fill="#F0FDFF" stroke="none" d="
M 17.3 114.9
Q 17.1 114.75 16.8 114.75 16.45 114.75 16.15 115 15.9 115.3 15.9 115.65
L 15.9 121.95
Q 15.9 122.45 16.3 122.7
L 37.5 136.3
Q 37.75 136.45 38 136.45 38.4 136.45 38.65 136.2 38.9 135.95 38.9 135.55
L 38.9 129.55
Q 38.9 129.05 38.5 128.8
L 17.3 114.9 Z"/>
</g>

<g id="car_blu_behind_svg_Assets_Layer_1__Path__3_0_Layer0_0_FILL">
<path fill="url(#Gradient_1)" stroke="none" d="
M 0 5.7
Q 4.3 9.1 6.05 9.75 7.4 10.25 7.4 8.3 7.4 6.35 6.05 4.5 4.95 2.95 2.35 1.3 1.1 0.5 0 0
L 0 5.7 Z"/>
</g>

<g id="car_blu_behind_svg_0_Layer0_0_MEMBER_32_FILL">
<path fill="#14367C" stroke="none" d="
M 208.95 56.05
Q 209.85 57.9 209.75 59.2 212.7 55.9 209.65 51.4
L 206.05 47.5 202.35 49.4
Q 207.15 52.3 208.95 56.05 Z"/>
</g>

<g id="car_blu_behind_svg_0_Layer0_0_MEMBER_33_FILL">
<path fill="#14367C" stroke="none" d="
M 133.2 4.6
Q 134.45 4.5 135.7 4.25 130.75 1.9 125.5 1.55 130.5 3.8 130.6 4.45 130.65 4.9 133.2 4.6 Z"/>
</g>

<g id="car_blu_behind_svg_0_Layer0_0_MEMBER_34_FILL">
<path fill="#3D79F2" stroke="none" d="
M 131.45 4.3
L 125.5 1.55
Q 125.1 1.75 124.9 2.25 124.5 3.25 125.5 4.65
L 131.45 4.3 Z"/>
</g>

<g id="car_ylw_front_svg_0_Layer0_0_MEMBER_0_FILL">
<path fill="#EEB211" stroke="none" d="
M 57.4 45.15
Q 57 45.2 56.7 45.6 56.1 47.95 56 50.25 55.85 53.2 56.65 55.9 57 56.85 58.1 57.35 59.05 57.65 60 57 60.85 56.4 61.3 55.4 62.3 53.2 61.7 50.9 60.9 48.5 59.3 46.25 58.3 44.9 57.4 45.15 Z"/>
</g>

<g id="car_ylw_front_svg_Assets_Layer_1__Path__36_0_Layer0_0_FILL">
<path fill="url(#Gradient_2)" stroke="none" d="
M 0 0.4
Q 0.5 4.95 4.45 10.3 5.55 8.1 4.85 5.8 4.05 3.4 2.5 1.15 1.5 -0.2 0.6 0.05 0.25 0.15 0 0.4 Z"/>
</g>

<g id="car_ylw_front_svg_0_Layer0_0_MEMBER_2_FILL">
<path fill="#26231F" stroke="none" d="
M 113.5 120.95
L 100.85 112.4 73.25 121.85 109.4 142.7 117.7 130.1 113.5 120.95 Z"/>
</g>

<g id="car_ylw_front_svg_0_Layer0_0_MEMBER_3_FILL">
<path fill="#26231F" stroke="none" d="
M 221.65 78.3
L 224.75 73.3
Q 227.05 69.65 227.3 65.35 227.6 61.05 225.75 57.2
L 225.4 56.35 212.75 47.8 185.2 57.3 221.65 78.3 Z"/>
</g>

<g id="car_ylw_front_svg_0_Layer0_0_MEMBER_4_FILL">
<path fill="#26231F" stroke="none" d="
M 72.15 149
Q 72.15 154.95 75.8 157.15
L 83.75 161.75 101.8 130.75 93.9 126.15
Q 92.2 125.1 89.9 125.3 87.5 125.5 84.9 127 79.65 130 75.9 136.45 72.2 142.9 72.15 149 Z"/>
</g>

<g id="car_ylw_front_svg_0_Layer0_0_MEMBER_5_FILL">
<path fill="#3F3932" stroke="none" d="
M 92.85 131.55
Q 87.6 134.6 83.9 141.05 80.15 147.5 80.15 153.55 80.15 159.65 83.85 161.75 87.55 163.9 92.85 160.85 98.1 157.85 101.8 151.4 105.5 144.95 105.5 138.85 105.5 132.8 101.8 130.65 98.1 128.5 92.85 131.55 Z"/>
</g>

<g id="car_ylw_front_svg_0_Layer0_0_MEMBER_6_MEMBER_0_FILL">
<path fill="#D8D8D8" stroke="none" d="
M 93.15 136.3
Q 89.55 138.25 86.9 142.7 84.35 147.1 84.25 151.3 84.2 155.5 86.75 157.1 89.25 158.7 92.85 156.7 96.45 154.7 99.05 150.25 101.7 145.85 101.75 141.7 101.85 137.5 99.3 135.95 96.8 134.35 93.15 136.3 Z"/>
</g>

<g id="car_ylw_front_svg_0_Layer0_0_MEMBER_6_MEMBER_1_FILL">
<path fill="#A8A8A8" stroke="none" d="
M 93.15 137.7
Q 90.05 139.45 87.8 143.2 85.55 147 85.5 150.6 85.45 154.25 87.65 155.6 89.8 156.95 92.9 155.25 96 153.55 98.25 149.75 100.45 145.95 100.5 142.3 100.6 138.65 98.4 137.3 96.25 136 93.15 137.7 Z"/>
</g>

<g id="car_ylw_front_svg_0_Layer0_0_MEMBER_6_MEMBER_2_FILL">
<path fill="#D8D8D8" stroke="none" d="
M 92.65 141.25
Q 90.75 142.45 89.6 144.4 88.45 146.35 88.35 148.55 88.3 150.6 89.55 151.4 90.75 152.2 92.5 151.2 94.4 149.95 95.55 148.05 96.7 146.1 96.8 143.85 96.8 141.8 95.6 141.05 94.4 140.3 92.65 141.25 Z"/>
</g>

<g id="car_ylw_front_svg_0_Layer0_0_MEMBER_6_MEMBER_3_FILL">
<path fill="#BEBEBE" stroke="none" d="
M 95.55 148
Q 96.7 146.05 96.8 143.8 96.85 141.75 95.65 141 94.4 140.25 92.65 141.2 90.6 142.4 89.5 144.55 88.9 145.65 88.65 146.55 88.35 147.55 88.35 148.55
L 88.35 148.85
Q 88.45 150.75 89.6 151.4 90.8 152.05 92.5 151.1 94.4 149.9 95.55 148 Z"/>
</g>

<g id="car_ylw_front_svg_0_Layer0_0_MEMBER_7_FILL">
<path fill="#26231F" stroke="none" d="
M 196.05 62.85
Q 190.8 65.9 187.1 72.3 183.35 78.75 183.35 84.85 183.35 90.8 187 93
L 195 97.55 213 66.6 205.05 62
Q 203.35 60.95 201 61.15 198.65 61.35 196.05 62.85 Z"/>
</g>

<g id="car_ylw_front_svg_0_Layer0_0_MEMBER_8_FILL">
<path fill="#3F3932" stroke="none" d="
M 195.05 76.9
Q 191.3 83.35 191.3 89.4 191.3 95.45 195 97.6 198.7 99.75 203.95 96.7 209.2 93.65 212.95 87.25 216.65 80.8 216.65 74.7 216.65 68.65 212.95 66.5 209.25 64.4 204 67.45 198.75 70.5 195.05 76.9 Z"/>
</g>

<g id="car_ylw_front_svg_0_Layer0_0_MEMBER_9_MEMBER_0_FILL">
<path fill="#D8D8D8" stroke="none" d="
M 195.4 87.15
Q 195.35 91.35 197.85 92.95 200.35 94.5 204 92.5 207.6 90.5 210.2 86.1 212.8 81.7 212.85 77.5 212.95 73.3 210.4 71.75 207.9 70.15 204.3 72.15 200.7 74.1 198.05 78.55 195.5 82.95 195.4 87.15 Z"/>
</g>

<g id="car_ylw_front_svg_0_Layer0_0_MEMBER_9_MEMBER_1_FILL">
<path fill="#A8A8A8" stroke="none" d="
M 196.6 86.45
Q 196.55 90.1 198.75 91.45 200.9 92.8 204 91.1 207.1 89.35 209.3 85.6 211.55 81.8 211.6 78.15 211.7 74.5 209.5 73.15 207.35 71.85 204.25 73.55 201.15 75.25 198.9 79.05 196.65 82.8 196.6 86.45 Z"/>
</g>

<g id="car_ylw_front_svg_0_Layer0_0_MEMBER_9_MEMBER_2_FILL">
<path fill="#D8D8D8" stroke="none" d="
M 199.5 84.4
Q 199.45 86.45 200.7 87.2 201.9 88 203.65 87 205.55 85.8 206.7 83.9 207.85 81.95 208 79.7 208 77.65 206.8 76.9 205.55 76.15 203.8 77.1 201.9 78.3 200.75 80.25 199.6 82.15 199.5 84.4 Z"/>
</g>

<g id="car_ylw_front_svg_0_Layer0_0_MEMBER_10_FILL">
<path fill="#DB9200" stroke="none" d="
M 238.1 38.25
Q 238.1 37.15 237.55 35.2 236.9 33 236.6 31.9 236.2 30.8 235.6 29.9 234.35 28.05 232.35 26.9 194.8 5.05 187.7 1.1 185.75 0 183.95 0
L 182.55 0.2 170.65 3.8
Q 162.3 3.25 154 2.7 137.3 1.55 137.3 1.4 127.95 5.15 107.45 16.75 89.65 26.8 86.55 29.15 83.15 31.65 75.8 38.25 66.6 46.55 65.3 47.65 50.55 60.2 45.6 64.15 36.5 71.35 24.75 79.25 19.8 82.6 15.05 87.1 9.85 92.05 7 96.5 2.6 103.25 0.95 114.3 0.15 120 0 129.35 -0.1 133.55 1.95 136.75 6.55 144.05 19.95 152.75 30.15 159.4 38.1 162.5 48.7 166.65 59.45 166.6 66.35 166.55 72.65 163.3 72.8 163.2 73.4 163 73.7 162.9 76.3 161.45 76.5 151.25 80.4 143.15 84.7 134.05 92.85 129.35 101.45 124.4 105.65 128.65 109.3 132.35 109.4 142.7
L 188.45 97.55
Q 188.45 87.15 192.35 78.75 196.65 69.35 205 64.55 213.7 59.55 217.9 63.9 221.5 67.7 221.55 78.25 225.05 75.65 229.85 71.65 235.9 66.55 236.8 64.9 238.1 62.6 238.1 60
L 238.1 38.25 Z"/>
</g>

<g id="car_ylw_front_svg_0_Layer0_0_MEMBER_11_FILL">
<path fill="#EEB211" stroke="none" d="
M 184.15 29.5
Q 184.5 29.4 184.85 28.95 185.15 28.4 185.05 27.85 184.9 27.25 184.4 26.95 172.8 19.45 156.95 10.95 141.9 2.9 137.3 1.4 134.1 2.25 111.05 15.05 89.05 27.3 86.55 29.15 83.15 31.65 75.8 38.25 66.6 46.55 65.3 47.65 50.6 60.2 45.6 64.15 36.5 71.35 24.7 79.2 19.75 82.55 15 87.05 9.8 92 6.95 96.45 2.4 103.55 0.8 115.45 0.55 117.9 3.8 123.1 8.95 131.4 20.3 138.4 32.55 146.45 43.5 149.4 53.7 152.1 63.3 150.5 64.1 150.35 64.7 149.75 65.3 149.15 65.4 148.3 66.15 141.65 66.85 139.8 68.45 135.6 74.15 129.95 76.6 127.65 90.2 115.35 101.8 104.85 106 100.55 111.35 92.15 117.45 82.75 129.7 64 133.6 59.2 137.4 54.65 155.4 44.15 173.1 33.8 184.15 29.5 Z"/>
</g>

<g id="car_ylw_front_svg_0_Layer0_0_MEMBER_12_FILL">
<path fill="#FFC712" stroke="none" d="
M 184.15 29.5
Q 184.55 29.35 184.8 28.95 185.15 28.45 185.05 27.9 184.9 27.3 184.4 26.95 172.8 19.45 156.95 10.95 141.9 2.9 137.3 1.4 133.35 1.85 113.3 13.05 96 22.8 88.25 28 87.8 28.35 93.55 32.9 100.2 38.2 107.7 42.5 116.75 47.7 127.25 52.1 137.05 56.25 137.9 55.6 145.5 50.25 160.45 41.9 174.15 34.25 184.15 29.5 Z"/>
</g>

<g id="car_ylw_front_svg_Assets_Layer_1__Path__26_0_Layer0_0_FILL">
<path fill="url(#Gradient_3)" stroke="none" d="
M 38.85 0
Q 30.6 6.5 19.25 14.05 14.3 17.4 9.55 21.9 4.35 26.85 1.5 31.3 0.95 32.1 0.25 33.4 -1.05 37.4 3.35 43.7 7.8 50.1 16 55.9 36.3 70.35 58.35 68.65 64.7 68.2 69.45 63.9 93.65 42.35 100.55 35.35 90.65 33.9 78 28.8 52.65 18.5 38.85 0 Z"/>
</g>

<g id="car_ylw_front_svg_Assets_Layer_1__Path__25_0_Layer0_0_FILL">
<path fill="#BC972A" stroke="none" d="
M 0.2 0
L 0.15 0.05
Q -0.1 0.05 0 0.35 1.3 3.25 1.8 15.35 2.05 21.7 2.4 31.5
L 2.9 30.75
Q 2.65 21.15 2.45 14.95 2.05 3.35 0.55 0.2 0.5 0 0.2 0 Z"/>
</g>

<g id="car_ylw_front_svg_Assets_Layer_1__Path__24_0_Layer0_0_FILL">
<path fill="#BC972A" stroke="none" d="
M 0.05 19.15
L 0 19.25 0 32.85 0.55 32.85 0.55 19.4 13.15 0.25 12.7 0 0.05 19.15 Z"/>
</g>

<g id="car_ylw_front_svg_Assets_Layer_1__Path__23_0_Layer0_0_FILL">
<path fill="#BC972A" stroke="none" d="
M 43.85 0.3
Q 45.75 20.65 45.75 41.05
L 0 67.45 0 68.05 79.4 22.25 79.4 21.6 46.3 40.7
Q 46.25 20.1 44.35 0
L 43.85 0.3 Z"/>
</g>

<g id="car_ylw_front_svg_0_Layer0_0_MEMBER_17_FILL">
<path fill="#839EB2" stroke="none" d="
M 92 97.8
Q 95.15 98.65 97.3 98.25 99.75 97.85 102.1 95.75 108.5 90.1 116.6 79.2 124.4 68.7 131.75 56.05 101.15 42.8 88 30.8
L 47.45 65.85 47.2 66.1
Q 46.2 67.1 46.2 68.6 46.25 70.05 47.3 71.05 57.5 80.7 68.6 87.45 80.3 94.6 92 97.8 Z"/>
</g>

<g id="car_ylw_front_svg_0_Layer0_0_MEMBER_18_FILL">
<path fill="#B5CEE8" stroke="none" d="
M 87 34
Q 86.35 34 85.85 34.45
L 54.25 61.9
Q 53.4 62.6 53.4 63.7 53.35 64.75 54.15 65.55 64.75 75.55 75.05 81.75 85.5 88 96.65 91 98.25 91.4 99.65 91.4
L 99.7 91.45 101.05 91.4
Q 104.8 90.95 108.5 86.4 123.05 68.4 128.45 59.25 128.75 58.7 128.6 58.1 128.4 57.5 127.85 57.2
L 127.7 57.1
Q 100.9 45.2 88.15 34.45 87.65 34 87 34 Z"/>
</g>

<g id="car_ylw_front_svg_0_Layer0_0_MEMBER_19_FILL">
<path fill="#839EB2" stroke="none" d="
M 199.1 38.35
Q 190.85 33.85 185 32.5 183 32.05 181.25 32.95 174.4 36.25 162.3 43.2 162.25 43.2 141.6 55.2 136.5 58.2 133.3 63.1 115.7 89.75 111.95 96.05 111.65 96.55 112.15 96.95 112.6 97.3 113.1 97.05 120.35 93.1 159.25 70.9 194.85 50.6 205.4 44.5 207.8 43.1 199.1 38.35 Z"/>
</g>

<g id="car_ylw_front_svg_0_Layer0_0_MEMBER_20_FILL">
<path fill="#B5CEE8" stroke="none" d="
M 189.9 35.2
Q 193.3 41.75 194.65 49.05
L 204.05 43.65
Q 204 42.55 199.3 39.85 195.05 37.4 189.9 35.2 Z"/>
</g>

<g id="car_ylw_front_svg_0_Layer0_0_MEMBER_21_FILL">
<path fill="#B5CEE8" stroke="none" d="
M 188.1 34.5
Q 186.45 33.8 184.45 33.25 183.1 32.9 181.85 33.5 176.15 36.2 166.5 41.7 162.2 44.1 149.15 51.65 152.65 61.9 153.85 72.35
L 193.5 49.7
Q 192.1 41.8 188.1 34.5 Z"/>
</g>

<g id="car_ylw_front_svg_0_Layer0_0_MEMBER_22_FILL">
<path fill="#B5CEE8" stroke="none" d="
M 113.25 95.2
L 113.4 95.2
Q 120.55 91.25 152.65 73 151.55 62.4 148.05 52.3
L 142 55.85
Q 137.1 58.75 133.9 63.5 114.95 92.4 113.25 95.2 Z"/>
</g>

<g id="car_ylw_front_svg_0_Layer0_0_MEMBER_23_FILL">
<path fill="#CD9305" stroke="none" d="
M 11.35 114.95
Q 10.65 115.1 9.25 119.85 7.85 124.65 8.4 125.7 10.1 129 18.65 134.95 27.5 141.1 32.8 142.25 33.95 142.5 35.65 139.3 37.05 136.8 37.8 134.25 38 133.65 33.9 131.4 27.05 127.75 24.7 126.3 17.4 121.7 11.35 114.95 Z"/>
</g>

<g id="car_ylw_front_svg_0_Layer0_0_MEMBER_24_FILL">
<path fill="#35312D" stroke="none" d="
M 11.8 115.45
Q 10.85 117.35 9.95 120.8 9.05 124.5 9.45 125.35 11.15 128.65 19.6 134.55 28.4 140.7 33.75 141.9 34.85 141 36.15 138.4 37.4 136 37.8 134.25 37.95 133.65 37.2 133.05 36.65 132.6 34.9 131.75 32 130.35 30.25 129.4 27.05 127.8 24.7 126.3 17.6 121.8 11.8 115.45 Z"/>
</g>

<g id="car_ylw_front_svg_0_Layer0_0_MEMBER_25_FILL">
<path fill="#EEB211" stroke="none" d="
M 143.2 85.25
Q 142.6 85.65 142.5 86.4
L 142.5 87.4
Q 142.5 87.65 142.7 87.75 142.9 87.85 143.2 87.65
L 150.05 83.65
Q 150.65 83.35 150.75 82.55
L 150.75 81.55
Q 150.75 80.9 150.05 81.25
L 143.2 85.25 Z"/>
</g>

<g id="car_ylw_front_svg_0_Layer0_0_MEMBER_26_FILL">
<path fill="#EEB211" stroke="none" d="
M 191 57.7
L 184.15 61.7
Q 183.55 62.1 183.45 62.8
L 183.45 63.8
Q 183.45 64.05 183.65 64.1 183.9 64.2 184.15 64
L 191 60
Q 191.6 59.6 191.7 58.9
L 191.7 58
Q 191.7 57.35 191 57.7 Z"/>
</g>

<g id="car_ylw_front_svg_0_Layer0_0_MEMBER_27_FILL">
<path fill="#EEB211" stroke="none" d="
M 120.85 88.35
Q 120.35 89.75 119.75 91.8 119.2 92.75 120 93.55 122.25 96.05 130.65 95.15 131.15 95.15 131.75 94.9 133.1 94.3 133.7 92.05 134.35 89.8 133.5 88.85 133 88.2 128.05 86.65 123.1 85.05 122.4 85.4 121.8 85.7 120.85 88.35 Z"/>
</g>

<g id="car_ylw_front_svg_Assets_Layer_1__Path__11_0_Layer0_0_FILL">
<path fill="url(#Gradient_4)" stroke="none" d="
M 0 3.1
Q 2.05 4.1 5.65 4.55 9.6 5.05 13.1 4.55 13.1 4 12.7 3.5 12.2 2.9 7.25 1.3 2.2 -0.3 1.6 0.05 1 0.35 0 3.1 Z"/>
</g>

<g id="car_ylw_front_svg_0_Layer0_0_MEMBER_29_FILL">
<path fill="#282523" stroke="none" d="
M 115.9 92
Q 114.6 92.15 114.3 94.1 114.05 96 115.1 95.9 123.55 95.35 123.75 95.1 124.35 94.4 122.85 92.7 121.35 90.9 120 91.1 116.2 92 115.9 92 Z"/>
</g>

<g id="car_ylw_front_svg_0_Layer0_0_MEMBER_30_FILL">
<path fill="#991111" stroke="none" d="
M 237.65 35.55
L 236.35 36.7
Q 235.25 37.35 235.35 38.6 236.05 49.65 238.05 49.2 240.55 42.2 237.65 35.55 Z"/>
</g>

<g id="car_ylw_front_svg_0_Layer0_0_MEMBER_31_FILL">
<path fill="#F0FDFF" stroke="none" d="
M 64.15 136.85
Q 54.4 137.6 44.25 136.2 42 135.9 40.4 140.15 38.8 144.45 41.1 145.75 43.95 147.35 49.3 148.2 55.85 149.15 63.3 148.35 66.9 147.15 67.35 142.2 67.8 137.2 64.15 136.85 Z"/>
</g>

<g id="car_ylw_front_svg_0_Layer0_0_MEMBER_32_FILL">
<path fill="#CB5E12" stroke="none" d="
M 64.15 136.85
Q 65.7 138.35 65.2 142.6 64.75 146.55 63.35 148.35 65.2 148.15 66.75 146.25 68.15 144.5 68.55 142.25 69.55 136.55 64.15 136.85 Z"/>
</g>

<g id="car_ylw_front_svg_0_Layer0_0_MEMBER_33_FILL">
<path fill="#F0FDFF" stroke="none" d="
M 7.5 111.75
Q 7.45 111.35 6.15 108.15 4.75 104.65 4.15 101.95 3.05 103.45 2.1 107.1 1.25 110.55 1.25 112.65 1.2 114.8 2.9 118.1 4.55 121.35 5.35 121.05 6 120.8 6.9 117.1 7.8 113.3 7.5 111.75 Z"/>
</g>

<g id="car_ylw_front_svg_0_Layer0_0_MEMBER_34_FILL">
<path fill="#4C4742" stroke="none" d="
M 19.35 128.3
Q 18.9 129.3 19.2 130.35 19.5 131.4 20.4 132
L 20.7 132.15
Q 21.6 132.45 22.45 132.05 23.3 131.65 23.6 130.8 24.05 129.8 23.75 128.75 23.45 127.7 22.55 127.1
L 22.2 126.95
Q 21.35 126.65 20.5 127.05 19.65 127.45 19.35 128.3 Z"/>
</g>

<g id="car_ylw_front_svg_0_Layer0_0_MEMBER_35_FILL">
<path fill="#FFFFFF" stroke="none" d="
M 10.6 136.85
L 10.6 142.7 26.8 153.55 26.8 147.75 10.6 136.85 Z"/>
</g>

<g id="car_ylw_front_svg_0_Layer0_0_MEMBER_36_FILL">
<path fill="#B5CEE8" stroke="none" d="
M 204.95 31
Q 212.55 32.15 214.6 32.3 218.25 32.6 216.45 31.35
L 172.75 6.1
Q 170.55 4.85 168.1 4.85
L 143.45 3.1
Q 157.2 9.25 185.1 25.9 188.1 27.7 191.25 28.7
L 204.95 31 Z"/>
</g>

<g id="car_ylw_front_svg_0_Layer0_0_MEMBER_37_FILL">
<path fill="#FFC712" stroke="none" d="
M 221.6 33.2
Q 228.45 32.35 235.75 30.15
L 235.6 29.9
Q 234.35 28.05 232.35 26.9 194.8 5.05 187.7 1.1 185.75 0 183.95 0
L 182.55 0.2 170.65 3.8 221.6 33.2 Z"/>
</g>

<g id="car_ylw_front_svg_0_Layer0_0_MEMBER_38_FILL">
<path fill="#35312D" stroke="none" d="
M 61.05 163.5
Q 61.6 163.4 62 162.95 62.35 162.45 62.35 161.9
L 62.35 156.7 62.25 156.35
Q 62.1 155.85 61.65 155.65 61.2 155.4 60.75 155.55 52.85 158.25 44.75 157.55
L 44.7 157.55
Q 44.3 157.55 43.95 157.85 43.65 158.15 43.6 158.55 43.45 160.3 43.5 160.55 43.55 161.55 44.35 161.85 52.5 164.55 61.05 163.5 Z"/>
</g>

<g id="car_ylw_front_svg_0_Layer0_0_MEMBER_39_FILL">
<path fill="#35312D" stroke="none" d="
M 0.35 120.25
Q 0.15 122.7 0 129.35
L 0 129.65
Q 0.35 131.4 1.4 133.35 1.5 133.5 1.6 133.45 1.7 133.4 1.7 133.1
L 1.7 129
Q 1.7 128.05 1.45 126.9 0.6 123.7 0.35 120.25 Z"/>
</g>

<g id="car_blu_front_svg_0_Layer0_0_MEMBER_0_FILL">
<path fill="#14367C" stroke="none" d="
M 57.4 45.15
Q 57 45.2 56.7 45.6 56.1 47.95 56 50.25 55.85 53.2 56.65 55.9 57 56.85 58.1 57.35 59.05 57.65 60 57 60.85 56.4 61.3 55.4 62.3 53.2 61.7 50.9 60.9 48.5 59.3 46.25 58.3 44.9 57.4 45.15 Z"/>
</g>

<g id="car_blu_front_svg_0_Layer0_0_MEMBER_1_FILL">
<path fill="#3D79F2" stroke="none" d="
M 59.3 46.25
Q 58.3 44.9 57.4 45.15 57.05 45.25 56.8 45.5 57.3 50.05 61.25 55.4 62.35 53.2 61.65 50.9 60.85 48.5 59.3 46.25 Z"/>
</g>

<g id="car_blu_front_svg_0_Layer0_0_MEMBER_2_FILL">
<path fill="#26231F" stroke="none" d="
M 113.5 120.95
L 100.85 112.4 73.25 121.85 109.4 142.7 117.7 130.1 113.5 120.95 Z"/>
</g>

<g id="car_blu_front_svg_0_Layer0_0_MEMBER_3_FILL">
<path fill="#26231F" stroke="none" d="
M 221.65 78.3
L 224.75 73.3
Q 227.05 69.65 227.3 65.35 227.6 61.05 225.75 57.2
L 225.4 56.35 212.75 47.8 185.2 57.3 221.65 78.3 Z"/>
</g>

<g id="car_blu_front_svg_0_Layer0_0_MEMBER_4_FILL">
<path fill="#26231F" stroke="none" d="
M 72.15 149
Q 72.15 154.95 75.8 157.15
L 83.75 161.75 101.8 130.75 93.9 126.15
Q 92.2 125.1 89.9 125.3 87.5 125.5 84.9 127 79.65 130 75.9 136.45 72.2 142.9 72.15 149 Z"/>
</g>

<g id="car_blu_front_svg_0_Layer0_0_MEMBER_5_FILL">
<path fill="#3F3932" stroke="none" d="
M 92.85 131.55
Q 87.6 134.6 83.9 141.05 80.15 147.5 80.15 153.55 80.15 159.65 83.85 161.75 87.55 163.9 92.85 160.85 98.1 157.85 101.8 151.4 105.5 144.95 105.5 138.85 105.5 132.8 101.8 130.65 98.1 128.5 92.85 131.55 Z"/>
</g>

<g id="car_blu_front_svg_0_Layer0_0_MEMBER_6_MEMBER_0_FILL">
<path fill="#D8D8D8" stroke="none" d="
M 93.15 136.3
Q 89.55 138.25 86.9 142.7 84.35 147.1 84.25 151.3 84.2 155.5 86.75 157.1 89.25 158.7 92.85 156.7 96.45 154.7 99.05 150.25 101.7 145.85 101.75 141.7 101.85 137.5 99.3 135.95 96.8 134.35 93.15 136.3 Z"/>
</g>

<g id="car_blu_front_svg_0_Layer0_0_MEMBER_6_MEMBER_1_FILL">
<path fill="#A8A8A8" stroke="none" d="
M 93.15 137.7
Q 90.05 139.45 87.8 143.2 85.55 147 85.5 150.6 85.45 154.25 87.65 155.6 89.8 156.95 92.9 155.25 96 153.55 98.25 149.75 100.45 145.95 100.5 142.3 100.6 138.65 98.4 137.3 96.25 136 93.15 137.7 Z"/>
</g>

<g id="car_blu_front_svg_0_Layer0_0_MEMBER_6_MEMBER_2_FILL">
<path fill="#D8D8D8" stroke="none" d="
M 92.65 141.25
Q 90.75 142.45 89.6 144.4 88.45 146.35 88.35 148.55 88.3 150.6 89.55 151.4 90.75 152.2 92.5 151.2 94.4 149.95 95.55 148.05 96.7 146.1 96.8 143.85 96.8 141.8 95.6 141.05 94.4 140.3 92.65 141.25 Z"/>
</g>

<g id="car_blu_front_svg_0_Layer0_0_MEMBER_6_MEMBER_3_FILL">
<path fill="#BEBEBE" stroke="none" d="
M 95.55 148
Q 96.7 146.05 96.8 143.8 96.85 141.75 95.65 141 94.4 140.25 92.65 141.2 90.6 142.4 89.5 144.55 88.9 145.65 88.65 146.55 88.35 147.55 88.35 148.55
L 88.35 148.85
Q 88.45 150.75 89.6 151.4 90.8 152.05 92.5 151.1 94.4 149.9 95.55 148 Z"/>
</g>

<g id="car_blu_front_svg_0_Layer0_0_MEMBER_7_FILL">
<path fill="#26231F" stroke="none" d="
M 196.05 62.85
Q 190.8 65.9 187.1 72.3 183.35 78.75 183.35 84.85 183.35 90.8 187 93
L 195 97.55 213 66.6 205.05 62
Q 203.35 60.95 201 61.15 198.65 61.35 196.05 62.85 Z"/>
</g>

<g id="car_blu_front_svg_0_Layer0_0_MEMBER_8_FILL">
<path fill="#3F3932" stroke="none" d="
M 195.05 76.9
Q 191.3 83.35 191.3 89.4 191.3 95.45 195 97.6 198.7 99.75 203.95 96.7 209.2 93.65 212.95 87.25 216.65 80.8 216.65 74.7 216.65 68.65 212.95 66.5 209.25 64.4 204 67.45 198.75 70.5 195.05 76.9 Z"/>
</g>

<g id="car_blu_front_svg_0_Layer0_0_MEMBER_9_MEMBER_0_FILL">
<path fill="#D8D8D8" stroke="none" d="
M 195.4 87.15
Q 195.35 91.35 197.85 92.95 200.35 94.5 204 92.5 207.6 90.5 210.2 86.1 212.8 81.7 212.85 77.5 212.95 73.3 210.4 71.75 207.9 70.15 204.3 72.15 200.7 74.1 198.05 78.55 195.5 82.95 195.4 87.15 Z"/>
</g>

<g id="car_blu_front_svg_0_Layer0_0_MEMBER_9_MEMBER_1_FILL">
<path fill="#A8A8A8" stroke="none" d="
M 196.6 86.45
Q 196.55 90.1 198.75 91.45 200.9 92.8 204 91.1 207.1 89.35 209.3 85.6 211.55 81.8 211.6 78.15 211.7 74.5 209.5 73.15 207.35 71.85 204.25 73.55 201.15 75.25 198.9 79.05 196.65 82.8 196.6 86.45 Z"/>
</g>

<g id="car_blu_front_svg_0_Layer0_0_MEMBER_9_MEMBER_2_FILL">
<path fill="#D8D8D8" stroke="none" d="
M 199.5 84.4
Q 199.45 86.45 200.7 87.2 201.9 88 203.65 87 205.55 85.8 206.7 83.9 207.85 81.95 208 79.7 208 77.65 206.8 76.9 205.55 76.15 203.8 77.1 201.9 78.3 200.75 80.25 199.6 82.15 199.5 84.4 Z"/>
</g>

<g id="car_blu_front_svg_0_Layer0_0_MEMBER_10_FILL">
<path fill="#2059E5" stroke="none" d="
M 238.1 38.25
Q 238.1 37.15 237.55 35.2 236.9 33 236.6 31.9 236.2 30.8 235.6 29.9 234.35 28.05 232.35 26.9 194.8 5.05 187.7 1.1 185.75 0 183.95 0
L 182.55 0.2 170.65 3.8
Q 162.3 3.25 154 2.7 137.3 1.55 137.3 1.4 127.95 5.15 107.45 16.75 89.65 26.8 86.55 29.15 83.15 31.65 75.8 38.25 66.6 46.55 65.3 47.65 50.55 60.2 45.6 64.15 36.5 71.35 24.75 79.25 19.8 82.6 15.05 87.1 9.85 92.05 7 96.5 2.6 103.25 0.95 114.3 0.15 120 0 129.35 -0.1 133.55 1.95 136.75 6.55 144.05 19.95 152.75 30.15 159.4 38.1 162.5 48.7 166.65 59.45 166.6 66.35 166.55 72.65 163.3 72.8 163.2 73.4 163 73.7 162.9 76.3 161.45 76.5 151.25 80.4 143.15 84.7 134.05 92.85 129.35 101.45 124.4 105.65 128.65 109.3 132.35 109.4 142.7
L 188.45 97.55
Q 188.45 87.15 192.35 78.75 196.65 69.35 205 64.55 213.7 59.55 217.9 63.9 221.5 67.7 221.55 78.25 225.05 75.65 229.85 71.65 235.9 66.55 236.8 64.9 238.1 62.6 238.1 60
L 238.1 38.25 Z"/>
</g>

<g id="car_blu_front_svg_0_Layer0_0_MEMBER_11_FILL">
<path fill="#2059E5" stroke="none" d="
M 184.15 29.5
Q 184.5 29.4 184.85 28.95 185.15 28.4 185.05 27.85 184.9 27.25 184.4 26.95 172.8 19.45 156.95 10.95 141.9 2.9 137.3 1.4 134.1 2.25 111.05 15.05 89.05 27.3 86.55 29.15 83.15 31.65 75.8 38.25 66.6 46.55 65.3 47.65 50.6 60.2 45.6 64.15 36.5 71.35 24.7 79.2 19.75 82.55 15 87.05 9.8 92 6.95 96.45 2.4 103.55 0.8 115.45 0.55 117.9 3.8 123.1 8.95 131.4 20.3 138.4 32.55 146.45 43.5 149.4 53.7 152.1 63.3 150.5 64.1 150.35 64.7 149.75 65.3 149.15 65.4 148.3 66.15 141.65 66.85 139.8 68.45 135.6 74.15 129.95 76.6 127.65 90.2 115.35 101.8 104.85 106 100.55 111.35 92.15 117.45 82.75 129.7 64 133.6 59.2 137.4 54.65 155.4 44.15 173.1 33.8 184.15 29.5 Z"/>
</g>

<g id="car_blu_front_svg_0_Layer0_0_MEMBER_12_FILL">
<path fill="#3D79F2" stroke="none" d="
M 184.15 29.5
Q 184.55 29.35 184.8 28.95 185.15 28.45 185.05 27.9 184.9 27.3 184.4 26.95 172.8 19.45 156.95 10.95 141.9 2.9 137.3 1.4 133.35 1.85 113.3 13.05 96 22.8 88.25 28 87.8 28.35 93.55 32.9 100.2 38.2 107.7 42.5 116.75 47.7 127.25 52.1 137.05 56.25 137.9 55.6 145.5 50.25 160.45 41.9 174.15 34.25 184.15 29.5 Z"/>
</g>

<g id="car_blu_front_svg_0_Layer0_0_MEMBER_13_FILL">
<path fill="#3D79F2" stroke="none" d="
M 24.7 79.25
Q 19.75 82.6 15 87.1 9.8 92.05 6.95 96.5 6.4 97.3 5.7 98.6 4.4 102.6 8.8 108.9 13.25 115.3 21.45 121.1 41.75 135.55 63.8 133.85 70.15 133.4 74.9 129.1 99.1 107.55 106 100.55 96.1 99.1 83.45 94 58.1 83.7 44.3 65.2 36.05 71.7 24.7 79.25 Z"/>
</g>

<g id="car_blu_front_svg_Assets_Layer_1__Path__25_0_Layer0_0_FILL">
<path fill="#BC972A" stroke="none" d="
M 0.2 0
L 0.15 0.05
Q -0.1 0.05 0 0.35 1.3 3.25 1.8 15.35 2.05 21.7 2.4 31.5
L 2.9 30.75
Q 2.65 21.15 2.45 14.95 2.05 3.35 0.55 0.2 0.5 0 0.2 0 Z"/>
</g>

<g id="car_blu_front_svg_Assets_Layer_1__Path__24_0_Layer0_0_FILL">
<path fill="#BC972A" stroke="none" d="
M 0.05 19.15
L 0 19.25 0 32.85 0.55 32.85 0.55 19.4 13.15 0.25 12.7 0 0.05 19.15 Z"/>
</g>

<g id="car_blu_front_svg_Assets_Layer_1__Path__23_0_Layer0_0_FILL">
<path fill="#BC972A" stroke="none" d="
M 43.85 0.3
Q 45.75 20.65 45.75 41.05
L 0 67.45 0 68.05 79.4 22.25 79.4 21.6 46.3 40.7
Q 46.25 20.1 44.35 0
L 43.85 0.3 Z"/>
</g>

<g id="car_blu_front_svg_0_Layer0_0_MEMBER_17_FILL">
<path fill="#839EB2" stroke="none" d="
M 92 97.8
Q 95.15 98.65 97.3 98.25 99.75 97.85 102.1 95.75 108.5 90.1 116.6 79.2 124.4 68.7 131.75 56.05 101.15 42.8 88 30.8
L 47.45 65.85 47.2 66.1
Q 46.2 67.1 46.2 68.6 46.25 70.05 47.3 71.05 57.5 80.7 68.6 87.45 80.3 94.6 92 97.8 Z"/>
</g>

<g id="car_blu_front_svg_0_Layer0_0_MEMBER_18_FILL">
<path fill="#B5CEE8" stroke="none" d="
M 87 34
Q 86.35 34 85.85 34.45
L 54.25 61.9
Q 53.4 62.6 53.4 63.7 53.35 64.75 54.15 65.55 64.75 75.55 75.05 81.75 85.5 88 96.65 91 98.25 91.4 99.65 91.4
L 99.7 91.45 101.05 91.4
Q 104.8 90.95 108.5 86.4 123.05 68.4 128.45 59.25 128.75 58.7 128.6 58.1 128.4 57.5 127.85 57.2
L 127.7 57.1
Q 100.9 45.2 88.15 34.45 87.65 34 87 34 Z"/>
</g>

<g id="car_blu_front_svg_0_Layer0_0_MEMBER_19_FILL">
<path fill="#839EB2" stroke="none" d="
M 199.1 38.35
Q 190.85 33.85 185 32.5 183 32.05 181.25 32.95 174.4 36.25 162.3 43.2 162.25 43.2 141.6 55.2 136.5 58.2 133.3 63.1 115.7 89.75 111.95 96.05 111.65 96.55 112.15 96.95 112.6 97.3 113.1 97.05 120.35 93.1 159.25 70.9 194.85 50.6 205.4 44.5 207.8 43.1 199.1 38.35 Z"/>
</g>

<g id="car_blu_front_svg_0_Layer0_0_MEMBER_20_FILL">
<path fill="#B5CEE8" stroke="none" d="
M 189.9 35.2
Q 193.3 41.75 194.65 49.05
L 204.05 43.65
Q 204 42.55 199.3 39.85 195.05 37.4 189.9 35.2 Z"/>
</g>

<g id="car_blu_front_svg_0_Layer0_0_MEMBER_21_FILL">
<path fill="#B5CEE8" stroke="none" d="
M 188.1 34.5
Q 186.45 33.8 184.45 33.25 183.1 32.9 181.85 33.5 176.15 36.2 166.5 41.7 162.2 44.1 149.15 51.65 152.65 61.9 153.85 72.35
L 193.5 49.7
Q 192.1 41.8 188.1 34.5 Z"/>
</g>

<g id="car_blu_front_svg_0_Layer0_0_MEMBER_22_FILL">
<path fill="#B5CEE8" stroke="none" d="
M 113.25 95.2
L 113.4 95.2
Q 120.55 91.25 152.65 73 151.55 62.4 148.05 52.3
L 142 55.85
Q 137.1 58.75 133.9 63.5 114.95 92.4 113.25 95.2 Z"/>
</g>

<g id="car_blu_front_svg_0_Layer0_0_MEMBER_23_FILL">
<path fill="#14367C" stroke="none" d="
M 11.35 114.95
Q 10.65 115.1 9.25 119.85 7.85 124.65 8.4 125.7 10.1 129 18.65 134.95 27.5 141.1 32.8 142.25 33.95 142.5 35.65 139.3 37.05 136.8 37.8 134.25 38 133.65 33.9 131.4 27.05 127.75 24.7 126.3 17.4 121.7 11.35 114.95 Z"/>
</g>

<g id="car_blu_front_svg_0_Layer0_0_MEMBER_24_FILL">
<path fill="#35312D" stroke="none" d="
M 11.8 115.45
Q 10.85 117.35 9.95 120.8 9.05 124.5 9.45 125.35 11.15 128.65 19.6 134.55 28.4 140.7 33.75 141.9 34.85 141 36.15 138.4 37.4 136 37.8 134.25 37.95 133.65 37.2 133.05 36.65 132.6 34.9 131.75 32 130.35 30.25 129.4 27.05 127.8 24.7 126.3 17.6 121.8 11.8 115.45 Z"/>
</g>

<g id="car_blu_front_svg_0_Layer0_0_MEMBER_25_FILL">
<path fill="#35312D" stroke="none" d="
M 143.2 85.25
Q 142.6 85.65 142.5 86.4
L 142.5 87.4
Q 142.5 87.65 142.7 87.75 142.9 87.85 143.2 87.65
L 150.05 83.65
Q 150.65 83.35 150.75 82.55
L 150.75 81.55
Q 150.75 80.9 150.05 81.25
L 143.2 85.25 Z"/>
</g>

<g id="car_blu_front_svg_0_Layer0_0_MEMBER_26_FILL">
<path fill="#35312D" stroke="none" d="
M 191 57.7
L 184.15 61.7
Q 183.55 62.1 183.45 62.8
L 183.45 63.8
Q 183.45 64.05 183.65 64.1 183.9 64.2 184.15 64
L 191 60
Q 191.6 59.6 191.7 58.9
L 191.7 58
Q 191.7 57.35 191 57.7 Z"/>
</g>

<g id="car_blu_front_svg_0_Layer0_0_MEMBER_27_FILL">
<path fill="#14367C" stroke="none" d="
M 120.85 88.35
Q 120.35 89.75 119.75 91.8 119.2 92.75 120 93.55 122.25 96.05 130.65 95.15 131.15 95.15 131.75 94.9 133.1 94.3 133.7 92.05 134.35 89.8 133.5 88.85 133 88.2 128.05 86.65 123.1 85.05 122.4 85.4 121.8 85.7 120.85 88.35 Z"/>
</g>

<g id="car_blu_front_svg_0_Layer0_0_MEMBER_28_FILL">
<path fill="#3D79F2" stroke="none" d="
M 126.45 89.9
Q 130.4 90.4 133.9 89.9 133.9 89.35 133.5 88.85 133 88.25 128.05 86.65 123 85.05 122.4 85.4 121.8 85.7 120.8 88.45 122.85 89.45 126.45 89.9 Z"/>
</g>

<g id="car_blu_front_svg_0_Layer0_0_MEMBER_29_FILL">
<path fill="#282523" stroke="none" d="
M 115.9 92
Q 114.6 92.15 114.3 94.1 114.05 96 115.1 95.9 123.55 95.35 123.75 95.1 124.35 94.4 122.85 92.7 121.35 90.9 120 91.1 116.2 92 115.9 92 Z"/>
</g>

<g id="car_blu_front_svg_0_Layer0_0_MEMBER_30_FILL">
<path fill="#991111" stroke="none" d="
M 237.65 35.55
L 236.35 36.7
Q 235.25 37.35 235.35 38.6 236.05 49.65 238.05 49.2 240.55 42.2 237.65 35.55 Z"/>
</g>

<g id="car_blu_front_svg_0_Layer0_0_MEMBER_31_FILL">
<path fill="#F0FDFF" stroke="none" d="
M 64.15 136.85
Q 54.4 137.6 44.25 136.2 42 135.9 40.4 140.15 38.8 144.45 41.1 145.75 43.95 147.35 49.3 148.2 55.85 149.15 63.3 148.35 66.9 147.15 67.35 142.2 67.8 137.2 64.15 136.85 Z"/>
</g>

<g id="car_blu_front_svg_0_Layer0_0_MEMBER_32_FILL">
<path fill="#CB5E12" stroke="none" d="
M 64.15 136.85
Q 65.7 138.35 65.2 142.6 64.75 146.55 63.35 148.35 65.2 148.15 66.75 146.25 68.15 144.5 68.55 142.25 69.55 136.55 64.15 136.85 Z"/>
</g>

<g id="car_blu_front_svg_0_Layer0_0_MEMBER_33_FILL">
<path fill="#F0FDFF" stroke="none" d="
M 7.5 111.75
Q 7.45 111.35 6.15 108.15 4.75 104.65 4.15 101.95 3.05 103.45 2.1 107.1 1.25 110.55 1.25 112.65 1.2 114.8 2.9 118.1 4.55 121.35 5.35 121.05 6 120.8 6.9 117.1 7.8 113.3 7.5 111.75 Z"/>
</g>

<g id="car_blu_front_svg_0_Layer0_0_MEMBER_34_FILL">
<path fill="#4C4742" stroke="none" d="
M 19.35 128.3
Q 18.9 129.3 19.2 130.35 19.5 131.4 20.4 132
L 20.7 132.15
Q 21.6 132.45 22.45 132.05 23.3 131.65 23.6 130.8 24.05 129.8 23.75 128.75 23.45 127.7 22.55 127.1
L 22.2 126.95
Q 21.35 126.65 20.5 127.05 19.65 127.45 19.35 128.3 Z"/>
</g>

<g id="car_blu_front_svg_0_Layer0_0_MEMBER_35_FILL">
<path fill="#FFFFFF" stroke="none" d="
M 10.6 136.85
L 10.6 142.7 26.8 153.55 26.8 147.75 10.6 136.85 Z"/>
</g>

<g id="car_blu_front_svg_0_Layer0_0_MEMBER_36_FILL">
<path fill="#B5CEE8" stroke="none" d="
M 204.95 31
Q 212.55 32.15 214.6 32.3 218.25 32.6 216.45 31.35
L 172.75 6.1
Q 170.55 4.85 168.1 4.85
L 143.45 3.1
Q 157.2 9.25 185.1 25.9 188.1 27.7 191.25 28.7
L 204.95 31 Z"/>
</g>

<g id="car_blu_front_svg_0_Layer0_0_MEMBER_37_FILL">
<path fill="#3D79F2" stroke="none" d="
M 221.6 33.2
Q 228.45 32.35 235.75 30.15
L 235.6 29.9
Q 234.35 28.05 232.35 26.9 194.8 5.05 187.7 1.1 185.75 0 183.95 0
L 182.55 0.2 170.65 3.8 221.6 33.2 Z"/>
</g>

<g id="car_blu_front_svg_0_Layer0_0_MEMBER_38_FILL">
<path fill="#35312D" stroke="none" d="
M 61.05 163.5
Q 61.6 163.4 62 162.95 62.35 162.45 62.35 161.9
L 62.35 156.7 62.25 156.35
Q 62.1 155.85 61.65 155.65 61.2 155.4 60.75 155.55 52.85 158.25 44.75 157.55
L 44.7 157.55
Q 44.3 157.55 43.95 157.85 43.65 158.15 43.6 158.55 43.45 160.3 43.5 160.55 43.55 161.55 44.35 161.85 52.5 164.55 61.05 163.5 Z"/>
</g>

<g id="car_blu_front_svg_0_Layer0_0_MEMBER_39_FILL">
<path fill="#35312D" stroke="none" d="
M 0.35 120.25
Q 0.15 122.7 0 129.35
L 0 129.65
Q 0.35 131.4 1.4 133.35 1.5 133.5 1.6 133.45 1.7 133.4 1.7 133.1
L 1.7 129
Q 1.7 128.05 1.45 126.9 0.6 123.7 0.35 120.25 Z"/>
</g>

<g id="future_windMillBlade_svg_0_Layer0_0_FILL">
<path fill="#FFFFFF" stroke="none" d="
M 52.6 46
L 52.6 0.2
Q 52.6 0 52.4 0 52.25 0 52.25 0.2
L 44.25 43.2
Q 46.25 57.4 46.25 58.25
L 48.45 58.25 52.6 46 Z"/>
</g>

<g id="future_windMillBlade_svg_0_Layer0_1_FILL">
<path fill="#FFFFFF" stroke="none" d="
M 92.45 93.2
L 92.7 93.15
Q 92.85 93 92.65 92.9
L 60.25 63.45
Q 59.8 63.3 46.4 57.2
L 45.25 59.2 53.45 69.2 53.5 69.2 92.45 93.2 Z"/>
</g>

<g id="future_windMillBlade_svg_0_Layer0_2_FILL">
<path fill="#FFFFFF" stroke="none" d="
M 33.8 61.35
Q 33.8 61.3 33.75 61.35
L 0.05 92.25 0 92.5
Q 0.1 92.6 0.25 92.55
L 37.4 69.35
Q 37.7 69 47.2 57.75
L 45.7 56.15 33.8 61.35 Z"/>
</g>

<g id="future_wnidmill_svg_Assets_Layer_1__Path__6_0_Layer0_0_FILL">
<path fill="url(#Gradient_5)" stroke="none" d="
M 11.35 0
L 0 0.55 50.8 42.7 84.6 32.95 11.35 0 Z"/>
</g>

<g id="future_wnidmill_svg_0_Layer0_0_MEMBER_1_FILL">
<path fill="#FFFFFF" stroke="none" d="
M 8.5 1.65
L 4.95 1.65 2.15 168.7 11.1 168.7 8.5 1.65 Z"/>
</g>

<g id="future_wnidmill_svg_0_Layer0_0_MEMBER_2_FILL">
<path fill="#1B1B2B" stroke="none" d="
M 5.25 0.35
Q 4.15 0.95 3.9 2.4 3.7 3.8 4.5 5.25 5.35 6.65 6.65 7.15 8 7.7 9.1 7.05 10.2 6.45 10.45 5 10.65 3.6 9.8 2.2 9 0.8 7.7 0.25 6.35 -0.3 5.25 0.35 Z"/>
</g>

<g id="future_wnidmill_svg_0_Layer0_0_MEMBER_3_FILL">
<path fill="#1B1B2B" stroke="none" d="
M 3.75 1.7
L 8.7 7.6 10.05 6.15 8.9 1.8 5 0.5 3.75 1.7 Z"/>
</g>

<g id="future_wnidmill_svg_0_Layer0_0_MEMBER_4_FILL">
<path fill="#FFFFFF" stroke="none" d="
M 4.15 1.45
Q 3.05 2.1 2.85 3.55 2.6 4.95 3.45 6.35 4.25 7.75 5.6 8.3 6.95 8.85 8.05 8.2 9.15 7.55 9.35 6.15 9.55 4.7 8.75 3.3 7.95 1.9 6.6 1.35 5.25 0.8 4.15 1.45 Z"/>
</g>

<g id="future_wnidmill_svg_0_Layer0_0_MEMBER_5_FILL">
<path fill="#1B1B2B" stroke="none" d="
M 4.75 2.55
Q 4.05 3 3.9 3.95 3.8 4.9 4.3 5.85 4.85 6.8 5.75 7.15 6.65 7.5 7.35 7.05 8.1 6.65 8.25 5.7 8.4 4.75 7.85 3.8 7.3 2.85 6.4 2.5 5.5 2.15 4.75 2.55 Z"/>
</g>

<g id="future_wnidmill_svg_0_Layer0_0_MEMBER_6_FILL">
<path fill="#FFFFFF" stroke="none" d="
M 6.6 166.15
Q 4.75 166.15 3.45 167.15 2.15 168.1 2.15 169.45 2.15 170.85 3.45 171.8 4.75 172.75 6.6 172.75 8.5 172.75 9.8 171.8 11.1 170.85 11.1 169.45 11.1 168.1 9.8 167.15 8.45 166.15 6.6 166.15 Z"/>
</g>

<path id="car_blu_behind_svg_0_Layer0_0_MEMBER_4_1_STROKES" stroke="#839EB2" stroke-width="1.5" stroke-linejoin="round" stroke-linecap="round" fill="none" d="
M 99.4 114.05
Q 99.85 108.1 101.2 101.05 103.9 86.95 108.4 81.55
L 111.5 79.65
Q 115 77.5 117.3 75.95 119.6 74.4 138.8 62.5 148.4 56.55 157.55 50.9
L 161.85 49
Q 166.6 47 169.05 46.5 171.5 46.05 189.4 47.1 198.35 47.65 206.8 48.3
L 99.4 114.05 Z"/>

<path id="car_blu_behind_svg_0_Layer0_0_MEMBER_11_MEMBER_1_1_STROKES" stroke="#839EB2" stroke-width="1" stroke-linejoin="miter" stroke-linecap="butt" stroke-miterlimit="10" fill="none" d="
M 155.25 52.35
L 160.1 57.3
Q 165.65 63.95 169.2 72.5"/>

<path id="car_blu_behind_svg_0_Layer0_0_MEMBER_12_MEMBER_1_1_STROKES" stroke="#839EB2" stroke-width="1" stroke-linejoin="miter" stroke-linecap="butt" stroke-miterlimit="10" fill="none" d="
M 111.75 80.25
Q 119.25 88.8 123.05 99.6"/>

<path id="car_blu_behind_svg_Assets_Layer_1__Path__8_0_Layer0_0_1_STROKES" stroke="#BC972A" stroke-width="1" stroke-linejoin="miter" stroke-linecap="butt" stroke-miterlimit="10" fill="none" d="
M 84.55 0.5
L 90.9 0.75 93.35 18
Q 92.3 20.45 91.4 23.6 89.5 29.95 90.05 33.4
L 19.05 75.05
Q 17.8 72.45 15 70.55 9.35 66.85 1.6 70.65
L 0.5 53.15"/>

<path id="car_blu_behind_svg_Assets_Layer_1__Path__7_0_Layer0_0_1_STROKES" stroke="#BC972A" stroke-width="1" stroke-linejoin="miter" stroke-linecap="butt" stroke-miterlimit="10" fill="none" d="
M 0.45 0.05
L 2.85 32.65"/>

<path id="car_blu_behind_svg_0_Layer0_0_MEMBER_28_1_STROKES" stroke="#35312D" stroke-width="1" stroke-linejoin="miter" stroke-linecap="butt" stroke-miterlimit="10" fill="none" d="
M 180.6 73.1
L 174.25 77"/>

<path id="car_blu_behind_svg_0_Layer0_0_MEMBER_29_1_STROKES" stroke="#35312D" stroke-width="1" stroke-linejoin="miter" stroke-linecap="butt" stroke-miterlimit="10" fill="none" d="
M 134.45 100.2
L 128.1 104.15"/>
</defs>

<mask id="Mask_Mask_1">
<g transform="matrix( 1, 0, 0, 1, 0,0) ">
<use xlink:href="#Mask_8_MASK_0_FILL"/>
</g>
</mask>

<g mask="url(#Mask_Mask_1)"/>

<g mask="url(#Mask_Mask_1)"/>

<g mask="url(#Mask_Mask_1)">
<g transform="matrix( -0.133056640625, 0, 0, 0.1329345703125, 1194.15,382.85) ">
<g transform="matrix( 1, 0, 0, 1, 0,0) ">
<use xlink:href="#car_blu_behind_svg_0_Layer0_0_MEMBER_0_FILL"/>
</g>

<g transform="matrix( 1, 0, 0, 1, 0,0) ">
<use xlink:href="#car_blu_behind_svg_0_Layer0_0_MEMBER_1_FILL"/>
</g>

<g transform="matrix( 1, 0, 0, 1, 0,0) ">
<use xlink:href="#car_blu_behind_svg_0_Layer0_0_MEMBER_2_FILL"/>
</g>

<g transform="matrix( 1, 0, 0, 1, 0,0) ">
<use xlink:href="#car_blu_behind_svg_0_Layer0_0_MEMBER_3_FILL"/>
</g>

<g transform="matrix( 1, 0, 0, 1, 0,0) ">
<use xlink:href="#car_blu_behind_svg_0_Layer0_0_MEMBER_4_FILL"/>

<use xlink:href="#car_blu_behind_svg_0_Layer0_0_MEMBER_4_1_STROKES"/>
</g>

<g transform="matrix( 1, 0, 0, 1, 0,0) ">
<use xlink:href="#car_blu_behind_svg_0_Layer0_0_MEMBER_5_FILL"/>
</g>

<g transform="matrix( 1, 0, 0, 1, 0,0) ">
<use xlink:href="#car_blu_behind_svg_0_Layer0_0_MEMBER_6_FILL"/>
</g>

<g transform="matrix( 1, 0, 0, 1, 0,0) ">
<use xlink:href="#car_blu_behind_svg_0_Layer0_0_MEMBER_7_FILL"/>
</g>

<g transform="matrix( 1, 0, 0, 1, 0,0) ">
<use xlink:href="#car_blu_behind_svg_0_Layer0_0_MEMBER_8_FILL"/>
</g>

<g transform="matrix( 1, 0, 0, 1, 0,0) ">
<use xlink:href="#car_blu_behind_svg_0_Layer0_0_MEMBER_9_FILL"/>
</g>

<g transform="matrix( 1, 0, 0, 1, 0,0) ">
<use xlink:href="#car_blu_behind_svg_0_Layer0_0_MEMBER_10_FILL"/>
</g>

<g transform="matrix( 1, 0, 0, 1, 0,0) ">
<use xlink:href="#car_blu_behind_svg_0_Layer0_0_MEMBER_11_MEMBER_0_FILL"/>
</g>

<g transform="matrix( 1, 0, 0, 1, 0,0) ">
<use xlink:href="#car_blu_behind_svg_0_Layer0_0_MEMBER_11_MEMBER_1_1_STROKES"/>
</g>

<g transform="matrix( 1, 0, 0, 1, 0,0) ">
<use xlink:href="#car_blu_behind_svg_0_Layer0_0_MEMBER_12_MEMBER_0_FILL"/>
</g>

<g transform="matrix( 1, 0, 0, 1, 0,0) ">
<use xlink:href="#car_blu_behind_svg_0_Layer0_0_MEMBER_12_MEMBER_1_1_STROKES"/>
</g>

<g transform="matrix( 1, 0, 0, 1, 0,0) ">
<use xlink:href="#car_blu_behind_svg_0_Layer0_0_MEMBER_13_FILL"/>
</g>

<g transform="matrix( 1, 0, 0, 1, 0,0) ">
<use xlink:href="#car_blu_behind_svg_0_Layer0_0_MEMBER_14_FILL"/>
</g>

<g transform="matrix( 1, 0, 0, 1, 0,0) ">
<use xlink:href="#car_blu_behind_svg_0_Layer0_0_MEMBER_15_FILL"/>
</g>

<g transform="matrix( 1, 0, 0, 1, 0,0) ">
<use xlink:href="#car_blu_behind_svg_0_Layer0_0_MEMBER_16_MEMBER_0_FILL"/>
</g>

<g transform="matrix( 1, 0, 0, 1, 0,0) ">
<use xlink:href="#car_blu_behind_svg_0_Layer0_0_MEMBER_16_MEMBER_1_FILL"/>
</g>

<g transform="matrix( 1, 0, 0, 1, 0,0) ">
<use xlink:href="#car_blu_behind_svg_0_Layer0_0_MEMBER_16_MEMBER_2_FILL"/>
</g>

<g transform="matrix( 1, 0, 0, 1, 0,0) ">
<use xlink:href="#car_blu_behind_svg_0_Layer0_0_MEMBER_17_FILL"/>
</g>

<g transform="matrix( 1, 0, 0, 1, 0,0) ">
<use xlink:href="#car_blu_behind_svg_0_Layer0_0_MEMBER_18_FILL"/>
</g>

<g transform="matrix( 1, 0, 0, 1, 0,0) ">
<use xlink:href="#car_blu_behind_svg_0_Layer0_0_MEMBER_19_FILL"/>
</g>

<g transform="matrix( 1, 0, 0, 1, 0,0) ">
<use xlink:href="#car_blu_behind_svg_0_Layer0_0_MEMBER_20_MEMBER_0_FILL"/>
</g>

<g transform="matrix( 1, 0, 0, 1, 0,0) ">
<use xlink:href="#car_blu_behind_svg_0_Layer0_0_MEMBER_20_MEMBER_1_FILL"/>
</g>

<g transform="matrix( 1, 0, 0, 1, 0,0) ">
<use xlink:href="#car_blu_behind_svg_0_Layer0_0_MEMBER_20_MEMBER_2_FILL"/>
</g>

<g transform="matrix( 1, 0, 0, 1, 0,0) ">
<use xlink:href="#car_blu_behind_svg_0_Layer0_0_MEMBER_21_FILL"/>
</g>

<g transform="matrix( 1, 0, 0, 1, 0,0) ">
<use xlink:href="#car_blu_behind_svg_0_Layer0_0_MEMBER_22_FILL"/>
</g>

<g transform="matrix( 1, 0, 0, 1, 0,0) ">
<use xlink:href="#car_blu_behind_svg_0_Layer0_0_MEMBER_23_FILL"/>
</g>

<g transform="matrix( 1, 0, 0, 1, 0,0) ">
<use xlink:href="#car_blu_behind_svg_0_Layer0_0_MEMBER_24_FILL"/>
</g>

<g transform="matrix( 1, 0, 0, 1, 0,0) ">
<use xlink:href="#car_blu_behind_svg_0_Layer0_0_MEMBER_25_FILL"/>
</g>

<g transform="matrix( 1, 0, 0, 1, 122.3,47.8) ">
<g transform="matrix( 1, 0, 0, 1, 0,0) ">
<use filter="url(#Filter_1)" xlink:href="#car_blu_behind_svg_Assets_Layer_1__Path__8_0_Layer0_0_1_STROKES"/>
</g>
</g>

<g transform="matrix( 1, 0, 0, 1, 168.7,72.45) ">
<g transform="matrix( 1, 0, 0, 1, 0,0) ">
<use filter="url(#Filter_1)" xlink:href="#car_blu_behind_svg_Assets_Layer_1__Path__7_0_Layer0_0_1_STROKES"/>
</g>
</g>

<g transform="matrix( 1, 0, 0, 1, 0,0) ">
<use xlink:href="#car_blu_behind_svg_0_Layer0_0_MEMBER_28_1_STROKES"/>
</g>

<g transform="matrix( 1, 0, 0, 1, 0,0) ">
<use xlink:href="#car_blu_behind_svg_0_Layer0_0_MEMBER_29_1_STROKES"/>
</g>

<g transform="matrix( 1, 0, 0, 1, 0,0) ">
<use xlink:href="#car_blu_behind_svg_0_Layer0_0_MEMBER_30_FILL"/>
</g>

<g transform="matrix( 1, 0, 0, 1, 202.35,49.4) ">
<g transform="matrix( 1, 0, 0, 1, 0,0) ">
<use filter="url(#Filter_2)" xlink:href="#car_blu_behind_svg_Assets_Layer_1__Path__3_0_Layer0_0_FILL"/>
</g>
</g>

<g transform="matrix( 1, 0, 0, 1, 0,0) ">
<use xlink:href="#car_blu_behind_svg_0_Layer0_0_MEMBER_32_FILL"/>
</g>

<g transform="matrix( 1, 0, 0, 1, 0,0) ">
<use xlink:href="#car_blu_behind_svg_0_Layer0_0_MEMBER_33_FILL"/>
</g>

<g transform="matrix( 1, 0, 0, 1, 0,0) ">
<use xlink:href="#car_blu_behind_svg_0_Layer0_0_MEMBER_34_FILL"/>
</g>
</g>
</g>

<g mask="url(#Mask_Mask_1)">
<g transform="matrix( 0.1420745849609375, 0, 0, 0.141937255859375, 965.75,212.65) ">
<g transform="matrix( 1, 0, 0, 1, 0,0) ">
<use xlink:href="#car_ylw_front_svg_0_Layer0_0_MEMBER_0_FILL"/>
</g>

<g transform="matrix( 1, 0, 0, 1, 56.8,45.1) ">
<g transform="matrix( 1, 0, 0, 1, 0,0) ">
<use filter="url(#Filter_2)" xlink:href="#car_ylw_front_svg_Assets_Layer_1__Path__36_0_Layer0_0_FILL"/>
</g>
</g>

<g transform="matrix( 1, 0, 0, 1, 0,0) ">
<use xlink:href="#car_ylw_front_svg_0_Layer0_0_MEMBER_2_FILL"/>
</g>

<g transform="matrix( 1, 0, 0, 1, 0,0) ">
<use xlink:href="#car_ylw_front_svg_0_Layer0_0_MEMBER_3_FILL"/>
</g>

<g transform="matrix( 1, 0, 0, 1, 0,0) ">
<use xlink:href="#car_ylw_front_svg_0_Layer0_0_MEMBER_4_FILL"/>
</g>

<g transform="matrix( 1, 0, 0, 1, 0,0) ">
<use xlink:href="#car_ylw_front_svg_0_Layer0_0_MEMBER_5_FILL"/>
</g>

<g transform="matrix( 1, 0, 0, 1, 0,0) ">
<use xlink:href="#car_ylw_front_svg_0_Layer0_0_MEMBER_6_MEMBER_0_FILL"/>
</g>

<g transform="matrix( 1, 0, 0, 1, 0,0) ">
<use xlink:href="#car_ylw_front_svg_0_Layer0_0_MEMBER_6_MEMBER_1_FILL"/>
</g>

<g transform="matrix( 1, 0, 0, 1, 0,0) ">
<use xlink:href="#car_ylw_front_svg_0_Layer0_0_MEMBER_6_MEMBER_2_FILL"/>
</g>

<g transform="matrix( 1, 0, 0, 1, 0,0) ">
<use xlink:href="#car_ylw_front_svg_0_Layer0_0_MEMBER_6_MEMBER_3_FILL"/>
</g>

<g transform="matrix( 1, 0, 0, 1, 0,0) ">
<use xlink:href="#car_ylw_front_svg_0_Layer0_0_MEMBER_7_FILL"/>
</g>

<g transform="matrix( 1, 0, 0, 1, 0,0) ">
<use xlink:href="#car_ylw_front_svg_0_Layer0_0_MEMBER_8_FILL"/>
</g>

<g transform="matrix( 1, 0, 0, 1, 0,0) ">
<use xlink:href="#car_ylw_front_svg_0_Layer0_0_MEMBER_9_MEMBER_0_FILL"/>
</g>

<g transform="matrix( 1, 0, 0, 1, 0,0) ">
<use xlink:href="#car_ylw_front_svg_0_Layer0_0_MEMBER_9_MEMBER_1_FILL"/>
</g>

<g transform="matrix( 1, 0, 0, 1, 0,0) ">
<use xlink:href="#car_ylw_front_svg_0_Layer0_0_MEMBER_9_MEMBER_2_FILL"/>
</g>

<g transform="matrix( 1, 0, 0, 1, 0,0) ">
<use xlink:href="#car_ylw_front_svg_0_Layer0_0_MEMBER_10_FILL"/>
</g>

<g transform="matrix( 1, 0, 0, 1, 0,0) ">
<use xlink:href="#car_ylw_front_svg_0_Layer0_0_MEMBER_11_FILL"/>
</g>

<g transform="matrix( 1, 0, 0, 1, 0,0) ">
<use xlink:href="#car_ylw_front_svg_0_Layer0_0_MEMBER_12_FILL"/>
</g>

<g transform="matrix( 1, 0, 0, 1, 5.45,65.2) ">
<g transform="matrix( 1, 0, 0, 1, 0,0) ">
<use filter="url(#Filter_2)" xlink:href="#car_ylw_front_svg_Assets_Layer_1__Path__26_0_Layer0_0_FILL"/>
</g>
</g>

<g transform="matrix( 1, 0, 0, 1, 192.5,42.65) ">
<g transform="matrix( 1, 0, 0, 1, 0,0) ">
<use filter="url(#Filter_1)" xlink:href="#car_ylw_front_svg_Assets_Layer_1__Path__25_0_Layer0_0_FILL"/>
</g>
</g>

<g transform="matrix( 1, 0, 0, 1, 100.35,93.85) ">
<g transform="matrix( 1, 0, 0, 1, 0,0) ">
<use filter="url(#Filter_1)" xlink:href="#car_ylw_front_svg_Assets_Layer_1__Path__24_0_Layer0_0_FILL"/>
</g>
</g>

<g transform="matrix( 1, 0, 0, 1, 109.25,71.95) ">
<g transform="matrix( 1, 0, 0, 1, 0,0) ">
<use filter="url(#Filter_1)" xlink:href="#car_ylw_front_svg_Assets_Layer_1__Path__23_0_Layer0_0_FILL"/>
</g>
</g>

<g transform="matrix( 1, 0, 0, 1, 0,0) ">
<use xlink:href="#car_ylw_front_svg_0_Layer0_0_MEMBER_17_FILL"/>
</g>

<g transform="matrix( 1, 0, 0, 1, 0,0) ">
<use xlink:href="#car_ylw_front_svg_0_Layer0_0_MEMBER_18_FILL"/>
</g>

<g transform="matrix( 1, 0, 0, 1, 0,0) ">
<use xlink:href="#car_ylw_front_svg_0_Layer0_0_MEMBER_19_FILL"/>
</g>

<g transform="matrix( 1, 0, 0, 1, 0,0) ">
<use xlink:href="#car_ylw_front_svg_0_Layer0_0_MEMBER_20_FILL"/>
</g>

<g transform="matrix( 1, 0, 0, 1, 0,0) ">
<use xlink:href="#car_ylw_front_svg_0_Layer0_0_MEMBER_21_FILL"/>
</g>

<g transform="matrix( 1, 0, 0, 1, 0,0) ">
<use xlink:href="#car_ylw_front_svg_0_Layer0_0_MEMBER_22_FILL"/>
</g>

<g transform="matrix( 1, 0, 0, 1, 0,0) ">
<use xlink:href="#car_ylw_front_svg_0_Layer0_0_MEMBER_23_FILL"/>
</g>

<g transform="matrix( 1, 0, 0, 1, 0,0) ">
<use xlink:href="#car_ylw_front_svg_0_Layer0_0_MEMBER_24_FILL"/>
</g>

<g transform="matrix( 1, 0, 0, 1, 0,0) ">
<use xlink:href="#car_ylw_front_svg_0_Layer0_0_MEMBER_25_FILL"/>
</g>

<g transform="matrix( 1, 0, 0, 1, 0,0) ">
<use xlink:href="#car_ylw_front_svg_0_Layer0_0_MEMBER_26_FILL"/>
</g>

<g transform="matrix( 1, 0, 0, 1, 0,0) ">
<use xlink:href="#car_ylw_front_svg_0_Layer0_0_MEMBER_27_FILL"/>
</g>

<g transform="matrix( 1, 0, 0, 1, 120.8,85.35) ">
<g transform="matrix( 1, 0, 0, 1, 0,0) ">
<use filter="url(#Filter_2)" xlink:href="#car_ylw_front_svg_Assets_Layer_1__Path__11_0_Layer0_0_FILL"/>
</g>
</g>

<g transform="matrix( 1, 0, 0, 1, 0,0) ">
<use xlink:href="#car_ylw_front_svg_0_Layer0_0_MEMBER_29_FILL"/>
</g>

<g transform="matrix( 1, 0, 0, 1, 0,0) ">
<use xlink:href="#car_ylw_front_svg_0_Layer0_0_MEMBER_30_FILL"/>
</g>

<g transform="matrix( 1, 0, 0, 1, 0,0) ">
<use xlink:href="#car_ylw_front_svg_0_Layer0_0_MEMBER_31_FILL"/>
</g>

<g transform="matrix( 1, 0, 0, 1, 0,0) ">
<use xlink:href="#car_ylw_front_svg_0_Layer0_0_MEMBER_32_FILL"/>
</g>

<g transform="matrix( 1, 0, 0, 1, 0,0) ">
<use xlink:href="#car_ylw_front_svg_0_Layer0_0_MEMBER_33_FILL"/>
</g>

<g transform="matrix( 1, 0, 0, 1, 0,0) ">
<use xlink:href="#car_ylw_front_svg_0_Layer0_0_MEMBER_34_FILL"/>
</g>

<g transform="matrix( 1, 0, 0, 1, 0,0) ">
<use xlink:href="#car_ylw_front_svg_0_Layer0_0_MEMBER_35_FILL"/>
</g>

<g transform="matrix( 1, 0, 0, 1, 0,0) ">
<use xlink:href="#car_ylw_front_svg_0_Layer0_0_MEMBER_36_FILL"/>
</g>

<g transform="matrix( 1, 0, 0, 1, 0,0) ">
<use xlink:href="#car_ylw_front_svg_0_Layer0_0_MEMBER_37_FILL"/>
</g>

<g transform="matrix( 1, 0, 0, 1, 0,0) ">
<use xlink:href="#car_ylw_front_svg_0_Layer0_0_MEMBER_38_FILL"/>
</g>

<g transform="matrix( 1, 0, 0, 1, 0,0) ">
<use xlink:href="#car_ylw_front_svg_0_Layer0_0_MEMBER_39_FILL"/>
</g>
</g>
</g>

<g mask="url(#Mask_Mask_1)">
<g transform="matrix( -0.142120361328125, 0, 0, 0.1419677734375, 921.15,225.75) ">
<g transform="matrix( 1, 0, 0, 1, 0,0) ">
<use xlink:href="#car_blu_front_svg_0_Layer0_0_MEMBER_0_FILL"/>
</g>

<g transform="matrix( 1, 0, 0, 1, 0,0) ">
<use xlink:href="#car_blu_front_svg_0_Layer0_0_MEMBER_1_FILL"/>
</g>

<g transform="matrix( 1, 0, 0, 1, 0,0) ">
<use xlink:href="#car_blu_front_svg_0_Layer0_0_MEMBER_2_FILL"/>
</g>

<g transform="matrix( 1, 0, 0, 1, 0,0) ">
<use xlink:href="#car_blu_front_svg_0_Layer0_0_MEMBER_3_FILL"/>
</g>

<g transform="matrix( 1, 0, 0, 1, 0,0) ">
<use xlink:href="#car_blu_front_svg_0_Layer0_0_MEMBER_4_FILL"/>
</g>

<g transform="matrix( 1, 0, 0, 1, 0,0) ">
<use xlink:href="#car_blu_front_svg_0_Layer0_0_MEMBER_5_FILL"/>
</g>

<g transform="matrix( 1, 0, 0, 1, 0,0) ">
<use xlink:href="#car_blu_front_svg_0_Layer0_0_MEMBER_6_MEMBER_0_FILL"/>
</g>

<g transform="matrix( 1, 0, 0, 1, 0,0) ">
<use xlink:href="#car_blu_front_svg_0_Layer0_0_MEMBER_6_MEMBER_1_FILL"/>
</g>

<g transform="matrix( 1, 0, 0, 1, 0,0) ">
<use xlink:href="#car_blu_front_svg_0_Layer0_0_MEMBER_6_MEMBER_2_FILL"/>
</g>

<g transform="matrix( 1, 0, 0, 1, 0,0) ">
<use xlink:href="#car_blu_front_svg_0_Layer0_0_MEMBER_6_MEMBER_3_FILL"/>
</g>

<g transform="matrix( 1, 0, 0, 1, 0,0) ">
<use xlink:href="#car_blu_front_svg_0_Layer0_0_MEMBER_7_FILL"/>
</g>

<g transform="matrix( 1, 0, 0, 1, 0,0) ">
<use xlink:href="#car_blu_front_svg_0_Layer0_0_MEMBER_8_FILL"/>
</g>

<g transform="matrix( 1, 0, 0, 1, 0,0) ">
<use xlink:href="#car_blu_front_svg_0_Layer0_0_MEMBER_9_MEMBER_0_FILL"/>
</g>

<g transform="matrix( 1, 0, 0, 1, 0,0) ">
<use xlink:href="#car_blu_front_svg_0_Layer0_0_MEMBER_9_MEMBER_1_FILL"/>
</g>

<g transform="matrix( 1, 0, 0, 1, 0,0) ">
<use xlink:href="#car_blu_front_svg_0_Layer0_0_MEMBER_9_MEMBER_2_FILL"/>
</g>

<g transform="matrix( 1, 0, 0, 1, 0,0) ">
<use xlink:href="#car_blu_front_svg_0_Layer0_0_MEMBER_10_FILL"/>
</g>

<g transform="matrix( 1, 0, 0, 1, 0,0) ">
<use xlink:href="#car_blu_front_svg_0_Layer0_0_MEMBER_11_FILL"/>
</g>

<g transform="matrix( 1, 0, 0, 1, 0,0) ">
<use xlink:href="#car_blu_front_svg_0_Layer0_0_MEMBER_12_FILL"/>
</g>

<g transform="matrix( 1, 0, 0, 1, 0,0) ">
<use xlink:href="#car_blu_front_svg_0_Layer0_0_MEMBER_13_FILL"/>
</g>

<g transform="matrix( 1, 0, 0, 1, 192.5,42.65) ">
<g transform="matrix( 1, 0, 0, 1, 0,0) ">
<use filter="url(#Filter_1)" xlink:href="#car_blu_front_svg_Assets_Layer_1__Path__25_0_Layer0_0_FILL"/>
</g>
</g>

<g transform="matrix( 1, 0, 0, 1, 100.35,93.85) ">
<g transform="matrix( 1, 0, 0, 1, 0,0) ">
<use filter="url(#Filter_1)" xlink:href="#car_blu_front_svg_Assets_Layer_1__Path__24_0_Layer0_0_FILL"/>
</g>
</g>

<g transform="matrix( 1, 0, 0, 1, 109.25,71.95) ">
<g transform="matrix( 1, 0, 0, 1, 0,0) ">
<use filter="url(#Filter_1)" xlink:href="#car_blu_front_svg_Assets_Layer_1__Path__23_0_Layer0_0_FILL"/>
</g>
</g>

<g transform="matrix( 1, 0, 0, 1, 0,0) ">
<use xlink:href="#car_blu_front_svg_0_Layer0_0_MEMBER_17_FILL"/>
</g>

<g transform="matrix( 1, 0, 0, 1, 0,0) ">
<use xlink:href="#car_blu_front_svg_0_Layer0_0_MEMBER_18_FILL"/>
</g>

<g transform="matrix( 1, 0, 0, 1, 0,0) ">
<use xlink:href="#car_blu_front_svg_0_Layer0_0_MEMBER_19_FILL"/>
</g>

<g transform="matrix( 1, 0, 0, 1, 0,0) ">
<use xlink:href="#car_blu_front_svg_0_Layer0_0_MEMBER_20_FILL"/>
</g>

<g transform="matrix( 1, 0, 0, 1, 0,0) ">
<use xlink:href="#car_blu_front_svg_0_Layer0_0_MEMBER_21_FILL"/>
</g>

<g transform="matrix( 1, 0, 0, 1, 0,0) ">
<use xlink:href="#car_blu_front_svg_0_Layer0_0_MEMBER_22_FILL"/>
</g>

<g transform="matrix( 1, 0, 0, 1, 0,0) ">
<use xlink:href="#car_blu_front_svg_0_Layer0_0_MEMBER_23_FILL"/>
</g>

<g transform="matrix( 1, 0, 0, 1, 0,0) ">
<use xlink:href="#car_blu_front_svg_0_Layer0_0_MEMBER_24_FILL"/>
</g>

<g transform="matrix( 1, 0, 0, 1, 0,0) ">
<use xlink:href="#car_blu_front_svg_0_Layer0_0_MEMBER_25_FILL"/>
</g>

<g transform="matrix( 1, 0, 0, 1, 0,0) ">
<use xlink:href="#car_blu_front_svg_0_Layer0_0_MEMBER_26_FILL"/>
</g>

<g transform="matrix( 1, 0, 0, 1, 0,0) ">
<use xlink:href="#car_blu_front_svg_0_Layer0_0_MEMBER_27_FILL"/>
</g>

<g transform="matrix( 1, 0, 0, 1, 0,0) ">
<use xlink:href="#car_blu_front_svg_0_Layer0_0_MEMBER_28_FILL"/>
</g>

<g transform="matrix( 1, 0, 0, 1, 0,0) ">
<use xlink:href="#car_blu_front_svg_0_Layer0_0_MEMBER_29_FILL"/>
</g>

<g transform="matrix( 1, 0, 0, 1, 0,0) ">
<use xlink:href="#car_blu_front_svg_0_Layer0_0_MEMBER_30_FILL"/>
</g>

<g transform="matrix( 1, 0, 0, 1, 0,0) ">
<use xlink:href="#car_blu_front_svg_0_Layer0_0_MEMBER_31_FILL"/>
</g>

<g transform="matrix( 1, 0, 0, 1, 0,0) ">
<use xlink:href="#car_blu_front_svg_0_Layer0_0_MEMBER_32_FILL"/>
</g>

<g transform="matrix( 1, 0, 0, 1, 0,0) ">
<use xlink:href="#car_blu_front_svg_0_Layer0_0_MEMBER_33_FILL"/>
</g>

<g transform="matrix( 1, 0, 0, 1, 0,0) ">
<use xlink:href="#car_blu_front_svg_0_Layer0_0_MEMBER_34_FILL"/>
</g>

<g transform="matrix( 1, 0, 0, 1, 0,0) ">
<use xlink:href="#car_blu_front_svg_0_Layer0_0_MEMBER_35_FILL"/>
</g>

<g transform="matrix( 1, 0, 0, 1, 0,0) ">
<use xlink:href="#car_blu_front_svg_0_Layer0_0_MEMBER_36_FILL"/>
</g>

<g transform="matrix( 1, 0, 0, 1, 0,0) ">
<use xlink:href="#car_blu_front_svg_0_Layer0_0_MEMBER_37_FILL"/>
</g>

<g transform="matrix( 1, 0, 0, 1, 0,0) ">
<use xlink:href="#car_blu_front_svg_0_Layer0_0_MEMBER_38_FILL"/>
</g>

<g transform="matrix( 1, 0, 0, 1, 0,0) ">
<use xlink:href="#car_blu_front_svg_0_Layer0_0_MEMBER_39_FILL"/>
</g>
</g>
</g>

<g mask="url(#Mask_Mask_1)">
<g transform="matrix( -0.142120361328125, 0, 0, 0.141937255859375, 523.95,-4.05) ">
<g transform="matrix( 1, 0, 0, 1, 0,0) ">
<use xlink:href="#car_ylw_front_svg_0_Layer0_0_MEMBER_0_FILL"/>
</g>

<g transform="matrix( 1, 0, 0, 1, 56.8,45.1) ">
<g transform="matrix( 1, 0, 0, 1, 0,0) ">
<use filter="url(#Filter_2)" xlink:href="#car_ylw_front_svg_Assets_Layer_1__Path__36_0_Layer0_0_FILL"/>
</g>
</g>

<g transform="matrix( 1, 0, 0, 1, 0,0) ">
<use xlink:href="#car_ylw_front_svg_0_Layer0_0_MEMBER_2_FILL"/>
</g>

<g transform="matrix( 1, 0, 0, 1, 0,0) ">
<use xlink:href="#car_ylw_front_svg_0_Layer0_0_MEMBER_3_FILL"/>
</g>

<g transform="matrix( 1, 0, 0, 1, 0,0) ">
<use xlink:href="#car_ylw_front_svg_0_Layer0_0_MEMBER_4_FILL"/>
</g>

<g transform="matrix( 1, 0, 0, 1, 0,0) ">
<use xlink:href="#car_ylw_front_svg_0_Layer0_0_MEMBER_5_FILL"/>
</g>

<g transform="matrix( 1, 0, 0, 1, 0,0) ">
<use xlink:href="#car_ylw_front_svg_0_Layer0_0_MEMBER_6_MEMBER_0_FILL"/>
</g>

<g transform="matrix( 1, 0, 0, 1, 0,0) ">
<use xlink:href="#car_ylw_front_svg_0_Layer0_0_MEMBER_6_MEMBER_1_FILL"/>
</g>

<g transform="matrix( 1, 0, 0, 1, 0,0) ">
<use xlink:href="#car_ylw_front_svg_0_Layer0_0_MEMBER_6_MEMBER_2_FILL"/>
</g>

<g transform="matrix( 1, 0, 0, 1, 0,0) ">
<use xlink:href="#car_ylw_front_svg_0_Layer0_0_MEMBER_6_MEMBER_3_FILL"/>
</g>

<g transform="matrix( 1, 0, 0, 1, 0,0) ">
<use xlink:href="#car_ylw_front_svg_0_Layer0_0_MEMBER_7_FILL"/>
</g>

<g transform="matrix( 1, 0, 0, 1, 0,0) ">
<use xlink:href="#car_ylw_front_svg_0_Layer0_0_MEMBER_8_FILL"/>
</g>

<g transform="matrix( 1, 0, 0, 1, 0,0) ">
<use xlink:href="#car_ylw_front_svg_0_Layer0_0_MEMBER_9_MEMBER_0_FILL"/>
</g>

<g transform="matrix( 1, 0, 0, 1, 0,0) ">
<use xlink:href="#car_ylw_front_svg_0_Layer0_0_MEMBER_9_MEMBER_1_FILL"/>
</g>

<g transform="matrix( 1, 0, 0, 1, 0,0) ">
<use xlink:href="#car_ylw_front_svg_0_Layer0_0_MEMBER_9_MEMBER_2_FILL"/>
</g>

<g transform="matrix( 1, 0, 0, 1, 0,0) ">
<use xlink:href="#car_ylw_front_svg_0_Layer0_0_MEMBER_10_FILL"/>
</g>

<g transform="matrix( 1, 0, 0, 1, 0,0) ">
<use xlink:href="#car_ylw_front_svg_0_Layer0_0_MEMBER_11_FILL"/>
</g>

<g transform="matrix( 1, 0, 0, 1, 0,0) ">
<use xlink:href="#car_ylw_front_svg_0_Layer0_0_MEMBER_12_FILL"/>
</g>

<g transform="matrix( 1, 0, 0, 1, 5.45,65.2) ">
<g transform="matrix( 1, 0, 0, 1, 0,0) ">
<use filter="url(#Filter_2)" xlink:href="#car_ylw_front_svg_Assets_Layer_1__Path__26_0_Layer0_0_FILL"/>
</g>
</g>

<g transform="matrix( 1, 0, 0, 1, 192.5,42.65) ">
<g transform="matrix( 1, 0, 0, 1, 0,0) ">
<use filter="url(#Filter_1)" xlink:href="#car_ylw_front_svg_Assets_Layer_1__Path__25_0_Layer0_0_FILL"/>
</g>
</g>

<g transform="matrix( 1, 0, 0, 1, 100.35,93.85) ">
<g transform="matrix( 1, 0, 0, 1, 0,0) ">
<use filter="url(#Filter_1)" xlink:href="#car_ylw_front_svg_Assets_Layer_1__Path__24_0_Layer0_0_FILL"/>
</g>
</g>

<g transform="matrix( 1, 0, 0, 1, 109.25,71.95) ">
<g transform="matrix( 1, 0, 0, 1, 0,0) ">
<use filter="url(#Filter_1)" xlink:href="#car_ylw_front_svg_Assets_Layer_1__Path__23_0_Layer0_0_FILL"/>
</g>
</g>

<g transform="matrix( 1, 0, 0, 1, 0,0) ">
<use xlink:href="#car_ylw_front_svg_0_Layer0_0_MEMBER_17_FILL"/>
</g>

<g transform="matrix( 1, 0, 0, 1, 0,0) ">
<use xlink:href="#car_ylw_front_svg_0_Layer0_0_MEMBER_18_FILL"/>
</g>

<g transform="matrix( 1, 0, 0, 1, 0,0) ">
<use xlink:href="#car_ylw_front_svg_0_Layer0_0_MEMBER_19_FILL"/>
</g>

<g transform="matrix( 1, 0, 0, 1, 0,0) ">
<use xlink:href="#car_ylw_front_svg_0_Layer0_0_MEMBER_20_FILL"/>
</g>

<g transform="matrix( 1, 0, 0, 1, 0,0) ">
<use xlink:href="#car_ylw_front_svg_0_Layer0_0_MEMBER_21_FILL"/>
</g>

<g transform="matrix( 1, 0, 0, 1, 0,0) ">
<use xlink:href="#car_ylw_front_svg_0_Layer0_0_MEMBER_22_FILL"/>
</g>

<g transform="matrix( 1, 0, 0, 1, 0,0) ">
<use xlink:href="#car_ylw_front_svg_0_Layer0_0_MEMBER_23_FILL"/>
</g>

<g transform="matrix( 1, 0, 0, 1, 0,0) ">
<use xlink:href="#car_ylw_front_svg_0_Layer0_0_MEMBER_24_FILL"/>
</g>

<g transform="matrix( 1, 0, 0, 1, 0,0) ">
<use xlink:href="#car_ylw_front_svg_0_Layer0_0_MEMBER_25_FILL"/>
</g>

<g transform="matrix( 1, 0, 0, 1, 0,0) ">
<use xlink:href="#car_ylw_front_svg_0_Layer0_0_MEMBER_26_FILL"/>
</g>

<g transform="matrix( 1, 0, 0, 1, 0,0) ">
<use xlink:href="#car_ylw_front_svg_0_Layer0_0_MEMBER_27_FILL"/>
</g>

<g transform="matrix( 1, 0, 0, 1, 120.8,85.35) ">
<g transform="matrix( 1, 0, 0, 1, 0,0) ">
<use filter="url(#Filter_2)" xlink:href="#car_ylw_front_svg_Assets_Layer_1__Path__11_0_Layer0_0_FILL"/>
</g>
</g>

<g transform="matrix( 1, 0, 0, 1, 0,0) ">
<use xlink:href="#car_ylw_front_svg_0_Layer0_0_MEMBER_29_FILL"/>
</g>

<g transform="matrix( 1, 0, 0, 1, 0,0) ">
<use xlink:href="#car_ylw_front_svg_0_Layer0_0_MEMBER_30_FILL"/>
</g>

<g transform="matrix( 1, 0, 0, 1, 0,0) ">
<use xlink:href="#car_ylw_front_svg_0_Layer0_0_MEMBER_31_FILL"/>
</g>

<g transform="matrix( 1, 0, 0, 1, 0,0) ">
<use xlink:href="#car_ylw_front_svg_0_Layer0_0_MEMBER_32_FILL"/>
</g>

<g transform="matrix( 1, 0, 0, 1, 0,0) ">
<use xlink:href="#car_ylw_front_svg_0_Layer0_0_MEMBER_33_FILL"/>
</g>

<g transform="matrix( 1, 0, 0, 1, 0,0) ">
<use xlink:href="#car_ylw_front_svg_0_Layer0_0_MEMBER_34_FILL"/>
</g>

<g transform="matrix( 1, 0, 0, 1, 0,0) ">
<use xlink:href="#car_ylw_front_svg_0_Layer0_0_MEMBER_35_FILL"/>
</g>

<g transform="matrix( 1, 0, 0, 1, 0,0) ">
<use xlink:href="#car_ylw_front_svg_0_Layer0_0_MEMBER_36_FILL"/>
</g>

<g transform="matrix( 1, 0, 0, 1, 0,0) ">
<use xlink:href="#car_ylw_front_svg_0_Layer0_0_MEMBER_37_FILL"/>
</g>

<g transform="matrix( 1, 0, 0, 1, 0,0) ">
<use xlink:href="#car_ylw_front_svg_0_Layer0_0_MEMBER_38_FILL"/>
</g>

<g transform="matrix( 1, 0, 0, 1, 0,0) ">
<use xlink:href="#car_ylw_front_svg_0_Layer0_0_MEMBER_39_FILL"/>
</g>
</g>
</g>

<g mask="url(#Mask_Mask_1)"/>

<g transform="matrix( 1, 0, 0, 1, 1171.75,-3.7) ">
<g transform="matrix( 1, 0, 0, 1, 267.25,108.45) ">
<g transform="matrix( 0.4978485107421875, 0, 0, 0.4978485107421875, 0,0) ">
<g transform="matrix( 1, 0, 0, 1, 0,0) ">
<use xlink:href="#future_windMillBlade_svg_0_Layer0_0_FILL"/>
</g>

<g transform="matrix( 1, 0, 0, 1, 0,0) ">
<use xlink:href="#future_windMillBlade_svg_0_Layer0_1_FILL"/>
</g>

<g transform="matrix( 1, 0, 0, 1, 0,0) ">
<use xlink:href="#future_windMillBlade_svg_0_Layer0_2_FILL"/>
</g>
</g>
</g>

<g transform="matrix( 0.7857208251953125, 0, 0, 0.7857208251953125, 317.15,5.5) ">
<g transform="matrix( 0.4978485107421875, 0, 0, 0.4978485107421875, 0,0) ">
<g transform="matrix( 1, 0, 0, 1, 0,0) ">
<use xlink:href="#future_windMillBlade_svg_0_Layer0_0_FILL"/>
</g>

<g transform="matrix( 1, 0, 0, 1, 0,0) ">
<use xlink:href="#future_windMillBlade_svg_0_Layer0_1_FILL"/>
</g>

<g transform="matrix( 1, 0, 0, 1, 0,0) ">
<use xlink:href="#future_windMillBlade_svg_0_Layer0_2_FILL"/>
</g>
</g>
</g>

<g transform="matrix( 0.7857208251953125, 0, 0, 0.7857208251953125, 0.1,-0.65) ">
<g transform="matrix( 0.4978485107421875, 0, 0, 0.4978485107421875, 0,0) ">
<g transform="matrix( 1, 0, 0, 1, 0,0) ">
<use xlink:href="#future_windMillBlade_svg_0_Layer0_0_FILL"/>
</g>

<g transform="matrix( 1, 0, 0, 1, 0,0) ">
<use xlink:href="#future_windMillBlade_svg_0_Layer0_1_FILL"/>
</g>

<g transform="matrix( 1, 0, 0, 1, 0,0) ">
<use xlink:href="#future_windMillBlade_svg_0_Layer0_2_FILL"/>
</g>
</g>
</g>

<g transform="matrix( 0.385284423828125, 0, 0, 0.385284423828125, 288.15,135.75) ">
<g transform="matrix( 1, 0, 0, 1, 0,169.45) ">
<g transform="matrix( 1, 0, 0, 1, 0,0) ">
<use filter="url(#Filter_3)" xlink:href="#future_wnidmill_svg_Assets_Layer_1__Path__6_0_Layer0_0_FILL"/>
</g>
</g>

<g transform="matrix( 1, 0, 0, 1, 0,0) ">
<use xlink:href="#future_wnidmill_svg_0_Layer0_0_MEMBER_1_FILL"/>
</g>

<g transform="matrix( 1, 0, 0, 1, 0,0) ">
<use xlink:href="#future_wnidmill_svg_0_Layer0_0_MEMBER_2_FILL"/>
</g>

<g transform="matrix( 1, 0, 0, 1, 0,0) ">
<use xlink:href="#future_wnidmill_svg_0_Layer0_0_MEMBER_3_FILL"/>
</g>

<g transform="matrix( 1, 0, 0, 1, 0,0) ">
<use xlink:href="#future_wnidmill_svg_0_Layer0_0_MEMBER_4_FILL"/>
</g>

<g transform="matrix( 1, 0, 0, 1, 0,0) ">
<use xlink:href="#future_wnidmill_svg_0_Layer0_0_MEMBER_5_FILL"/>
</g>

<g transform="matrix( 1, 0, 0, 1, 0,0) ">
<use xlink:href="#future_wnidmill_svg_0_Layer0_0_MEMBER_6_FILL"/>
</g>
</g>

<g transform="matrix( 0.3387908935546875, 0, 0, 0.3318023681640625, 333.45,26.75) ">
<g transform="matrix( 1, 0, 0, 1, 0,169.45) ">
<g transform="matrix( 1, 0, 0, 1, 0,0) ">
<use filter="url(#Filter_3)" xlink:href="#future_wnidmill_svg_Assets_Layer_1__Path__6_0_Layer0_0_FILL"/>
</g>
</g>

<g transform="matrix( 1, 0, 0, 1, 0,0) ">
<use xlink:href="#future_wnidmill_svg_0_Layer0_0_MEMBER_1_FILL"/>
</g>

<g transform="matrix( 1, 0, 0, 1, 0,0) ">
<use xlink:href="#future_wnidmill_svg_0_Layer0_0_MEMBER_2_FILL"/>
</g>

<g transform="matrix( 1, 0, 0, 1, 0,0) ">
<use xlink:href="#future_wnidmill_svg_0_Layer0_0_MEMBER_3_FILL"/>
</g>

<g transform="matrix( 1, 0, 0, 1, 0,0) ">
<use xlink:href="#future_wnidmill_svg_0_Layer0_0_MEMBER_4_FILL"/>
</g>

<g transform="matrix( 1, 0, 0, 1, 0,0) ">
<use xlink:href="#future_wnidmill_svg_0_Layer0_0_MEMBER_5_FILL"/>
</g>

<g transform="matrix( 1, 0, 0, 1, 0,0) ">
<use xlink:href="#future_wnidmill_svg_0_Layer0_0_MEMBER_6_FILL"/>
</g>
</g>

<g transform="matrix( 0.313140869140625, 0, 0, 0.3434295654296875, 15.8,20.8) ">
<g transform="matrix( 1, 0, 0, 1, 0,169.45) ">
<g transform="matrix( 1, 0, 0, 1, 0,0) ">
<use filter="url(#Filter_3)" xlink:href="#future_wnidmill_svg_Assets_Layer_1__Path__6_0_Layer0_0_FILL"/>
</g>
</g>

<g transform="matrix( 1, 0, 0, 1, 0,0) ">
<use xlink:href="#future_wnidmill_svg_0_Layer0_0_MEMBER_1_FILL"/>
</g>

<g transform="matrix( 1, 0, 0, 1, 0,0) ">
<use xlink:href="#future_wnidmill_svg_0_Layer0_0_MEMBER_2_FILL"/>
</g>

<g transform="matrix( 1, 0, 0, 1, 0,0) ">
<use xlink:href="#future_wnidmill_svg_0_Layer0_0_MEMBER_3_FILL"/>
</g>

<g transform="matrix( 1, 0, 0, 1, 0,0) ">
<use xlink:href="#future_wnidmill_svg_0_Layer0_0_MEMBER_4_FILL"/>
</g>

<g transform="matrix( 1, 0, 0, 1, 0,0) ">
<use xlink:href="#future_wnidmill_svg_0_Layer0_0_MEMBER_5_FILL"/>
</g>

<g transform="matrix( 1, 0, 0, 1, 0,0) ">
<use xlink:href="#future_wnidmill_svg_0_Layer0_0_MEMBER_6_FILL"/>
</g>
</g>
</g>
</svg>
