
<svg xmlns="http://www.w3.org/2000/svg" version="1.1" xmlns:xlink="http://www.w3.org/1999/xlink" preserveAspectRatio="none" x="0px" y="0px" width="1340px" height="780px" viewBox="0 0 1340 780">
<defs>
<filter id="Filter_1" x="-20%" y="-20%" width="140%" height="140%" color-interpolation-filters="sRGB">
<feColorMatrix in="SourceGraphic" type="matrix" values="1 0 0 0 0 0 1 0 0 0 0 0 1 0 0 0 0 0 0.83 0" result="result1"/>
</filter>

<g id="scr1_boat_1_svg_0_Layer0_0_MEMBER_0_FILL">
<path fill="#192B3A" stroke="none" d="
M 27.35 24.15
Q 27.65 23.4 27.5 22.6
L 22.1 24.85 7.45 17.85 0.6 12.25
Q 1.6 16.55 5.35 18.9 15.5 24.25 16.5 24.65 20.15 26.3 22.05 26.65 23.05 26.8 23.95 26.5 24.65 26.3 25.8 25.55 27.1 24.7 27.35 24.15 Z"/>
</g>

<g id="scr1_boat_1_svg_0_Layer0_0_MEMBER_1_FILL">
<path fill="#F4F4F4" stroke="none" d="
M 27.6 19.85
L 26.3 18.65 12.3 10.85
Q 8.65 8.35 4.15 8.25 2.05 8 0.25 8.5
L 0.45 10.6 0.25 10.6
Q 0.35 12.85 2.2 14.8 3.1 15.8 4 16.3
L 18.3 23.9
Q 21 25.55 23.85 24.45
L 27.1 22.35
Q 28.6 21.25 27.6 19.85 Z"/>
</g>

<g id="scr1_boat_1_svg_0_Layer0_0_MEMBER_2_FILL">
<path fill="#FFFFFF" stroke="none" d="
M 26.7 20.45
Q 27.45 20.95 27.85 21.5 28.3 20.55 27.4 19.5
L 26.35 18.65
Q 16.45 13.2 12.35 10.85 8.6 8.35 4.15 8.25 2.05 8 0.25 8.5
L 0.45 10.6 0.25 10.6
Q 0.4 12.35 1.25 13.6 0.9 12.55 0.9 11.8
L 0.9 11.55
Q 0.65 10.55 0.9 9.55 2.9 9.15 4.8 9.45 9.35 9.6 13 12.25
L 26.7 20.45 Z"/>
</g>

<g id="scr1_boat_1_svg_0_Layer0_0_MEMBER_3_FILL">
<path fill="#192B3A" stroke="none" d="
M 28 21
Q 27.75 22.15 26.65 22.65
L 23.4 24.6
Q 21.95 25.4 19.75 24.7 21.6 25.8 23.75 25.15
L 27.1 23.15
Q 28.1 22.4 28 21 Z"/>
</g>

<g id="scr1_boat_1_svg_0_Layer0_0_MEMBER_4_FILL">
<path fill="#D7D7D7" stroke="none" d="
M 23.45 23.85
Q 22.95 24.15 22.1 24.3 20.45 24.5 18.65 23.5
L 18.65 24.1
Q 20.9 25.35 23.45 24.55 24.3 24.15 26.85 22.6 28.1 21.95 28 20.55 27.9923828125 20.5197265625 27.95 20.45 28.001953125 21.0740234375 27.25 21.45 27.25 21.6 23.45 23.85
M 22.65 16.7
L 25.25 18.25
Q 27.7185546875 19.8640625 27.95 20.45 27.9427734375 19.5896484375 26.1 18.2
L 22.65 16.1 22.65 16.7 Z"/>
</g>

<g id="scr1_boat_1_svg_0_Layer0_0_MEMBER_5_FILL">
<path fill="#D7D7D7" stroke="none" d="
M 0.55 10.55
L 0.3 10.55
Q 0.3 11.25 0.4 11.55 0.8 13.45 2.45 15.05 3.25 15.9 4 16.3
L 18.6 24.05 18.65 23.5 4.1 15.75
Q 2.55 15 1.6 13.6 0.65 12.25 0.55 10.55 Z"/>
</g>

<g id="scr1_boat_1_svg_0_Layer0_0_MEMBER_6_FILL">
<path fill="#D7D6BF" stroke="none" d="
M 14.35 13.95
L 11.25 12.2 6.75 15 10 16.75 14.35 13.95 Z"/>
</g>

<g id="scr1_boat_1_svg_0_Layer0_0_MEMBER_7_FILL">
<path fill="#D4CAA1" stroke="none" d="
M 9.9 16.7
L 14.25 13.85 10.45 11.55 6.6 13.95 6.65 14.95 9.9 16.7 Z"/>
</g>

<g id="scr1_boat_1_svg_0_Layer0_0_MEMBER_8_FILL">
<path fill="#AEC6DA" stroke="none" d="
M 10 17
L 14.3 14.1 14.3 13 10.75 11.1 6.6 13.9 6.65 15.15 10 17 Z"/>
</g>

<g id="scr1_boat_1_svg_0_Layer0_0_MEMBER_9_FILL">
<path fill="#C4C2B8" stroke="none" d="
M 14.25 13
L 10.75 11.1 6.6 13.9 9.95 15.85 14.25 13 Z"/>
</g>

<g id="scr1_boat_1_svg_0_Layer0_0_MEMBER_10_FILL">
<path fill="#FFFFFF" stroke="none" d="
M 14.25 13
L 10.75 11.1 6.6 13.9 9.95 15.85 14.25 13 Z"/>
</g>

<g id="scr1_boat_1_svg_0_Layer0_0_MEMBER_11_FILL">
<path fill="#986350" stroke="none" d="
M 25.2 22.55
Q 25 22.8 25.05 23.15 25.05 24 25.75 24 26.45 23.85 26.35 23.1 26.25 22.15 25.65 22.25 25.4 22.25 25.2 22.55
M 25.65 22.65
Q 25.95 22.65 26.05 23.1 26.05 23.6 25.7 23.6 25.4 23.6 25.3 23.15 25.3 22.65 25.65 22.65 Z"/>
</g>

<g id="scr1_boat_1_svg_0_Layer0_0_MEMBER_12_FILL">
<path fill="#B0775F" stroke="none" d="
M 26.5 23.1
Q 26.5 22.75 26.3 22.45 26.05 22.2 25.8 22.25 25.2 22.25 25.2 23.15 25.3 24 25.9 24 26.7 23.8 26.5 23.1
M 25.85 22.65
L 25.8 22.6
Q 26.2 22.6 26.2 23.1 26.2 23.5 25.85 23.6 25.5 23.6 25.5 23.1 25.45 22.95 25.55 22.8 25.65 22.65 25.8 22.65
L 25.85 22.65 Z"/>
</g>

<g id="scr1_boat_1_svg_0_Layer0_0_MEMBER_13_FILL">
<path fill="#D1A99A" stroke="none" d="
M 25.6 23.45
Q 25.5 23.3 25.5 22.9 25.3 22.85 25.05 22.9 25.05 23.35 25.15 23.55 25.4 23.75 25.6 23.45 Z"/>
</g>

<g id="scr1_boat_1_svg_0_Layer0_0_MEMBER_14_FILL">
<path fill="#D1A99A" stroke="none" d="
M 25.7 22.7
Q 25.75 22.6 25.9 22.65 26 22.65 26.05 22.7
L 26.1 22.7
Q 26.3 22.5 26.05 22.35 25.8 22.2 25.55 22.35 25.7 22.45 25.7 22.7 Z"/>
</g>

<g id="scr1_boat_1_svg_0_Layer0_0_MEMBER_15_FILL">
<path fill="#D1A99A" stroke="none" d="
M 26 24
Q 26.15 24 26.35 23.8 26.5 23.55 26.25 23.4 26.15 23.6 26 23.6 26.2 23.8 26 24 Z"/>
</g>

<g id="scr1_boat_1_svg_0_Layer0_0_MEMBER_16_FILL">
<path fill="#986350" stroke="none" d="
M 24.75 23.5
Q 24.55 23.25 24.25 23.25 23.65 23.25 23.65 24.2 23.75 25.1 24.35 25 25.05 25 24.95 24.1 24.95 23.75 24.75 23.5
M 24.25 23.65
L 24.25 23.65
Q 24.65 23.6572265625 24.65 24.1 24.65 24.6 24.35 24.6 23.95 24.6 23.95 24.15 23.9 23.95 24.05 23.8 24.1330078125 23.675390625 24.25 23.65 Z"/>
</g>

<g id="scr1_boat_1_svg_0_Layer0_0_MEMBER_17_FILL">
<path fill="#B0775F" stroke="none" d="
M 24.45 23.25
Q 24.2 23.25 24 23.55 23.8 23.8 23.85 24.15 23.85 25.1 24.55 25 25.25 24.85 25.15 24.1 25.05 23.25 24.45 23.25
M 24.45 23.65
Q 24.8 23.65 24.8 24.1 24.8 24.6 24.5 24.6 24.1 24.6 24.1 24.15 24 23.75 24.45 23.65 Z"/>
</g>

<g id="scr1_boat_1_svg_0_Layer0_0_MEMBER_18_FILL">
<path fill="#D1A99A" stroke="none" d="
M 24.25 24.45
Q 24.05 24.2 24.15 23.95 23.95 23.9 23.7 23.95 23.6 24.3 23.75 24.55 24 24.7 24.25 24.45 Z"/>
</g>

<g id="scr1_boat_1_svg_0_Layer0_0_MEMBER_19_FILL">
<path fill="#D1A99A" stroke="none" d="
M 24.3 23.7
Q 24.45 23.6 24.7 23.75
L 24.7 23.7
Q 24.9 23.55 24.7 23.35 24.4 23.2 24.15 23.35 24.4 23.45 24.3 23.7 Z"/>
</g>

<g id="scr1_boat_1_svg_0_Layer0_0_MEMBER_20_FILL">
<path fill="#D1A99A" stroke="none" d="
M 24.6 25
Q 24.75 25 24.95 24.8 25 24.65 24.95 24.5 24.85 24.35 24.8 24.4 24.8 24.6 24.6 24.6 24.8 24.8 24.6 25 Z"/>
</g>

<g id="scr1_boat_1_svg_0_Layer0_0_MEMBER_22_FILL">
<path fill="#D7D7D7" stroke="none" d="
M 2.85 7.8
Q 1.35 7.9 0 8.25 -0.15 10.9 0.85 13.05
L 1 12.6
Q 0.05 10 0.45 8.5 2.5 7.9 4.75 8.3 8.1 8.55 10.9 10
L 12.65 11 12.95 10.8
Q 8.4 7.65 2.85 7.8 Z"/>
</g>

<g id="scr1_boat_1_svg_Assets_Layer_1__Path__21_0_Layer0_0_FILL">
<path fill="#1791DC" stroke="none" d="
M 20.45 10.15
Q 22.05 10.15 21.5 9.25 21.55 8.7 22.2 8.6 22.55 8.55 23.3 8.45 24.6 8.05 24.15 7.6
L 23.4 7.2
Q 21.9 8.25 21 8.75 19.5 9.45 18 9 15.7 8.65 10.25 5.85 7.45 4.45 3.9 2.5 1.9 1.5 0 0 0.3 0.7 1.1 1.4 2.35 2.3 3.9 2.75 4.55 2.95 4.8 3.5 5.2 4.3 6.75 5.15 8.2 5.95 10.05 6.9 11.35 7.55 12.7 7.7 14 7.85 14.55 8.1 14.95 8.3 16.55 9.15 18.4 10.15 20.45 10.15 Z"/>
</g>

<g id="scr1_boat_1_svg_Assets_Layer_1__Path__20_0_Layer0_0_FILL">
<path fill="#1791DC" stroke="none" d="
M 10.65 4.35
Q 10.55 4.25 10.35 3.4 10.25 2.75 9.3 2.55 7.95 2.3 7.7 2.2 7.25 2.05 6.85 1.6 6.65 1.4 6.7 0.9 6.75 0.6 5.8 0.6 5.65 0.35 5.5 0.15 5.25 -0.2 4.65 0.2 4.15 0.6 4.7 0.8 4.9 0.85 4.25 0.9 3.25 1.3 2.1 1.4 1.3 1.45 1.55 1.6 2.1 1.95 2.15 2.1 2.25 2.35 2.55 2.5 2.6 2.6 1.8 2.75 0.35 3 0.1 3.1 -0.35 3.35 1.7 3.65 3.05 3.85 4.65 3.65 5.5 3.55 6.2 4.25 7.1 5.2 7.8 5.45 8.4 5.65 10.65 5.9 12.35 6.1 12.45 6.25 12.65 6.65 12.75 6.7 13.4 6.9 13.7 6.85 14 6.8 13.6 6.55 12.2 5.85 10.7 5.7 9.65 5.7 9.25 5.65 8.6 5.55 8.65 4.9 8.65 4.7 9.15 3.85 9.3 3.45 8.4 3.05 6.1 2 8.7 2.9 10.2 3.35 10.2 4.2 10.2 5 11.05 5.05 11.5 5.05 12.05 5 14.2 5.85 13.3 4.9 12.55 4.2 12.2 4.05 11.8 3.85 11.4 4.1
L 11.05 4.55
Q 11 4.65 10.65 4.35 Z"/>
</g>

<g id="scr1_boat_1_svg_0_Layer0_0_MEMBER_25_FILL">
<path fill="#82E4FF" stroke="none" d="
M 30.65 28.95
Q 32 29.75 32.3 29.65 32.7 29.55 31.95 29.35 31.6 29.25 31.45 29 31.4 28.9 31.3 28.35 31.25 28 31 27.8 30.6 27.55 30.3 27.35 29.4 26.95 28.45 27 28.25 26.7 27.75 26.9 27.25 27.05 27.9 27.6 28.45 28 28.7 27.9 29.3 27.65 29.9 27.6 30.4 27.55 30.4 27.6 30.25 27.65 30.1 27.75 29.5 28.25 30.65 28.95 Z"/>
</g>

<g id="scr1_boat_1_svg_0_Layer0_0_MEMBER_26_FILL">
<path fill="#82E4FF" stroke="none" d="
M 24.55 26.2
Q 23.5 27.15 19.25 25.7
L 10.5 21.55
Q 11.75 22.65 13.25 23.6 13.85 23.9 15.65 24.55 17.6 25.3 17.9 25.35 19.55 25.95 20.9 26.6 23.3 27.3 24.15 26.85 24.6 26.6 24.55 26.2 Z"/>
</g>

<g id="scr1_boat_1_svg_0_Layer0_0_MEMBER_27_FILL">
<path fill="#AEC6DA" stroke="none" d="
M 10 17
L 18.35 21.55 18.35 17.95 10 12.9 10 17 Z"/>
</g>

<g id="scr1_boat_1_svg_0_Layer0_0_MEMBER_28_FILL">
<path fill="#FFFFFF" stroke="none" d="
M 10 12.9
L 18.35 17.95 22.65 14.75 14.1 10 10 12.9 Z"/>
</g>

<g id="scr1_boat_1_svg_0_Layer0_0_MEMBER_29_FILL">
<path fill="#839FBB" stroke="none" d="
M 22.65 14.75
L 18.35 17.95 18.35 21.55 22.65 18.35 22.65 14.75 Z"/>
</g>

<g id="scr1_boat_1_svg_0_Layer0_0_MEMBER_30_FILL">
<path fill="#839FBB" stroke="none" d="
M 15.45 12
L 13.6 13.3 15.55 14.5 17.25 13.15 15.45 12 Z"/>
</g>

<g id="scr1_boat_1_svg_0_Layer0_0_MEMBER_31_FILL">
<path fill="#F2F7FC" stroke="none" d="
M 15.45 10.1
L 13.6 11.45 15.55 12.6 17.25 11.3 15.45 10.1 Z"/>
</g>

<g id="scr1_boat_1_svg_0_Layer0_0_MEMBER_32_FILL">
<path fill="#AEC6DA" stroke="none" d="
M 15.55 12.6
L 13.6 11.45 13.6 13.3 15.55 14.5 15.55 12.6 Z"/>
</g>

<g id="scr1_boat_1_svg_0_Layer0_0_MEMBER_33_FILL">
<path fill="#839FBB" stroke="none" d="
M 15.55 14.5
L 17.25 13.15 17.25 11.3 15.55 12.6 15.55 14.5 Z"/>
</g>

<g id="scr1_boat_1_svg_0_Layer0_0_MEMBER_38_FILL">
<path fill="#EFE3DA" stroke="none" d="
M 6.25 9.3
L 6.75 9.45 13.6 5.1 13.2 4.9 6.25 9.3 Z"/>
</g>

<g id="scr1_boat_1_svg_0_Layer0_0_MEMBER_39_FILL">
<path fill="#D1B29D" stroke="none" d="
M 13.6 5.1
L 6.75 9.45 6.8 10.55 13.6 6.25 13.6 5.1 Z"/>
</g>

<g id="scr1_boat_1_svg_0_Layer0_0_MEMBER_40_FILL">
<path fill="#E0D3CA" stroke="none" d="
M 6.25 9.3
L 6.3 10.4 6.8 10.55 6.75 9.45 6.25 9.3 Z"/>
</g>

<g id="scr1_boat_1_svg_0_Layer0_0_MEMBER_41_FILL">
<path fill="#EFE3DA" stroke="none" d="
M 6.75 9.45
L 7.25 9.6 14.1 5.25 13.7 5.1 6.75 9.45 Z"/>
</g>

<g id="scr1_boat_1_svg_0_Layer0_0_MEMBER_42_FILL">
<path fill="#D1B29D" stroke="none" d="
M 14.1 5.25
L 7.25 9.6 7.3 10.75 14.1 6.45 14.1 5.25 Z"/>
</g>

<g id="scr1_boat_1_svg_0_Layer0_0_MEMBER_43_FILL">
<path fill="#E0D3CA" stroke="none" d="
M 6.75 9.45
L 6.8 10.6 7.3 10.75 7.25 9.6 6.75 9.45 Z"/>
</g>

<path id="scr1_boat_1_svg_0_Layer0_0_MEMBER_21_1_STROKES" stroke="#FFFFFF" stroke-width="0.25" stroke-linejoin="miter" stroke-linecap="butt" stroke-miterlimit="10" fill="none" d="
M 1.35 14.55
Q 2.65 16.55 4.6 17.75 8.6 20.15 18.5 24.85 20.95 26.2 23.7 25.95
L 27.5 23.1"/>

<path id="scr1_boat_1_svg_0_Layer0_0_MEMBER_34_1_STROKES" stroke="#333F49" stroke-width="0.25" stroke-linejoin="miter" stroke-linecap="butt" stroke-miterlimit="10" fill="none" d="
M 15.025 8.625
L 16.1 9.8 15 10.5 16.25 11.25 15.45 2.35 15.275 4.95 15.75 5.9 15.15 6.725 15.15 6.85 15.95 8 15.025 8.575 15.025 8.625 15 8.6 15.025 8.575 15.15 6.85 15.1 6.8 15.15 6.725 15.275 4.95
M 15.025 8.625
L 14.8 11.3"/>

<path id="scr1_boat_1_svg_0_Layer0_0_MEMBER_35_1_STROKES" stroke="#333F49" stroke-width="0.25" stroke-linejoin="miter" stroke-linecap="butt" stroke-miterlimit="10" fill="none" d="
M 15.6 4.15
L 8.75 0.1 15.7 5.3"/>

<path id="scr1_boat_1_svg_0_Layer0_0_MEMBER_36_1_STROKES" stroke="#333F49" stroke-width="0.25" stroke-linejoin="miter" stroke-linecap="butt" stroke-miterlimit="10" fill="none" d="
M 11.1 1.5
L 11.55 2.2 12.25 2.2 12.6 3 13.6 3 13.6 3.75 14.9 3.75 15.25 4.9"/>

<path id="scr1_boat_1_svg_0_Layer0_0_MEMBER_37_1_STROKES" stroke="#57636B" stroke-width="0.1" stroke-linejoin="miter" stroke-linecap="butt" stroke-miterlimit="10" fill="none" d="
M 9.05 0.35
Q 10.15 3.15 10.55 6.35"/>

<path id="scr1_boat_1_svg_0_Layer0_0_MEMBER_44_1_STROKES" stroke="#57636B" stroke-width="0.1" stroke-linejoin="miter" stroke-linecap="butt" stroke-miterlimit="10" fill="none" d="
M 11 8.45
Q 11.2251953125 7.4591796875 10.8 6.55
L 10.7 6.5
Q 10.6 6.5 10.55 6.4 10.5 6.35 10.55 6.25
L 10.7 6.35
Q 10.7546875 6.44921875 10.8 6.55"/>
</defs>

<g transform="matrix( 1, 0, 0, 1, 821.65,496.95) ">
<g transform="matrix( 1, 0, 0, 1, 0,0) ">
<use xlink:href="#scr1_boat_1_svg_0_Layer0_0_MEMBER_0_FILL"/>
</g>

<g transform="matrix( 1, 0, 0, 1, 0,0) ">
<use xlink:href="#scr1_boat_1_svg_0_Layer0_0_MEMBER_1_FILL"/>
</g>

<g transform="matrix( 1, 0, 0, 1, 0,0) ">
<use xlink:href="#scr1_boat_1_svg_0_Layer0_0_MEMBER_2_FILL"/>
</g>

<g transform="matrix( 1, 0, 0, 1, 0,0) ">
<use xlink:href="#scr1_boat_1_svg_0_Layer0_0_MEMBER_3_FILL"/>
</g>

<g transform="matrix( 1, 0, 0, 1, 0,0) ">
<use xlink:href="#scr1_boat_1_svg_0_Layer0_0_MEMBER_4_FILL"/>
</g>

<g transform="matrix( 1, 0, 0, 1, 0,0) ">
<use xlink:href="#scr1_boat_1_svg_0_Layer0_0_MEMBER_5_FILL"/>
</g>

<g transform="matrix( 1, 0, 0, 1, 0,0) ">
<use xlink:href="#scr1_boat_1_svg_0_Layer0_0_MEMBER_6_FILL"/>
</g>

<g transform="matrix( 1, 0, 0, 1, 0,0) ">
<use xlink:href="#scr1_boat_1_svg_0_Layer0_0_MEMBER_7_FILL"/>
</g>

<g transform="matrix( 1, 0, 0, 1, 0,0) ">
<use xlink:href="#scr1_boat_1_svg_0_Layer0_0_MEMBER_8_FILL"/>
</g>

<g transform="matrix( 1, 0, 0, 1, 0,0) ">
<use xlink:href="#scr1_boat_1_svg_0_Layer0_0_MEMBER_9_FILL"/>
</g>

<g transform="matrix( 1, 0, 0, 1, 0,0) ">
<use xlink:href="#scr1_boat_1_svg_0_Layer0_0_MEMBER_10_FILL"/>
</g>

<g transform="matrix( 1, 0, 0, 1, 0,0) ">
<use xlink:href="#scr1_boat_1_svg_0_Layer0_0_MEMBER_11_FILL"/>
</g>

<g transform="matrix( 1, 0, 0, 1, 0,0) ">
<use xlink:href="#scr1_boat_1_svg_0_Layer0_0_MEMBER_12_FILL"/>
</g>

<g transform="matrix( 1, 0, 0, 1, 0,0) ">
<use xlink:href="#scr1_boat_1_svg_0_Layer0_0_MEMBER_13_FILL"/>
</g>

<g transform="matrix( 1, 0, 0, 1, 0,0) ">
<use xlink:href="#scr1_boat_1_svg_0_Layer0_0_MEMBER_14_FILL"/>
</g>

<g transform="matrix( 1, 0, 0, 1, 0,0) ">
<use xlink:href="#scr1_boat_1_svg_0_Layer0_0_MEMBER_15_FILL"/>
</g>

<g transform="matrix( 1, 0, 0, 1, 0,0) ">
<use xlink:href="#scr1_boat_1_svg_0_Layer0_0_MEMBER_16_FILL"/>
</g>

<g transform="matrix( 1, 0, 0, 1, 0,0) ">
<use xlink:href="#scr1_boat_1_svg_0_Layer0_0_MEMBER_17_FILL"/>
</g>

<g transform="matrix( 1, 0, 0, 1, 0,0) ">
<use xlink:href="#scr1_boat_1_svg_0_Layer0_0_MEMBER_18_FILL"/>
</g>

<g transform="matrix( 1, 0, 0, 1, 0,0) ">
<use xlink:href="#scr1_boat_1_svg_0_Layer0_0_MEMBER_19_FILL"/>
</g>

<g transform="matrix( 1, 0, 0, 1, 0,0) ">
<use xlink:href="#scr1_boat_1_svg_0_Layer0_0_MEMBER_20_FILL"/>
</g>

<g transform="matrix( 1, 0, 0, 1, 0,0) ">
<use xlink:href="#scr1_boat_1_svg_0_Layer0_0_MEMBER_21_1_STROKES"/>
</g>

<g transform="matrix( 1, 0, 0, 1, 0,0) ">
<use xlink:href="#scr1_boat_1_svg_0_Layer0_0_MEMBER_22_FILL"/>
</g>

<g transform="matrix( 1, 0, 0, 1, 3.6,17.5) ">
<g transform="matrix( 1, 0, 0, 1, 0,0) ">
<use filter="url(#Filter_1)" xlink:href="#scr1_boat_1_svg_Assets_Layer_1__Path__21_0_Layer0_0_FILL"/>
</g>
</g>

<g transform="matrix( 1, 0, 0, 1, 24.35,25.1) ">
<g transform="matrix( 1, 0, 0, 1, 0,0) ">
<use filter="url(#Filter_1)" xlink:href="#scr1_boat_1_svg_Assets_Layer_1__Path__20_0_Layer0_0_FILL"/>
</g>
</g>

<g transform="matrix( 1, 0, 0, 1, 0,0) ">
<use xlink:href="#scr1_boat_1_svg_0_Layer0_0_MEMBER_25_FILL"/>
</g>

<g transform="matrix( 1, 0, 0, 1, 0,0) ">
<use xlink:href="#scr1_boat_1_svg_0_Layer0_0_MEMBER_26_FILL"/>
</g>

<g transform="matrix( 1, 0, 0, 1, 0,0) ">
<use xlink:href="#scr1_boat_1_svg_0_Layer0_0_MEMBER_27_FILL"/>
</g>

<g transform="matrix( 1, 0, 0, 1, 0,0) ">
<use xlink:href="#scr1_boat_1_svg_0_Layer0_0_MEMBER_28_FILL"/>
</g>

<g transform="matrix( 1, 0, 0, 1, 0,0) ">
<use xlink:href="#scr1_boat_1_svg_0_Layer0_0_MEMBER_29_FILL"/>
</g>

<g transform="matrix( 1, 0, 0, 1, 0,0) ">
<use xlink:href="#scr1_boat_1_svg_0_Layer0_0_MEMBER_30_FILL"/>
</g>

<g transform="matrix( 1, 0, 0, 1, 0,0) ">
<use xlink:href="#scr1_boat_1_svg_0_Layer0_0_MEMBER_31_FILL"/>
</g>

<g transform="matrix( 1, 0, 0, 1, 0,0) ">
<use xlink:href="#scr1_boat_1_svg_0_Layer0_0_MEMBER_32_FILL"/>
</g>

<g transform="matrix( 1, 0, 0, 1, 0,0) ">
<use xlink:href="#scr1_boat_1_svg_0_Layer0_0_MEMBER_33_FILL"/>
</g>

<g transform="matrix( 1, 0, 0, 1, 0,0) ">
<use xlink:href="#scr1_boat_1_svg_0_Layer0_0_MEMBER_34_1_STROKES"/>
</g>

<g transform="matrix( 1, 0, 0, 1, 0,0) ">
<use xlink:href="#scr1_boat_1_svg_0_Layer0_0_MEMBER_35_1_STROKES"/>
</g>

<g transform="matrix( 1, 0, 0, 1, 0,0) ">
<use xlink:href="#scr1_boat_1_svg_0_Layer0_0_MEMBER_36_1_STROKES"/>
</g>

<g transform="matrix( 1, 0, 0, 1, 0,0) ">
<use xlink:href="#scr1_boat_1_svg_0_Layer0_0_MEMBER_37_1_STROKES"/>
</g>

<g transform="matrix( 1, 0, 0, 1, 0,0) ">
<use xlink:href="#scr1_boat_1_svg_0_Layer0_0_MEMBER_38_FILL"/>
</g>

<g transform="matrix( 1, 0, 0, 1, 0,0) ">
<use xlink:href="#scr1_boat_1_svg_0_Layer0_0_MEMBER_39_FILL"/>
</g>

<g transform="matrix( 1, 0, 0, 1, 0,0) ">
<use xlink:href="#scr1_boat_1_svg_0_Layer0_0_MEMBER_40_FILL"/>
</g>

<g transform="matrix( 1, 0, 0, 1, 0,0) ">
<use xlink:href="#scr1_boat_1_svg_0_Layer0_0_MEMBER_41_FILL"/>
</g>

<g transform="matrix( 1, 0, 0, 1, 0,0) ">
<use xlink:href="#scr1_boat_1_svg_0_Layer0_0_MEMBER_42_FILL"/>
</g>

<g transform="matrix( 1, 0, 0, 1, 0,0) ">
<use xlink:href="#scr1_boat_1_svg_0_Layer0_0_MEMBER_43_FILL"/>
</g>

<g transform="matrix( 1, 0, 0, 1, 0,0) ">
<use xlink:href="#scr1_boat_1_svg_0_Layer0_0_MEMBER_44_1_STROKES"/>
</g>
</g>
</svg>
