
<svg xmlns="http://www.w3.org/2000/svg" version="1.1" xmlns:xlink="http://www.w3.org/1999/xlink" preserveAspectRatio="none" x="0px" y="0px" width="91px" height="54px" viewBox="0 0 91 54">
<defs>
<g id="scr1_left_windmill_svg_0_Layer0_0_FILL">
<path fill="#FAFAF7" stroke="none" d="
M 26.55 23.15
L 28.15 23.9 38.25 2.1 32.2 0 26.55 23.15 Z"/>
</g>

<g id="scr1_left_windmill_svg_0_Layer0_1_FILL">
<path fill="#FAFAF7" stroke="none" d="
M 52.1 17.95
L 49.4 12.15 28.9 24.4 29.5 26.05 52.1 17.95 Z"/>
</g>

<g id="scr1_left_windmill_svg_0_Layer0_2_FILL">
<path fill="#FAFAF7" stroke="none" d="
M 50.55 38.95
L 52.75 32.9 29.65 26.9 28.9 28.5 50.55 38.95 Z"/>
</g>

<g id="scr1_left_windmill_svg_0_Layer0_3_FILL">
<path fill="#FAFAF7" stroke="none" d="
M 28.4 29.25
L 26.75 29.8 34.5 52.55 40.3 49.9 28.4 29.25 Z"/>
</g>

<g id="scr1_left_windmill_svg_0_Layer0_4_FILL">
<path fill="#FAFAF7" stroke="none" d="
M 25.85 29.95
L 24.25 29.2 13.5 50.65 19.5 52.95 25.85 29.95 Z"/>
</g>

<g id="scr1_left_windmill_svg_0_Layer0_5_FILL">
<path fill="#FAFAF7" stroke="none" d="
M 23.55 28.65
L 23 27 0.15 34.4 2.7 40.25 23.55 28.65 Z"/>
</g>

<g id="scr1_left_windmill_svg_0_Layer0_6_FILL">
<path fill="#FAFAF7" stroke="none" d="
M 22.85 26.1
L 23.7 24.55 2.4 13.45 0 19.4 22.85 26.1 Z"/>
</g>

<g id="scr1_left_windmill_svg_0_Layer0_7_FILL">
<path fill="#FAFAF7" stroke="none" d="
M 24.2 23.85
L 25.9 23.3 18.85 0.35 12.95 2.8 24.2 23.85 Z"/>
</g>

<g id="scr1_left_windmill_svg_0_Layer0_8_FILL">
<path fill="#C43734" stroke="none" d="
M 26.15 22.85
Q 24.7 22.85 23.7 23.85 22.65 24.9 22.65 26.35 22.65 27.8 23.7 28.85 24.7 29.85 26.15 29.85 27.6 29.85 28.65 28.85 29.7 27.8 29.7 26.35 29.7 24.9 28.65 23.85 27.6 22.85 26.15 22.85 Z"/>
</g>
</defs>

<g transform="matrix( 0.9007415771484375, -0.434295654296875, 0.434295654296875, 0.9007415771484375, 29.75,15.6) ">
<g transform="matrix( 1, 0, 0, 1, 0,0) ">
<use xlink:href="#scr1_left_windmill_svg_0_Layer0_0_FILL"/>
</g>

<g transform="matrix( 1, 0, 0, 1, 0,0) ">
<use xlink:href="#scr1_left_windmill_svg_0_Layer0_1_FILL"/>
</g>

<g transform="matrix( 1, 0, 0, 1, 0,0) ">
<use xlink:href="#scr1_left_windmill_svg_0_Layer0_2_FILL"/>
</g>

<g transform="matrix( 1, 0, 0, 1, 0,0) ">
<use xlink:href="#scr1_left_windmill_svg_0_Layer0_3_FILL"/>
</g>

<g transform="matrix( 1, 0, 0, 1, 0,0) ">
<use xlink:href="#scr1_left_windmill_svg_0_Layer0_4_FILL"/>
</g>

<g transform="matrix( 1, 0, 0, 1, 0,0) ">
<use xlink:href="#scr1_left_windmill_svg_0_Layer0_5_FILL"/>
</g>

<g transform="matrix( 1, 0, 0, 1, 0,0) ">
<use xlink:href="#scr1_left_windmill_svg_0_Layer0_6_FILL"/>
</g>

<g transform="matrix( 1, 0, 0, 1, 0,0) ">
<use xlink:href="#scr1_left_windmill_svg_0_Layer0_7_FILL"/>
</g>

<g transform="matrix( 1, 0, 0, 1, 0,0) ">
<use xlink:href="#scr1_left_windmill_svg_0_Layer0_8_FILL"/>
</g>
</g>
</svg>
