
<svg xmlns="http://www.w3.org/2000/svg" version="1.1" xmlns:xlink="http://www.w3.org/1999/xlink" preserveAspectRatio="none" x="0px" y="0px" width="1920px" height="480px" viewBox="0 0 1920 480">
<defs>
<image id="cloud_3_png" x="0" y="0" width="1022" height="437" xlink:href="./images/cloud_3_png.png"/>

<image id="cloud_2_png" x="0" y="0" width="362" height="148" xlink:href="./images/cloud_2_png.png"/>

<image id="cloud_1_png" x="0" y="0" width="484" height="208" xlink:href="./images/cloud_1_png.png"/>

<filter id="Filter_1" x="-20%" y="-20%" width="140%" height="140%" color-interpolation-filters="sRGB">
<feColorMatrix in="SourceGraphic" type="matrix" values="1 0 0 0 0 0 1 0 0 0 0 0 1 0 0 0 0 0 0.51 0" result="result1"/>
</filter>
</defs>

<g transform="matrix( 1.532196044921875, 0, 0, 0.588104248046875, 645.15,-257.6) ">
<g transform="matrix( 1, 0, 0, 1, 0,0) " filter="url(#Filter_1)">
<use xlink:href="#cloud_3_png"/>
</g>
</g>

<g transform="matrix( 1, 0, 0, 1, 59.25,195.6) ">
<g transform="matrix( 1, 0, 0, 1, -424.7,47.65) ">
<g transform="matrix( 1, 0, 0, 1, 0,0) ">
<use xlink:href="#cloud_2_png"/>
</g>
</g>

<g transform="matrix( 1, 0, 0, 1, -59.25,-195.6) ">
<g transform="matrix( 1, 0, 0, 1, 0,0) ">
<use xlink:href="#cloud_1_png"/>
</g>
</g>
</g>
</svg>
