
<svg xmlns="http://www.w3.org/2000/svg" version="1.1" xmlns:xlink="http://www.w3.org/1999/xlink" preserveAspectRatio="none" x="0px" y="0px" width="1944px" height="560px" viewBox="0 0 1944 560">
<defs>
<linearGradient id="Gradient_1" gradientUnits="userSpaceOnUse" x1="0" y1="13.45" x2="274.7" y2="13.45" spreadMethod="pad">
<stop  offset="0%" stop-color="#000000" stop-opacity="0.47843137254901963"/>

<stop  offset="100%" stop-color="#000000" stop-opacity="0.2"/>
</linearGradient>

<linearGradient id="Gradient_2" gradientUnits="userSpaceOnUse" x1="1106.25" y1="106.16250000000001" x2="1106.25" y2="131.13750000000002" spreadMethod="pad">
<stop  offset="34.509803921568626%" stop-color="#FFFFFF"/>

<stop  offset="56.470588235294116%" stop-color="#FDFDFD"/>

<stop  offset="65.49019607843137%" stop-color="#F6F6F6"/>

<stop  offset="72.15686274509804%" stop-color="#EAEAEA"/>

<stop  offset="77.25490196078431%" stop-color="#D8D8D8"/>

<stop  offset="81.96078431372548%" stop-color="#C1C1C1"/>

<stop  offset="86.27450980392157%" stop-color="#A5A5A5"/>

<stop  offset="90.19607843137256%" stop-color="#848484"/>

<stop  offset="93.72549019607843%" stop-color="#5D5D5D"/>

<stop  offset="96.86274509803921%" stop-color="#323232"/>

<stop  offset="100%" stop-color="#030303"/>

<stop  offset="100%" stop-color="#000000"/>
</linearGradient>

<linearGradient id="Gradient_3" gradientUnits="userSpaceOnUse" x1="1075.35" y1="84.4625" x2="1075.35" y2="160.8375" spreadMethod="pad">
<stop  offset="34.509803921568626%" stop-color="#FFFFFF"/>

<stop  offset="56.470588235294116%" stop-color="#FDFDFD"/>

<stop  offset="65.49019607843137%" stop-color="#F6F6F6"/>

<stop  offset="72.15686274509804%" stop-color="#EAEAEA"/>

<stop  offset="77.25490196078431%" stop-color="#D8D8D8"/>

<stop  offset="81.96078431372548%" stop-color="#C1C1C1"/>

<stop  offset="86.27450980392157%" stop-color="#A5A5A5"/>

<stop  offset="90.19607843137256%" stop-color="#848484"/>

<stop  offset="93.72549019607843%" stop-color="#5D5D5D"/>

<stop  offset="96.86274509803921%" stop-color="#323232"/>

<stop  offset="100%" stop-color="#030303"/>

<stop  offset="100%" stop-color="#000000"/>
</linearGradient>

<linearGradient id="Gradient_4" gradientUnits="userSpaceOnUse" x1="1017.7250000000001" y1="185.3625" x2="1060.575" y2="134.4375" spreadMethod="pad">
<stop  offset="12.549019607843137%" stop-color="#FFFFFF"/>

<stop  offset="36.07843137254902%" stop-color="#FDFDFD"/>

<stop  offset="45.490196078431374%" stop-color="#F6F6F6"/>

<stop  offset="52.549019607843135%" stop-color="#EAEAEA"/>

<stop  offset="58.431372549019606%" stop-color="#D8D8D8"/>

<stop  offset="63.13725490196079%" stop-color="#C1C1C1"/>

<stop  offset="67.84313725490196%" stop-color="#A5A5A5"/>

<stop  offset="71.76470588235294%" stop-color="#848484"/>

<stop  offset="75.68627450980392%" stop-color="#5D5D5D"/>

<stop  offset="78.82352941176471%" stop-color="#323232"/>

<stop  offset="82.3529411764706%" stop-color="#030303"/>

<stop  offset="82.3529411764706%" stop-color="#000000"/>
</linearGradient>

<linearGradient id="Gradient_5" gradientUnits="userSpaceOnUse" x1="1029.025" y1="157.7375" x2="1016.875" y2="158.5625" spreadMethod="pad">
<stop  offset="2.3529411764705883%" stop-color="#FFFFFF"/>

<stop  offset="34.90196078431372%" stop-color="#FDFDFD"/>

<stop  offset="48.23529411764706%" stop-color="#F6F6F6"/>

<stop  offset="58.03921568627451%" stop-color="#EAEAEA"/>

<stop  offset="66.27450980392157%" stop-color="#D8D8D8"/>

<stop  offset="73.33333333333333%" stop-color="#C1C1C1"/>

<stop  offset="79.6078431372549%" stop-color="#A5A5A5"/>

<stop  offset="85.09803921568627%" stop-color="#848484"/>

<stop  offset="90.58823529411765%" stop-color="#5D5D5D"/>

<stop  offset="95.29411764705883%" stop-color="#323232"/>

<stop  offset="99.6078431372549%" stop-color="#030303"/>

<stop  offset="100%" stop-color="#000000"/>
</linearGradient>

<linearGradient id="Gradient_6" gradientUnits="userSpaceOnUse" x1="36.6375" y1="38.35" x2="112.7625" y2="38.35" spreadMethod="pad">
<stop  offset="0%" stop-color="#6D6E70" stop-opacity="0"/>

<stop  offset="30.58823529411765%" stop-color="#616264" stop-opacity="0.3411764705882353"/>

<stop  offset="34.90196078431372%" stop-color="#565758" stop-opacity="0.41568627450980394"/>

<stop  offset="52.15686274509804%" stop-color="#313132" stop-opacity="0.6666666666666666"/>

<stop  offset="67.84313725490196%" stop-color="#161617" stop-opacity="0.8509803921568627"/>

<stop  offset="81.96078431372548%" stop-color="#060606" stop-opacity="0.9607843137254902"/>

<stop  offset="92.15686274509804%" stop-color="#000000"/>
</linearGradient>

<linearGradient id="Gradient_7" gradientUnits="userSpaceOnUse" x1="36.98749999999999" y1="30.65" x2="111.2125" y2="30.65" spreadMethod="pad">
<stop  offset="0%" stop-color="#AB2D35"/>

<stop  offset="16.07843137254902%" stop-color="#AC3444"/>

<stop  offset="43.529411764705884%" stop-color="#AC3C58"/>

<stop  offset="71.37254901960785%" stop-color="#AD4163"/>

<stop  offset="100%" stop-color="#AD4367"/>
</linearGradient>

<linearGradient id="Gradient_8" gradientUnits="userSpaceOnUse" x1="36.93749999999999" y1="22.9" x2="111.26249999999999" y2="22.9" spreadMethod="pad">
<stop  offset="0%" stop-color="#AB2D35"/>

<stop  offset="16.07843137254902%" stop-color="#AC3444"/>

<stop  offset="43.529411764705884%" stop-color="#AC3C58"/>

<stop  offset="71.37254901960785%" stop-color="#AD4163"/>

<stop  offset="100%" stop-color="#AD4367"/>
</linearGradient>

<filter id="Filter_1" x="-20%" y="-20%" width="140%" height="140%" color-interpolation-filters="sRGB">
<feColorMatrix in="SourceGraphic" type="matrix" values="1 0 0 0 0 0 1 0 0 0 0 0 1 0 0 0 0 0 0.5 0" result="result1"/>
</filter>

<filter id="Filter_2" x="-20%" y="-20%" width="140%" height="140%" color-interpolation-filters="sRGB">
<feColorMatrix in="SourceGraphic" type="matrix" values="1 0 0 0 0 0 1 0 0 0 0 0 1 0 0 0 0 0 0.58 0" result="result1"/>
</filter>
</defs>

<mask id="Mask_Mask_1">
<g transform="matrix( 1, 0, 0, 1, 0,0) ">
<g>
<g>
<path fill="#FFFFFF" stroke="none" d="
M 1817.5 258.25
L 1941 83.75 1339.75 250.15 283.8 351.6 254.65 340.95 433.9 443.95 1481.2 444.4 1817.5 258.25 Z"/>
</g>
</g>
</g>
</mask>

<g id="shdw1" mask="url(#Mask_Mask_1)">
<g transform="matrix( 0.9996795654296875, 0, 0, 0.9996795654296875, 279.45,415.75) ">
<g id="Layer_1">
<g transform="matrix( 1, 0, 0, 1, 0,0) ">
<g>
<g>
<path fill="url(#Gradient_1)" stroke="none" d="
M 148.9 -8.95
L 135.45 -7.45 117.45 4.65 111.8 4.5
Q 111.2 3.85 110.25 3.1 108.3 1.7 106.4 1.5 102.55 1.1 89.95 1.5 75.7 1.95 75.3 3.3 74.95 4.6 71.95 5.15
L 69.05 5.4 21.2 3.9
Q 15.9 3.65 10.6 4 0 4.65 0 7.45 0 10.65 7.25 13.5 14.1 16.15 20.6 16.15
L 71.45 16.15 71.95 17.95
Q 72.85 19.75 74.7 19.75 89 19.75 97.15 19.45 117.15 18.7 116.25 16.45
L 114.2 13.45 134.2 26.9 143.5 26.9 132.15 12.55 243 12.25 258.85 19.15 269.3 18.55 255.55 10.15 274.7 9.25 254.95 5.4 256.15 1.8 249 1.2 243 6.85 131.2 5 148.9 -8.95 Z"/>
</g>
</g>
</g>
</g>
</g>
</g>

<g id="plane_1" mask="url(#Mask_Mask_1)">
<g transform="matrix( 0.9932708740234375, -0.109619140625, 0.109619140625, 0.9932708740234375, 268.5,341.5) ">
<g id="plane">
<g transform="matrix( 0.9932861328125, 0.1097259521484375, -0.1097259521484375, 0.9932861328125, 9.85,0) ">
<g id="Layer_1">
<g transform="matrix( 1, 0, 0, 1, -936.65,-78.65) ">
<g>
<g>
<path fill="#B8BECB" stroke="none" d="
M 1097.1 128.6
Q 1107 129 1110.35 127.85 1113.85 126.65 1117.25 123.65 1119.75 121.5 1120.75 119.9 1121.5 118.7 1126 104.15
L 1125.35 103.25 1122.4 103.7
Q 1117.75 111.85 1114.2 115.95 1113.2 117 1110.5 119.3 1109.3 120.35 1091.1 126.5
L 1087.9 128 1097.1 128.6 Z"/>
</g>
</g>
</g>

<g transform="matrix( 1, 0, 0, 1, -936.65,-78.65) ">
<g>
<g>
<path fill="url(#Gradient_2)" stroke="none" d="
M 1096.35 128.15
Q 1106.25 128.55 1109.6 127.4 1113.1 126.2 1116.5 123.2 1119.05 121 1119.95 119.45 1120.75 118.25 1125.3 103.25
L 1121.65 103.25
Q 1117 111.35 1113.4 115.45 1113.15 115.75 1109.75 118.85 1108.5 119.9 1090.35 126
L 1087.15 127.55 1096.35 128.15 Z"/>
</g>
</g>
</g>

<g transform="matrix( 1, 0, 0, 1, -936.65,-78.65) ">
<g>
<path stroke="#858585" stroke-width="0.95" stroke-linejoin="miter" stroke-linecap="butt" stroke-miterlimit="10" fill="none" d="
M 966.8 158.55
L 966.8 149.3"/>
</g>
</g>

<g transform="matrix( 1, 0, 0, 1, -936.65,-78.65) ">
<g>
<g>
<path fill="#0B0B0B" stroke="none" d="
M 970.2 157.95
Q 970.2 156.65 969.3 155.7 968.35 154.8 967.05 154.8 965.75 154.8 964.8 155.7 963.85 156.65 963.85 157.95 963.85 159.25 964.8 160.2 965.75 161.1 967.05 161.1 968.35 161.1 969.3 160.2 970.2 159.25 970.2 157.95 Z"/>
</g>
</g>
</g>

<g transform="matrix( 1, 0, 0, 1, -936.65,-78.65) ">
<g>
<g>
<path fill="#141414" stroke="none" d="
M 969.4 158.4
Q 969.4 157.15 968.55 156.3 967.65 155.45 966.45 155.45 965.2 155.45 964.35 156.3 963.45 157.15 963.45 158.4 963.45 159.65 964.35 160.5 965.2 161.35 966.45 161.35 967.65 161.35 968.55 160.5 969.4 159.65 969.4 158.4 Z"/>
</g>
</g>
</g>

<g transform="matrix( 1, 0, 0, 1, -936.65,-78.65) ">
<g>
<g>
<path fill="#606060" stroke="none" d="
M 968.1 158.4
Q 968.1 157.75 967.6 157.25 967.15 156.75 966.45 156.75 965.75 156.75 965.25 157.25 964.8 157.7 964.8 158.4 964.8 159.1 965.25 159.55 965.75 160.05 966.45 160.05 967.15 160.05 967.6 159.55 968.1 159.1 968.1 158.4 Z"/>
</g>
</g>
</g>

<g transform="matrix( 1, 0, 0, 1, -936.65,-78.65) ">
<g>
<path stroke="#858585" stroke-width="0.95" stroke-linejoin="miter" stroke-linecap="butt" stroke-miterlimit="10" fill="none" d="
M 1117.15 158.65
L 1117.15 149.45"/>
</g>
</g>

<g transform="matrix( 1, 0, 0, 1, -936.65,-78.65) ">
<g>
<g>
<path fill="#0B0B0B" stroke="none" d="
M 1120.55 158.1
Q 1120.55 156.8 1119.6 155.85 1118.65 154.9 1117.35 154.9 1116.05 154.9 1115.1 155.85 1114.2 156.8 1114.2 158.1 1114.2 159.4 1115.1 160.35 1116.05 161.25 1117.35 161.25 1118.65 161.25 1119.6 160.35 1120.55 159.4 1120.55 158.1 Z"/>
</g>
</g>
</g>

<g transform="matrix( 1, 0, 0, 1, -936.65,-78.65) ">
<g>
<g>
<path fill="#141414" stroke="none" d="
M 1119.75 158.55
Q 1119.75 157.3 1118.85 156.45 1118 155.6 1116.75 155.6 1115.55 155.6 1114.7 156.45 1113.8 157.3 1113.8 158.55 1113.8 159.8 1114.7 160.65 1115.55 161.5 1116.75 161.5 1118 161.5 1118.85 160.65 1119.75 159.8 1119.75 158.55 Z"/>
</g>
</g>
</g>

<g transform="matrix( 1, 0, 0, 1, -936.65,-78.65) ">
<g>
<g>
<path fill="#606060" stroke="none" d="
M 1118.4 158.55
Q 1118.4 157.85 1117.95 157.4 1117.45 156.9 1116.75 156.9 1116.1 156.9 1115.6 157.4 1115.1 157.9 1115.1 158.55 1115.1 159.25 1115.6 159.7 1116.1 160.2 1116.75 160.2 1117.45 160.2 1117.95 159.7 1118.4 159.25 1118.4 158.55 Z"/>
</g>
</g>
</g>

<g transform="matrix( 1, 0, 0, 1, -936.65,-78.65) ">
<g>
<path stroke="#858585" stroke-width="0.95" stroke-linejoin="miter" stroke-linecap="butt" stroke-miterlimit="10" fill="none" d="
M 1114.7 159.45
L 1114.7 150.25"/>
</g>
</g>

<g transform="matrix( 1, 0, 0, 1, -936.65,-78.65) ">
<g>
<g>
<path fill="#0B0B0B" stroke="none" d="
M 1118.05 158.9
Q 1118.05 157.6 1117.15 156.65 1116.2 155.7 1114.9 155.7 1113.6 155.7 1112.65 156.65 1111.75 157.6 1111.75 158.9 1111.75 160.2 1112.65 161.15 1113.6 162.05 1114.9 162.05 1116.2 162.05 1117.15 161.15 1118.05 160.2 1118.05 158.9 Z"/>
</g>
</g>
</g>

<g transform="matrix( 1, 0, 0, 1, -936.65,-78.65) ">
<g>
<g>
<path fill="#141414" stroke="none" d="
M 1117.25 159.35
Q 1117.25 158.1 1116.4 157.25 1115.55 156.4 1114.3 156.4 1113.05 156.4 1112.2 157.25 1111.35 158.1 1111.35 159.35 1111.35 160.55 1112.2 161.45 1113.05 162.3 1114.3 162.3 1115.55 162.3 1116.4 161.45 1117.25 160.55 1117.25 159.35 Z"/>
</g>
</g>
</g>

<g transform="matrix( 1, 0, 0, 1, -936.65,-78.65) ">
<g>
<g>
<path fill="#606060" stroke="none" d="
M 1115.95 159.35
Q 1115.95 158.65 1115.45 158.15 1115 157.7 1114.3 157.7 1113.6 157.7 1113.15 158.15 1112.65 158.65 1112.65 159.35 1112.65 160.05 1113.15 160.5 1113.65 161 1114.3 161 1115 161 1115.45 160.5 1115.95 160.05 1115.95 159.35 Z"/>
</g>
</g>
</g>

<g transform="matrix( 1, 0, 0, 1, -936.65,-78.65) ">
<g>
<g>
<path fill="url(#Gradient_3)" stroke="none" d="
M 1214.05 78.8
L 1211.6 78.8 1211.65 78.65 1200.65 78.65 1159.7 121.45
Q 1152.55 124 1141.45 125.25
L 1131.75 125.95 1035.4 123.2
Q 1020.2 122.8 1003.35 122.7 969.7 122.55 961.75 124.15 953.8 125.75 944.9 131.35
L 937.55 136.65
Q 936.45 137.6 936.7 139.7 936.95 141.8 938.35 143.1 940.6 145.2 944.25 147.5 949.45 150.8 954.45 152.35 959.2 153.8 984.1 154.25 996.5 154.5 1008 154.4
L 1121.35 154.9
Q 1124.4 155.5 1134.65 154.15
L 1146 153.95
Q 1159.05 153.25 1167.35 151.05 1176.8 148.55 1185.6 145.6 1193.85 142.85 1194.2 142.2 1194.65 141.45 1214.05 78.8 Z"/>
</g>
</g>
</g>

<g transform="matrix( 1, 0, 0, 1, -936.65,-78.65) ">
<g>
<g>
<path fill="#AD4367" stroke="none" d="
M 1181.4 141.5
Q 1187.8 134.15 1195.75 131.45
L 1155.25 131.35
Q 1152.45 133.4 1149.4 137.25 1143.35 145 1142.35 153.95
L 1153.25 153.35
Q 1166.2 152.05 1176.65 148.35
L 1181.4 141.5 Z"/>
</g>
</g>
</g>

<g transform="matrix( 1, 0, 0, 1, -936.65,-78.65) ">
<g>
<g>
<path fill="url(#Gradient_4)" stroke="none" d="
M 1048.2 148.3
Q 1042.75 147.65 1032.55 147.85 1021.35 148.1 1019.45 149.4 1017.65 150.65 1017.75 157.35 1017.85 160.65 1018.25 163.75
L 1019.3 167.1
Q 1019.85 168.2 1030.05 168.55 1042.75 168.9 1055.05 165.6 1067.4 162.25 1068.9 158.25 1069.85 155.6 1066.8 154 1064.95 152.95 1059.05 151.05 1052.3 148.85 1048.2 148.3 Z"/>
</g>
</g>
</g>

<g transform="matrix( 1, 0, 0, 1, -936.65,-78.65) ">
<g>
<g>
<path fill="#B8BECB" stroke="none" d="
M 1031.7 144.55
L 1031.7 145.2 1080.5 161.7 1094.15 160.1 1069.5 144.8 1031.7 144.55 Z"/>
</g>
</g>
</g>

<g transform="matrix( 1, 0, 0, 1, -936.65,-78.65) ">
<g>
<g>
<path fill="#F6F7F7" stroke="none" d="
M 1081.1 161.25
L 1094.75 159.65 1070.1 144.35 1031.65 144.55 1081.1 161.25 Z"/>
</g>
</g>
</g>

<g transform="matrix( 1, 0, 0, 1, -936.65,-78.65) ">
<g>
<g>
<path fill="#AD4367" stroke="none" d="
M 1101.9 142.75
L 1097.8 142.55 1086.6 156.6
Q 1084.2 159.65 1082.3 161
L 1080.9 161.7
Q 1089.05 162.1 1093.15 161.55 1095.2 161.25 1095.6 160.9
L 1101.9 142.75 Z"/>
</g>
</g>
</g>

<g transform="matrix( 1, 0, 0, 1, -936.65,-78.65) ">
<g>
<g>
<path fill="#595965" stroke="none" d="
M 978.35 140.7
Q 978.65 140.7 978.65 140.35
L 978.65 138.6
Q 978.65 138.25 978.35 138.25
L 975.8 138.25
Q 975.45 138.25 975.45 138.6
L 975.45 140.35
Q 975.45 140.7 975.8 140.7
L 978.35 140.7 Z"/>
</g>
</g>
</g>

<g transform="matrix( 1, 0, 0, 1, -936.65,-78.65) ">
<g>
<g>
<path fill="#595965" stroke="none" d="
M 984.7 140.7
Q 985.05 140.7 985.05 140.35
L 985.05 138.6
Q 985.05 138.25 984.7 138.25
L 982.15 138.25
Q 981.85 138.25 981.85 138.6
L 981.85 140.35
Q 981.85 140.7 982.15 140.7
L 984.7 140.7 Z"/>
</g>
</g>
</g>

<g transform="matrix( 1, 0, 0, 1, -936.65,-78.65) ">
<g>
<g>
<path fill="#595965" stroke="none" d="
M 991.05 140.7
Q 991.4 140.7 991.4 140.35
L 991.4 138.6
Q 991.4 138.25 991.05 138.25
L 988.55 138.25
Q 988.2 138.25 988.2 138.6
L 988.2 140.35
Q 988.2 140.7 988.55 140.7
L 991.05 140.7 Z"/>
</g>
</g>
</g>

<g transform="matrix( 1, 0, 0, 1, -936.65,-78.65) ">
<g>
<g>
<path fill="#595965" stroke="none" d="
M 997.45 140.7
Q 997.75 140.7 997.75 140.35
L 997.75 138.6
Q 997.75 138.25 997.45 138.25
L 994.9 138.25
Q 994.55 138.25 994.55 138.6
L 994.55 140.35
Q 994.55 140.7 994.9 140.7
L 997.45 140.7 Z"/>
</g>
</g>
</g>

<g transform="matrix( 1, 0, 0, 1, -936.65,-78.65) ">
<g>
<g>
<path fill="#595965" stroke="none" d="
M 1003.8 140.7
Q 1004.15 140.7 1004.15 140.35
L 1004.15 138.6
Q 1004.15 138.25 1003.8 138.25
L 1001.25 138.25
Q 1000.95 138.25 1000.95 138.6
L 1000.95 140.35
Q 1000.95 140.7 1001.25 140.7
L 1003.8 140.7 Z"/>
</g>
</g>
</g>

<g transform="matrix( 1, 0, 0, 1, -936.65,-78.65) ">
<g>
<g>
<path fill="#595965" stroke="none" d="
M 1010.15 140.7
Q 1010.5 140.7 1010.5 140.35
L 1010.5 138.6
Q 1010.5 138.25 1010.15 138.25
L 1007.65 138.25
Q 1007.3 138.25 1007.3 138.6
L 1007.3 140.35
Q 1007.3 140.7 1007.65 140.7
L 1010.15 140.7 Z"/>
</g>
</g>
</g>

<g transform="matrix( 1, 0, 0, 1, -936.65,-78.65) ">
<g>
<g>
<path fill="#595965" stroke="none" d="
M 1016.5 140.7
Q 1016.85 140.7 1016.85 140.35
L 1016.85 138.6
Q 1016.85 138.25 1016.5 138.25
L 1014 138.25
Q 1013.65 138.25 1013.65 138.6
L 1013.65 140.35
Q 1013.65 140.7 1014 140.7
L 1016.5 140.7 Z"/>
</g>
</g>
</g>

<g transform="matrix( 1, 0, 0, 1, -936.65,-78.65) ">
<g>
<g>
<path fill="#595965" stroke="none" d="
M 1022.9 140.7
Q 1023.25 140.7 1023.25 140.35
L 1023.25 138.6
Q 1023.25 138.25 1022.9 138.25
L 1020.35 138.25
Q 1020 138.25 1020 138.6
L 1020 140.35
Q 1020 140.7 1020.35 140.7
L 1022.9 140.7 Z"/>
</g>
</g>
</g>

<g transform="matrix( 1, 0, 0, 1, -936.65,-78.65) ">
<g>
<g>
<path fill="#595965" stroke="none" d="
M 1029.25 140.7
Q 1029.6 140.7 1029.6 140.35
L 1029.6 138.6
Q 1029.6 138.25 1029.25 138.25
L 1026.75 138.25
Q 1026.4 138.25 1026.4 138.6
L 1026.4 140.35
Q 1026.4 140.7 1026.75 140.7
L 1029.25 140.7 Z"/>
</g>
</g>
</g>

<g transform="matrix( 1, 0, 0, 1, -936.65,-78.65) ">
<g>
<g>
<path fill="#595965" stroke="none" d="
M 1035.6 140.7
Q 1035.95 140.7 1035.95 140.35
L 1035.95 138.6
Q 1035.95 138.25 1035.6 138.25
L 1033.1 138.25
Q 1032.75 138.25 1032.75 138.6
L 1032.75 140.35
Q 1032.75 140.7 1033.1 140.7
L 1035.6 140.7 Z"/>
</g>
</g>
</g>

<g transform="matrix( 1, 0, 0, 1, -936.65,-78.65) ">
<g>
<g>
<path fill="#595965" stroke="none" d="
M 1042 140.7
Q 1042.3 140.7 1042.3 140.35
L 1042.3 138.6
Q 1042.3 138.25 1042 138.25
L 1039.45 138.25
Q 1039.1 138.25 1039.1 138.6
L 1039.1 140.35
Q 1039.1 140.7 1039.45 140.7
L 1042 140.7 Z"/>
</g>
</g>
</g>

<g transform="matrix( 1, 0, 0, 1, -936.65,-78.65) ">
<g>
<g>
<path fill="#595965" stroke="none" d="
M 1048.35 140.7
Q 1048.7 140.7 1048.7 140.35
L 1048.7 138.6
Q 1048.7 138.25 1048.35 138.25
L 1045.8 138.25
Q 1045.5 138.25 1045.5 138.6
L 1045.5 140.35
Q 1045.5 140.7 1045.8 140.7
L 1048.35 140.7 Z"/>
</g>
</g>
</g>

<g transform="matrix( 1, 0, 0, 1, -936.65,-78.65) ">
<g>
<g>
<path fill="#595965" stroke="none" d="
M 1052.2 138.25
Q 1051.85 138.25 1051.85 138.6
L 1051.85 140.35
Q 1051.85 140.7 1052.2 140.7
L 1054.7 140.7
Q 1055.05 140.7 1055.05 140.35
L 1055.05 138.6
Q 1055.05 138.25 1054.7 138.25
L 1052.2 138.25 Z"/>
</g>
</g>
</g>

<g transform="matrix( 1, 0, 0, 1, -936.65,-78.65) ">
<g>
<g>
<path fill="#595965" stroke="none" d="
M 1061.1 140.7
Q 1061.4 140.7 1061.4 140.35
L 1061.4 138.6
Q 1061.4 138.25 1061.1 138.25
L 1058.55 138.25
Q 1058.2 138.25 1058.2 138.6
L 1058.2 140.35
Q 1058.2 140.7 1058.55 140.7
L 1061.1 140.7 Z"/>
</g>
</g>
</g>

<g transform="matrix( 1, 0, 0, 1, -936.65,-78.65) ">
<g>
<g>
<path fill="#595965" stroke="none" d="
M 1067.45 140.7
Q 1067.8 140.7 1067.8 140.35
L 1067.8 138.6
Q 1067.8 138.25 1067.45 138.25
L 1064.9 138.25
Q 1064.55 138.25 1064.55 138.6
L 1064.55 140.35
Q 1064.55 140.7 1064.9 140.7
L 1067.45 140.7 Z"/>
</g>
</g>
</g>

<g transform="matrix( 1, 0, 0, 1, -936.65,-78.65) ">
<g>
<g>
<path fill="#595965" stroke="none" d="
M 1073.8 140.7
Q 1074.15 140.7 1074.15 140.35
L 1074.15 138.6
Q 1074.15 138.25 1073.8 138.25
L 1071.3 138.25
Q 1070.95 138.25 1070.95 138.6
L 1070.95 140.35
Q 1070.95 140.7 1071.3 140.7
L 1073.8 140.7 Z"/>
</g>
</g>
</g>

<g transform="matrix( 1, 0, 0, 1, -936.65,-78.65) ">
<g>
<g>
<path fill="#595965" stroke="none" d="
M 1080.15 140.7
Q 1080.5 140.7 1080.5 140.35
L 1080.5 138.6
Q 1080.5 138.25 1080.15 138.25
L 1077.65 138.25
Q 1077.3 138.25 1077.3 138.6
L 1077.3 140.35
Q 1077.3 140.7 1077.65 140.7
L 1080.15 140.7 Z"/>
</g>
</g>
</g>

<g transform="matrix( 1, 0, 0, 1, -936.65,-78.65) ">
<g>
<g>
<path fill="#595965" stroke="none" d="
M 1086.55 140.7
Q 1086.9 140.7 1086.9 140.35
L 1086.9 138.6
Q 1086.9 138.25 1086.55 138.25
L 1084 138.25
Q 1083.65 138.25 1083.65 138.6
L 1083.65 140.35
Q 1083.65 140.7 1084 140.7
L 1086.55 140.7 Z"/>
</g>
</g>
</g>

<g transform="matrix( 1, 0, 0, 1, -936.65,-78.65) ">
<g>
<g>
<path fill="#595965" stroke="none" d="
M 1092.9 140.7
Q 1093.25 140.7 1093.25 140.35
L 1093.25 138.6
Q 1093.25 138.25 1092.9 138.25
L 1090.35 138.25
Q 1090.05 138.25 1090.05 138.6
L 1090.05 140.35
Q 1090.05 140.7 1090.35 140.7
L 1092.9 140.7 Z"/>
</g>
</g>
</g>

<g transform="matrix( 1, 0, 0, 1, -936.65,-78.65) ">
<g>
<g>
<path fill="#595965" stroke="none" d="
M 1099.25 140.7
Q 1099.6 140.7 1099.6 140.35
L 1099.6 138.6
Q 1099.6 138.25 1099.25 138.25
L 1096.75 138.25
Q 1096.4 138.25 1096.4 138.6
L 1096.4 140.35
Q 1096.4 140.7 1096.75 140.7
L 1099.25 140.7 Z"/>
</g>
</g>
</g>

<g transform="matrix( 1, 0, 0, 1, -936.65,-78.65) ">
<g>
<g>
<path fill="#595965" stroke="none" d="
M 1105.65 140.7
Q 1105.95 140.7 1105.95 140.35
L 1105.95 138.6
Q 1105.95 138.25 1105.65 138.25
L 1103.1 138.25
Q 1102.75 138.25 1102.75 138.6
L 1102.75 140.35
Q 1102.75 140.7 1103.1 140.7
L 1105.65 140.7 Z"/>
</g>
</g>
</g>

<g transform="matrix( 1, 0, 0, 1, -936.65,-78.65) ">
<g>
<g>
<path fill="#595965" stroke="none" d="
M 1112 140.7
Q 1112.35 140.7 1112.35 140.35
L 1112.35 138.6
Q 1112.35 138.25 1112 138.25
L 1109.45 138.25
Q 1109.15 138.25 1109.15 138.6
L 1109.15 140.35
Q 1109.15 140.7 1109.45 140.7
L 1112 140.7 Z"/>
</g>
</g>
</g>

<g transform="matrix( 1, 0, 0, 1, -936.65,-78.65) ">
<g>
<g>
<path fill="#595965" stroke="none" d="
M 1118.35 140.7
Q 1118.7 140.7 1118.7 140.35
L 1118.7 138.6
Q 1118.7 138.25 1118.35 138.25
L 1115.85 138.25
Q 1115.5 138.25 1115.5 138.6
L 1115.5 140.35
Q 1115.5 140.7 1115.85 140.7
L 1118.35 140.7 Z"/>
</g>
</g>
</g>

<g transform="matrix( 1, 0, 0, 1, -936.65,-78.65) ">
<g>
<g>
<path fill="#595965" stroke="none" d="
M 1124.75 140.7
Q 1125.05 140.7 1125.05 140.35
L 1125.05 138.6
Q 1125.05 138.25 1124.75 138.25
L 1122.2 138.25
Q 1121.85 138.25 1121.85 138.6
L 1121.85 140.35
Q 1121.85 140.7 1122.2 140.7
L 1124.75 140.7 Z"/>
</g>
</g>
</g>

<g transform="matrix( 1, 0, 0, 1, -936.65,-78.65) ">
<g>
<g>
<path fill="#595965" stroke="none" d="
M 1131.1 140.7
Q 1131.45 140.7 1131.45 140.35
L 1131.45 138.6
Q 1131.45 138.25 1131.1 138.25
L 1128.55 138.25
Q 1128.2 138.25 1128.2 138.6
L 1128.2 140.35
Q 1128.2 140.7 1128.55 140.7
L 1131.1 140.7 Z"/>
</g>
</g>
</g>

<g transform="matrix( 1, 0, 0, 1, -936.65,-78.65) ">
<g>
<g>
<path fill="#595965" stroke="none" d="
M 1137.45 140.7
Q 1137.8 140.7 1137.8 140.35
L 1137.8 138.6
Q 1137.8 138.25 1137.45 138.25
L 1134.95 138.25
Q 1134.6 138.25 1134.6 138.6
L 1134.6 140.35
Q 1134.6 140.7 1134.95 140.7
L 1137.45 140.7 Z"/>
</g>
</g>
</g>

<g transform="matrix( 1, 0, 0, 1, -936.65,-78.65) ">
<g>
<g>
<path fill="#595965" stroke="none" d="
M 948.9 130.15
Q 948.05 129.85 945.8 131.45
L 943.7 133.05
Q 946.6 134.75 951.5 135.2 953.6 135.2 954.65 133.6 955.2 132.8 955.3 132 953.6 131.9 951.05 131
L 948.9 130.15 Z"/>
</g>
</g>
</g>

<g transform="matrix( 1, 0, 0, 1, -936.65,-78.65) ">
<g>
<g>
<path fill="#BABABB" stroke="none" d="
M 1197.1 127.45
L 1190.7 136.5 1201.4 136.5 1215.3 122.75 1215.35 121.5 1208.25 122.15 1197.1 127.45 Z"/>
</g>
</g>
</g>

<g transform="matrix( 1, 0, 0, 1, -936.65,-78.65) ">
<g>
<g>
<path fill="#FFFFFF" stroke="none" d="
M 1196.65 126.65
L 1190.25 135.65 1200.95 135.65 1215.3 121.45 1207.8 121.3 1196.65 126.65 Z"/>
</g>
</g>
</g>

<g transform="matrix( 1, 0, 0, 1, -936.65,-78.65) ">
<g>
<g>
<path fill="#0B0B0B" stroke="none" d="
M 970.2 157.95
Q 970.2 156.65 969.3 155.7 968.35 154.8 967.05 154.8 965.75 154.8 964.8 155.7 963.85 156.65 963.85 157.95 963.85 159.25 964.8 160.2 965.75 161.1 967.05 161.1 968.35 161.1 969.3 160.2 970.2 159.25 970.2 157.95 Z"/>
</g>
</g>
</g>

<g transform="matrix( 1, 0, 0, 1, -936.65,-78.65) ">
<g>
<g>
<path fill="#141414" stroke="none" d="
M 969.4 158.4
Q 969.4 157.15 968.55 156.3 967.65 155.45 966.45 155.45 965.2 155.45 964.35 156.3 963.45 157.15 963.45 158.4 963.45 159.65 964.35 160.5 965.2 161.35 966.45 161.35 967.65 161.35 968.55 160.5 969.4 159.65 969.4 158.4 Z"/>
</g>
</g>
</g>

<g transform="matrix( 1, 0, 0, 1, -936.65,-78.65) ">
<g>
<g>
<path fill="#AD4367" stroke="none" d="
M 1214.05 78.8
L 1202.75 78.65 1155.2 131.35 1197.7 131.35
Q 1203.4 113.25 1214.05 78.8 Z"/>
</g>
</g>
</g>

<g transform="matrix( 1, 0, 0, 1, -936.65,-78.65) ">
<g>
<g>
<path fill="#FFFFFF" stroke="none" d="
M 1208.7 96.45
L 1209.85 90.85
Q 1208.55 93.05 1206.15 95.8 1201.35 101.25 1196.05 103.85 1190 106.8 1185 110.6 1180.45 114 1178.85 116.4 1177.65 118.25 1176.5 117.7
L 1175.65 116.8
Q 1175.7 115.65 1175.4 115.45 1175.3 115.35 1176.35 114.6 1177.65 113.7 1178.05 112.9 1175.5 113.75 1174.65 113.7 1174.1 113.65 1173.1 114.1 1172.25 114.45 1171.8 114.8
L 1170.35 115.5
Q 1169.1 116.05 1168.7 116.6
L 1168.8 117
Q 1169.05 117.45 1169.7 117.75 1170.35 118.05 1171.7 118.55 1172.05 118.85 1173.25 119.15
L 1173.85 119.6
Q 1174.45 120.15 1174.7 120.8 1175.05 121.65 1176.1 122.65 1177.2 123.75 1178.05 123.95 1180.5 124.5 1181.8 124.05 1182.4 123.65 1181.65 123.4 1179.9 123.4 1179.4 122.45 1178.9 121.45 1180.25 121.8 1181.85 122.25 1183.65 124.35 1184.55 126.65 1184.15 127.15 1183.75 127.7 1181.85 128.55 1175.1 129.8 1167.55 134.5 1161.3 138.45 1161 139.65 1160.8 140.45 1161.95 140.35 1174.8 131.35 1187.4 131.35 1188.95 131.35 1188.95 130.3 1188.75 125.9 1188.75 122.35 1188.75 120 1191.3 117.3 1193.15 115.4 1200.7 108.5 1206.4 103.15 1208.7 96.45 Z"/>
</g>
</g>
</g>

<g transform="matrix( 1, 0, 0, 1, -936.65,-78.65) ">
<g>
<g>
<path fill="url(#Gradient_5)" stroke="none" d="
M 1022.1 148.6
Q 1020.3 148.85 1019.6 149.3 1018.7 149.9 1018.3 151.4 1017.65 153.65 1017.75 158 1017.85 161.2 1018.25 163.75 1018.6 166.05 1019.3 167.15 1019.5 167.4 1022.1 167.85 1020.45 164.35 1020.55 157.75 1020.65 151.5 1022.1 148.6 Z"/>
</g>
</g>
</g>
</g>
</g>
</g>
</g>
</g>

<g id="Layer_4" mask="url(#Mask_Mask_1)">
<g transform="matrix( 1, 0, 0, 1, 604.15,378.7) ">
<g id="firetruck">
<g transform="matrix( 1, 0, 0, 1, 0,0) ">
<g id="Layer_1">
<g transform="matrix( 1, 0, 0, 1, 0,0) ">
<g filter="url(#Filter_1)">
<g>
<path fill="url(#Gradient_6)" stroke="none" d="
M 112.75 40.05
L 107.65 36.65 36.65 36.65 36.65 40.05 112.75 40.05 Z"/>
</g>
</g>
</g>
</g>
</g>

<g transform="matrix( 1, 0, 0, 1, 0,0) ">
<g>
<g>
<path fill="#1D1415" stroke="none" d="
M 92.2 29
L 92.25 34.35 105.35 34.35 105.3 29.05 102 26.15 95.25 26.15 92.2 29 Z"/>
</g>
</g>
</g>

<g transform="matrix( 1, 0, 0, 1, 0,0) ">
<g>
<g>
<path fill="#1D1415" stroke="none" d="
M 49.15 29
L 49.2 34.35 62.25 34.35 62.25 29.05 58.9 26.15 52.15 26.15 49.15 29 Z"/>
</g>
</g>
</g>

<g transform="matrix( 1, 0, 0, 1, 0,0) ">
<g>
<g>
<path fill="#B5C7D7" stroke="none" d="
M 46.25 13.8
Q 44.8 15.45 42.9 17.9 39.15 22.8 37.05 26.75
L 46.25 13.8 Z"/>
</g>
</g>
</g>

<g transform="matrix( 1, 0, 0, 1, 0,0) ">
<g>
<g>
<path fill="#C63D68" stroke="none" d="
M 111.2 18.55
L 107.65 14.1
Q 107.35 13.8 107 13.8
L 46.65 13.8
Q 46.25 13.8 46 14.1
L 42.9 18.55 111.2 18.55 Z"/>
</g>
</g>
</g>

<g transform="matrix( 1, 0, 0, 1, 0,0) ">
<g>
<g>
<path fill="#E1E3E4" stroke="none" d="
M 107.95 18.1
Q 108.15 18.1 108.25 17.9 108.35 17.7 108.25 17.55
L 105.65 14.2
Q 105.5 14 105.25 14
L 47.05 14
Q 46.75 14 46.6 14.2
L 44.25 17.7
Q 44.15 17.8 44.25 17.95 44.3 18.1 44.45 18.1
L 107.95 18.1 Z"/>
</g>
</g>
</g>

<g transform="matrix( 1, 0, 0, 1, 0,0) ">
<g>
<g>
<path fill="url(#Gradient_7)" stroke="none" d="
M 92.7 34.1
L 92.7 30.45 92.8 30.25 95.5 27.6 95.65 27.5 101.8 27.5 102 27.6 104.95 30.35 105.05 30.55 105.05 34.1
Q 105.05 34.4 105.35 34.4
L 107.65 34.4 107.85 34.3 111.15 30.95 111.25 30.8 111.25 26.8 37 27.1 38.65 29.05 38.7 29.15 46.1 34.4 46.25 34.45 49.35 34.45
Q 49.6 34.45 49.6 34.15
L 49.6 30.45
Q 49.6 30.3 49.7 30.25
L 52.35 27.6 52.55 27.5 58.7 27.5 58.9 27.6 61.85 30.35 61.9 30.55 61.95 34.15
Q 61.95 34.45 62.2 34.45
L 92.45 34.4
Q 92.8 34.4 92.7 34.1 Z"/>
</g>
</g>
</g>

<g transform="matrix( 0.885955810546875, 0, 0, 0.885955810546875, 55.7,33.65) ">
<g id="Layer_1">
<g transform="matrix( 1, 0, 0, 1, 0,0) ">
<g>
<g>
<path fill="#464B4C" stroke="none" d="
M 5.95 -0.05
Q 6.05 -2.4 4.35 -4.1 2.65 -5.8 0.2 -5.9 -2.25 -5.95 -4 -4.35 -5.8 -2.8 -5.9 -0.45 -5.95 1.9 -4.3 3.6 -2.6 5.35 -0.15 5.4 2.3 5.5 4.05 3.9 5.85 2.3 5.95 -0.05 Z"/>
</g>
</g>
</g>

<g transform="matrix( 1, 0, 0, 1, 0,0) ">
<g>
<g>
<path fill="#A0A7AC" stroke="none" d="
M 3.95 -2.35
Q 2.35 -3.9 0 -4 -2.3 -4.05 -4 -2.65 -5.7 -1.25 -5.8 0.8 -5.85 2.85 -4.25 4.35 -2.7 5.9 -0.35 5.95 2 6.05 3.7 4.65 5.45 3.25 5.5 1.2 5.6 -0.85 3.95 -2.35 Z"/>
</g>
</g>
</g>

<g transform="matrix( 1, 0, 0, 1, -3.35,-1.8) ">
<g id="Layer_1">
<g transform="matrix( 1, 0, 0, 1, 0,0) ">
<g filter="url(#Filter_2)">
<g>
<path fill="#19160D" stroke="none" d="
M 6.25 2.9
Q 6.3 1.8 5.4 0.95 4.55 0.15 3.3 0.1 2.05 0.05 1.1 0.8 0.2 1.6 0.15 2.7 0.1 3.8 0.95 4.6 1.85 5.4 3.1 5.45 4.35 5.5 5.3 4.75 6.2 4 6.25 2.9 Z"/>
</g>
</g>

<g filter="url(#Filter_2)">
<path stroke="#A21E2F" stroke-width="0.25" stroke-linejoin="miter" stroke-linecap="butt" stroke-miterlimit="10" fill="none" d="
M 6.25 2.9
Q 6.2 4 5.3 4.75 4.35 5.5 3.1 5.45 1.85 5.4 0.95 4.6 0.1 3.8 0.15 2.7 0.2 1.6 1.1 0.8 2.05 0.05 3.3 0.1 4.55 0.15 5.4 0.95 6.3 1.8 6.25 2.9 Z"/>
</g>
</g>
</g>
</g>

<g transform="matrix( 1, 0, 0, 1, 0,0) ">
<g>
<g>
<path fill="#A21E2F" stroke="none" d="
M -0.15 0.05
Q -0.55 0.05 -0.9 0.3 -1.2 0.6 -1.2 0.95 -1.2 1.8 -0.2 1.9 0.8 1.9 0.9 1 0.9 0.15 -0.15 0.05 Z"/>
</g>
</g>
</g>
</g>
</g>

<g transform="matrix( 1, 0, 0, 1, 0,0) ">
<g>
<g>
<path fill="url(#Gradient_8)" stroke="none" d="
M 111.25 18.7
Q 111.25 18.45 111.05 18.45
L 43.4 18.45 42.8 18.6 36.95 26.8
Q 36.9 26.95 37 27.1 37.1 27.25 37.3 27.25
L 110.9 27.3
Q 111.25 27.3 111.25 26.95
L 111.25 18.7 Z"/>
</g>
</g>
</g>

<g transform="matrix( 0.885955810546875, 0, 0, 0.885955810546875, 99.1,33.85) ">
<g id="Layer_1">
<g transform="matrix( 1, 0, 0, 1, 0,0) ">
<g>
<g>
<path fill="#464B4C" stroke="none" d="
M 5.95 -0.05
Q 6.05 -2.4 4.35 -4.1 2.65 -5.8 0.2 -5.9 -2.25 -5.95 -4 -4.35 -5.8 -2.8 -5.9 -0.45 -5.95 1.9 -4.3 3.6 -2.6 5.35 -0.15 5.4 2.3 5.5 4.05 3.9 5.85 2.3 5.95 -0.05 Z"/>
</g>
</g>
</g>

<g transform="matrix( 1, 0, 0, 1, 0,0) ">
<g>
<g>
<path fill="#A0A7AC" stroke="none" d="
M 3.95 -2.35
Q 2.35 -3.9 0 -4 -2.3 -4.05 -4 -2.65 -5.7 -1.25 -5.8 0.8 -5.85 2.85 -4.25 4.35 -2.7 5.9 -0.35 5.95 2 6.05 3.7 4.65 5.45 3.25 5.5 1.2 5.6 -0.85 3.95 -2.35 Z"/>
</g>
</g>
</g>

<g transform="matrix( 1, 0, 0, 1, -3.35,-1.8) ">
<g id="Layer_1">
<g transform="matrix( 1, 0, 0, 1, 0,0) ">
<g filter="url(#Filter_2)">
<g>
<path fill="#19160D" stroke="none" d="
M 6.25 2.9
Q 6.3 1.8 5.4 0.95 4.55 0.15 3.3 0.1 2.05 0.05 1.1 0.8 0.2 1.6 0.15 2.7 0.1 3.8 0.95 4.6 1.85 5.4 3.1 5.45 4.35 5.5 5.3 4.75 6.2 4 6.25 2.9 Z"/>
</g>
</g>

<g filter="url(#Filter_2)">
<path stroke="#A21E2F" stroke-width="0.25" stroke-linejoin="miter" stroke-linecap="butt" stroke-miterlimit="10" fill="none" d="
M 6.25 2.9
Q 6.2 4 5.3 4.75 4.35 5.5 3.1 5.45 1.85 5.4 0.95 4.6 0.1 3.8 0.15 2.7 0.2 1.6 1.1 0.8 2.05 0.05 3.3 0.1 4.55 0.15 5.4 0.95 6.3 1.8 6.25 2.9 Z"/>
</g>
</g>
</g>
</g>

<g transform="matrix( 1, 0, 0, 1, 0,0) ">
<g>
<g>
<path fill="#A21E2F" stroke="none" d="
M -0.15 0.05
Q -0.55 0.05 -0.9 0.3 -1.2 0.6 -1.2 0.95 -1.2 1.8 -0.2 1.9 0.8 1.9 0.9 1 0.9 0.15 -0.15 0.05 Z"/>
</g>
</g>
</g>
</g>
</g>

<g transform="matrix( 1, 0, 0, 1, 0,0) ">
<g>
<g>
<path fill="#1D2833" stroke="none" d="
M 42.8 19.95
L 42.75 20 40.25 23.6 40.25 24.95 40.3 25.05 43.9 25.05 43.95 24.95 43.95 20 43.9 19.95 42.8 19.95 Z"/>
</g>
</g>
</g>

<g transform="matrix( 1, 0, 0, 1, 0,0) ">
<g>
<g>
<path fill="#1D2833" stroke="none" d="
M 48.7 23.4
L 48.7 20.05 48.65 19.95 45.05 19.95
Q 45 19.95 45 22.2 45 24.35 45.05 24.95
L 45.1 25.05 47.3 25.05 47.4 25 48.7 23.4 Z"/>
</g>
</g>
</g>

<g transform="matrix( 1, 0, 0, 1, 0,0) ">
<g>
<g>
<path fill="#1D2833" stroke="none" d="
M 52.75 19.95
L 50.15 20 50.15 25.05 52.55 25.05 53.6 23.9 53.6 21 52.85 20.05 52.75 19.95 Z"/>
</g>
</g>
</g>

<g transform="matrix( 1, 0, 0, 1, 0,0) ">
<g>
<g>
<path fill="#EAF3F5" stroke="none" d="
M 111.25 26.75
L 111.25 24.9 50.65 24.9 50.65 26.75 111.25 26.75 Z"/>
</g>
</g>
</g>

<g transform="matrix( 1, 0, 0, 1, 0,0) ">
<g>
<g>
<path fill="#EAF3F5" stroke="none" d="
M 48.85 27.9
L 49.8 27.5 49.75 26.8 37.1 26.8
Q 36.85 26.8 37 26.95
L 38.35 28.55 48.65 28.55 48.85 27.9 Z"/>
</g>
</g>
</g>

<g transform="matrix( 1, 0, 0, 1, 0,0) ">
<g>
<g>
<path fill="#EAF3F5" stroke="none" d="
M 48.25 26.95
L 48.7 28.5 50.65 26.75 50.65 24.9 48.25 26.95 Z"/>
</g>
</g>
</g>

<g transform="matrix( 1, 0, 0, 1, 0,0) ">
<g>
<g>
<path fill="#EAF3F5" stroke="none" d="
M 70 33.45
Q 70.75 33.45 70.75 32.75
L 70.75 29.5
Q 70.75 28.8 70 28.8
L 63.6 28.8
Q 62.9 28.8 62.9 29.5
L 62.9 32.75
Q 62.9 33.45 63.6 33.45
L 70 33.45 Z"/>
</g>
</g>
</g>

<g transform="matrix( 1, 0, 0, 1, 0,0) ">
<g>
<g>
<path fill="#EAF3F5" stroke="none" d="
M 76.5 33.45
Q 77.25 33.45 77.25 32.75
L 77.25 29.55
Q 77.25 28.8 76.5 28.8
L 72.75 28.8
Q 72 28.8 72 29.55
L 72 32.75
Q 72 33.45 72.75 33.45
L 76.5 33.45 Z"/>
</g>
</g>
</g>

<g transform="matrix( 1, 0, 0, 1, 0,0) ">
<g>
<path stroke="#1E1415" stroke-width="0.1" stroke-linejoin="miter" stroke-linecap="butt" stroke-miterlimit="10" fill="none" d="
M 54.85 18.55
L 54.85 26.7"/>
</g>
</g>

<g transform="matrix( 1, 0, 0, 1, 0,0) ">
<g>
<path stroke="#1E1415" stroke-width="0.1" stroke-linejoin="miter" stroke-linecap="butt" stroke-miterlimit="10" fill="none" d="
M 61.35 18.55
L 61.35 26.7"/>
</g>
</g>

<g transform="matrix( 1, 0, 0, 1, 0,0) ">
<g>
<path stroke="#1E1415" stroke-width="0.1" stroke-linejoin="miter" stroke-linecap="butt" stroke-miterlimit="10" fill="none" d="
M 77.05 18.55
L 77.05 26.7"/>
</g>
</g>

<g transform="matrix( 1, 0, 0, 1, 0,0) ">
<g>
<path stroke="#1E1415" stroke-width="0.1" stroke-linejoin="miter" stroke-linecap="butt" stroke-miterlimit="10" fill="none" d="
M 94.7 18.55
L 94.7 26.7"/>
</g>
</g>

<g transform="matrix( 1, 0, 0, 1, 0,0) ">
<g>
<g>
<path fill="#1D2833" stroke="none" d="
M 52.05 15.1
L 53.55 15.1 53.9 14.15 53.9 14 52.55 14.15 52.05 14.9 52.05 15.1 Z"/>
</g>
</g>
</g>

<g transform="matrix( 1, 0, 0, 1, 0,0) ">
<g>
<g>
<path fill="#42515E" stroke="none" d="
M 52.05 14.95
L 53.55 14.95 53.9 14 52.45 14 52.05 14.95 Z"/>
</g>
</g>
</g>

<g transform="matrix( 1, 0, 0, 1, 0,0) ">
<g>
<g>
<path fill="#3E454D" stroke="none" d="
M 107.75 17.05
L 107 16.35 106.9 17.25 107.7 18.15 107.75 17.05 Z"/>
</g>
</g>
</g>

<g transform="matrix( 1, 0, 0, 1, 0,0) ">
<g>
<g>
<path fill="#1D2833" stroke="none" d="
M 109.85 16.35
L 107 16.35 107.5 17.05 107.7 18.15 110.85 18.1
Q 110.65 16.75 109.85 16.35 Z"/>
</g>
</g>
</g>

<g transform="matrix( 1, 0, 0, 1, 0,0) ">
<g>
<path stroke="#1D2833" stroke-width="0.25" stroke-linejoin="miter" stroke-linecap="butt" stroke-miterlimit="10" fill="none" d="
M 107.9 16.65
Q 107.9 16.4 107.95 16.2 108.05 15.7 108.4 15.75 109.85 15.75 110.15 16.7"/>
</g>
</g>

<g transform="matrix( 1, 0, 0, 1, 0,0) ">
<g>
<g>
<path fill="#3E454D" stroke="none" d="
M 106 14.05
L 105.4 13.55 105.35 14.2 105.95 14.85 106 14.05 Z"/>
</g>
</g>
</g>

<g transform="matrix( 1, 0, 0, 1, 0,0) ">
<g>
<g>
<path fill="#1D2833" stroke="none" d="
M 107.55 13.5
L 105.4 13.55 105.8 14.05 105.95 14.85 108.3 14.85
Q 108.15 13.8 107.55 13.5 Z"/>
</g>
</g>
</g>

<g transform="matrix( 1, 0, 0, 1, 0,0) ">
<g>
<path stroke="#1D2833" stroke-width="0.2" stroke-linejoin="miter" stroke-linecap="butt" stroke-miterlimit="10" fill="none" d="
M 106.1 13.75
Q 106.1 13.6 106.15 13.4 106.2 13.05 106.45 13.05 107.6 13.2 107.75 13.8"/>
</g>
</g>

<g transform="matrix( 1, 0, 0, 1, 0,0) ">
<g>
<g>
<path fill="#B5BDC0" stroke="none" d="
M 92.05 14.6
L 93.4 17.35 99.4 17.3 97.4 14.65 92.05 14.6 Z"/>
</g>
</g>
</g>

<g transform="matrix( 1, 0, 0, 1, 0,0) ">
<g>
<g>
<path fill="#4F5E68" stroke="none" d="
M 54.3 14.3
L 58.3 14.4 58.85 12.9 54.9 12.75 54.3 14.3 Z"/>
</g>
</g>
</g>

<g transform="matrix( 1, 0, 0, 1, 0,0) ">
<g>
<g>
<path fill="#1D2833" stroke="none" d="
M 54.3 14.3
L 54.3 16 58.25 16 58.3 14.4 54.3 14.3 Z"/>
</g>
</g>
</g>

<g transform="matrix( 1, 0, 0, 1, 0,0) ">
<g>
<g>
<path fill="#1D2833" stroke="none" d="
M 58.85 12.9
L 58.3 14.4 58.25 16 58.85 14.5 58.85 12.9 Z"/>
</g>
</g>
</g>

<g transform="matrix( 1, 0, 0, 1, 0,0) ">
<g>
<g>
<path fill="#1D2833" stroke="none" d="
M 40.5 16.05
L 40.55 14.6 39.1 14.6
Q 39.05 14.65 39 14.75 38.9 14.9 39 15.05 39.2 15.3 39.75 15.45 39.85 15.55 39.3 15.65 39 15.7 39.05 15.8 39.1 15.9 39.3 15.9
L 40.5 16.05 Z"/>
</g>
</g>
</g>

<g transform="matrix( 1, 0, 0, 1, 0,0) ">
<g>
<g>
<path fill="#63717C" stroke="none" d="
M 48.65 14.95
Q 48.5 14.45 48.1 14.55 47.7 14.75 47.95 15.2 48.15 15.75 48.45 15.6 48.85 15.5 48.65 14.95 Z"/>
</g>
</g>
</g>

<g transform="matrix( 1, 0, 0, 1, 0,0) ">
<g>
<g>
<path fill="#6A7178" stroke="none" d="
M 40.95 15.3
Q 40.95 14.55 40.55 14.55 40.15 14.55 40.15 15.3 40.15 16.05 40.55 16.05 40.95 16.05 40.95 15.3 Z"/>
</g>
</g>
</g>

<g transform="matrix( 1, 0, 0, 1, 0,0) ">
<g>
<g>
<path fill="#1D2833" stroke="none" d="
M 47.15 14.3
Q 46.3 14.2 45.75 14.35
L 45.35 14.5 43.05 14.55 42.75 14.85
Q 42.6 15.15 42.65 15.75 42.65 16.05 42.7 16.3
L 43.7 16.3 43.75 16.65 44.8 16.7
Q 46.1 16.7 47.25 16.55 48.4 16.45 48.65 15.9 48.75 15.6 48.65 15.35 48.65 15.65 48.4 15.55 48.2 15.45 48.15 14.95
L 48.1 14.5 47.15 14.3 Z"/>
</g>
</g>
</g>

<g transform="matrix( 1, 0, 0, 1, 0,0) ">
<g>
<g>
<path fill="#1D2833" stroke="none" d="
M 42.9 15.85
L 42.95 14.8 40.55 14.8 40.4 15
Q 40.25 15.25 40.4 15.6
L 40.5 15.75
Q 40.65 15.85 40.85 15.85
L 42.9 15.85 Z"/>
</g>
</g>
</g>
</g>
</g>
</g>
</svg>
